<svg width="21" height="25" viewBox="0 0 21 25" fill="none" xmlns="http://www.w3.org/2000/svg">
<path d="M16.9482 2.48429C16.138 2.08834 15.2406 1.90439 14.3399 1.94964C13.4393 1.9949 12.5649 2.26789 11.7984 2.74307C10.5822 1.061 8.71896 0 6.6746 0C4.63023 0 2.74114 1.00924 1.47311 2.79483C0.737595 3.84354 0.260423 5.05128 0.0805314 6.31951C-0.09936 7.58775 0.0231252 8.88054 0.437994 10.0924V10.1442L0.903798 11.2311V11.2828C1.32448 12.0922 1.903 12.8092 2.60524 13.3914C3.30747 13.9737 4.11919 14.4094 4.99253 14.6728L4.68199 16.1738C4.65913 16.2857 4.66126 16.4013 4.68824 16.5124C4.71521 16.6234 4.76637 16.7271 4.83805 16.8161C4.90974 16.9051 5.00018 16.9772 5.10293 17.0272C5.20568 17.0772 5.31819 17.1039 5.43245 17.1054H6.20879C6.26055 17.5453 6.20879 18.3475 5.58772 19.4344C4.34557 21.634 5.51009 23.6008 6.38994 24.403C6.54093 24.5437 6.74163 24.6186 6.94789 24.6113C7.15414 24.6041 7.34906 24.5152 7.48975 24.3642C7.63045 24.2132 7.7054 24.0125 7.69812 23.8062C7.69085 23.6 7.60193 23.405 7.45094 23.2643C7.29567 23.135 6.02765 21.8669 6.95926 20.1849C7.89086 18.5028 7.83911 17.83 7.78735 17.1054H8.2014C8.31566 17.1039 8.42818 17.0772 8.53092 17.0272C8.63367 16.9772 8.72412 16.9051 8.7958 16.8161C8.86748 16.7271 8.91864 16.6234 8.94562 16.5124C8.97259 16.4013 8.97473 16.2857 8.95186 16.1738L8.61545 14.5952C9.34267 14.3385 10.0177 13.9528 10.6081 13.4566C11.2156 14.0894 11.9589 14.576 12.7818 14.8799L12.4454 16.4584C12.4225 16.5704 12.4247 16.686 12.4516 16.797C12.4786 16.9081 12.5298 17.0118 12.6015 17.1008C12.6731 17.1898 12.7636 17.2618 12.8663 17.3118C12.9691 17.3618 13.0816 17.3885 13.1959 17.39H13.9204C13.9981 17.83 13.9722 18.6322 13.2994 19.8226C12.0572 22.0222 13.2217 23.9889 14.1016 24.7911C14.2526 24.9318 14.4533 25.0068 14.6595 24.9995C14.8658 24.9922 15.0607 24.9033 15.2014 24.7523C15.3421 24.6013 15.4171 24.4006 15.4098 24.1944C15.4025 23.9881 15.3136 23.7932 15.1626 23.6525C15.0073 23.5231 13.7393 22.2551 14.6709 20.573C15.6025 18.891 15.5508 18.1146 15.4731 17.39H15.8354C15.9497 17.3885 16.0622 17.3618 16.1649 17.3118C16.2677 17.2618 16.3581 17.1898 16.4298 17.1008C16.5015 17.0118 16.5527 16.9081 16.5796 16.797C16.6066 16.686 16.6087 16.5704 16.5859 16.4584L16.2753 14.9316C18.7079 14.1035 20.4935 11.5675 20.4935 8.5915C20.4935 5.61553 19.1737 3.54529 16.9482 2.48429ZM7.24391 15.5527H7.06277C6.89533 15.4935 6.71265 15.4935 6.54521 15.5527H6.38994L6.51933 14.9057H7.08865L7.24391 15.5527ZM6.6746 13.3531C4.88901 13.3531 3.28458 12.3179 2.32709 10.5582L1.88716 9.54899C1.56096 8.57547 1.46829 7.53887 1.61664 6.52292C1.76499 5.50698 2.15019 4.54016 2.74114 3.70056C3.17501 3.05191 3.75932 2.51782 4.44423 2.14382C5.12915 1.76982 5.89435 1.56701 6.6746 1.55268C9.46942 1.55268 11.7726 4.21812 11.7726 7.47875C11.7726 10.7394 9.46942 13.3789 6.6746 13.3789V13.3531ZM14.9297 15.8373H14.1792L14.3086 15.1904H14.7744L14.9297 15.8373ZM14.6192 13.6636C14.0696 13.6569 13.527 13.5388 13.0244 13.3164C12.5218 13.094 12.0695 12.772 11.6949 12.3697C12.7652 10.965 13.3386 9.24465 13.3252 7.47875C13.3341 6.30106 13.0869 5.13552 12.6007 4.06285C13.1461 3.71967 13.7707 3.52272 14.4143 3.491C15.0579 3.45927 15.6988 3.59383 16.2753 3.8817C17.9574 4.68392 18.9925 6.4695 18.9925 8.56562C18.9925 11.3605 17.0258 13.6377 14.6192 13.6377V13.6636Z" fill="#F19000"/>
</svg>
