<svg width="32" height="23" viewBox="0 0 32 23" fill="none" xmlns="http://www.w3.org/2000/svg">
<path d="M15.789 0.501477L15.789 0.501502L15.794 0.501021C15.8157 0.498916 15.8376 0.50007 15.859 0.504445L15.8605 0.504741L26.8999 2.72833C26.9002 2.7284 26.9006 2.72848 26.9009 2.72855C26.9523 2.73948 26.9981 2.76854 27.0299 2.81045L27.0305 2.8113L31.0828 8.13203C31.0832 8.13248 31.0835 8.13294 31.0839 8.1334C31.104 8.16085 31.1175 8.19263 31.1232 8.22622L31.6161 8.14215L31.1232 8.22623C31.1291 8.26038 31.1267 8.29543 31.1164 8.32849C31.106 8.36155 31.0879 8.39169 31.0637 8.41642L31.4206 8.76659L31.0637 8.41642C31.0399 8.44067 31.0108 8.45904 30.9787 8.4701L27.5224 9.58105L27.1754 9.69258V10.0571V18.6914C27.1744 18.7362 27.1596 18.7797 27.1331 18.8159L27.5363 19.1116L27.1331 18.8159C27.1063 18.8524 27.0689 18.8797 27.0259 18.8941C27.0256 18.8942 27.0253 18.8943 27.0249 18.8944L15.8843 22.4881L15.8816 22.489C15.8372 22.5037 15.7892 22.5037 15.7448 22.489L15.742 22.4881L4.60143 18.8944C4.60109 18.8943 4.60074 18.8942 4.6004 18.8941C4.55747 18.8797 4.52004 18.8524 4.49327 18.8159C4.46671 18.7797 4.45194 18.7362 4.45093 18.6914V10.0571V9.69258L4.10393 9.58105L0.647646 8.4701C0.615552 8.45904 0.58646 8.44066 0.562674 8.41642L0.207101 8.76528L0.562672 8.41642C0.53841 8.39169 0.52036 8.36155 0.510007 8.32849C0.499653 8.29543 0.497292 8.26038 0.503118 8.22623C0.508848 8.19263 0.522338 8.16085 0.542505 8.1334L4.59583 2.8113L4.59648 2.81045C4.62826 2.76853 4.67405 2.73947 4.72548 2.72854C4.72582 2.72847 4.72616 2.7284 4.7265 2.72833L15.7651 0.504898C15.7652 0.504879 15.7653 0.50486 15.7654 0.50484C15.7732 0.50329 15.7811 0.502167 15.789 0.501477ZM15.9118 0.962247L15.8132 0.942424L15.7146 0.962247L7.50314 2.61353L7.48846 3.59072L15.6999 5.50036L15.8132 5.5267L15.9264 5.50036L24.1379 3.59072L24.1232 2.61353L15.9118 0.962247ZM5.01922 3.45925L4.704 3.38579L4.50793 3.64332L1.49743 7.5974L1.06925 8.15979L1.74212 8.37626L11.4139 11.4879L11.7681 11.6018L11.979 11.2953L15.2478 6.54363L15.6633 5.93966L14.9494 5.77329L5.01922 3.45925ZM27.1184 3.64332L26.9224 3.38579L26.6071 3.45925L16.677 5.77329L15.963 5.93966L16.3785 6.54363L19.6474 11.2953L19.8583 11.6018L20.2125 11.4879L29.8842 8.37626L30.5571 8.15979L30.1289 7.5974L27.1184 3.64332ZM15.5943 8.42825V6.8177L14.6822 8.14508L12.0444 11.9838C12.0442 11.9842 12.0439 11.9846 12.0437 11.9849C12.0166 12.0233 11.9779 12.0519 11.9332 12.0666L12.0894 12.5415L11.9332 12.0666C11.8882 12.0814 11.8396 12.0812 11.7947 12.066L11.7947 12.0659L11.7877 12.0637L5.542 10.0529L4.88878 9.84261V10.5289V18.1674V18.5314L5.23513 18.6432L14.9406 21.7773L15.5943 21.9884V21.3015V8.42825ZM16.9442 8.14508L16.0321 6.8177V8.42825V21.3015V21.9884L16.6857 21.7773L26.3912 18.6432L26.7376 18.5314V18.1674V10.5289V9.84261L26.0844 10.0529L19.8387 12.0637L19.8387 12.0636L19.8317 12.066C19.7868 12.0812 19.7382 12.0814 19.6931 12.0666L19.537 12.5415L19.6931 12.0666C19.6485 12.0519 19.6098 12.0232 19.5827 11.9849C19.5824 11.9845 19.5822 11.9842 19.5819 11.9838L16.9442 8.14508Z" fill="#F19000" stroke="#F19000"/>
</svg>
