<svg width="30" height="27" viewBox="0 0 30 27" fill="none" xmlns="http://www.w3.org/2000/svg">
<path d="M28.4043 19.294C29.1986 18.4997 29.1986 17.2077 28.4043 16.4134L23.4673 11.4764C24.236 11.4559 24.9989 11.1559 25.5841 10.5704L26.3584 9.79607L19.8344 3.26738C19.8322 3.26521 19.8291 3.26458 19.8269 3.26241C19.7846 3.22134 19.7349 3.18774 19.6785 3.16409C19.6729 3.16161 19.6673 3.16067 19.6617 3.15849C19.6409 3.15072 19.6201 3.14201 19.5977 3.13703L10.1286 1L9.93918 1.18884C9.24011 1.88667 8.54322 2.58916 7.84664 3.29196C6.64979 4.4997 5.41468 5.74384 4.18174 6.94722L1.68756 4.45272L1 5.13997L3.87405 8.01433C3.88836 8.0722 3.90174 8.12913 3.91605 8.187C3.95463 8.34286 3.99352 8.50029 4.03241 8.66269C4.8189 11.804 5.10761 12.6091 5.23579 12.8593C5.23672 12.8618 5.23828 12.8636 5.23921 12.8661C5.26472 12.9153 5.28401 12.9423 5.29957 12.9613C5.3033 12.9666 5.30859 12.9707 5.31232 12.9756C5.32415 12.9906 5.32943 13.0083 5.34312 13.022L5.4377 13.1166L8.02709 15.706L7.01722 20.1735L5.34188 21.8492L6.02913 22.5364L7.33362 21.2316C7.66246 21.5592 7.99162 21.8865 8.32171 22.2132C9.07336 22.9573 9.84336 23.7242 10.5956 24.4936L9.29113 25.7984L9.97838 26.4857L11.9048 24.5593C14.1215 24.0014 14.3492 23.8692 14.4463 23.7905C14.4556 23.7834 14.4631 23.775 14.4721 23.7675C14.4808 23.7597 14.492 23.7569 14.5004 23.7485L15.2847 22.9639L15.3852 23.0644L17.2148 24.894C17.614 25.2932 18.1379 25.4926 18.6609 25.4926C19.1814 25.4926 19.7009 25.2947 20.0964 24.8996L20.1909 24.805C20.4616 24.5344 20.6442 24.1996 20.7295 23.8347L21.1563 24.2615C21.5536 24.6588 22.0747 24.857 22.5965 24.857C23.1182 24.857 23.6399 24.6585 24.0372 24.2612L24.1306 24.1679C24.4006 23.8978 24.5829 23.564 24.6685 23.2L24.9457 23.4772C25.343 23.8745 25.8644 24.0727 26.3861 24.0727C26.9079 24.0727 27.4293 23.8742 27.8266 23.4772L27.9202 23.3836C28.7145 22.5893 28.7145 21.2973 27.9202 20.503L27.3428 19.9256C27.7065 19.8397 28.0406 19.6574 28.3103 19.3873L28.4043 19.294ZM7.94651 20.4713L8.94673 16.0479L8.985 16.186L9.14056 15.4449L9.09358 15.398L9.10416 15.3504L9.11567 15.3L11.2256 13.19C11.5722 13.6184 11.5486 14.2478 11.1575 14.6503L9.97278 15.8354L9.97403 15.8366C9.95225 15.8584 9.94167 15.8858 9.92487 15.9107C9.90029 15.9468 9.87665 15.9825 9.86296 16.0227L10.4939 16.6169L13.3238 13.787L13.3599 13.8231L15.677 11.5059C15.8534 11.3299 16.1403 11.3299 16.3164 11.5059L16.373 11.5626C16.5491 11.739 16.5491 12.0255 16.373 12.2019L14.0829 14.492L14.4267 14.8358L14.3859 14.8491L14.7434 15.2066L18.151 11.7987C18.2356 11.7141 18.3492 11.6674 18.4708 11.6674C18.5924 11.6674 18.7057 11.7141 18.7903 11.7987L18.8469 11.8553C19.023 12.0317 19.023 12.3183 18.8469 12.4947L15.4387 15.9023L16.126 16.5895L18.6248 14.0907C18.7129 14.0023 18.8289 13.9584 18.9446 13.9584C19.0604 13.9584 19.1764 14.0026 19.2648 14.091L19.3211 14.147C19.4975 14.3234 19.4975 14.6102 19.3214 14.7866L16.8222 17.2858L17.5101 17.9736L19.0081 16.4756C19.1854 16.298 19.4732 16.2977 19.6502 16.4747L19.7069 16.531C19.8795 16.7034 19.8808 16.9846 19.7118 17.1623L19.3687 17.5057L13.8723 23.0025C13.694 23.0737 12.9697 23.2909 11.5501 23.6465C11.5479 23.6471 11.5461 23.6474 11.5439 23.648L11.2079 23.7298C11.1438 23.6642 11.0791 23.5992 11.0147 23.5335C10.3455 22.8541 9.66882 22.1786 9.00585 21.5222C8.65211 21.1725 8.29869 20.8225 7.94651 20.4713ZM19.504 24.1181L19.4091 24.2127C18.9956 24.6268 18.3196 24.6237 17.9024 24.2071L16.0728 22.3774L15.9723 22.2769L17.5708 20.6785L19.5009 22.6086C19.7016 22.8096 19.8126 23.0774 19.8136 23.3637C19.8145 23.6496 19.7044 23.9174 19.504 24.1181ZM23.4433 23.4813L23.35 23.5746C22.9499 23.9747 22.244 23.9747 21.8439 23.5746L18.2596 19.99L19.859 18.3905L23.4436 21.9749C23.859 22.3902 23.859 23.0659 23.4433 23.4813ZM27.7171 18.6068L27.6231 18.7004C27.2239 19.1002 26.518 19.1002 26.1179 18.701L22.4894 15.0722L21.8022 15.7595L25.4301 19.3873C25.4304 19.3877 25.431 19.3883 25.4313 19.3886L27.233 21.1902C27.4327 21.3903 27.5428 21.6575 27.5428 21.9434C27.5428 22.2287 27.4327 22.4963 27.233 22.6963L27.1393 22.79C26.7392 23.1901 26.0333 23.1901 25.6332 22.79L20.5462 17.703L20.5749 17.6744C20.6657 17.5835 20.7105 17.4653 20.7142 17.3461C20.7845 17.157 20.8163 16.9572 20.8038 16.7581C20.783 16.4246 20.648 16.0973 20.3938 15.8432L20.3372 15.7868C20.2245 15.6742 20.0948 15.5902 19.9592 15.5233L20.0083 15.4742C20.5633 14.9188 20.5633 14.0154 20.0077 13.4594L19.9514 13.4034C19.8375 13.2895 19.7065 13.2049 19.5693 13.1377C20.0842 12.5796 20.0749 11.7094 19.5333 11.1678L19.4766 11.1111C19.2085 10.8426 18.8507 10.6949 18.4696 10.6949C18.0884 10.6949 17.7307 10.8426 17.4625 11.1111L17.3219 11.2518C17.255 11.1167 17.1716 10.9876 17.059 10.875L17.003 10.8184C16.4476 10.2634 15.5442 10.2637 14.9888 10.8184L12.387 13.4202C12.3033 13.0519 12.1204 12.7019 11.8345 12.4156L11.2297 11.8108L9.07616 13.9643L8.36807 14.6724L6.12308 12.4275C6.10908 12.4135 6.09508 12.4019 6.08326 12.3864C5.9641 12.1425 5.5497 10.7201 4.97663 8.43184C4.93899 8.27473 4.9001 8.11731 4.86152 7.96113L5.02828 7.79437L4.86899 7.63509C6.10473 6.4289 7.33984 5.18446 8.53669 3.97672C9.16949 3.33832 9.80198 2.70054 10.4363 2.06618L19.2458 4.05419L24.9836 9.79638L24.8965 9.88349C24.0733 10.7067 22.7418 10.716 21.9049 9.9146L17.9771 5.98588L17.9469 6.01606C17.9444 6.01512 17.9419 6.01544 17.9394 6.0145C17.8875 5.9949 17.8343 5.98495 17.7808 5.9837C17.7727 5.98339 17.7649 5.98308 17.7568 5.98339C17.7024 5.98464 17.6495 5.99521 17.5988 6.01419C17.591 6.01699 17.5832 6.01979 17.5754 6.02321C17.5238 6.04561 17.4762 6.07704 17.4345 6.11686C17.4314 6.11997 17.427 6.12059 17.4239 6.1237C17.4217 6.12588 17.4211 6.12899 17.4186 6.13148C17.3906 6.16041 17.3648 6.19184 17.3443 6.22855C17.2488 6.39748 17.1284 6.55646 16.9964 6.70984C16.4212 7.37935 15.5264 7.88957 14.4879 8.11171C13.4759 8.32762 12.513 8.21655 11.9757 7.81989C11.7598 7.66029 11.4555 7.70633 11.2959 7.92255C11.1367 8.13878 11.1827 8.44304 11.3989 8.60233C11.9241 8.98967 12.6673 9.1922 13.5002 9.1922C13.8825 9.1922 14.2835 9.14958 14.6914 9.06247C15.906 8.80269 16.9688 8.19944 17.6843 7.39802C17.736 7.34015 17.786 7.28166 17.834 7.22162L21.1831 10.5707C21.1943 10.5819 21.2064 10.591 21.2176 10.6018L27.7167 17.101C27.9165 17.301 28.0266 17.5683 28.0266 17.8539C28.0269 18.1392 27.9168 18.4067 27.7171 18.6068Z" fill="#3B2B15" stroke="#3B2B15" stroke-width="0.5"/>
</svg>
