<svg width="97" height="104" viewBox="0 0 97 104" fill="none" xmlns="http://www.w3.org/2000/svg">
<path d="M64.9213 71.6687C63.6324 76.481 70.5219 78.2847 71.5477 73.3687C73.9744 62.3923 75.6116 51.1047 75.634 39.8646C75.652 30.3709 74.1632 18.9152 66.5929 12.2828C58.297 4.98427 51.0896 15.7483 48.8672 22.9289C46.8003 29.7148 46.5077 36.82 46.7534 43.9094C41.364 37.5286 35.6874 31.4907 28.7825 26.6407C21.9295 21.6591 10.5546 18.3153 5.81159 28.2266C1.01672 38.2695 9.28424 47.7609 15.9096 54.4769C23.1289 61.8071 31.2895 68.2921 40.2438 73.3419C50.2904 78.8984 60.9993 82.9677 72.0953 85.6695C73.8177 86.1204 74.237 83.3215 72.4229 82.9104C51.2158 77.515 31.2583 64.7076 16.7323 48.3407C13.1008 44.249 8.59637 38.9011 9.72206 32.9603C11.0514 25.7317 18.0409 26.5107 23.124 29.4265C33.1986 35.298 40.7323 45.1083 48.051 53.9217C49.9006 56.1709 53.1746 54.4212 53.0037 51.7696C52.5309 43.9067 52.1897 36.0955 53.5949 28.2888C54.2336 24.7403 55.2633 20.5858 57.5725 17.6197C61.2777 12.8478 64.7258 17.0192 66.7545 20.9351C70.6404 28.6234 70.2397 37.7382 69.572 45.9877C68.6969 54.7635 67.2038 63.3717 64.9213 71.6687Z" fill="#3C2C16"/>
</svg>
