<svg width="870" height="794" viewBox="0 0 870 794" fill="none" xmlns="http://www.w3.org/2000/svg">
<path d="M432.722 92.2906L435 94.9486L437.278 92.2906C484.14 37.6092 555.961 3 630.75 3C763.091 3 867 106.277 867 237.733C867 318.434 830.501 391.901 765.731 470.587C701.001 549.223 608.355 632.702 496.456 733.527L496.067 733.878L496.062 733.882L434.992 789.124L373.936 734.312L373.929 734.306L372.375 732.903C261 632.335 168.774 549.057 104.27 470.642C39.4989 391.901 3 318.434 3 237.733C3 106.277 106.909 3 239.25 3C314.039 3 385.86 37.6092 432.722 92.2906Z" stroke="#F8A326" stroke-width="6"/>
</svg>
