<svg width="150" height="157" viewBox="0 0 150 157" fill="none" xmlns="http://www.w3.org/2000/svg">
<path d="M65.8908 116.214C59.0511 119.009 63.1014 128.764 69.8275 125.565C84.9676 118.584 99.7671 110.392 113.062 100.335C124.29 91.8395 136.484 79.8046 137.526 64.914C138.703 48.5691 119.525 49.7135 109.051 53.5303C99.1826 57.1769 90.5287 63.2053 82.3765 69.8552C85.0775 57.7662 87.116 45.6456 86.6496 33.14C86.3851 20.5776 80.1299 4.14409 64.1697 7.43386C48.0076 10.7804 44.2147 29.0591 42.2266 42.9085C40.0461 58.0104 39.7078 73.4657 41.7767 88.5709C44.2273 105.421 49.0282 121.719 55.7914 137.247C56.804 139.685 60.4857 137.67 59.3438 135.158C46.6912 105.273 43.9133 70.2133 50.2116 38.3754C51.7862 30.416 54.0612 20.2987 62.0872 16.2987C71.8167 11.384 77.1669 20.3375 78.2833 28.9564C80.3868 46.1217 75.5592 63.8198 71.716 80.3697C70.7189 84.5718 75.7223 86.8687 78.7005 84.2882C87.5627 76.6761 96.4815 69.2659 106.962 63.9221C111.726 61.4931 117.556 58.9822 123.13 59.0487C132.09 59.1437 130.257 66.958 127.452 72.8668C121.858 84.3531 110.734 92.0567 100.392 98.6686C89.2429 105.508 77.7372 111.467 65.8908 116.214Z" fill="#F8A326"/>
</svg>
