<svg width="185" height="25" viewBox="0 0 185 25" fill="none" xmlns="http://www.w3.org/2000/svg">
<path d="M10.0626 20.1389C8.16869 20.1389 6.45176 19.7293 4.91183 18.9103C3.38961 18.0734 2.18599 16.9249 1.30097 15.4647C0.433657 13.9868 0 12.3219 0 10.4701C0 8.61823 0.433657 6.96225 1.30097 5.50214C2.18599 4.02422 3.38961 2.87571 4.91183 2.05662C6.45176 1.21973 8.17754 0.801283 10.0892 0.801283C11.6999 0.801283 13.1513 1.08618 14.4434 1.65598C15.7533 2.22578 16.8507 3.04487 17.7357 4.11325L14.9745 6.67735C13.7177 5.21724 12.1601 4.48718 10.3016 4.48718C9.15106 4.48718 8.12444 4.74537 7.22172 5.26175C6.31901 5.76033 5.611 6.46368 5.09769 7.37179C4.60208 8.27991 4.35427 9.31268 4.35427 10.4701C4.35427 11.6275 4.60208 12.6603 5.09769 13.5684C5.611 14.4765 6.31901 15.1887 7.22172 15.7051C8.12444 16.2037 9.15106 16.453 10.3016 16.453C12.1601 16.453 13.7177 15.714 14.9745 14.2361L17.7357 16.8002C16.8507 17.8864 15.7533 18.7144 14.4434 19.2842C13.1336 19.854 11.6733 20.1389 10.0626 20.1389Z" fill="black"/>
<path d="M31.8323 8.86752H27.0001V19.8184H22.8848V8.86752H18.0526V5.44872H31.8323V8.86752Z" fill="black"/>
<path d="M42.4567 5.23504C43.7842 5.23504 44.9878 5.54665 46.0675 6.16987C47.1649 6.77528 48.0234 7.63889 48.6429 8.76068C49.2624 9.86467 49.5722 11.1556 49.5722 12.6335C49.5722 14.1115 49.2624 15.4113 48.6429 16.5331C48.0234 17.6371 47.1649 18.5007 46.0675 19.1239C44.9878 19.7293 43.7842 20.0321 42.4567 20.0321C40.6335 20.0321 39.1998 19.4533 38.1555 18.2959V25H34.0136V5.44872H37.9696V7.1047C38.9962 5.85826 40.4919 5.23504 42.4567 5.23504ZM41.7398 16.6132C42.8018 16.6132 43.6691 16.2571 44.3417 15.5449C45.0321 14.8148 45.3772 13.8444 45.3772 12.6335C45.3772 11.4227 45.0321 10.4612 44.3417 9.74893C43.6691 9.01887 42.8018 8.65385 41.7398 8.65385C40.6778 8.65385 39.8016 9.01887 39.1113 9.74893C38.4387 10.4612 38.1024 11.4227 38.1024 12.6335C38.1024 13.8444 38.4387 14.8148 39.1113 15.5449C39.8016 16.2571 40.6778 16.6132 41.7398 16.6132Z" fill="black"/>
<path d="M57.7908 5.23504C60.0033 5.23504 61.7025 5.76923 62.8885 6.83761C64.0744 7.88818 64.6674 9.48184 64.6674 11.6186V19.8184H60.791V18.0288C60.0122 19.3643 58.5607 20.0321 56.4367 20.0321C55.3393 20.0321 54.3835 19.8451 53.5693 19.4712C52.7728 19.0972 52.1621 18.5808 51.7373 17.922C51.3125 17.2632 51.1001 16.5153 51.1001 15.6784C51.1001 14.3429 51.5957 13.2924 52.5869 12.5267C53.5958 11.761 55.1446 11.3782 57.2332 11.3782H60.5255C60.5255 10.4701 60.2511 9.77564 59.7024 9.29487C59.1537 8.7963 58.3306 8.54701 57.2332 8.54701C56.4721 8.54701 55.7198 8.67165 54.9764 8.92094C54.2507 9.15242 53.6312 9.47293 53.1179 9.88248L51.6311 6.97115C52.4099 6.41916 53.3392 5.99181 54.4189 5.6891C55.5163 5.3864 56.6403 5.23504 57.7908 5.23504ZM57.4722 17.2276C58.1802 17.2276 58.8086 17.0673 59.3573 16.7468C59.906 16.4085 60.2954 15.9188 60.5255 15.2778V13.8088H57.6846C55.9854 13.8088 55.1357 14.3697 55.1357 15.4915C55.1357 16.0256 55.3393 16.453 55.7464 16.7735C56.1712 17.0762 56.7465 17.2276 57.4722 17.2276Z" fill="black"/>
<path d="M80.2662 8.86752H75.434V19.8184H71.3187V8.86752H66.4865V5.44872H80.2662V8.86752Z" fill="black"/>
<path d="M88.5684 20.0321C87.0638 20.0321 85.7098 19.7204 84.5061 19.0972C83.3202 18.4562 82.3909 17.5748 81.7183 16.453C81.0457 15.3312 80.7094 14.058 80.7094 12.6335C80.7094 11.209 81.0457 9.9359 81.7183 8.8141C82.3909 7.69231 83.3202 6.8198 84.5061 6.19658C85.7098 5.55556 87.0638 5.23504 88.5684 5.23504C90.0729 5.23504 91.4181 5.55556 92.604 6.19658C93.7899 6.8198 94.7192 7.69231 95.3918 8.8141C96.0644 9.9359 96.4007 11.209 96.4007 12.6335C96.4007 14.058 96.0644 15.3312 95.3918 16.453C94.7192 17.5748 93.7899 18.4562 92.604 19.0972C91.4181 19.7204 90.0729 20.0321 88.5684 20.0321ZM88.5684 16.6132C89.6304 16.6132 90.4977 16.2571 91.1703 15.5449C91.8606 14.8148 92.2058 13.8444 92.2058 12.6335C92.2058 11.4227 91.8606 10.4612 91.1703 9.74893C90.4977 9.01887 89.6304 8.65385 88.5684 8.65385C87.5063 8.65385 86.6302 9.01887 85.9399 9.74893C85.2495 10.4612 84.9044 11.4227 84.9044 12.6335C84.9044 13.8444 85.2495 14.8148 85.9399 15.5449C86.6302 16.2571 87.5063 16.6132 88.5684 16.6132Z" fill="black"/>
<path d="M106.046 20.0321C104.524 20.0321 103.152 19.7204 101.931 19.0972C100.727 18.4562 99.7805 17.5748 99.0902 16.453C98.4176 15.3312 98.0813 14.058 98.0813 12.6335C98.0813 11.209 98.4176 9.9359 99.0902 8.8141C99.7805 7.69231 100.727 6.8198 101.931 6.19658C103.152 5.55556 104.524 5.23504 106.046 5.23504C107.551 5.23504 108.861 5.55556 109.976 6.19658C111.109 6.8198 111.932 7.71902 112.445 8.89423L109.232 10.6303C108.489 9.31268 107.418 8.65385 106.02 8.65385C104.94 8.65385 104.046 9.00997 103.338 9.72222C102.63 10.4345 102.276 11.4049 102.276 12.6335C102.276 13.8622 102.63 14.8326 103.338 15.5449C104.046 16.2571 104.94 16.6132 106.02 16.6132C107.436 16.6132 108.507 15.9544 109.232 14.6368L112.445 16.3996C111.932 17.5392 111.109 18.4295 109.976 19.0705C108.861 19.7115 107.551 20.0321 106.046 20.0321Z" fill="black"/>
<path d="M134.507 12.5801C134.507 14.8059 133.764 16.5687 132.277 17.8686C130.808 19.1506 128.702 19.8896 125.958 20.0855V25H122.162V20.0855C119.418 19.8896 117.303 19.1595 115.816 17.8953C114.347 16.6132 113.612 14.8415 113.612 12.5801C113.612 10.3543 114.338 8.62714 115.789 7.3985C117.259 6.16987 119.383 5.45762 122.162 5.26175V0H125.958V5.26175C128.702 5.45762 130.808 6.17877 132.277 7.42521C133.764 8.67165 134.507 10.39 134.507 12.5801ZM117.621 12.5801C117.621 13.8622 117.984 14.8504 118.71 15.5449C119.436 16.2393 120.586 16.6756 122.162 16.8536V8.49359C120.586 8.65385 119.436 9.07229 118.71 9.74893C117.984 10.4078 117.621 11.3515 117.621 12.5801ZM125.958 16.8536C127.534 16.6756 128.684 16.2393 129.41 15.5449C130.153 14.8504 130.525 13.8622 130.525 12.5801C130.525 11.3515 130.153 10.4078 129.41 9.74893C128.684 9.07229 127.534 8.65385 125.958 8.49359V16.8536Z" fill="black"/>
<path d="M151.198 12.687C151.198 12.7404 151.171 13.1143 151.118 13.8088H140.312C140.507 14.6991 140.967 15.4024 141.693 15.9188C142.419 16.4352 143.321 16.6934 144.401 16.6934C145.144 16.6934 145.799 16.5865 146.366 16.3729C146.95 16.1414 147.49 15.7853 147.985 15.3045L150.189 17.7083C148.844 19.2575 146.879 20.0321 144.295 20.0321C142.684 20.0321 141.259 19.7204 140.02 19.0972C138.781 18.4562 137.825 17.5748 137.153 16.453C136.48 15.3312 136.144 14.058 136.144 12.6335C136.144 11.2269 136.471 9.96261 137.126 8.84081C137.799 7.70121 138.71 6.8198 139.861 6.19658C141.029 5.55556 142.33 5.23504 143.764 5.23504C145.162 5.23504 146.428 5.53775 147.561 6.14316C148.693 6.74858 149.578 7.62108 150.216 8.76068C150.87 9.88248 151.198 11.1912 151.198 12.687ZM143.79 8.38675C142.852 8.38675 142.065 8.65385 141.427 9.18803C140.79 9.72222 140.401 10.4523 140.259 11.3782H147.295C147.153 10.4701 146.764 9.74893 146.127 9.21474C145.49 8.66275 144.711 8.38675 143.79 8.38675Z" fill="black"/>
<path d="M162.789 5.23504C164.117 5.23504 165.32 5.54665 166.4 6.16987C167.498 6.77528 168.356 7.63889 168.976 8.76068C169.595 9.86467 169.905 11.1556 169.905 12.6335C169.905 14.1115 169.595 15.4113 168.976 16.5331C168.356 17.6371 167.498 18.5007 166.4 19.1239C165.32 19.7293 164.117 20.0321 162.789 20.0321C160.966 20.0321 159.532 19.4533 158.488 18.2959V25H154.346V5.44872H158.302V7.1047C159.329 5.85826 160.825 5.23504 162.789 5.23504ZM162.072 16.6132C163.134 16.6132 164.002 16.2571 164.674 15.5449C165.365 14.8148 165.71 13.8444 165.71 12.6335C165.71 11.4227 165.365 10.4612 164.674 9.74893C164.002 9.01887 163.134 8.65385 162.072 8.65385C161.01 8.65385 160.134 9.01887 159.444 9.74893C158.771 10.4612 158.435 11.4227 158.435 12.6335C158.435 13.8444 158.771 14.8148 159.444 15.5449C160.134 16.2571 161.01 16.6132 162.072 16.6132Z" fill="black"/>
<path d="M178.123 5.23504C180.336 5.23504 182.035 5.76923 183.221 6.83761C184.407 7.88818 185 9.48184 185 11.6186V19.8184H181.124V18.0288C180.345 19.3643 178.893 20.0321 176.769 20.0321C175.672 20.0321 174.716 19.8451 173.902 19.4712C173.105 19.0972 172.495 18.5808 172.07 17.922C171.645 17.2632 171.433 16.5153 171.433 15.6784C171.433 14.3429 171.928 13.2924 172.92 12.5267C173.928 11.761 175.477 11.3782 177.566 11.3782H180.858C180.858 10.4701 180.584 9.77564 180.035 9.29487C179.486 8.7963 178.663 8.54701 177.566 8.54701C176.805 8.54701 176.053 8.67165 175.309 8.92094C174.583 9.15242 173.964 9.47293 173.451 9.88248L171.964 6.97115C172.743 6.41916 173.672 5.99181 174.752 5.6891C175.849 5.3864 176.973 5.23504 178.123 5.23504ZM177.805 17.2276C178.513 17.2276 179.141 17.0673 179.69 16.7468C180.239 16.4085 180.628 15.9188 180.858 15.2778V13.8088H178.017C176.318 13.8088 175.468 14.3697 175.468 15.4915C175.468 16.0256 175.672 16.453 176.079 16.7735C176.504 17.0762 177.079 17.2276 177.805 17.2276Z" fill="black"/>
</svg>
