<svg width="400" height="400" viewBox="0 0 400 400" fill="none" xmlns="http://www.w3.org/2000/svg">
<path d="M200 400C310.457 400 400 310.457 400 200C400 89.543 310.457 0 200 0C89.543 0 0 89.543 0 200C0 310.457 89.543 400 200 400Z" fill="#DB9022"/>
<path d="M199.997 395.483C92.1636 395.483 4.51367 307.833 4.51367 200C4.51367 92.3077 92.3048 4.5166 199.997 4.5166C307.831 4.5166 395.48 92.1666 395.48 200C395.48 307.833 307.831 395.483 199.997 395.483ZM199.997 13.8321C97.3859 13.8321 13.8291 97.3889 13.8291 200C13.8291 302.752 97.3859 386.309 200.138 386.309C302.891 386.309 386.447 302.752 386.447 200C386.306 97.3889 302.749 13.8321 199.997 13.8321Z" fill="#222221"/>
<path d="M261.26 102.329C260.413 102.329 259.707 102.47 259.284 102.611C258.719 102.752 258.296 103.176 257.872 103.599C257.59 103.881 257.308 104.305 257.166 104.587C257.025 105.01 256.884 105.434 256.884 105.998C256.743 106.704 256.743 107.692 256.743 108.68V125.194C256.743 126.747 256.884 127.876 257.025 128.581C257.166 129.287 257.59 129.852 258.013 130.416C258.86 131.263 259.989 131.687 261.542 131.687V132.251H247.004V131.687C247.851 131.687 248.557 131.545 249.121 131.263C249.686 131.122 250.109 130.699 250.533 130.275C250.956 129.852 251.38 129.146 251.521 128.44C251.662 127.735 251.803 126.605 251.803 125.053V105.293L240.37 132.251H239.947L228.514 105.716V125.335C228.514 126.888 228.656 128.017 228.797 128.723C228.938 129.428 229.22 129.993 229.785 130.557C230.208 130.981 230.632 131.263 231.196 131.545C231.761 131.687 232.466 131.828 233.313 131.969V132.533H223.01V131.969C223.857 131.969 224.562 131.828 225.127 131.545C225.691 131.404 226.115 130.981 226.538 130.557C226.962 130.134 227.385 129.428 227.526 128.723C227.667 128.017 227.809 126.888 227.809 125.335V108.821C227.809 108.116 227.809 107.551 227.809 106.845C227.667 105.716 227.526 105.01 227.244 104.446C226.821 103.74 226.397 103.176 225.691 102.893C224.986 102.611 224.139 102.329 223.151 102.329V101.764H232.89L242.488 125.617L252.509 101.764H261.683V102.329H261.26Z" fill="black"/>
<path d="M270.008 116.302C270.573 115.314 271.137 114.608 271.843 114.185C273.113 113.338 274.525 112.914 276.077 112.914C277.065 112.914 277.771 113.197 278.336 113.62C278.759 114.043 279.041 114.467 279.041 115.031C279.041 115.455 278.9 115.737 278.618 116.019C278.336 116.302 278.053 116.443 277.489 116.443C276.924 116.443 276.501 116.302 276.219 115.878L275.513 115.173C274.948 114.608 274.384 114.326 273.537 114.326C272.549 114.326 271.702 115.031 271.137 116.302C270.573 117.572 270.291 119.407 270.291 121.806V126.041V127.734C270.291 128.722 270.291 129.428 270.432 129.993C270.573 130.416 270.714 130.84 271.137 131.122C271.561 131.545 272.267 131.828 273.396 131.969V132.392H263.516V131.969C264.362 131.828 265.068 131.686 265.492 131.404C265.915 131.122 266.197 130.84 266.48 130.275C266.621 129.993 266.762 129.428 266.762 128.722C266.762 128.017 266.903 127.029 266.903 125.758V120.254C266.903 118.701 266.903 117.713 266.762 117.007C266.621 116.443 266.48 115.878 266.338 115.455C266.056 115.031 265.774 114.749 265.492 114.608C265.068 114.467 264.645 114.326 263.939 114.326V113.902L269.585 112.914C269.867 114.326 270.008 115.455 270.008 116.302Z" fill="black"/>
<path d="M280.029 129.287C280.453 129.287 280.876 129.428 281.158 129.711C281.441 129.993 281.582 130.416 281.582 130.84C281.582 131.263 281.441 131.687 281.158 131.969C280.876 132.251 280.453 132.392 280.029 132.392C279.606 132.392 279.182 132.251 278.9 131.969C278.618 131.687 278.477 131.263 278.477 130.84C278.477 130.416 278.618 129.993 278.9 129.711C279.323 129.428 279.606 129.287 280.029 129.287Z" fill="black"/>
<path d="M282.145 144.248C280.875 144.248 279.746 144.531 279.04 144.813C278.193 145.095 277.488 145.519 276.923 146.224C276.359 146.648 276.076 147.212 275.794 147.777C275.512 148.341 275.371 149.047 275.229 150.035C275.088 151.164 274.947 152.576 274.947 154.269V179.252C274.947 181.651 275.088 183.345 275.371 184.474C275.653 185.603 276.076 186.45 276.782 187.156C278.052 188.426 279.746 188.991 282.004 189.132V189.979H260.268V189.132C261.538 189.132 262.668 188.85 263.514 188.567C264.361 188.285 265.067 187.72 265.632 187.156C266.337 186.45 266.761 185.462 267.043 184.333C267.325 183.204 267.467 181.51 267.467 179.111V148.624L249.965 189.838H249.259L231.757 149.329V179.252C231.757 181.651 231.898 183.345 232.181 184.474C232.463 185.603 232.886 186.45 233.592 187.297C234.298 188.003 235.004 188.426 235.709 188.708C236.556 188.991 237.544 189.132 238.814 189.273V190.12H223.148V189.273C224.418 189.273 225.547 188.991 226.253 188.708C227.1 188.426 227.805 188.003 228.37 187.297C229.076 186.591 229.499 185.603 229.781 184.474C230.064 183.345 230.205 181.651 230.205 179.252V154.128C230.205 153.14 230.205 152.152 230.064 151.164C229.922 149.471 229.64 148.2 229.217 147.495C228.652 146.365 227.805 145.66 226.817 145.095C225.829 144.531 224.559 144.248 222.865 144.248V143.401H237.685L252.505 179.816L267.749 143.401H281.722V144.248H282.145Z" fill="black"/>
<path d="M285.816 161.75L295.696 160.48V180.099V182.639C295.696 184.192 295.837 185.321 295.978 186.027C296.119 186.732 296.543 187.297 296.966 187.861C297.672 188.426 298.801 188.991 300.495 189.273V189.979H285.393V189.273C286.804 189.132 287.792 188.849 288.357 188.567C288.921 188.285 289.486 187.72 289.768 186.873C290.05 186.309 290.191 185.603 290.333 184.474C290.474 183.486 290.474 181.933 290.474 179.957V171.63C290.474 169.372 290.474 167.678 290.333 166.69C290.191 165.702 289.909 164.996 289.627 164.432C289.203 163.867 288.78 163.303 288.215 163.02C287.651 162.738 286.945 162.597 285.816 162.456V161.75ZM292.873 148.341C292.026 148.341 291.179 148.059 290.615 147.494C290.05 146.93 289.768 146.224 289.768 145.377C289.768 144.53 290.05 143.825 290.615 143.26C291.179 142.696 291.885 142.413 292.873 142.413C293.72 142.413 294.426 142.696 295.131 143.26C295.696 143.825 295.978 144.53 295.978 145.377C295.978 146.224 295.696 146.93 295.131 147.494C294.567 148.059 293.861 148.341 292.873 148.341Z" fill="black"/>
<path d="M304.023 189.979V180.381H304.588C305.153 182.78 305.999 184.615 306.987 186.027C308.681 188.567 310.798 189.838 313.057 189.838C314.468 189.838 315.738 189.414 316.726 188.567C317.855 187.579 318.42 186.309 318.42 184.474C318.42 183.063 317.997 181.792 317.15 180.663C316.726 180.099 316.162 179.534 315.456 179.111C314.75 178.687 313.621 177.982 311.927 177.135C309.105 175.582 307.129 174.312 306.282 173.324C304.87 171.912 304.306 170.219 304.306 168.243C304.306 166.267 305.011 164.432 306.282 163.02C307.834 161.327 309.951 160.48 312.492 160.48C313.621 160.48 314.75 160.621 315.738 161.044L316.867 161.609C317.291 161.75 317.573 161.75 317.855 161.75C318.279 161.75 318.702 161.468 319.126 160.762H319.832L320.255 168.525H319.549C319.267 167.396 318.985 166.549 318.702 165.843C318.42 165.137 317.997 164.573 317.432 163.867C316.726 163.02 315.879 162.315 315.033 161.891C314.045 161.468 313.198 161.185 312.351 161.185C311.081 161.185 309.951 161.609 309.105 162.597C308.258 163.585 307.693 164.714 307.693 165.984C307.693 167.113 308.117 168.101 308.963 168.948C309.81 169.795 310.939 170.642 312.633 171.489L316.303 173.183C318.42 174.171 320.114 175.441 321.102 176.852C322.231 178.264 322.654 179.958 322.654 181.934C322.654 184.333 321.949 186.309 320.396 187.862C318.561 189.696 316.303 190.543 313.621 190.543C312.069 190.543 310.657 190.261 309.105 189.696C308.117 189.273 307.552 189.132 307.27 188.991C307.129 188.991 306.846 188.85 306.423 188.85C305.576 188.85 305.011 189.132 304.588 189.838H304.023V189.979Z" fill="black"/>
<path d="M334.793 142.131V165.42C335.64 164.432 336.346 163.726 336.91 163.161C337.475 162.597 338.322 162.173 339.169 161.75C340.862 160.903 342.697 160.48 344.814 160.48C347.496 160.48 349.754 161.044 351.448 162.032C352.718 162.879 353.565 163.867 353.989 164.996C354.412 166.125 354.694 167.819 354.694 170.219V180.099V182.639C354.694 184.192 354.836 185.321 354.977 186.027C355.118 186.732 355.541 187.297 355.965 187.862C356.67 188.426 357.8 188.991 359.493 189.273V189.979H344.391V189.273C345.661 189.132 346.508 188.991 346.931 188.708C347.496 188.426 347.92 188.144 348.343 187.579C348.766 187.015 349.049 186.309 349.19 185.321C349.331 184.333 349.472 182.922 349.472 180.946V170.219C349.472 168.525 349.331 167.255 349.049 166.408C348.766 165.42 348.343 164.573 347.778 163.867C346.649 162.597 344.955 161.891 342.838 161.891C337.334 161.891 334.652 166.267 334.652 174.876V180.381V182.922C334.652 184.474 334.793 185.603 334.934 186.309C335.075 187.015 335.499 187.579 335.922 188.144C336.487 188.708 337.757 189.273 339.451 189.555V190.261H324.631V189.555C326.042 189.414 327.03 189.132 327.595 188.85C328.159 188.567 328.724 188.003 329.006 187.156C329.289 186.591 329.43 185.886 329.571 184.756C329.712 183.768 329.712 182.216 329.712 180.24V153.564C329.712 151.305 329.712 149.612 329.571 148.624C329.43 147.636 329.147 146.93 328.865 146.365C328.442 145.801 328.018 145.236 327.454 144.954C326.889 144.672 326.183 144.531 325.054 144.389V143.684L334.793 142.131Z" fill="black"/>
<path d="M229.804 220.196L214.42 335.906L216.519 336.185L231.903 220.475L229.804 220.196Z" fill="black"/>
<path d="M228.087 219.76C227.805 221.172 228.793 222.583 230.204 223.006C231.757 223.289 233.168 222.442 233.592 221.03C234.015 219.619 232.886 218.208 231.475 217.784C229.922 217.361 228.37 218.208 228.087 219.76Z" fill="black"/>
<path d="M233.876 229.922C231.618 227.523 235.429 230.064 231.759 226.817C228.372 223.994 227.525 225.97 221.456 223.006C222.867 227.382 216.939 235.85 209.035 235.992C214.54 240.932 216.939 241.92 221.738 244.319C226.678 246.718 227.384 243.331 230.489 241.637C233.594 239.944 235.994 236.274 236.276 233.733C236.558 231.193 235.006 231.052 233.876 229.922Z" fill="#A27659"/>
<path d="M77.488 229.781C77.488 229.922 77.488 229.922 77.3469 230.064C77.3469 230.064 72.4069 236.274 71.8423 242.766C71.2777 249.259 74.3829 249.4 77.488 250.388C80.452 251.235 87.0858 254.622 89.0618 254.199C91.0378 253.776 93.5784 250.247 93.5784 250.247C93.5784 250.247 95.2721 251.658 97.3892 248.836C99.5064 246.013 99.5064 241.073 98.9418 238.673C98.6595 237.403 97.6715 235.992 96.9658 234.298C94.0018 237.262 82.2869 234.016 77.488 229.781Z" fill="#A27659"/>
<path d="M221.457 223.007C221.316 222.724 221.175 222.442 221.034 222.16C211.153 207.622 192.24 183.769 188.006 170.219C183.207 154.975 182.501 154.411 172.48 147.777C172.48 148.201 172.48 148.624 172.48 149.047C167.54 145.519 160.483 143.825 151.45 143.825C147.357 143.825 131.125 142.978 121.669 149.33C119.552 150.177 117.293 151.588 115.317 153.141C111.083 156.246 78.0554 204.093 75.656 226.394C75.5148 227.523 76.3617 228.793 77.632 229.923C82.4308 234.016 94.1457 237.403 97.1097 234.439C97.392 234.157 97.5332 234.016 97.6743 233.592C99.6503 228.511 103.461 220.748 107.978 211.856C106.284 225.124 104.731 239.097 103.038 251.517C102.755 253.211 105.014 251.941 104.873 253.493C102.755 270.007 98.2389 286.239 96.6863 291.038C96.6863 291.038 99.5092 288.074 104.59 283.839L99.368 319.69C97.2509 322.936 94.5692 327.876 94.1457 329.993C93.44 333.239 93.44 337.333 94.1457 338.462C94.8514 339.591 123.08 340.155 126.75 339.591C130.42 339.026 128.444 334.369 128.444 331.263C128.444 329.146 128.161 324.206 127.456 321.101C128.444 317.29 140.864 269.725 141.57 269.019C142.134 268.313 148.345 267.749 149.192 268.596C149.333 268.737 149.756 270.995 150.18 274.242C149.615 280.875 148.768 287.932 148.768 291.602C148.768 293.014 150.038 291.461 151.873 288.074C153.426 301.2 155.12 316.584 155.402 319.548C154.555 321.666 154.132 324.771 154.132 326.323C154.132 328.158 153.285 331.546 153.426 333.945C153.567 335.215 154.414 336.203 155.543 336.203H204.52C205.79 336.203 206.778 334.792 206.496 333.381C205.79 330.134 203.955 325.053 199.297 323.783C192.24 321.948 188.571 321.666 187.018 320.678C186.171 320.254 185.183 318.843 184.336 317.714L179.396 249.118C180.384 248.695 181.372 248.271 182.784 247.989C182.784 247.989 182.501 232.745 182.078 214.82C188.853 224.7 200.427 233.875 204.096 235.286C205.79 235.992 207.484 236.274 209.036 236.274C216.94 235.851 222.868 227.382 221.457 223.007Z" fill="black"/>
<path d="M160.48 86.8033C160.904 93.1548 166.408 98.0948 172.76 97.6713C179.111 97.2479 184.051 91.7433 183.628 85.3919C183.204 79.0404 177.7 74.1004 171.348 74.5239C164.997 74.8061 160.057 80.3107 160.48 86.8033Z" fill="#8E6A50"/>
<path d="M109.104 89.9085C109.527 96.26 115.032 101.2 121.383 100.777C127.735 100.353 132.675 94.8486 132.251 88.4971C131.828 82.1457 126.323 77.2056 119.972 77.6291C113.62 77.9114 108.821 83.416 109.104 89.9085Z" fill="#936952"/>
<path d="M168.385 83.9805C185.463 95.9777 194.92 129.57 184.052 141.849C171.913 155.54 121.807 158.786 111.927 144.954C102.047 131.122 105.153 95.2719 121.666 85.6742C132.817 79.3228 154.835 74.5239 168.385 83.9805Z" fill="#A27659"/>
<path d="M167.397 114.891C167.256 113.338 168.527 111.927 170.079 111.786C171.632 111.645 173.043 112.915 173.184 114.468C173.325 116.02 172.055 117.432 170.503 117.573C168.809 117.714 167.397 116.444 167.397 114.891Z" fill="#3C2C16"/>
<path d="M122.794 118.42C122.653 116.867 123.923 115.456 125.476 115.314C127.028 115.173 128.44 116.444 128.581 117.996C128.722 119.549 127.452 120.96 125.899 121.101C124.205 121.242 122.794 120.113 122.794 118.42Z" fill="#3C2C16"/>
<path d="M156.387 115.032C161.609 119.407 162.597 131.969 160.763 135.639C158.222 140.579 139.309 141.99 136.345 136.627C133.381 131.264 133.099 119.69 138.462 115.314C142.132 112.35 152.294 111.645 156.387 115.032Z" fill="#BB9D6C"/>
<path d="M141.144 120.819C141.285 122.795 144.108 124.206 147.637 123.924C151.024 123.783 153.847 121.948 153.706 119.972C153.565 117.996 150.742 116.584 147.213 116.867C143.685 117.149 141.003 118.843 141.144 120.819Z" fill="#3C2C16"/>
<path d="M156.669 124.206C156.386 126.182 155.116 128.017 153.563 129.005C151.87 130.134 149.894 130.558 148.059 130.699C146.224 130.84 144.107 130.558 142.413 129.57C140.719 128.723 139.167 127.17 138.602 125.335C138.461 125.053 138.602 124.912 138.885 124.771C139.026 124.771 139.308 124.771 139.449 124.912C140.296 126.323 141.566 127.594 143.119 128.158C144.671 128.864 146.365 129.005 148.059 128.864C149.753 128.723 151.446 128.44 152.858 127.594C154.269 126.747 155.398 125.476 155.963 123.924C156.104 123.642 156.245 123.642 156.527 123.642C156.527 123.783 156.669 124.065 156.669 124.206Z" fill="#3B2B15"/>
<path d="M172.76 157.939L146.366 237.544L127.594 157.939H172.76Z" fill="white"/>
<path d="M166.266 150.177C166.266 150.177 155.116 210.162 146.365 237.544C146.789 237.262 147.212 236.98 147.636 236.556C169.795 218.772 179.957 164.573 179.957 164.573L166.266 150.177Z" fill="#645E5B"/>
<path d="M135.358 148.483L146.367 237.544C146.367 237.544 125.478 204.658 119.691 162.738L135.358 148.483Z" fill="#645E5B"/>
<path d="M152.296 152.294L165.705 145.801C168.81 144.248 172.339 146.648 172.056 150.177L170.927 163.867C170.645 167.114 167.116 168.949 164.294 167.255L152.296 160.057C150.885 159.21 149.191 159.21 147.921 160.057L135.642 167.114C132.678 168.807 129.008 166.69 129.008 163.303L129.149 149.753C129.149 146.507 132.678 144.39 135.5 145.942L148.486 152.576C149.615 152.858 151.026 152.858 152.296 152.294Z" fill="black"/>
<path d="M184.898 93.4371C185.745 93.5782 186.592 93.7194 187.298 93.8605C189.697 94.2839 191.955 94.8485 194.073 96.1188C195.625 96.9656 196.19 98.2359 195.625 99.9297C194.919 102.188 193.226 103.317 191.109 104.023C188.003 105.011 184.757 105.152 181.511 104.87C177.982 104.587 174.595 104.305 171.207 103.599C166.409 102.611 161.892 101.341 157.517 99.0828C154.553 97.5302 151.588 96.1188 148.907 94.2839C146.366 92.5902 143.826 90.4731 141.567 88.4971C139.874 86.9445 138.321 85.2508 136.91 83.557C135.78 82.1456 134.934 80.4519 134.934 78.617C134.934 77.0644 135.216 75.5119 136.627 74.5239C137.192 74.1004 138.18 74.1004 139.027 74.2416C141.426 74.665 143.543 75.9353 145.66 77.3467C145.943 77.629 146.366 77.7702 146.931 78.0524C147.072 77.629 147.213 77.3467 147.354 77.0644C148.766 73.3947 150.318 69.725 151.73 66.0553C153.141 62.3855 155.964 60.2684 159.634 59.1393C163.303 58.1512 166.973 58.4335 170.643 59.1393C174.877 60.1273 178.829 61.821 182.64 64.0793C186.027 66.0553 188.991 68.4547 190.403 72.2656C191.532 74.9473 191.532 77.629 190.544 80.1696C188.991 84.4039 187.298 88.497 185.604 92.5902C185.181 92.7313 185.039 93.0136 184.898 93.4371Z" fill="black"/>
</svg>
