<svg width="36" height="54" viewBox="0 0 36 54" fill="none" xmlns="http://www.w3.org/2000/svg">
<path d="M17.7074 12.9714C15.3913 12.9714 13.5062 14.856 13.5062 17.172C13.5062 19.4881 15.3908 21.3721 17.7074 21.3721C20.0229 21.3721 21.9068 19.4886 21.9068 17.172C21.9068 14.8565 20.0229 12.9714 17.7074 12.9714Z" fill="#F8A326"/>
<path d="M17.7062 0C7.92713 0 0 7.92768 0 17.7068C0 27.4858 17.7062 53.4142 17.7062 53.4142C17.7062 53.4142 35.413 27.4858 35.413 17.7068C35.413 7.92768 27.4853 0 17.7062 0ZM17.7073 26.7726C12.4134 26.7726 8.10669 22.4648 8.10669 17.172C8.10669 11.878 12.4134 7.57133 17.7073 7.57133C23.0007 7.57133 27.3074 11.878 27.3074 17.172C27.3074 22.4648 23.0002 26.7726 17.7073 26.7726Z" fill="#F8A326"/>
<path d="M17.5 31C24.4036 31 30 25.4036 30 18.5C30 11.5964 24.4036 6 17.5 6C10.5964 6 5 11.5964 5 18.5C5 25.4036 10.5964 31 17.5 31Z" fill="#DB9022"/>
<path d="M17.4999 30.7177C10.7604 30.7177 5.28223 25.2395 5.28223 18.4999C5.28223 11.7692 10.7692 6.28223 17.4999 6.28223C24.2395 6.28223 29.7177 11.7604 29.7177 18.4999C29.7177 25.2395 24.2395 30.7177 17.4999 30.7177ZM17.4999 6.86444C11.0867 6.86444 5.86444 12.0867 5.86444 18.4999C5.86444 24.922 11.0867 30.1443 17.5088 30.1443C23.9308 30.1443 29.1531 24.922 29.1531 18.4999C29.1443 12.0867 23.922 6.86444 17.4999 6.86444Z" fill="#222221"/>
<path d="M21.3279 12.3956C21.2749 12.3956 21.2308 12.4045 21.2044 12.4133C21.1691 12.4221 21.1426 12.4486 21.1162 12.475C21.0985 12.4927 21.0809 12.5191 21.072 12.5368C21.0632 12.5632 21.0544 12.5897 21.0544 12.625C21.0456 12.6691 21.0456 12.7309 21.0456 12.7926V13.8247C21.0456 13.9217 21.0544 13.9923 21.0632 14.0364C21.072 14.0805 21.0985 14.1158 21.125 14.1511C21.1779 14.204 21.2485 14.2305 21.3455 14.2305V14.2658H20.4369V14.2305C20.4898 14.2305 20.5339 14.2217 20.5692 14.204C20.6045 14.1952 20.631 14.1688 20.6574 14.1423C20.6839 14.1158 20.7104 14.0717 20.7192 14.0276C20.728 13.9835 20.7368 13.9129 20.7368 13.8159V12.5809L20.0223 14.2658H19.9958L19.2813 12.6074V13.8335C19.2813 13.9306 19.2901 14.0011 19.2989 14.0452C19.3078 14.0894 19.3254 14.1246 19.3607 14.1599C19.3872 14.1864 19.4136 14.204 19.4489 14.2217C19.4842 14.2305 19.5283 14.2393 19.5812 14.2481V14.2834H18.9373V14.2481C18.9902 14.2481 19.0343 14.2393 19.0696 14.2217C19.1049 14.2129 19.1313 14.1864 19.1578 14.1599C19.1843 14.1335 19.2107 14.0894 19.2195 14.0452C19.2284 14.0011 19.2372 13.9306 19.2372 13.8335V12.8014C19.2372 12.7573 19.2372 12.722 19.2372 12.6779C19.2284 12.6074 19.2195 12.5632 19.2019 12.528C19.1754 12.4839 19.149 12.4486 19.1049 12.4309C19.0608 12.4133 19.0078 12.3956 18.9461 12.3956V12.3604H19.5548L20.1546 13.8512L20.7809 12.3604H21.3543V12.3956H21.3279Z" fill="black"/>
<path d="M21.8756 13.2688C21.9109 13.2071 21.9462 13.163 21.9903 13.1365C22.0697 13.0836 22.1579 13.0571 22.255 13.0571C22.3167 13.0571 22.3608 13.0748 22.3961 13.1012C22.4226 13.1277 22.4402 13.1542 22.4402 13.1895C22.4402 13.2159 22.4314 13.2336 22.4137 13.2512C22.3961 13.2688 22.3785 13.2777 22.3432 13.2777C22.3079 13.2777 22.2814 13.2688 22.2638 13.2424L22.2197 13.1983C22.1844 13.163 22.1491 13.1453 22.0962 13.1453C22.0344 13.1453 21.9815 13.1895 21.9462 13.2688C21.9109 13.3482 21.8933 13.4629 21.8933 13.6129V13.8775V13.9834C21.8933 14.0451 21.8933 14.0892 21.9021 14.1245C21.9109 14.151 21.9197 14.1775 21.9462 14.1951C21.9727 14.2216 22.0168 14.2392 22.0874 14.248V14.2745H21.4698V14.248C21.5228 14.2392 21.5669 14.2304 21.5933 14.2127C21.6198 14.1951 21.6375 14.1775 21.6551 14.1422C21.6639 14.1245 21.6727 14.0892 21.6727 14.0451C21.6727 14.001 21.6816 13.9393 21.6816 13.8599V13.5158C21.6816 13.4188 21.6816 13.3571 21.6727 13.313C21.6639 13.2777 21.6551 13.2424 21.6463 13.2159C21.6286 13.1895 21.611 13.1718 21.5933 13.163C21.5669 13.1542 21.5404 13.1453 21.4963 13.1453V13.1189L21.8492 13.0571C21.8668 13.1453 21.8756 13.2159 21.8756 13.2688Z" fill="black"/>
<path d="M22.5017 14.0803C22.5282 14.0803 22.5546 14.0891 22.5723 14.1068C22.5899 14.1244 22.5987 14.1509 22.5987 14.1774C22.5987 14.2038 22.5899 14.2303 22.5723 14.2479C22.5546 14.2656 22.5282 14.2744 22.5017 14.2744C22.4752 14.2744 22.4488 14.2656 22.4311 14.2479C22.4135 14.2303 22.4047 14.2038 22.4047 14.1774C22.4047 14.1509 22.4135 14.1244 22.4311 14.1068C22.4576 14.0891 22.4752 14.0803 22.5017 14.0803Z" fill="black"/>
<path d="M22.634 15.0156C22.5546 15.0156 22.484 15.0332 22.4399 15.0509C22.387 15.0685 22.3429 15.095 22.3076 15.1391C22.2723 15.1655 22.2546 15.2008 22.237 15.2361C22.2194 15.2714 22.2105 15.3155 22.2017 15.3773C22.1929 15.4478 22.1841 15.536 22.1841 15.6419V17.2033C22.1841 17.3533 22.1929 17.4591 22.2105 17.5297C22.2282 17.6003 22.2546 17.6532 22.2988 17.6973C22.3781 17.7767 22.484 17.812 22.6251 17.8208V17.8737H21.2666V17.8208C21.346 17.8208 21.4166 17.8032 21.4695 17.7855C21.5225 17.7679 21.5666 17.7326 21.6019 17.6973C21.646 17.6532 21.6724 17.5914 21.6901 17.5209C21.7077 17.4503 21.7165 17.3444 21.7165 17.1945V15.289L20.6227 17.8649H20.5786L19.4847 15.3331V17.2033C19.4847 17.3533 19.4935 17.4591 19.5112 17.5297C19.5288 17.6003 19.5553 17.6532 19.5994 17.7061C19.6435 17.7502 19.6876 17.7767 19.7317 17.7943C19.7846 17.812 19.8464 17.8208 19.9258 17.8296V17.8825H18.9466V17.8296C19.026 17.8296 19.0966 17.812 19.1407 17.7943C19.1936 17.7767 19.2377 17.7502 19.273 17.7061C19.3171 17.662 19.3436 17.6003 19.3612 17.5297C19.3789 17.4591 19.3877 17.3533 19.3877 17.2033V15.6331C19.3877 15.5713 19.3877 15.5096 19.3788 15.4478C19.37 15.342 19.3524 15.2626 19.3259 15.2185C19.2906 15.1479 19.2377 15.1038 19.176 15.0685C19.1142 15.0332 19.0348 15.0156 18.929 15.0156V14.9626H19.8552L20.7815 17.2386L21.7342 14.9626H22.6075V15.0156H22.634Z" fill="black"/>
<path d="M22.8635 16.1094L23.481 16.03V17.2562V17.415C23.481 17.512 23.4898 17.5826 23.4986 17.6267C23.5075 17.6708 23.5339 17.7061 23.5604 17.7414C23.6045 17.7767 23.6751 17.812 23.7809 17.8296V17.8737H22.837V17.8296C22.9253 17.8208 22.987 17.8031 23.0223 17.7855C23.0576 17.7679 23.0929 17.7326 23.1105 17.6796C23.1281 17.6444 23.137 17.6002 23.1458 17.5297C23.1546 17.4679 23.1546 17.3709 23.1546 17.2474V16.7269C23.1546 16.5858 23.1546 16.4799 23.1458 16.4182C23.137 16.3564 23.1193 16.3123 23.1017 16.277C23.0752 16.2417 23.0488 16.2065 23.0135 16.1888C22.9782 16.1712 22.9341 16.1623 22.8635 16.1535V16.1094ZM23.3046 15.2714C23.2516 15.2714 23.1987 15.2537 23.1634 15.2185C23.1281 15.1832 23.1105 15.1391 23.1105 15.0861C23.1105 15.0332 23.1281 14.9891 23.1634 14.9538C23.1987 14.9185 23.2428 14.9009 23.3046 14.9009C23.3575 14.9009 23.4016 14.9185 23.4457 14.9538C23.481 14.9891 23.4986 15.0332 23.4986 15.0861C23.4986 15.1391 23.481 15.1832 23.4457 15.2185C23.4104 15.2537 23.3663 15.2714 23.3046 15.2714Z" fill="black"/>
<path d="M24.0015 17.8737V17.2739H24.0368C24.072 17.4238 24.125 17.5385 24.1867 17.6267C24.2926 17.7855 24.4249 17.8649 24.566 17.8649C24.6543 17.8649 24.7336 17.8384 24.7954 17.7855C24.866 17.7237 24.9013 17.6444 24.9013 17.5297C24.9013 17.4415 24.8748 17.3621 24.8219 17.2915C24.7954 17.2562 24.7601 17.2209 24.716 17.1945C24.6719 17.168 24.6013 17.1239 24.4955 17.071C24.319 16.9739 24.1955 16.8945 24.1426 16.8328C24.0544 16.7446 24.0191 16.6387 24.0191 16.5152C24.0191 16.3917 24.0632 16.277 24.1426 16.1888C24.2396 16.083 24.372 16.03 24.5308 16.03C24.6013 16.03 24.6719 16.0389 24.7336 16.0653L24.8042 16.1006C24.8307 16.1094 24.8483 16.1094 24.866 16.1094C24.8924 16.1094 24.9189 16.0918 24.9454 16.0477H24.9895L25.0159 16.5329H24.9718C24.9542 16.4623 24.9365 16.4094 24.9189 16.3652C24.9013 16.3211 24.8748 16.2859 24.8395 16.2417C24.7954 16.1888 24.7425 16.1447 24.6895 16.1182C24.6278 16.0918 24.5749 16.0741 24.5219 16.0741C24.4425 16.0741 24.372 16.1006 24.319 16.1624C24.2661 16.2241 24.2308 16.2947 24.2308 16.3741C24.2308 16.4446 24.2573 16.5064 24.3102 16.5593C24.3631 16.6122 24.4337 16.6652 24.5396 16.7181L24.7689 16.824C24.9013 16.8857 25.0071 16.9651 25.0689 17.0533C25.1394 17.1415 25.1659 17.2474 25.1659 17.3709C25.1659 17.5209 25.1218 17.6444 25.0248 17.7414C24.9101 17.8561 24.7689 17.909 24.6013 17.909C24.5043 17.909 24.4161 17.8914 24.319 17.8561C24.2573 17.8296 24.222 17.8208 24.2044 17.812C24.1955 17.812 24.1779 17.8031 24.1514 17.8031C24.0985 17.8031 24.0632 17.8208 24.0368 17.8649H24.0015V17.8737Z" fill="black"/>
<path d="M25.9245 14.8833V16.3388C25.9774 16.2771 26.0215 16.233 26.0568 16.1977C26.0921 16.1624 26.145 16.1359 26.1979 16.1095C26.3038 16.0566 26.4185 16.0301 26.5508 16.0301C26.7184 16.0301 26.8595 16.0654 26.9654 16.1271C27.0448 16.1801 27.0977 16.2418 27.1242 16.3124C27.1506 16.3829 27.1683 16.4888 27.1683 16.6388V17.2563V17.4151C27.1683 17.5121 27.1771 17.5827 27.1859 17.6268C27.1947 17.6709 27.2212 17.7062 27.2477 17.7415C27.2918 17.7767 27.3623 17.812 27.4682 17.8297V17.8738H26.5243V17.8297C26.6037 17.8208 26.6566 17.812 26.6831 17.7944C26.7184 17.7767 26.7448 17.7591 26.7713 17.7238C26.7978 17.6885 26.8154 17.6444 26.8242 17.5827C26.8331 17.5209 26.8419 17.4327 26.8419 17.3092V16.6388C26.8419 16.5329 26.8331 16.4535 26.8154 16.4006C26.7978 16.3388 26.7713 16.2859 26.736 16.2418C26.6655 16.1624 26.5596 16.1183 26.4273 16.1183C26.0832 16.1183 25.9156 16.3918 25.9156 16.9299V17.2739V17.4327C25.9156 17.5297 25.9245 17.6003 25.9333 17.6444C25.9421 17.6885 25.9686 17.7238 25.995 17.7591C26.0303 17.7944 26.1097 17.8297 26.2156 17.8473V17.8914H25.2893V17.8473C25.3775 17.8385 25.4393 17.8208 25.4746 17.8032C25.5098 17.7856 25.5451 17.7503 25.5628 17.6973C25.5804 17.6621 25.5892 17.618 25.5981 17.5474C25.6069 17.4856 25.6069 17.3886 25.6069 17.2651V15.5978C25.6069 15.4567 25.6069 15.3508 25.5981 15.2891C25.5892 15.2273 25.5716 15.1832 25.554 15.1479C25.5275 15.1127 25.501 15.0774 25.4657 15.0597C25.4304 15.0421 25.3863 15.0333 25.3158 15.0244V14.9803L25.9245 14.8833Z" fill="black"/>
<path d="M19.3629 19.7623L18.4014 26.9941L18.5325 27.0116L19.4941 19.7797L19.3629 19.7623Z" fill="black"/>
<path d="M19.2555 19.735C19.2378 19.8232 19.2996 19.9115 19.3878 19.9379C19.4848 19.9556 19.573 19.9026 19.5995 19.8144C19.626 19.7262 19.5554 19.638 19.4672 19.6115C19.3701 19.5851 19.2731 19.638 19.2555 19.735Z" fill="black"/>
<path d="M19.6172 20.3702C19.476 20.2203 19.7142 20.3791 19.4848 20.1762C19.2731 19.9997 19.2202 20.1232 18.8409 19.938C18.9291 20.2115 18.5586 20.7407 18.0646 20.7496C18.4086 21.0583 18.5586 21.1201 18.8585 21.27C19.1673 21.42 19.2114 21.2083 19.4054 21.1024C19.5995 20.9966 19.7495 20.7672 19.7671 20.6084C19.7848 20.4496 19.6877 20.4408 19.6172 20.3702Z" fill="#A27659"/>
<path d="M9.84288 20.3616C9.84288 20.3704 9.84288 20.3704 9.83406 20.3792C9.83406 20.3792 9.52531 20.7674 9.49002 21.1731C9.45474 21.5789 9.64881 21.5878 9.84288 21.6495C10.0281 21.7024 10.4427 21.9141 10.5662 21.8877C10.6897 21.8612 10.8485 21.6407 10.8485 21.6407C10.8485 21.6407 10.9544 21.7289 11.0867 21.5525C11.219 21.376 11.219 21.0673 11.1837 20.9173C11.1661 20.8379 11.1043 20.7497 11.0602 20.6439C10.875 20.8291 10.1428 20.6262 9.84288 20.3616Z" fill="#A27659"/>
<path d="M18.8407 19.938C18.8319 19.9204 18.8231 19.9027 18.8142 19.8851C18.1967 18.9765 17.0147 17.4856 16.75 16.6388C16.4501 15.6861 16.406 15.6508 15.7796 15.2362C15.7796 15.2626 15.7796 15.2891 15.7796 15.3156C15.4709 15.095 15.0298 14.9892 14.4653 14.9892C14.2094 14.9892 13.195 14.9362 12.6039 15.3332C12.4716 15.3861 12.3305 15.4743 12.207 15.5714C11.9423 15.7655 9.8781 18.7559 9.72813 20.1497C9.71931 20.2203 9.77224 20.2997 9.85163 20.3702C10.1516 20.6261 10.8837 20.8378 11.069 20.6525C11.0866 20.6349 11.0955 20.6261 11.1043 20.5996C11.2278 20.282 11.466 19.7969 11.7482 19.2411C11.6424 20.0703 11.5454 20.9436 11.4395 21.7199C11.4219 21.8258 11.563 21.7464 11.5542 21.8434C11.4219 22.8755 11.1396 23.89 11.0425 24.1899C11.0425 24.1899 11.219 24.0047 11.5365 23.74L11.2101 25.9807C11.0778 26.1836 10.9102 26.4923 10.8837 26.6247C10.8396 26.8276 10.8396 27.0834 10.8837 27.1539C10.9278 27.2245 12.6921 27.2598 12.9215 27.2245C13.1509 27.1892 13.0274 26.8981 13.0274 26.7041C13.0274 26.5717 13.0097 26.263 12.9656 26.0689C13.0274 25.8307 13.8036 22.8579 13.8478 22.8138C13.883 22.7697 14.2712 22.7344 14.3241 22.7873C14.3329 22.7962 14.3594 22.9373 14.3859 23.1402C14.3506 23.5548 14.2976 23.9959 14.2976 24.2252C14.2976 24.3134 14.377 24.2164 14.4917 24.0047C14.5888 24.8251 14.6946 25.7866 14.7123 25.9719C14.6593 26.1042 14.6329 26.2983 14.6329 26.3953C14.6329 26.51 14.5799 26.7217 14.5888 26.8717C14.5976 26.9511 14.6505 27.0128 14.7211 27.0128H17.7821C17.8615 27.0128 17.9233 26.9246 17.9056 26.8364C17.8615 26.6335 17.7468 26.3159 17.4557 26.2365C17.0147 26.1218 16.7853 26.1042 16.6883 26.0424C16.6353 26.016 16.5736 25.9278 16.5207 25.8572L16.2119 21.57C16.2737 21.5435 16.3354 21.517 16.4236 21.4994C16.4236 21.4994 16.406 20.5467 16.3795 19.4264C16.8029 20.0439 17.5263 20.6173 17.7557 20.7055C17.8615 20.7496 17.9674 20.7672 18.0644 20.7672C18.5584 20.7408 18.9289 20.2115 18.8407 19.938Z" fill="black"/>
<path d="M15.03 11.4253C15.0565 11.8223 15.4005 12.131 15.7975 12.1046C16.1945 12.0781 16.5032 11.7341 16.4767 11.3371C16.4503 10.9401 16.1062 10.6314 15.7093 10.6578C15.3123 10.6755 15.0036 11.0195 15.03 11.4253Z" fill="#8E6A50"/>
<path d="M11.8192 11.6191C11.8457 12.0161 12.1897 12.3249 12.5867 12.2984C12.9837 12.2719 13.2924 11.9279 13.2659 11.5309C13.2395 11.134 12.8954 10.8252 12.4985 10.8517C12.1015 10.8693 11.8016 11.2134 11.8192 11.6191Z" fill="#936952"/>
<path d="M15.524 11.2489C16.5914 11.9988 17.1825 14.0983 16.5032 14.8657C15.7446 15.7214 12.613 15.9243 11.9955 15.0598C11.378 14.1953 11.572 11.9546 12.6041 11.3548C13.301 10.9578 14.6772 10.6579 15.524 11.2489Z" fill="#A27659"/>
<path d="M15.4625 13.1808C15.4536 13.0838 15.533 12.9956 15.6301 12.9868C15.7271 12.9779 15.8153 13.0573 15.8241 13.1544C15.833 13.2514 15.7536 13.3396 15.6565 13.3484C15.5507 13.3573 15.4625 13.2779 15.4625 13.1808Z" fill="#3C2C16"/>
<path d="M12.6747 13.4013C12.6659 13.3043 12.7453 13.216 12.8424 13.2072C12.9394 13.1984 13.0276 13.2778 13.0364 13.3748C13.0452 13.4719 12.9659 13.5601 12.8688 13.5689C12.763 13.5777 12.6747 13.5071 12.6747 13.4013Z" fill="#3C2C16"/>
<path d="M14.7742 13.1895C15.1006 13.463 15.1623 14.2481 15.0477 14.4775C14.8889 14.7862 13.7068 14.8744 13.5216 14.5392C13.3363 14.204 13.3187 13.4806 13.6539 13.2072C13.8832 13.0219 14.5184 12.9778 14.7742 13.1895Z" fill="#BB9D6C"/>
<path d="M13.8215 13.5513C13.8303 13.6748 14.0068 13.763 14.2273 13.7453C14.439 13.7365 14.6154 13.6218 14.6066 13.4983C14.5978 13.3748 14.4214 13.2866 14.2008 13.3042C13.9803 13.3219 13.8127 13.4277 13.8215 13.5513Z" fill="#3C2C16"/>
<path d="M14.7918 13.7631C14.7741 13.8866 14.6948 14.0012 14.5977 14.063C14.4919 14.1336 14.3684 14.16 14.2537 14.1689C14.139 14.1777 14.0067 14.16 13.9008 14.0983C13.795 14.0454 13.6979 13.9483 13.6626 13.8336C13.6538 13.816 13.6626 13.8072 13.6803 13.7984C13.6891 13.7984 13.7067 13.7984 13.7156 13.8072C13.7685 13.8954 13.8479 13.9748 13.9449 14.0101C14.042 14.0542 14.1478 14.063 14.2537 14.0542C14.3595 14.0454 14.4654 14.0277 14.5536 13.9748C14.6418 13.9219 14.7124 13.8425 14.7477 13.7454C14.7565 13.7278 14.7653 13.7278 14.783 13.7278C14.783 13.7366 14.7918 13.7542 14.7918 13.7631Z" fill="#3B2B15"/>
<path d="M15.7974 15.8711L14.1477 20.8464L12.9745 15.8711H15.7974Z" fill="white"/>
<path d="M15.3915 15.386C15.3915 15.386 14.6946 19.1351 14.1477 20.8465C14.1742 20.8288 14.2006 20.8112 14.2271 20.7847C15.6121 19.6732 16.2472 16.2858 16.2472 16.2858L15.3915 15.386Z" fill="#645E5B"/>
<path d="M13.4598 15.2803L14.1478 20.8466C14.1478 20.8466 12.8423 18.7912 12.4806 16.1712L13.4598 15.2803Z" fill="#645E5B"/>
<path d="M14.5183 15.5184L15.3563 15.1126C15.5504 15.0156 15.7709 15.1655 15.7533 15.3861L15.6827 16.2418C15.6651 16.4447 15.4445 16.5593 15.2681 16.4535L14.5183 16.0036C14.4301 15.9507 14.3242 15.9507 14.2448 16.0036L13.4774 16.4447C13.2921 16.5505 13.0627 16.4182 13.0627 16.2065L13.0716 15.3596C13.0716 15.1567 13.2921 15.0244 13.4685 15.1214L14.2801 15.536C14.3507 15.5537 14.4389 15.5537 14.5183 15.5184Z" fill="black"/>
<path d="M16.556 11.8398C16.609 11.8487 16.6619 11.8575 16.706 11.8663C16.856 11.8928 16.9971 11.928 17.1294 12.0074C17.2265 12.0604 17.2617 12.1398 17.2265 12.2456C17.1823 12.3868 17.0765 12.4573 16.9442 12.5014C16.7501 12.5632 16.5472 12.572 16.3443 12.5544C16.1238 12.5367 15.9121 12.5191 15.7003 12.475C15.4004 12.4132 15.1181 12.3338 14.8447 12.1927C14.6594 12.0957 14.4742 12.0074 14.3066 11.8928C14.1478 11.7869 13.989 11.6546 13.8478 11.5311C13.742 11.434 13.6449 11.3282 13.5567 11.2223C13.4862 11.1341 13.4332 11.0283 13.4332 10.9136C13.4332 10.8165 13.4509 10.7195 13.5391 10.6578C13.5744 10.6313 13.6361 10.6313 13.689 10.6401C13.839 10.6666 13.9713 10.746 14.1037 10.8342C14.1213 10.8518 14.1478 10.8607 14.1831 10.8783C14.1919 10.8518 14.2007 10.8342 14.2095 10.8165C14.2977 10.5872 14.3948 10.3578 14.483 10.1285C14.5712 9.89911 14.7476 9.76679 14.977 9.69622C15.2063 9.63447 15.4357 9.65211 15.6651 9.69622C15.9297 9.75797 16.1767 9.86383 16.4149 10.005C16.6266 10.1285 16.8118 10.2784 16.9001 10.5166C16.9706 10.6842 16.9706 10.8518 16.9089 11.0106C16.8118 11.2753 16.706 11.5311 16.6001 11.7869C16.5737 11.7957 16.5648 11.8134 16.556 11.8398Z" fill="black"/>
</svg>
