<svg width="103" height="104" viewBox="0 0 103 104" fill="none" xmlns="http://www.w3.org/2000/svg">
<path d="M72.633 64.9225C72.9238 69.7037 79.7562 69.2493 79.1937 64.4537C78.0622 53.7048 76.1161 42.9126 72.7117 32.6557C69.8356 23.9928 64.9875 13.9997 56.0631 10.258C46.2742 6.13005 42.9814 18.142 43.1425 25.3672C43.3252 32.1852 45.2233 38.7537 47.6074 45.1438C40.7485 40.9671 33.7323 37.1906 25.9578 34.8716C18.1906 32.4169 6.79879 32.8334 5.49341 43.3169C4.18082 53.9361 14.6121 60.0725 22.7002 64.1783C31.517 68.6631 40.9347 72.0906 50.6389 73.9673C61.4936 75.9732 72.4992 76.4213 83.441 75.5043C85.1491 75.3907 84.6786 72.7105 82.899 72.8884C61.916 74.4298 39.8141 68.8312 21.5808 58.3319C17.0224 55.707 11.2853 52.2026 10.5018 46.4422C9.51152 39.4452 16.1227 38.026 21.6465 39.1362C32.6227 41.4209 42.482 48.0716 51.8414 53.8788C54.2134 55.3664 56.6658 52.7733 55.7021 50.4073C52.8752 43.381 50.1841 36.3618 49.0869 28.8146C48.5882 25.384 48.2613 21.2817 49.4634 17.8733C51.3883 12.3927 55.8036 15.1462 58.8468 18.0991C64.7329 23.9262 67.1447 32.3602 69.0494 40.0865C70.9252 48.3559 72.1864 56.6608 72.633 64.9225Z" fill="#F19000"/>
</svg>
