<svg width="20" height="21" viewBox="0 0 20 21" fill="none" xmlns="http://www.w3.org/2000/svg">
<path fill-rule="evenodd" clip-rule="evenodd" d="M15.4208 6.98715C15.3881 6.85558 15.2569 6.78979 15.2242 6.65822C15.1914 6.46085 15.1586 6.29638 15.0602 6.13191L15.0275 6.09902C14.9947 6.00033 14.9619 5.90165 14.9291 5.80297C14.9291 5.80297 14.8963 5.80297 14.8963 5.77008C14.8963 5.70429 14.8636 5.70429 14.8636 5.67139C14.8636 5.6385 14.8636 5.57271 14.8308 5.53982L14.7652 5.50692C14.7324 5.47403 14.7324 5.40824 14.6997 5.37535C14.6341 5.34245 14.5685 5.30956 14.5357 5.27667C14.3063 5.04641 14.0768 4.75036 13.8473 4.553C13.7818 4.5201 13.749 4.45432 13.7162 4.42142C13.6834 4.38853 13.6834 4.35563 13.6506 4.35563H13.5851V4.32274C13.5523 4.28985 13.5195 4.32274 13.4867 4.28985L13.454 4.22406C13.4212 4.19116 13.3884 4.19116 13.3556 4.19116C13.3228 4.19116 13.3556 4.15827 13.3228 4.15827L13.2245 4.12538L13.1917 4.05959C13.1261 4.02669 13.0934 4.02669 13.0278 3.9938C12.995 3.96091 12.9622 3.92801 12.9295 3.89512C12.8967 3.86222 12.8967 3.82933 12.8639 3.82933H12.7983C12.7656 3.79644 12.7655 3.76354 12.7328 3.76354H12.6672V3.73065C12.6344 3.73065 12.5361 3.69775 12.4705 3.69775C12.3394 3.66486 12.1099 3.63197 11.946 3.59907C11.5526 3.53328 11.2904 3.4675 10.8314 3.50039C10.8314 3.50039 10.8314 3.53328 10.7987 3.53328C10.7659 3.53328 10.7003 3.53328 10.6675 3.53328C10.602 3.53328 10.602 3.50039 10.5364 3.50039C10.4709 3.50039 10.4381 3.53328 10.3725 3.53328C10.3069 3.53328 10.3069 3.50039 10.2414 3.50039C10.1103 3.50039 10.0119 3.50039 9.88079 3.50039C9.6841 3.50039 9.45463 3.56618 9.25794 3.56618C8.99569 3.59907 8.76622 3.56618 8.60231 3.59907C8.60231 3.59907 8.60231 3.63197 8.56953 3.63197C8.53675 3.63197 8.50397 3.63197 8.47118 3.63197C8.4384 3.63197 8.40562 3.66486 8.37284 3.66486C8.34006 3.66486 8.24172 3.73065 8.17615 3.76354C8.11059 3.79644 8.04503 3.79644 7.97946 3.82933C7.94668 3.82933 7.9139 3.89512 7.9139 3.89512H7.84834C7.81556 3.92801 7.81556 3.92801 7.78277 3.92801C7.74999 3.92801 7.71721 3.96091 7.68443 3.96091C7.65165 3.96091 7.61887 3.9938 7.5533 4.02669H7.48774C7.42218 4.09248 7.29105 4.12538 7.15993 4.15827C7.15993 4.15827 7.15993 4.19116 7.12715 4.19116C7.09437 4.19116 7.06158 4.25695 7.0288 4.25695C6.99602 4.25695 6.99602 4.28985 6.96324 4.28985C6.93046 4.32274 6.89768 4.35563 6.8649 4.38853C6.83211 4.42142 6.79933 4.38853 6.76655 4.42142C6.73377 4.42142 6.73377 4.48721 6.73377 4.48721C6.70099 4.5201 6.63543 4.5201 6.60264 4.553C6.56986 4.58589 6.56986 4.58589 6.53708 4.61879C6.40596 4.71747 6.17649 4.94773 6.04536 5.1122C6.01258 5.14509 5.9798 5.17798 5.94702 5.21088C5.91424 5.24377 5.91423 5.30956 5.88145 5.34245C5.84867 5.37535 5.81589 5.40824 5.78311 5.44114C5.55364 5.73718 5.42251 5.93455 5.29139 6.29638C5.25861 6.39506 5.22582 6.49374 5.19304 6.62532C5.16026 6.65821 5.12748 6.724 5.12748 6.7569C5.0947 6.85558 5.06192 6.98715 5.02914 7.08584C5.02914 7.11873 5.02914 7.15162 5.02914 7.18452C5.02914 7.21741 4.99635 7.21741 4.99635 7.25031C4.96357 7.44767 5.02914 7.67793 5.02914 7.90819C5.06192 8.20423 5.06192 8.43449 5.0947 8.69764V8.76343C5.12748 8.79632 5.12748 8.86211 5.16026 8.9608C5.19304 9.02658 5.22582 9.09237 5.22582 9.12527C5.25861 9.19105 5.22583 9.25684 5.25861 9.32263C5.25861 9.32263 5.29139 9.32263 5.29139 9.35552C5.32417 9.4542 5.32417 9.51999 5.35695 9.58578V9.65157C5.42251 9.71736 5.45529 9.91472 5.48808 10.0134C5.48808 10.0463 5.55364 10.0463 5.55364 10.0792C5.58642 10.145 5.6192 10.1779 5.65198 10.2437C5.68476 10.3094 5.71755 10.3423 5.75033 10.4081C5.78311 10.4739 5.81589 10.5068 5.84867 10.5726C5.84867 10.6055 5.88145 10.5726 5.88145 10.6055C5.88145 10.7042 6.07814 10.8029 6.17649 10.9015C6.20927 10.9344 6.20927 10.9673 6.20927 11.0002C6.20927 11.0331 6.27483 11.0331 6.27483 11.066C6.34039 11.1318 6.37317 11.1976 6.43874 11.2305C6.47152 11.2305 6.47152 11.2634 6.47152 11.2634C6.5043 11.2963 6.56986 11.3292 6.60264 11.3292L6.66821 11.3621C6.70099 11.3621 6.73377 11.395 6.76655 11.395C6.79933 11.4278 6.79933 11.4936 6.83211 11.4936C6.86489 11.5265 6.89768 11.4936 6.93046 11.5265C6.96324 11.5265 6.93046 11.5594 6.96324 11.5594L7.0288 11.5923C7.06158 11.6252 7.06158 11.6581 7.09437 11.6581C7.12715 11.691 7.19271 11.6581 7.22549 11.691C7.25827 11.691 7.25827 11.7568 7.29105 11.7568C7.32384 11.7897 7.35662 11.7897 7.3894 11.8226C7.42218 11.8226 7.45496 11.8884 7.45496 11.8884C7.48774 11.9213 7.55331 11.8884 7.58609 11.9213C7.61887 11.9213 7.65165 11.987 7.65165 11.987C7.68443 11.987 7.71721 11.987 7.71721 11.987C7.74999 11.987 7.78277 12.0199 7.81556 12.0199C7.84834 12.0199 7.84834 12.0528 7.84834 12.0528C8.04503 12.0857 8.2745 12.0857 8.50397 12.1186C8.799 12.1515 9.02847 12.2502 9.3235 12.1844C9.3235 12.1844 9.3235 12.1515 9.35628 12.1515H9.38906L9.42185 12.1186C9.58575 12.0857 9.78244 12.0528 9.94635 12.0199C9.97913 12.0199 10.0775 11.9541 10.1103 11.9541C10.143 11.9541 10.1758 11.9541 10.1758 11.9541C10.2086 11.9541 10.2414 11.8884 10.2414 11.8884C10.2742 11.8555 10.3069 11.8884 10.3397 11.8555C10.3725 11.8555 10.3725 11.7897 10.4053 11.7897C10.4381 11.7568 10.4709 11.7897 10.5036 11.7568C10.5364 11.7239 10.602 11.6581 10.6348 11.6252C10.6675 11.5923 10.7003 11.5923 10.7331 11.5923C10.7659 11.5923 10.7331 11.5594 10.7659 11.5594H10.7987C10.8314 11.5265 10.897 11.4607 10.9298 11.4278C10.9626 11.395 10.9626 11.3621 10.9954 11.3621C11.0281 11.3292 11.0609 11.3621 11.0937 11.3292C11.1265 11.2963 11.192 11.2305 11.2248 11.1976C11.3232 11.0989 11.3559 11.0989 11.4215 10.9673C11.4215 10.9344 11.4543 10.9673 11.4543 10.9344C11.4543 10.8686 11.5199 10.8686 11.5199 10.8029C11.5199 10.7371 11.5854 10.7042 11.6182 10.6713C11.7165 10.5397 11.8477 10.2437 11.9132 10.0792C11.9788 9.81604 12.0116 9.51999 11.9788 9.25684C11.946 9.09237 11.8477 8.9279 11.7493 8.73054C11.7165 8.66475 11.6838 8.59896 11.651 8.53317C11.6182 8.50028 11.6182 8.46738 11.5854 8.43449C11.5526 8.4016 11.5526 8.3687 11.5199 8.33581L11.4871 8.23713C11.4215 8.17134 11.3559 8.07266 11.2904 7.94108L11.2248 7.90819V7.8424C11.1593 7.77661 11.0937 7.74372 11.0281 7.67793C10.9954 7.64503 10.9626 7.57925 10.897 7.54635L10.7987 7.51346V7.48057H10.7331C10.7331 7.48057 10.6348 7.38188 10.5692 7.38188C10.5364 7.38188 10.4381 7.34899 10.3725 7.31609C10.143 7.25031 9.94635 7.21741 9.74966 7.25031C9.65132 7.25031 9.55297 7.2832 9.45463 7.31609C9.42185 7.31609 9.45463 7.34899 9.42185 7.34899C9.35628 7.34899 9.3235 7.44767 9.29072 7.48057C9.25794 7.51346 9.19238 7.51346 9.19238 7.54635C9.15959 7.57925 9.15959 7.64503 9.15959 7.67793C9.15959 7.67793 9.12681 7.67793 9.12681 7.71082C9.12681 7.71082 9.15959 7.94108 9.12681 7.94108C9.02847 8.03976 9.19238 8.27002 9.25794 8.3687C9.35628 8.46738 9.48741 8.53317 9.58575 8.66475C9.6841 8.76343 9.74966 8.89501 9.81522 9.02658C9.81522 9.05948 9.848 9.02658 9.848 9.05948L9.88079 9.12527C9.91357 9.15816 9.94635 9.19105 9.94635 9.25684C9.97913 9.4542 10.0119 9.68446 9.88079 9.88183L9.848 9.98051H9.81522V10.0463H9.78244V10.1121C9.71688 10.1779 9.6841 10.2437 9.58575 10.3094C9.55297 10.3094 9.55297 10.3423 9.52019 10.3423C9.45463 10.3752 9.35628 10.5068 9.22516 10.5068C9.09403 10.5397 8.96291 10.5068 8.83178 10.4739C8.799 10.4739 8.799 10.4739 8.76622 10.4739C8.50397 10.4081 8.20893 10.3423 7.97946 10.145C7.94668 10.1121 7.9139 10.0463 7.88112 10.0134C7.84834 9.98051 7.81556 9.94761 7.78277 9.91472C7.71721 9.81604 7.65165 9.71736 7.61887 9.61868C7.58609 9.58578 7.52052 9.55289 7.52052 9.51999V9.45421H7.48774V9.38842C7.3894 9.32263 7.35662 9.02658 7.29105 8.79633C7.22549 8.59896 7.15993 8.4016 7.12715 8.23713C7.09437 8.07266 7.09437 7.90819 7.09437 7.74372C7.09437 7.57925 7.06158 7.41478 7.09437 7.2832C7.12715 7.15162 7.25827 6.92137 7.3894 6.7569C7.42218 6.724 7.45496 6.724 7.45496 6.69111V6.62532L7.52052 6.59243C7.29105 6.59243 7.29105 6.55953 7.29105 6.52664L7.35662 6.49374C7.3894 6.46085 7.3894 6.39506 7.42218 6.36217C7.52052 6.26349 7.65165 6.1648 7.74999 6.03323C7.78278 5.96744 7.84834 5.93455 7.88112 5.90165C7.97946 5.83586 8.20893 5.73718 8.37284 5.67139C8.47118 5.6385 8.56953 5.60561 8.66787 5.57271C8.66787 5.57271 8.66787 5.53982 8.70065 5.53982C8.76622 5.53982 8.799 5.53982 8.86456 5.50692C9.09403 5.40824 9.65132 5.37535 10.0447 5.37535C10.5692 5.37535 11.1593 5.30956 11.4871 5.50692C11.5199 5.50692 11.4871 5.53982 11.5199 5.53982C11.5854 5.53982 11.651 5.60561 11.6838 5.6385C11.8477 5.77008 12.0771 5.96744 12.241 6.1648C12.3066 6.26349 12.4705 6.29638 12.5689 6.39506C12.6016 6.42796 12.5689 6.49374 12.6016 6.52664C12.6016 6.55953 12.6672 6.59243 12.6672 6.59243C12.7 6.62532 12.6672 6.65821 12.7 6.69111C12.7 6.724 12.7656 6.7569 12.7656 6.7569C12.7983 6.78979 12.7656 6.82268 12.7983 6.85558C12.7983 6.88847 12.8639 6.92137 12.8639 6.92137C12.8967 6.95426 12.8639 6.98715 12.8967 7.02005C12.8967 7.05294 12.9622 7.08584 12.9622 7.08584C12.9622 7.11873 12.9622 7.25031 12.995 7.25031H13.0278C13.0606 7.34899 13.0934 7.48056 13.1261 7.61214V7.67793H13.1589V7.74372C13.1917 7.77661 13.1917 7.77661 13.1917 7.8095L13.2245 7.90819H13.2573C13.2901 7.97397 13.2901 8.03976 13.2901 8.07266C13.2901 8.10555 13.3556 8.13844 13.3556 8.13844C13.3556 8.17134 13.3556 8.20423 13.3556 8.23713C13.3556 8.23713 13.3884 8.23713 13.3884 8.27002V8.3687C13.4212 8.3687 13.4212 8.43449 13.454 8.53317C13.4867 8.69764 13.4867 8.99369 13.5195 9.22395C13.5195 9.28973 13.5851 9.35552 13.5851 9.42131C13.6179 9.58578 13.6179 9.71736 13.5851 9.94762C13.5851 10.0463 13.5523 10.1121 13.5523 10.1779C13.5523 10.1779 13.5195 10.1779 13.5195 10.2108C13.5195 10.3423 13.454 10.5068 13.4212 10.6384C13.3556 10.8358 13.2573 11.0331 13.1261 11.1976C13.0934 11.2305 13.0606 11.2305 13.0606 11.2634V11.3292H13.0278C12.995 11.3949 12.995 11.4936 12.9622 11.5265C12.9622 11.5594 12.8967 11.5923 12.8967 11.5923C12.8639 11.6252 12.8639 11.6581 12.8639 11.691C12.7983 11.8226 12.7656 11.9541 12.7 12.0528C12.6016 12.2173 12.4705 12.3818 12.3066 12.5462C12.2738 12.5791 12.2083 12.612 12.1755 12.6449C12.1427 12.6778 12.1427 12.7436 12.1099 12.7765V12.8423H12.0771V12.9081C12.0444 12.9081 12.0116 13.0068 11.9788 13.0397H11.9132L11.8805 13.1054H11.8149L11.7821 13.1712H11.7165L11.6838 13.237C11.651 13.2699 11.6182 13.237 11.5854 13.2699L11.5526 13.3357C11.5199 13.3357 11.4871 13.3357 11.4871 13.3357C11.4543 13.3357 11.4215 13.4015 11.4215 13.4015C11.3887 13.4015 11.3887 13.4344 11.3559 13.4344C11.3232 13.4673 11.2904 13.4673 11.2576 13.4673C11.2248 13.4673 11.2248 13.5002 11.2248 13.5002C10.9626 13.6317 10.5692 13.6646 10.2742 13.7962C10.1758 13.8291 10.0775 13.8949 9.97913 13.8949C9.848 13.9278 9.6841 13.8949 9.52019 13.9278C9.48741 13.9278 9.45463 13.9607 9.42185 13.9607C8.93013 14.0265 8.14337 13.9936 7.5533 13.9278C7.35662 13.8949 7.19271 13.8949 6.99602 13.862C6.96324 13.862 6.93046 13.862 6.89768 13.862C6.83211 13.8291 6.63543 13.7962 6.47152 13.7962C6.34039 13.7962 6.20927 13.7962 6.11092 13.7633C5.91424 13.6975 5.75033 13.5988 5.58642 13.4673C5.42251 13.3686 5.25861 13.237 4.99635 13.2699C4.83245 13.1712 4.93079 13.237 4.86523 13.2041C4.83245 13.1712 4.79967 13.1383 4.76689 13.1054H4.70132C4.63576 13.0397 4.50463 12.9081 4.40629 12.8094V12.7436C4.34072 12.7107 4.30794 12.6449 4.24238 12.5791C4.17682 12.5133 4.11125 12.4147 4.07847 12.3489C4.04569 12.316 4.01291 12.2831 3.98013 12.2502C3.94735 12.2173 3.94735 12.1515 3.91457 12.1186C3.88178 12.0857 3.849 12.0528 3.81622 12.0199C3.78344 11.987 3.78344 11.9213 3.75066 11.8884C3.71788 11.8555 3.65232 11.8226 3.65232 11.7897V11.7239H3.61954V11.6581H3.58675C3.55397 11.5923 3.48841 11.4936 3.45563 11.4278C3.45563 11.395 3.42285 11.4278 3.42285 11.395C3.42285 11.3292 3.35728 11.2963 3.3245 11.2634V11.1976H3.29172V11.1318C3.22616 11.066 3.19338 11.0331 3.16059 10.9344C3.06225 10.7371 2.96391 10.5726 2.86556 10.3752C2.83278 10.2766 2.8 10.145 2.76722 10.0463C2.76722 10.0463 2.73444 10.0463 2.73444 10.0134C2.73444 9.98051 2.70166 9.88183 2.66887 9.84893V9.78315C2.57053 9.68446 2.57053 9.32263 2.50497 9.12527C2.50497 9.12527 2.47219 9.12526 2.47219 9.09237C2.47219 9.02658 2.4394 8.9608 2.40662 8.89501L2.37384 8.79633C2.34106 8.76343 2.34106 8.76343 2.34106 8.73054C2.30828 8.66475 2.24272 8.53317 2.20993 8.4016C2.17715 8.23713 2.17715 8.07266 2.14437 7.90819C2.11159 7.74372 2.11159 7.48056 2.14437 7.2832C2.17715 7.18452 2.11159 7.15163 2.11159 6.98715C2.11159 6.95426 2.14437 6.92137 2.14437 6.82268C2.14437 6.65822 2.14437 6.42796 2.17715 6.26349C2.20993 6.1648 2.2755 6.00033 2.30828 5.86876C2.34106 5.80297 2.34106 5.73718 2.37384 5.70429C2.40662 5.6385 2.40662 5.57271 2.4394 5.53982C2.4394 5.50692 2.50497 5.47403 2.50497 5.47403C2.53775 5.44114 2.53775 5.40824 2.53775 5.37535C2.60331 5.24377 2.66887 5.01351 2.73444 4.84904C2.73444 4.81615 2.76722 4.75036 2.76722 4.75036L2.83278 4.71747V4.65168H2.86556V4.58589H2.89834C2.89834 4.553 2.89834 4.5201 2.93112 4.48721L2.99669 4.45432V4.38853H3.02947V4.32274C3.09503 4.28985 3.19338 4.12538 3.22616 4.02669C3.25894 3.9938 3.22616 3.96091 3.25894 3.92801C3.25894 3.89512 3.3245 3.89512 3.3245 3.89512C3.39007 3.79644 3.42285 3.73065 3.48841 3.66486C3.52119 3.63197 3.55397 3.59907 3.58675 3.56618C3.65232 3.50039 3.75066 3.40171 3.78344 3.36881C3.88179 3.30303 4.01291 3.23724 4.14404 3.17145C4.17682 3.17145 4.17682 3.10566 4.2096 3.10566C4.30794 3.03987 4.50463 2.94119 4.63576 2.8754C4.66854 2.84251 4.66854 2.80962 4.70132 2.80962H4.76689C4.79967 2.77672 4.79967 2.71093 4.83245 2.71093C4.86523 2.67804 4.89801 2.71093 4.93079 2.67804C4.96357 2.67804 4.99635 2.61225 4.99635 2.61225H5.06192C5.0947 2.54646 5.29139 2.51357 5.42251 2.48068C5.48808 2.44778 5.58642 2.48068 5.6192 2.44778C5.6192 2.44778 5.6192 2.41489 5.65198 2.41489C5.75033 2.41489 5.81589 2.3491 5.94702 2.31621C6.07814 2.28331 6.20927 2.21752 6.34039 2.18463H6.40596V2.15174C6.60264 2.08595 6.8649 2.02016 7.09437 1.98727C7.22549 1.95437 7.35662 1.95437 7.48774 1.92148C7.48774 1.92148 7.48774 1.88858 7.52052 1.88858C7.58609 1.88858 7.68443 1.85569 7.81556 1.8228C7.94668 1.7899 8.07781 1.7899 8.20893 1.75701C8.4384 1.72411 8.70065 1.69122 9.02847 1.65833C9.02847 1.65833 9.02847 1.62543 9.06125 1.62543C9.09403 1.62543 9.15959 1.62543 9.19238 1.62543C9.45463 1.59254 9.81522 1.52675 10.143 1.49386C10.6348 1.42807 11.0609 1.42807 11.4543 1.55964H11.5199C11.5526 1.59254 11.5854 1.62543 11.6182 1.62543H11.6838V1.65833C11.7821 1.69122 11.8477 1.69122 11.9788 1.72411C11.9788 1.72411 11.9788 1.75701 12.0116 1.75701C12.0771 1.75701 12.1427 1.7899 12.2083 1.8228C12.3066 1.85569 12.4377 1.88858 12.5689 1.92148C12.9295 2.05305 13.2901 2.15174 13.6179 2.31621C13.6834 2.3491 13.749 2.41489 13.8146 2.41489C13.8801 2.41489 13.8801 2.48068 13.9457 2.48068L14.0112 2.51357C14.044 2.54646 14.044 2.57936 14.0768 2.57936H14.1424C14.1752 2.61225 14.2079 2.64515 14.2735 2.67804C14.3063 2.67804 14.2735 2.71093 14.3063 2.71093L14.3718 2.74383C14.4046 2.74383 14.4046 2.80962 14.4374 2.80962C14.503 2.84251 14.5685 2.8754 14.6013 2.9083C14.6669 2.94119 14.6997 3.00698 14.7652 3.03987C14.798 3.07277 14.8636 3.13856 14.8963 3.17145C14.9947 3.27013 15.1586 3.33592 15.2569 3.40171C15.2897 3.4346 15.3225 3.50039 15.3553 3.53328C15.4208 3.59907 15.5192 3.66486 15.5848 3.76354C15.6831 3.86222 15.7814 3.9938 15.9126 4.12538C15.9453 4.15827 15.9781 4.22406 16.0109 4.25695C16.0437 4.28985 16.0765 4.32274 16.1093 4.35563C16.142 4.38853 16.1093 4.42142 16.142 4.45432C16.142 4.48721 16.2076 4.48721 16.2076 4.48721C16.2404 4.5201 16.2076 4.553 16.2404 4.58589L16.3059 4.61879C16.3387 4.65168 16.3059 4.68457 16.3387 4.71747C16.3715 4.75036 16.4699 4.78326 16.5026 4.84904C16.5354 4.88194 16.5026 4.91483 16.5354 4.94773L16.601 4.98062C16.6338 5.01351 16.6338 5.0793 16.6665 5.1122C16.6993 5.14509 16.7649 5.14509 16.7649 5.21088C16.7649 5.24377 16.8304 5.24377 16.8304 5.27667V5.34245H16.8632C16.896 5.37535 16.8632 5.44114 16.896 5.47403C16.896 5.50692 16.9616 5.53982 16.9616 5.53982C16.9944 5.60561 16.9944 5.70429 17.0271 5.73718C17.0271 5.73718 17.0599 5.73718 17.0599 5.77008C17.0599 5.80297 17.0927 5.90165 17.1255 5.93455C17.1583 6.00033 17.1583 6.06612 17.191 6.13191C17.2566 6.26349 17.2894 6.39506 17.3549 6.55953C17.3877 6.62532 17.3877 6.724 17.4205 6.7569C17.4205 6.78979 17.4861 6.82268 17.4861 6.82268C17.5516 6.95426 17.5516 7.21741 17.5844 7.41478C17.5844 7.41478 17.6172 7.41478 17.6172 7.44767C17.6172 7.54635 17.65 7.57925 17.65 7.74372C17.65 7.8095 17.65 7.87529 17.65 7.90819C17.65 7.90819 17.6828 7.90819 17.6828 7.94108C17.6828 8.23713 17.7155 8.59896 17.7483 8.89501C17.7483 8.99369 17.7811 9.12526 17.7811 9.25684C17.7811 9.35552 17.7483 9.4871 17.7483 9.58578C17.7483 9.68446 17.7811 9.75025 17.8139 9.88183C17.8795 10.2437 17.8467 10.6713 17.8139 11.1647C17.8139 11.2305 17.8139 11.3292 17.8139 11.395C17.8139 11.4607 17.7811 11.4607 17.7811 11.4936C17.7811 11.4936 17.8139 11.4936 17.8139 11.5265V11.5594C17.8139 11.6252 17.8795 11.691 17.8795 11.7239C17.9122 11.987 17.8139 12.0857 17.7483 12.316C17.7155 12.4476 17.6828 12.612 17.65 12.7436C17.65 12.7436 17.6172 12.7436 17.6172 12.7765C17.5844 12.8423 17.5516 12.9081 17.5516 12.9739C17.5189 13.0397 17.4861 13.0725 17.4861 13.1383C17.4533 13.2699 17.4205 13.5002 17.3877 13.6317C17.3877 13.6317 17.3549 13.6317 17.3549 13.6646C17.3549 13.6975 17.3549 13.7304 17.3222 13.7633C17.2238 13.9278 17.1255 14.1909 17.0271 14.3883C17.0271 14.3883 16.9944 14.3883 16.9944 14.4212C16.9616 14.5199 16.9288 14.6186 16.896 14.7501C16.8632 14.8159 16.7977 14.9146 16.7977 14.9475C16.7977 14.9804 16.7321 15.0133 16.7321 15.0462C16.7321 15.0791 16.6665 15.112 16.6665 15.1449C16.6665 15.1778 16.601 15.2435 16.5682 15.2764L16.5026 15.3093C16.4699 15.3422 16.4699 15.408 16.4371 15.4409C16.4043 15.4738 16.3387 15.4738 16.3387 15.5067C16.3059 15.5396 16.3387 15.5725 16.3059 15.6054C16.2404 15.6712 16.142 15.737 16.0765 15.8356C16.0437 15.8685 15.9781 15.9343 15.9453 16.0001C15.9126 16.0659 15.8142 16.1646 15.7487 16.2304C15.6831 16.2962 15.552 16.3948 15.4536 16.4606C15.4208 16.4935 15.4208 16.5264 15.3881 16.5264H15.3225L15.2897 16.5922C15.2569 16.6251 15.2242 16.5922 15.1914 16.6251L15.1586 16.6909C15.1258 16.7238 15.0602 16.7238 15.0275 16.7567C14.9619 16.7896 14.9291 16.8882 14.8963 16.9211H14.8308C14.7324 17.0527 14.5357 17.2501 14.3718 17.3488C14.2735 17.4146 14.1752 17.4146 14.044 17.4474C13.9457 17.4803 13.8473 17.5461 13.749 17.579C13.7162 17.579 13.749 17.6119 13.7162 17.6119C13.6834 17.6119 13.6834 17.6777 13.6506 17.6777C13.6179 17.7106 13.5523 17.6777 13.4867 17.7106C13.3884 17.7435 13.2901 17.7764 13.1589 17.8093C12.9622 17.8751 12.7656 18.0066 12.6016 18.1053C12.241 18.3027 11.8477 18.4014 11.4215 18.5658C11.1265 18.6645 10.8314 18.829 10.5036 18.8948C10.3725 18.9277 10.2414 18.8948 10.1103 18.9277C10.0119 18.9606 9.88078 18.9935 9.74966 18.9935C9.6841 18.9935 9.61853 18.9606 9.55297 18.9935C9.55297 18.9935 9.55297 19.0264 9.52019 19.0264C9.48741 19.0264 9.45463 19.0921 9.42185 19.0921L9.35628 19.125C9.3235 19.125 9.29072 19.1579 9.25794 19.1579C9.22516 19.1579 9.19238 19.2237 9.19238 19.2237C9.15959 19.2566 9.12681 19.2237 9.09403 19.2566C8.96291 19.3553 8.89734 19.5198 8.89734 19.6513C8.89734 19.75 8.86456 19.8487 8.89734 19.9803C8.89734 19.9803 8.93013 19.9803 8.93013 20.0132L8.96291 20.1119L9.02847 20.1448C9.02847 20.1777 9.02847 20.2105 9.02847 20.2105C9.02847 20.2434 9.09403 20.2763 9.12681 20.3092C9.19238 20.375 9.25794 20.4737 9.35628 20.5395L9.38906 20.5724C9.48741 20.6053 9.61853 20.5724 9.74966 20.6053C9.91357 20.9342 10.0447 21 10.1103 21C10.3725 21 10.7003 20.9013 11.0281 20.8684C11.1593 20.8355 11.2576 20.8026 11.3887 20.8026C11.4871 20.8026 11.5854 20.7697 11.6838 20.7368C11.7493 20.6711 11.8149 20.6711 11.8805 20.6382C11.9132 20.6053 11.946 20.6053 11.9788 20.6053C12.0116 20.6053 12.0116 20.5724 12.0116 20.5724C12.0771 20.5395 12.1427 20.5724 12.2083 20.5395C12.2083 20.5395 12.2083 20.5066 12.241 20.5066C12.3066 20.4737 12.3394 20.4408 12.405 20.4408C12.4705 20.4079 12.5033 20.375 12.5689 20.375C12.6344 20.3421 12.6672 20.375 12.7328 20.3421C12.7655 20.3421 12.7983 20.2763 12.7983 20.2763C12.8311 20.2763 12.8639 20.2763 12.8967 20.2763C12.9295 20.2763 12.9622 20.2105 12.9622 20.2105C13.0606 20.1777 13.0606 20.2105 13.1589 20.1777C13.1589 20.1777 13.1589 20.1448 13.1917 20.1448H13.2245C13.2573 20.1448 13.2901 20.079 13.2901 20.079C13.454 20.0132 13.4867 20.0132 13.5195 20.0132C13.6179 19.9803 13.749 19.9145 13.9129 19.8816C13.9129 19.8816 13.9129 19.8487 13.9457 19.8487C14.0112 19.8487 14.044 19.8487 14.0768 19.8158C14.1096 19.8158 14.1424 19.75 14.1424 19.75C14.2079 19.7171 14.3391 19.6842 14.4374 19.6513C14.4702 19.6185 14.4702 19.5856 14.503 19.5856H14.5685C14.6013 19.5527 14.6669 19.5198 14.7324 19.4869C14.798 19.454 14.8636 19.454 14.9291 19.4211C14.9619 19.4211 14.9947 19.3553 14.9947 19.3553H15.0602V19.3224C15.1258 19.2895 15.1914 19.2895 15.2242 19.2566C15.2569 19.2566 15.2897 19.1908 15.2897 19.1908C15.3225 19.1908 15.3553 19.1908 15.3881 19.1908C15.4208 19.1908 15.4536 19.125 15.4536 19.125C15.5192 19.0921 15.5848 19.0921 15.6503 19.0593C15.6503 19.0593 15.6503 19.0264 15.6831 19.0264C15.7487 19.0264 15.7814 18.9606 15.847 18.9277C15.8798 18.8948 15.9453 18.8619 15.9781 18.8619C16.0109 18.8619 16.0437 18.7961 16.0765 18.7632H16.142L16.1748 18.6974H16.2404C16.2732 18.6645 16.3059 18.5987 16.3715 18.5658C16.4371 18.5329 16.5026 18.4343 16.5354 18.4014H16.601C16.6338 18.3356 16.7321 18.2369 16.7977 18.1711H16.8632L16.896 18.1053H16.9616C16.9944 18.0724 17.0271 18.0066 17.0927 17.9738C17.191 17.908 17.2566 17.8093 17.3877 17.7435C17.4533 17.6777 17.5844 17.6119 17.6828 17.5132C17.7483 17.4474 17.8467 17.3488 17.8795 17.283C17.8795 17.2501 17.945 17.1843 17.9778 17.1514C18.0434 17.0856 18.1089 17.0198 18.1417 16.9869C18.2073 16.9211 18.24 16.8554 18.2728 16.7896C18.3384 16.7238 18.404 16.6909 18.4367 16.6251C18.5023 16.5593 18.5351 16.4935 18.5679 16.4277C18.6006 16.3619 18.6662 16.2962 18.699 16.2633C18.7645 16.1317 18.8301 15.9343 18.9285 15.7699C18.9612 15.737 18.9612 15.7041 18.9612 15.6712C18.9612 15.6383 18.994 15.6383 18.994 15.6383C19.0268 15.5725 18.994 15.5396 19.0268 15.5067C19.0268 15.4738 19.0924 15.4409 19.0924 15.4409C19.1251 15.3751 19.1251 15.3422 19.1251 15.3093C19.1579 15.2435 19.1579 15.2107 19.1907 15.1449C19.1907 15.112 19.2235 15.0791 19.2563 15.0133C19.2891 14.9146 19.2891 14.8488 19.3218 14.783C19.3218 14.7501 19.3874 14.7172 19.3874 14.7172C19.3874 14.6844 19.3874 14.6515 19.3874 14.6515C19.4202 14.5199 19.5185 14.2896 19.5513 14.1252C19.5841 14.0265 19.5513 13.9278 19.5841 13.8291C19.5841 13.8291 19.6169 13.8291 19.6169 13.7962V13.7633C19.6169 13.7304 19.6496 13.6975 19.6496 13.6646C19.6824 13.5331 19.7808 13.3028 19.8136 13.1383C19.8463 13.0068 19.8791 12.8752 19.9119 12.7107C19.9447 12.612 19.9447 12.316 19.9447 12.0857C19.9447 11.9213 19.9775 11.7239 19.9775 11.5594C19.9775 11.1318 19.9119 10.7371 19.9447 10.2766C19.9447 10.2766 20.043 10.145 19.9775 10.1121C19.8791 10.0463 19.9775 9.78314 19.9775 9.65157C19.9775 9.58578 19.9119 9.4871 19.9119 9.42131C19.9119 9.38842 19.9119 9.32263 19.9119 9.28974C19.8791 9.15816 19.8463 8.86211 19.8136 8.66475C19.7808 8.3687 19.7808 8.13844 19.748 7.8424C19.748 7.77661 19.7152 7.64503 19.7152 7.61214C19.7152 7.61214 19.6824 7.61214 19.6824 7.57925V7.48057C19.6496 7.44767 19.6496 7.38188 19.6169 7.31609C19.5841 7.21741 19.5513 7.11873 19.5185 7.02005C19.4857 6.92137 19.453 6.78979 19.4202 6.69111C19.4202 6.69111 19.3874 6.69111 19.3874 6.65822C19.3874 6.59243 19.3218 6.59243 19.3218 6.52664C19.3218 6.49374 19.2235 6.32927 19.1907 6.23059V6.1648C19.1579 6.13191 19.1251 6.00033 19.0924 5.93455C18.994 5.80297 18.9612 5.47403 18.8957 5.30956C18.8957 5.27667 18.8629 5.30956 18.8629 5.27667C18.8629 5.24377 18.7973 5.24377 18.7973 5.21088V5.14509H18.7646V5.0793H18.7318V5.01351H18.699V4.94773H18.6662C18.6334 4.88194 18.6006 4.81615 18.5679 4.75036C18.5679 4.71747 18.5351 4.75036 18.5351 4.71747V4.68457C18.5023 4.65168 18.4695 4.61879 18.4367 4.58589C18.404 4.553 18.404 4.48721 18.3712 4.45432C18.3384 4.42142 18.3056 4.38853 18.2728 4.35563C18.24 4.32274 18.24 4.25695 18.2073 4.22406C18.1745 4.19116 18.1417 4.15827 18.1089 4.12538C18.0761 4.09248 18.0761 4.02669 18.0434 3.9938C18.0106 3.96091 17.9778 3.92801 17.945 3.89512V3.82933C17.8467 3.76354 17.7483 3.66486 17.65 3.53328C17.5844 3.4675 17.5516 3.40171 17.4861 3.33592C17.4533 3.30303 17.4205 3.27013 17.3877 3.23724C17.3222 3.17145 17.2894 3.07277 17.2238 3.00698C17.0927 2.84251 16.9616 2.71093 16.8304 2.57936C16.7977 2.54646 16.7649 2.51357 16.7321 2.48068C16.6993 2.44778 16.6338 2.44778 16.601 2.41489C16.5354 2.38199 16.4699 2.25042 16.4043 2.21752C16.3387 2.15174 16.2404 2.08595 16.1748 2.05305C16.1093 2.02016 16.0765 1.95437 16.0109 1.92148C15.9781 1.88858 15.8798 1.85569 15.847 1.8228C15.8142 1.7899 15.7814 1.72411 15.7487 1.72411H15.6831V1.69122H15.6175V1.65833C15.552 1.62543 15.4864 1.59254 15.4208 1.55964C15.3881 1.55964 15.4208 1.52675 15.3881 1.52675H15.3553C15.3225 1.49386 15.2897 1.46096 15.2569 1.42807H15.1914C15.1586 1.39517 15.1586 1.39517 15.1258 1.36228C15.093 1.32939 15.0602 1.29649 15.0275 1.2636C14.9947 1.2307 14.9291 1.2307 14.8963 1.19781C14.8636 1.19781 14.8963 1.16492 14.8636 1.16492C14.798 1.16492 14.7652 1.09913 14.7324 1.06623H14.6669V1.03334H14.6013V1.00045H14.5357V0.967551H14.4702V0.934657H14.4046V0.901763H14.3391V0.868869H14.2735C14.2079 0.803081 13.9785 0.704399 13.8473 0.671505H13.7818V0.638611H13.7162C13.6834 0.605717 13.5195 0.539929 13.3884 0.507035C13.2901 0.474141 13.1589 0.441247 13.0606 0.408353C12.995 0.375459 12.8967 0.375459 12.8311 0.342565C12.7328 0.309671 12.4705 0.243883 12.2738 0.210989C12.2083 0.210989 12.1755 0.178095 12.1099 0.178095C12.1099 0.178095 12.1099 0.145201 12.0771 0.145201H11.9788C11.946 0.112307 11.8805 0.145201 11.7821 0.112307C11.7821 0.112307 11.7821 0.0794129 11.7493 0.0794129C11.7165 0.0794129 11.651 0.0794129 11.6182 0.0794129C11.6182 0.0794129 11.6182 0.0465188 11.5854 0.0465188C11.5526 0.0465188 11.5199 0.0465188 11.4871 0.0465188C11.3232 0.0136247 10.9298 -0.0192688 10.6675 0.0136252C10.6675 0.0136252 10.6675 0.0465188 10.6348 0.0465188C10.5364 0.0465188 10.3397 0.0465189 10.2086 0.0794129C10.1758 0.0794129 10.143 0.0794129 10.1103 0.0794129C10.0119 0.112307 9.71688 0.112307 9.58575 0.145201C9.52019 0.178095 9.52019 0.145201 9.48741 0.178095C9.42185 0.243883 8.96291 0.178095 8.799 0.178095C8.70065 0.178095 8.56953 0.243883 8.4384 0.243883C8.34006 0.276777 8.20893 0.243883 8.07781 0.276777C8.07781 0.276777 8.07781 0.309671 8.04503 0.309671C8.01225 0.309671 7.94668 0.309671 7.9139 0.309671C7.9139 0.309671 7.9139 0.342565 7.88112 0.342565H7.78277V0.375459C7.71721 0.375459 7.65165 0.408353 7.61887 0.408353C7.45496 0.441247 7.19271 0.507035 6.96324 0.539929C6.8649 0.572823 6.76655 0.572823 6.60264 0.572823C6.53708 0.572823 6.5043 0.605717 6.47152 0.605717C6.30761 0.638611 6.1437 0.638611 6.01258 0.671505C6.01258 0.671505 6.01258 0.704399 5.9798 0.704399C5.88145 0.704399 5.71755 0.770187 5.6192 0.803081C5.55364 0.835975 5.48808 0.803081 5.45529 0.835975C5.45529 0.835975 5.45529 0.868869 5.42251 0.868869C5.32417 0.868869 5.25861 0.934657 5.19304 0.967551H5.12748V1.00045H5.06192V1.03334C4.99635 1.06623 4.86523 1.06623 4.83245 1.09913L4.79967 1.16492H4.7341V1.19781H4.66854V1.2307H4.60298V1.2636H4.53741V1.29649H4.47185V1.32939H4.40629C4.37351 1.39517 4.27516 1.39517 4.17682 1.42807H4.11126C4.07848 1.46096 4.01291 1.46096 3.94735 1.49386C3.94735 1.49386 3.94735 1.52675 3.91457 1.52675C3.849 1.52675 3.84901 1.59254 3.78344 1.59254C3.71788 1.59254 3.71788 1.65833 3.65232 1.65833C3.61954 1.65833 3.61953 1.72411 3.58675 1.72411H3.52119V1.75701H3.45563C3.42285 1.7899 3.42285 1.85569 3.35728 1.85569H3.3245C3.29172 1.88858 3.25894 1.92148 3.22616 1.95437C3.16059 1.98727 3.09503 2.02016 3.02947 2.05305C2.99669 2.05305 3.02947 2.08595 2.99669 2.08595C2.96391 2.08595 2.96391 2.15174 2.93112 2.15174C2.86556 2.18463 2.83278 2.18463 2.76722 2.25042C2.73444 2.28331 2.70166 2.31621 2.66887 2.3491C2.60331 2.41489 2.53775 2.51357 2.47219 2.54646H2.40662C2.37384 2.61225 2.30828 2.64515 2.24271 2.71093C2.14437 2.80962 2.04603 2.8754 1.94768 3.00698C1.9149 3.03987 1.84934 3.07277 1.81656 3.13856C1.78378 3.17145 1.81656 3.20434 1.78378 3.23724C1.75099 3.30303 1.68543 3.33592 1.65265 3.36881C1.61987 3.40171 1.58709 3.40171 1.58709 3.4346C1.5543 3.4675 1.52152 3.56618 1.48874 3.63197C1.45596 3.69775 1.42318 3.73065 1.3904 3.79644C1.35762 3.82933 1.32484 3.86222 1.32484 3.86222C1.25927 3.9938 1.19371 4.09248 1.12815 4.22406C1.12815 4.25695 1.09537 4.22406 1.09537 4.25695L1.06258 4.32274C1.06258 4.35563 0.997023 4.35563 0.997023 4.38853C0.964241 4.42142 0.997021 4.45432 0.964239 4.48721C0.964239 4.5201 0.898678 4.553 0.898678 4.553C0.833115 4.68457 0.800333 4.81615 0.73477 4.94773C0.73477 4.98062 0.73477 5.01351 0.701988 5.04641C0.701988 5.0793 0.636425 5.1122 0.636425 5.1122C0.603643 5.14509 0.636425 5.17798 0.603643 5.21088C0.603643 5.24377 0.538082 5.27667 0.538082 5.27667C0.538082 5.30956 0.538082 5.34245 0.538082 5.34245C0.538082 5.37535 0.505299 5.40824 0.472517 5.47403C0.472517 5.50692 0.439737 5.53982 0.439737 5.57271C0.439737 5.60561 0.374174 5.6385 0.374174 5.6385C0.341393 5.70429 0.341394 5.80297 0.341394 5.83586C0.341394 5.83586 0.308611 5.83586 0.308611 5.86876C0.275829 6.00033 0.210268 6.1648 0.177486 6.36217C0.111923 6.52664 0.0791416 6.69111 0.04636 6.92137C0.0135784 7.11873 -0.0192013 7.48057 0.0135803 7.8095C0.0135803 7.8424 0.0135803 7.87529 0.0135803 7.90819C0.0463619 8.10555 0.0791416 8.53317 0.111923 8.79633C0.111923 8.86211 0.111921 8.9279 0.144703 8.9608C0.144703 8.99369 0.177486 8.96079 0.177486 8.99369C0.177486 9.05948 0.275829 9.19105 0.308611 9.32263C0.341393 9.42131 0.374174 9.51999 0.374174 9.61868C0.406956 9.71736 0.374174 9.78314 0.406956 9.91472C0.406956 9.94761 0.439737 9.94761 0.439737 9.98051C0.439737 10.0463 0.439735 10.145 0.472517 10.1779C0.472517 10.1779 0.505301 10.1779 0.505301 10.2108C0.505301 10.3094 0.636427 10.4739 0.669209 10.6055C0.70199 10.6713 0.669209 10.7042 0.701988 10.7371C0.701988 10.77 0.767551 10.8029 0.767551 10.8029C0.800333 10.9015 0.833115 11.0331 0.865896 11.1647C0.865896 11.1647 0.898678 11.1647 0.898678 11.1976C0.931459 11.2634 0.931458 11.2963 0.964239 11.3621C0.964239 11.395 0.997023 11.4278 0.997023 11.4607C1.06259 11.5923 1.12815 11.7239 1.19371 11.8555C1.25927 11.987 1.32483 12.1515 1.3904 12.2831C1.3904 12.316 1.42318 12.2831 1.42318 12.316L1.45596 12.3818C1.45596 12.4147 1.52152 12.4147 1.52152 12.4476C1.55431 12.5133 1.58709 12.5791 1.61987 12.612C1.71821 12.7436 1.78378 12.8752 1.84934 13.0068C1.88212 13.0725 1.9149 13.1383 1.94768 13.2041C1.94768 13.237 2.01325 13.237 2.01325 13.2699C2.01325 13.3028 2.01324 13.3357 2.04603 13.3686C2.07881 13.4015 2.14437 13.4015 2.14437 13.4344C2.17715 13.4673 2.14437 13.5002 2.17715 13.5331L2.24271 13.566C2.2755 13.5988 2.2755 13.6646 2.30828 13.6975C2.34106 13.7304 2.40662 13.7304 2.40662 13.7633C2.4394 13.7962 2.40662 13.8291 2.4394 13.862C2.47219 13.8949 2.53775 13.8949 2.53775 13.9278C2.57053 13.9607 2.53775 13.9936 2.57053 14.0265C2.66887 14.1252 2.76722 14.2238 2.89834 14.3554C2.96391 14.4212 2.99669 14.487 3.02947 14.5199C3.06225 14.5528 3.09503 14.5199 3.12782 14.5528C3.1606 14.5857 3.16059 14.6186 3.19338 14.6186C3.35728 14.7501 3.48841 14.9146 3.6851 15.0791C3.75066 15.1449 3.81622 15.2107 3.88179 15.2435C3.91457 15.2435 3.91457 15.2764 3.91457 15.2764C3.94735 15.2764 3.98013 15.2764 4.01291 15.3093L4.04569 15.3751C4.07847 15.408 4.11126 15.408 4.17682 15.4409C4.2096 15.4738 4.24238 15.4738 4.27516 15.5067C4.34073 15.5396 4.37351 15.5725 4.43907 15.6054C4.50463 15.6383 4.53741 15.6712 4.66854 15.7041C4.7341 15.737 4.79967 15.7041 4.83245 15.737C4.83245 15.737 4.83245 15.7699 4.86523 15.7699C4.96357 15.7699 5.02914 15.8356 5.0947 15.8685C5.68476 16.0988 6.40596 16.2633 7.15993 16.3291C7.29105 16.3291 7.42218 16.3619 7.5533 16.3619C7.65165 16.3619 7.71721 16.2962 7.84834 16.3291C7.88112 16.3291 7.88112 16.3619 7.9139 16.3619C7.97946 16.3619 8.47118 16.2962 8.50397 16.3619C8.53675 16.3948 8.56953 16.3619 8.66787 16.3619C9.19238 16.3291 9.6841 16.2962 10.1758 16.1975C10.2742 16.1646 10.4053 16.1646 10.5364 16.1317C10.6348 16.0988 10.7659 16.0988 10.897 16.0659C10.897 16.0659 10.897 16.033 10.9298 16.033C10.9954 16.033 10.9954 16.0001 11.0281 16.0001C11.0937 15.9672 11.1593 15.9672 11.192 15.9672C11.2576 15.9343 11.3232 15.9343 11.3559 15.9343C11.3559 15.9343 11.3559 15.9014 11.3887 15.9014H11.4871V15.8685C11.6182 15.8356 11.7165 15.8356 11.8477 15.8027C11.8477 15.8027 11.8477 15.7699 11.8805 15.7699C11.946 15.7699 12.0444 15.7041 12.1099 15.6712C12.241 15.6054 12.3394 15.5725 12.4705 15.5067C12.5033 15.5067 12.4705 15.4738 12.5033 15.4738C12.5689 15.4738 12.5689 15.408 12.6344 15.408C12.6672 15.408 12.6672 15.3422 12.7 15.3422H12.7656V15.3093H12.8311V15.2764H12.8967V15.2435H12.9622V15.2107H13.0278V15.1778H13.0934C13.1261 15.1449 13.1261 15.1449 13.1589 15.112C13.1917 15.0791 13.2573 15.0791 13.2901 15.0462C13.3228 15.0133 13.3556 14.9804 13.3884 14.9475C13.4212 14.9146 13.4867 14.9146 13.5195 14.8817C13.5523 14.8488 13.5851 14.8159 13.6179 14.783H13.6834C13.7162 14.7172 13.749 14.7172 13.8146 14.6844C13.8473 14.6844 13.8146 14.6515 13.8473 14.6515H13.8801C13.9129 14.6186 13.9457 14.5857 13.9785 14.5528C14.0112 14.5199 14.044 14.487 14.0768 14.487C14.1096 14.487 14.2735 14.3225 14.3063 14.2896C14.3718 14.2238 14.4702 14.1909 14.503 14.1252C14.5357 14.0923 14.5685 14.0594 14.5685 14.0594V13.9936C14.6013 13.9607 14.6669 13.9607 14.6669 13.8949C14.6669 13.8291 14.7652 13.8291 14.7652 13.7633C14.7652 13.7304 14.8308 13.6646 14.8636 13.6317C14.8963 13.5988 14.8636 13.566 14.8963 13.5331C14.8963 13.5002 14.9619 13.5002 14.9619 13.5002V13.4344C15.1258 13.3028 15.1914 12.9739 15.3225 12.7436C15.3553 12.7107 15.3881 12.7107 15.3881 12.6778V12.612H15.4208V12.5462H15.4536V12.4805C15.552 12.3818 15.6503 12.2502 15.7487 12.0528V11.987H15.7814V11.9213C15.8142 11.8884 15.847 11.7239 15.8798 11.6252V11.5594C15.9453 11.4936 15.9781 11.1318 15.9781 10.9673C15.9781 10.8686 16.0109 10.77 16.0109 10.6384C16.0437 10.3423 16.0109 10.0134 15.9781 9.68446C15.9453 9.32263 15.9453 8.99369 15.847 8.69764V8.63186C15.7814 8.59896 15.7487 8.33581 15.7159 8.20423C15.6831 8.07266 15.6175 7.94108 15.5848 7.8095C15.5848 7.8095 15.552 7.8095 15.552 7.77661C15.552 7.71082 15.5192 7.71082 15.5192 7.64504C15.4864 7.08584 15.4864 7.02005 15.4208 6.98715Z" fill="#F8A326"/>
</svg>
