<svg width="220" height="220" viewBox="0 0 220 220" fill="none" xmlns="http://www.w3.org/2000/svg">
<path d="M86.7535 105.562V121.771H100.063C100.222 121.771 100.38 121.8 100.527 121.858C100.674 121.916 100.808 122.002 100.92 122.109L110.953 131.712V95.6213L100.92 105.224C100.808 105.331 100.674 105.417 100.527 105.475C100.38 105.533 100.222 105.562 100.063 105.562H86.7535ZM99.5625 124.087H85.5435C85.3846 124.087 85.2273 124.057 85.0804 123.998C84.9336 123.94 84.8003 123.855 84.6879 123.747C84.5755 123.64 84.4864 123.512 84.4256 123.372C84.3648 123.231 84.3335 123.081 84.3335 122.929V104.404C84.3335 104.252 84.3648 104.102 84.4256 103.961C84.4864 103.821 84.5755 103.693 84.6879 103.586C84.8003 103.478 84.9336 103.393 85.0804 103.335C85.2273 103.276 85.3846 103.246 85.5435 103.246H99.5625L111.307 92.0066C111.476 91.8443 111.692 91.7337 111.927 91.6889C112.162 91.644 112.405 91.667 112.627 91.7548C112.848 91.8426 113.037 91.9913 113.17 92.182C113.303 92.3728 113.374 92.5971 113.373 92.8264V134.507C113.374 134.736 113.303 134.96 113.17 135.151C113.037 135.342 112.848 135.49 112.627 135.578C112.405 135.666 112.162 135.689 111.927 135.644C111.692 135.599 111.476 135.489 111.307 135.326L99.5625 124.087ZM136.683 132.497C136.455 132.708 136.149 132.824 135.832 132.822C135.515 132.819 135.211 132.697 134.987 132.483C134.762 132.268 134.635 131.978 134.632 131.674C134.63 131.37 134.752 131.078 134.972 130.86C137.335 128.604 139.209 125.925 140.487 122.974C141.764 120.023 142.418 116.86 142.413 113.667C142.413 107.13 139.705 101.005 134.972 96.4734C134.752 96.255 134.63 95.9626 134.632 95.659C134.635 95.3554 134.762 95.065 134.987 94.8504C135.211 94.6357 135.515 94.514 135.832 94.5113C136.149 94.5087 136.455 94.6254 136.683 94.8363C139.271 97.3063 141.324 100.241 142.722 103.473C144.121 106.705 144.839 110.169 144.833 113.667C144.833 120.824 141.867 127.537 136.683 132.497ZM129.837 125.946C129.609 126.157 129.303 126.274 128.986 126.271C128.668 126.268 128.365 126.147 128.141 125.932C127.916 125.717 127.789 125.427 127.786 125.123C127.783 124.82 127.905 124.527 128.126 124.309C129.589 122.913 130.749 121.254 131.54 119.428C132.331 117.601 132.736 115.643 132.733 113.667C132.736 111.69 132.331 109.732 131.54 107.905C130.749 106.079 129.589 104.42 128.126 103.024C128.01 102.917 127.918 102.79 127.855 102.648C127.791 102.507 127.758 102.355 127.756 102.201C127.755 102.048 127.786 101.895 127.847 101.753C127.907 101.611 127.997 101.481 128.111 101.373C128.224 101.264 128.36 101.178 128.508 101.12C128.657 101.062 128.816 101.032 128.977 101.034C129.138 101.035 129.296 101.067 129.444 101.128C129.592 101.188 129.725 101.276 129.837 101.387C131.525 102.998 132.863 104.912 133.776 107.019C134.688 109.126 135.156 111.386 135.153 113.667C135.153 118.335 133.217 122.711 129.837 125.946ZM122.993 119.398C122.881 119.508 122.748 119.596 122.6 119.657C122.453 119.718 122.294 119.75 122.133 119.751C121.972 119.752 121.813 119.723 121.664 119.665C121.516 119.607 121.381 119.521 121.267 119.412C121.153 119.303 121.064 119.174 121.003 119.032C120.942 118.889 120.911 118.737 120.913 118.583C120.914 118.429 120.947 118.278 121.011 118.136C121.074 117.995 121.166 117.867 121.282 117.76C121.845 117.224 122.291 116.585 122.595 115.883C122.899 115.18 123.055 114.427 123.053 113.667C123.055 112.906 122.899 112.153 122.595 111.45C122.291 110.748 121.845 110.109 121.282 109.573C121.166 109.466 121.074 109.338 121.011 109.197C120.947 109.056 120.914 108.904 120.913 108.75C120.911 108.596 120.942 108.444 121.003 108.301C121.064 108.159 121.153 108.03 121.267 107.921C121.381 107.812 121.516 107.726 121.664 107.668C121.813 107.61 121.972 107.581 122.133 107.582C122.294 107.583 122.453 107.615 122.6 107.676C122.748 107.737 122.881 107.825 122.993 107.935C123.781 108.687 124.405 109.581 124.831 110.564C125.256 111.548 125.475 112.602 125.473 113.667C125.475 114.731 125.256 115.785 124.831 116.769C124.405 117.752 123.781 118.646 122.993 119.398Z" fill="#3C2C16" stroke="#3C2C16" stroke-width="0.2"/>
<path d="M49.5641 135.372C49.9869 134.55 50.6405 133.943 51.5274 133.542C52.458 133.124 53.4032 133.066 54.3629 133.362C55.3227 133.659 56.2144 134.23 57.0406 135.075C57.8643 135.923 58.5446 136.946 59.084 138.142C59.5456 139.177 59.8712 140.277 60.0511 141.448C60.2284 142.62 60.2308 143.779 60.0535 144.923L57.5289 144.938C57.682 144.053 57.6942 143.144 57.5678 142.207C57.4366 141.269 57.1936 140.396 56.8267 139.58C56.3019 138.416 55.6362 137.544 54.8295 136.978C54.0252 136.409 53.2209 136.302 52.424 136.657C51.7461 136.966 51.3525 137.481 51.2528 138.2C51.1508 138.922 51.3209 139.774 51.768 140.768L53.3911 144.379L51.1289 145.394L49.6054 142.002C49.2191 141.147 48.7405 140.554 48.1646 140.229C47.5888 139.903 47.0007 139.874 46.3957 140.144C45.6716 140.472 45.2586 141.052 45.1541 141.891C45.0497 142.727 45.227 143.657 45.6862 144.673C45.9997 145.37 46.4225 146.041 46.9521 146.689C47.4818 147.341 48.0868 147.899 48.7623 148.378L46.8453 150.334C46.058 149.729 45.3558 149.027 44.7386 148.232C44.1239 147.433 43.6161 146.59 43.2176 145.703C42.7 144.554 42.4012 143.412 42.321 142.287C42.2408 141.157 42.3988 140.158 42.7973 139.288C43.1933 138.416 43.8396 137.784 44.7241 137.383C45.4919 137.038 46.2597 136.944 47.0202 137.097C47.7807 137.252 48.4805 137.624 49.1146 138.207C48.9907 137.133 49.1438 136.193 49.5641 135.372Z" fill="#3C2C16"/>
<path d="M50.4738 116.145L55.8679 115.258L56.3296 118.062L53.4746 118.528L55.1001 128.405L57.9527 127.939L58.4095 130.718L53.0154 131.608L52.9182 131.008C52.7505 130.201 52.1358 129.73 51.0715 129.598C50.0073 129.472 48.5422 129.513 46.6713 129.722L42.2564 130.276L40.519 119.726L50.7824 118.04L50.4738 116.145ZM50.0948 126.721C51.0521 126.743 51.7883 126.952 52.3132 127.339L51.2756 121.033L43.5538 122.302L44.3629 127.215L46.438 126.952C47.9201 126.775 49.1399 126.7 50.0948 126.721Z" fill="#3C2C16"/>
<path d="M42.0119 102.159C42.6656 101.226 43.5208 100.529 44.5778 100.069C45.6372 99.6102 46.8181 99.4498 48.1229 99.5859C49.4276 99.7219 50.555 100.128 51.5026 100.796C52.4527 101.464 53.1476 102.327 53.5898 103.374C54.0345 104.421 54.1875 105.575 54.0563 106.831C53.8741 108.574 53.15 109.888 51.8817 110.782L58.1408 111.441L57.8225 114.461L40.231 112.612L40.5322 109.735L42.2234 109.915C41.6669 109.354 41.2685 108.688 41.0401 107.922C40.8117 107.157 40.7436 106.331 40.836 105.444C40.972 104.185 41.3632 103.092 42.0119 102.159ZM50.6109 104.037C49.9452 103.243 49.0097 102.783 47.7997 102.657C46.5921 102.528 45.5813 102.788 44.7649 103.425C43.9461 104.066 43.482 104.939 43.3653 106.049C43.29 106.778 43.3872 107.446 43.6545 108.059C43.9218 108.676 44.347 109.183 44.9228 109.587C45.4987 109.988 46.1887 110.233 46.9954 110.318C47.8045 110.403 48.5286 110.306 49.1749 110.034C49.8237 109.759 50.3437 109.349 50.7349 108.804C51.126 108.258 51.3593 107.624 51.4346 106.897C51.5512 105.784 51.2791 104.832 50.6109 104.037Z" fill="#3C2C16"/>
<path d="M47.399 85.739C48.6041 85.1024 50.0766 85.1024 51.809 85.7366L58.9501 88.3437L57.9685 91.0383L56.4863 90.494C56.8921 91.0407 57.1156 91.6871 57.1618 92.4379C57.2079 93.1887 57.0622 94.0148 56.7293 94.9284C56.394 95.842 55.9469 96.5855 55.3856 97.1565C54.8244 97.7275 54.1975 98.0992 53.505 98.2669C52.8125 98.437 52.1176 98.3932 51.4178 98.1405C50.322 97.7372 49.593 97.0131 49.2286 95.9562C48.8665 94.9017 49.0026 93.4972 49.6417 91.7502L50.7909 88.6013L50.6111 88.5357C49.7583 88.2246 49.0099 88.2392 48.3685 88.5818C47.7246 88.9268 47.2192 89.5999 46.8523 90.6034C46.6044 91.2886 46.4635 92.0005 46.4368 92.7392C46.4052 93.4802 46.5 94.146 46.7138 94.7437L44.2281 95.1033C43.9754 94.2869 43.8807 93.3806 43.9536 92.3893C44.0192 91.3979 44.2378 90.3993 44.6072 89.3958C45.2583 87.5929 46.1914 86.3756 47.399 85.739ZM55.0746 91.4903C54.9483 90.8172 54.6251 90.2535 54.1027 89.804L52.6861 89.2889L51.6122 92.2338C51.012 93.8763 51.2526 94.8944 52.3338 95.2904C52.8514 95.4799 53.3349 95.424 53.7917 95.1252C54.2485 94.8239 54.6057 94.3088 54.8705 93.5798C55.1329 92.8606 55.1985 92.1682 55.0746 91.4903Z" fill="#3C2C16"/>
<path d="M63.7806 73.9253C64.7501 74.5692 65.2555 75.4342 65.2968 76.513C65.3381 77.5919 64.8813 78.8432 63.9288 80.2719L60.2647 85.7705L49.4692 78.5759L52.9851 73.2984C53.8647 71.9791 54.7953 71.1068 55.7745 70.6889C56.7537 70.271 57.6892 70.3584 58.5785 70.9513C59.13 71.3206 59.5115 71.7823 59.7229 72.3436C59.9343 72.9 59.978 73.5196 59.8589 74.1975C61.154 73.1381 62.4588 73.0458 63.7806 73.9253ZM55.5801 79.1761L57.3442 76.53C58.2164 75.2228 58.2018 74.2655 57.298 73.6629C56.4232 73.0798 55.5461 73.4418 54.6763 74.749L52.9098 77.3975L55.5801 79.1761ZM61.9898 76.2652C61.5185 75.9469 61.0544 75.874 60.6025 76.0441C60.1505 76.2093 59.6986 76.6345 59.2394 77.3222L57.2591 80.2962L60.029 82.1428L61.9583 79.2514C62.8791 77.8616 62.8913 76.8654 61.9898 76.2652Z" fill="#3C2C16"/>
<path d="M69.7058 72.156C68.537 72.467 67.3878 72.4573 66.2603 72.122C65.1305 71.7891 64.1318 71.1549 63.262 70.217C62.3921 69.2791 61.8333 68.2416 61.5879 67.0948C61.3425 65.9504 61.4178 64.8108 61.809 63.6712C62.2002 62.5317 62.8927 61.5014 63.8913 60.5757C64.8292 59.7058 65.8278 59.13 66.8848 58.8554C67.9417 58.5809 68.9792 58.6319 69.9973 59.0133L69.2149 61.5962C68.5346 61.4115 67.8883 61.397 67.2735 61.5598C66.6612 61.7201 66.1097 62.0263 65.6237 62.4782C64.7927 63.2509 64.3578 64.162 64.3117 65.2093C64.2655 66.2565 64.6664 67.2284 65.5023 68.1298C66.3405 69.0337 67.2784 69.5027 68.3208 69.5415C69.3631 69.5804 70.3035 69.2062 71.1466 68.4239C71.6326 67.9719 71.98 67.4446 72.1841 66.8469C72.3907 66.2468 72.4271 65.6005 72.291 64.908L74.9249 64.3175C75.2189 65.3721 75.1922 66.4193 74.8447 67.4592C74.4972 68.504 73.8607 69.4516 72.9374 70.3118C71.9509 71.2302 70.8745 71.845 69.7058 72.156Z" fill="#3C2C16"/>
<path d="M81.8622 51.3722L77.9649 53.7072L83.3104 62.6269L80.7056 64.1893L75.3602 55.2696L71.4434 57.6167L70.1191 55.4056L80.5404 49.1611L81.8622 51.3722Z" fill="#3C2C16"/>
<path d="M98.63 52.5753C98.9945 53.6832 98.8633 54.6746 98.2291 55.5469C97.595 56.424 96.4651 57.1287 94.8372 57.6681L88.5611 59.7407L84.4888 47.4217L90.5122 45.4318C92.0186 44.9336 93.2869 44.8243 94.3147 45.0964C95.3425 45.3686 96.0253 46.0149 96.3606 47.0305C96.5696 47.6598 96.5866 48.26 96.4068 48.831C96.2294 49.402 95.8844 49.9171 95.3693 50.3788C97.0458 50.335 98.1319 51.0712 98.63 52.5753ZM88.9353 51.6592L91.9579 50.6606C93.4473 50.1674 94.0256 49.4069 93.6855 48.3766C93.3526 47.3756 92.4414 47.1204 90.952 47.6161L87.9293 48.6172L88.9353 51.6592ZM95.7775 53.3139C95.6001 52.7745 95.2818 52.4344 94.8202 52.2861C94.3634 52.1403 93.7413 52.1938 92.9565 52.4538L89.5646 53.5763L90.6069 56.735L93.9065 55.6441C95.4956 55.1217 96.1176 54.3441 95.7775 53.3139Z" fill="#3C2C16"/>
<path d="M113.202 41.7642L108.313 56.2383C107.864 57.6913 107.259 58.7337 106.501 59.3751C105.743 60.0166 104.79 60.3859 103.643 60.4807C102.994 60.5341 102.351 60.4831 101.702 60.3252C101.056 60.1697 100.516 59.9218 100.081 59.5817L101.107 57.254C101.42 57.5042 101.78 57.6962 102.188 57.8225C102.596 57.9489 103.004 57.9975 103.408 57.9634C103.94 57.9173 104.37 57.7448 104.693 57.4435C105.016 57.1398 105.298 56.6514 105.534 55.9832L105.709 55.4559L98.9854 42.9499L102.132 42.6875L106.999 51.9133L110.291 42.0071L113.202 41.7642Z" fill="#3C2C16"/>
<path d="M117.372 42.083L120.373 42.547L119.068 51.0002L127.456 43.6404L130.194 44.0632L128.216 56.8827L125.216 56.421L126.52 47.9679L118.155 55.3301L115.392 54.9024L117.372 42.083ZM121 40.1732C120.41 39.4685 120.198 38.5379 120.359 37.3813L122.353 37.6899C122.281 38.2706 122.39 38.7542 122.681 39.1429C122.973 39.5317 123.432 39.7747 124.057 39.8719C124.662 39.9666 125.172 39.8719 125.587 39.5924C125.998 39.3106 126.256 38.883 126.363 38.312L128.404 38.6254C128.209 39.7771 127.721 40.5984 126.938 41.094C126.156 41.5873 125.119 41.7331 123.821 41.5314C122.531 41.3297 121.586 40.8778 121 40.1732Z" fill="#3C2C16"/>
<path d="M134.764 56.0494C134.987 56.528 134.995 57.048 134.79 57.6117C134.701 57.8547 134.574 58.0977 134.409 58.3382C134.244 58.5788 133.955 58.9286 133.549 59.383L131.211 62.1748L129.362 61.5018L131.547 58.3431C131.262 58.0831 131.08 57.7697 130.995 57.4052C130.915 57.0407 130.947 56.6568 131.09 56.2632C131.294 55.6995 131.637 55.3059 132.115 55.0872C132.594 54.8636 133.099 54.8491 133.631 55.0459C134.166 55.2354 134.54 55.5731 134.764 56.0494Z" fill="#3C2C16"/>
<path d="M154.712 69.1208L151.449 73.509L149.169 71.8105L150.895 69.4901L142.864 63.5129L141.137 65.8333L138.875 64.1519L142.14 59.7662L142.626 60.1282C143.309 60.5972 144.077 60.5048 144.932 59.8609C145.787 59.2146 146.813 58.165 148.013 56.7168L150.802 53.252L159.379 59.635L153.171 67.9788L154.712 69.1208ZM147.636 61.2532C146.934 61.902 146.259 62.2664 145.61 62.349L150.737 66.1662L155.407 59.8877L151.412 56.9136L150.105 58.5464C149.165 59.703 148.341 60.6045 147.636 61.2532Z" fill="#3C2C16"/>
<path d="M170.5 73.2599C170.68 74.3849 170.551 75.4807 170.111 76.5474C169.671 77.6116 168.937 78.5495 167.905 79.3586C166.87 80.1677 165.781 80.6634 164.632 80.8408C163.488 81.0181 162.389 80.8869 161.342 80.4398C160.292 79.9952 159.379 79.2784 158.599 78.2822C157.52 76.907 157.124 75.4564 157.413 73.9353L152.461 77.8181L150.585 75.4297L164.506 64.5127L166.289 66.787L164.953 67.8366C165.747 67.8512 166.491 68.0529 167.188 68.4441C167.883 68.8328 168.51 69.3771 169.061 70.0793C169.839 71.0779 170.32 72.1373 170.5 73.2599ZM163.019 77.8935C164.049 78.0028 165.043 77.6821 166 76.9313C166.957 76.1829 167.504 75.2936 167.645 74.2658C167.788 73.238 167.511 72.2855 166.824 71.406C166.374 70.8325 165.837 70.4195 165.218 70.1644C164.596 69.9117 163.937 69.8412 163.245 69.9529C162.552 70.0647 161.884 70.3733 161.25 70.8714C160.611 71.372 160.156 71.9454 159.882 72.5941C159.61 73.2404 159.522 73.8965 159.619 74.5598C159.716 75.2231 159.991 75.8427 160.443 76.4161C161.126 77.2933 161.986 77.7865 163.019 77.8935Z" fill="#3C2C16"/>
<path d="M180.332 90.8308L165.056 91.0519C163.537 91.1127 162.349 90.8915 161.491 90.391C160.636 89.8881 159.97 89.113 159.499 88.0633C159.232 87.4704 159.066 86.846 158.998 86.1826C158.93 85.5193 158.984 84.9265 159.156 84.4065L161.693 84.596C161.562 84.975 161.503 85.3784 161.52 85.8085C161.535 86.2361 161.625 86.6346 161.79 87.0039C162.011 87.4923 162.317 87.8373 162.713 88.0438C163.107 88.2479 163.661 88.35 164.371 88.35L164.925 88.3403L174.476 77.8291L175.773 80.7084L168.7 88.3719L179.136 88.1751L180.332 90.8308Z" fill="#3C2C16"/>
<path d="M175.787 107.957L175.466 105.792L170.32 106.557L169.878 103.576L175.019 102.813L174.696 100.648L169.088 98.2912L168.561 94.7341L175.818 97.9511L181.438 93.1353L181.912 96.3304L177.186 100.228L177.517 102.439L182.707 101.666L183.151 104.65L177.959 105.418L178.285 107.605L183.943 109.983L184.417 113.181L177.641 110.204L171.634 115.424L171.102 111.84L175.787 107.957Z" fill="#3C2C16"/>
<path d="M171.314 118.565C172.026 117.602 172.923 116.903 174.009 116.46C175.095 116.018 176.273 115.889 177.539 116.072C178.805 116.254 179.894 116.708 180.805 117.437C181.716 118.166 182.375 119.089 182.788 120.214C183.201 121.337 183.31 122.547 183.125 123.845C182.936 125.161 182.484 126.301 181.777 127.261C181.065 128.223 180.171 128.928 179.094 129.367C178.016 129.81 176.842 129.938 175.576 129.756C174.31 129.576 173.217 129.12 172.298 128.391C171.38 127.664 170.717 126.736 170.306 125.613C169.893 124.491 169.781 123.271 169.968 121.957C170.158 120.657 170.605 119.529 171.314 118.565ZM173.258 125.227C173.892 126.053 174.811 126.554 176.013 126.724C177.214 126.896 178.237 126.675 179.077 126.061C179.92 125.446 180.421 124.586 180.577 123.478C180.737 122.375 180.499 121.407 179.862 120.591C179.228 119.772 178.307 119.277 177.104 119.104C175.904 118.934 174.884 119.15 174.04 119.758C173.2 120.365 172.702 121.225 172.544 122.333C172.386 123.429 172.621 124.396 173.258 125.227Z" fill="#3C2C16"/>
<path d="M171.247 137.733L172.134 135.551L167.318 133.593L168.463 130.779L180.48 135.668L179.336 138.479L174.476 136.504L173.56 138.756L176.974 144.289L175.749 147.304L171.74 140.586L163.61 142.707L164.956 139.4L171.247 137.733Z" fill="#3C2C16"/>
</svg>
