<svg width="76" height="75" viewBox="0 0 76 75" fill="none" xmlns="http://www.w3.org/2000/svg">
<path d="M64.1782 25.7703L64.1557 25.745C63.2534 24.7641 61.7869 25.0603 60.7158 25.2757C60.4545 25.3284 60.2112 25.378 60.0222 25.4014C58.5987 25.4952 57.3388 25.7925 56.0055 26.1086C55.6632 26.1894 55.3146 26.2727 54.9711 26.3503C54.1262 26.5025 53.2902 26.5843 52.4065 26.6706C51.1966 26.7884 49.9462 26.9107 48.6566 27.2359C47.0275 27.726 45.8703 27.7899 44.2084 27.7389C43.9881 27.7165 43.7188 27.7072 43.4066 27.7106C43.354 27.5675 43.2738 27.434 43.1443 27.3467C42.9595 27.1696 42.7497 26.9121 42.7105 26.8693C41.6641 25.881 40.6255 24.7467 39.3827 23.2401C38.9631 22.5401 38.4036 21.622 37.7898 20.7201C37.2953 20.0111 36.7706 19.3383 36.2625 18.6876C35.1896 17.3142 34.1774 16.0159 33.4876 14.4499C32.907 13.2861 31.7397 11.6912 30.5702 10.9522C30.2862 10.7505 29.9545 10.5872 29.636 10.4922L29.6343 10.4562C29.5979 10.4545 29.564 10.4545 29.5087 10.4563C29.3238 10.4112 29.1682 10.3926 29.0229 10.3984L28.2881 10.6544L28.3053 10.7211C27.2322 11.2874 27.0039 12.6089 26.8119 13.8186C26.5093 14.4031 26.4422 15.161 26.4069 15.8408C26.3119 16.3618 26.234 16.8865 26.1546 17.4171C26.0734 17.9669 25.9903 18.5237 25.8915 19.0636C25.738 19.6665 25.6276 20.2264 25.5586 20.7385C25.4726 21.1241 25.3802 21.5048 25.2885 21.8826C24.9445 23.2949 24.5895 24.7555 24.6307 26.397C24.7395 27.9128 24.792 29.4831 24.7754 30.7681C24.8336 31.2628 24.8899 31.7309 24.7216 32.3385C24.7089 32.4689 24.648 32.7276 24.5899 32.9459C24.2977 33.0306 24.0099 33.1173 23.7466 33.2056C23.3698 33.3042 22.9879 33.3891 22.6067 33.4737C22.2215 33.5599 21.8364 33.646 21.4352 33.7502C20.4255 34.0641 19.5456 34.4349 18.6934 34.7942C17.8497 35.1494 17.0522 35.486 16.1266 35.7706C15.6175 35.9645 15.0464 36.0848 14.442 36.2113C13.8317 36.3392 13.2134 36.4463 12.6679 36.6769L12.4816 36.7268C11.133 37.0872 8.32106 37.8362 8.36789 40.0246C8.38015 40.1482 8.40635 40.2556 8.43592 40.3525C8.35487 40.6427 8.3536 40.9668 8.44498 41.3536C8.65651 41.9092 9.19429 42.2864 9.58629 42.5625L10.0467 42.9316C10.7369 43.5093 11.5195 44.1636 12.4035 44.5594C14.2678 45.4646 16.1511 45.8804 18.1448 46.3211C19.0638 46.5248 20.0133 46.7342 20.9696 46.9998C21.2918 47.0779 21.622 47.1483 21.953 47.2184C24.1694 47.6907 26.0836 48.0984 26.0859 50.5118C26.0866 51.6426 26.1651 52.8116 26.239 53.942C26.3329 55.3563 26.4294 56.8181 26.3758 58.2034C26.2519 61.4118 26.1121 65.048 27.6569 68.2022C28.0516 69.0079 28.5733 69.4343 29.2064 69.4673C30.7553 69.5513 32.3232 67.0588 33.0753 65.8613L33.1949 65.6627C33.4725 65.0437 33.9388 64.1788 34.1078 63.9366L34.2246 63.8005C34.4007 63.5216 34.5962 63.1997 34.7912 62.8789C34.9765 62.5737 35.1614 62.2696 35.3573 61.9512C35.7913 60.9848 36.8342 59.0946 36.8326 59.0953C37.1674 58.5663 37.5536 58.0398 37.9264 57.5312C38.3102 57.0084 38.7066 56.4679 39.0576 55.9117C39.2361 55.6293 39.3979 55.3852 39.559 55.1415L39.6472 55.0071C40.2682 55.2491 40.8879 55.4925 41.5053 55.7441C42.325 56.301 43.4629 56.6055 44.1014 56.773L44.6232 56.9831C45.0135 57.1416 45.4057 57.3002 45.8331 57.4574C46.3929 57.6182 47.196 57.7991 47.8834 57.7628C48.2795 57.8402 48.6784 57.9129 49.0874 57.9882L50.1438 58.1845C50.5884 58.2544 51.4748 58.476 52.4127 58.7101C53.6018 59.0071 54.8326 59.3148 55.5879 59.4232C55.8242 59.4468 56.1245 59.5085 56.4584 59.5766C57.4719 59.7828 58.7569 60.0451 59.7479 59.6678C60.109 59.5303 60.4312 59.3077 60.6852 58.9662C61.5113 57.8066 60.8978 56.3326 60.4504 55.2564C60.3789 55.0829 60.3096 54.9177 60.2585 54.7859C59.391 52.0576 58.5027 49.9605 57.4478 48.1578C57.1405 47.7166 56.8017 47.2865 56.464 46.8569C56.1463 46.4535 55.8295 46.0499 55.5382 45.6365C55.2925 45.0344 54.1621 42.7829 53.2041 41.9112C52.7022 41.5945 52.3111 41.2365 51.8994 40.858C53.4309 40.0008 54.6989 38.8993 55.9288 37.8325C56.3842 37.4373 56.8387 37.0424 57.3236 36.6451C59.1764 34.9708 60.712 33.3009 62.5199 31.3329L62.8237 30.9561C63.8577 29.6852 65.5883 27.5624 64.1782 25.7703ZM53.3292 35.5235C52.7083 36.0954 52.0665 36.6872 51.4895 37.1626C50.7652 37.6171 50.1925 37.9232 49.7868 38.0804L49.5691 38.1322C48.6397 38.3513 47.2364 38.6812 47.499 40.2421C47.6218 41.6793 48.7496 42.6192 49.7438 43.4487C50.1992 43.8289 50.6295 44.1885 50.9378 44.5651C51.3643 45.0856 51.7303 45.7941 52.086 46.478C52.3514 46.992 52.6028 47.4765 52.9099 47.9388C53.0667 48.1293 53.2327 48.3173 53.4028 48.5064C53.7798 48.9284 54.1696 49.3648 54.4688 49.9025C54.909 50.6038 55.3357 51.5632 55.7484 52.4904C55.9704 52.9916 56.189 53.484 56.4067 53.9281C56.6413 54.4071 56.6389 54.6655 56.5673 54.7423C56.3597 54.9579 55.3444 54.8743 54.3 54.4278C53.9471 54.2762 52.7542 53.6974 52.4784 53.4954L52.4366 53.3976L52.2625 53.3328C51.6266 53.0974 51.0211 52.8504 50.4145 52.603C49.8002 52.352 49.1854 52.1022 48.5671 51.8747C48.1578 51.6905 46.9485 51.403 46.6675 51.51C46.6659 51.5106 46.6651 51.5109 46.6635 51.5115C46.3249 51.5176 44.7116 50.7809 43.9371 50.4269C43.3712 50.1684 42.9242 49.9647 42.6977 49.8896C42.3842 49.7862 42.0446 49.6332 41.6851 49.4713C40.7413 49.0461 39.6717 48.5624 38.6373 48.8234C37.1334 49.2044 36.1087 51.3975 35.2802 53.1621C35.0448 53.6633 34.8237 54.137 34.6342 54.4649C34.5108 54.6778 34.3191 55.0698 34.0825 55.5558C32.1624 59.4968 31.3879 60.2573 31.0714 60.2037C30.5617 60.1145 30.6407 58.7838 30.6932 57.9032C30.7251 57.3685 30.7526 56.9062 30.6861 56.5823C30.4088 55.2305 30.2273 53.8248 30.0523 52.4671C29.9254 51.4815 29.7941 50.4628 29.6269 49.4724C29.5886 49.2129 29.5653 48.8845 29.5399 48.5312C29.4577 47.4103 29.3652 46.1395 28.7976 45.5563C28.2224 44.9678 27.3839 44.8719 26.644 44.787C26.2931 44.7464 25.9612 44.7078 25.7091 44.6232L25.495 44.5498C25.3044 44.4849 25.1094 44.418 24.8739 44.3436C24.4266 44.2353 23.9852 44.1376 23.5435 44.039L22.9285 43.902C22.2231 43.7104 21.4798 43.5205 20.7385 43.3307C19.7058 43.0667 18.6739 42.8025 17.797 42.5552C17.1452 42.2636 16.2726 41.8085 15.1299 41.1666C14.9887 41.0389 14.8257 40.902 14.6467 40.7594L14.8103 40.6907C15.5686 40.3689 16.3272 40.048 17.1312 39.7401C17.8662 39.3813 18.6408 39.1478 19.4606 38.9035C19.9913 38.7445 20.5391 38.5799 21.105 38.3644C21.1163 38.3602 21.1275 38.3559 21.1395 38.3513C21.5799 38.136 21.9964 37.8986 22.4092 37.6635C23.1645 37.2329 23.8745 36.8251 24.6707 36.5906C25.141 36.4849 25.534 36.3857 25.8841 36.234C27.3003 35.8708 29.2446 35.3706 29.7883 33.9629C30.1872 33.075 29.9601 30.507 29.9123 30.0541C29.9478 28.7464 29.6622 27.45 29.3847 26.1963C29.1399 25.0888 28.9097 24.0436 28.8839 23.0012C28.8457 21.1532 29.2823 19.5434 29.7452 17.8392L29.7598 17.709C29.7575 17.6622 29.756 17.6123 29.7551 17.5595C31.951 19.5089 33.7924 21.827 35.5791 24.076C36.002 24.6089 36.4246 25.1409 36.8221 25.6266L36.9727 25.8607C37.0506 25.9786 37.1274 26.096 37.1865 26.1936C37.2683 26.3577 37.3616 26.5595 37.4668 26.7853C38.1262 28.2088 39.2293 30.5908 40.8827 31.1418C41.6406 31.4014 42.3736 31.2854 43.0208 31.1819C43.2782 31.1407 43.526 31.1005 43.7202 31.0907C43.999 31.1055 44.2802 31.1268 44.5634 31.1482C45.5768 31.2243 46.625 31.3027 47.6897 31.1237C48.4029 30.9869 49.0947 30.8298 49.7814 30.6737C51.2095 30.349 52.5581 30.0417 54.0757 29.9231C54.8017 29.8364 55.5088 29.6451 56.191 29.4605C57.0395 29.2309 57.8409 29.0128 58.6931 28.9954C59.2895 28.8957 59.783 28.8343 60.2697 28.7764C58.9039 30.5815 57.1142 32.1979 55.2464 33.8256C54.6071 34.3468 53.9577 34.9451 53.3292 35.5235Z" fill="#F8A326"/>
</svg>
