<svg width="806" height="108" viewBox="0 0 806 108" fill="none" xmlns="http://www.w3.org/2000/svg">
<path d="M43.4873 87C35.3023 87 27.8823 85.2308 21.2273 81.6923C14.6487 78.0769 9.4471 73.1154 5.62236 66.8077C1.87412 60.4231 0 53.2308 0 45.2308C0 37.2308 1.87412 30.0769 5.62236 23.7692C9.4471 17.3846 14.6487 12.4231 21.2273 8.88462C27.8823 5.26923 35.3406 3.46154 43.602 3.46154C50.563 3.46154 56.8356 4.69231 62.4197 7.15385C68.0803 9.61539 72.823 13.1538 76.6478 17.7692L64.7146 28.8462C59.2834 22.5385 52.5519 19.3846 44.52 19.3846C39.5478 19.3846 35.1111 20.5 31.2099 22.7308C27.3086 24.8846 24.2488 27.9231 22.0305 31.8462C19.8886 35.7692 18.8177 40.2308 18.8177 45.2308C18.8177 50.2308 19.8886 54.6923 22.0305 58.6154C24.2488 62.5385 27.3086 65.6154 31.2099 67.8462C35.1111 70 39.5478 71.0769 44.52 71.0769C52.5519 71.0769 59.2834 67.8846 64.7146 61.5L76.6478 72.5769C72.823 77.2692 68.0803 80.8462 62.4197 83.3077C56.7591 85.7692 50.4483 87 43.4873 87Z" fill="black"/>
<path d="M137.569 38.3077H116.686V85.6154H98.9005V38.3077H78.0175V23.5385H137.569V38.3077Z" fill="black"/>
<path d="M183.483 22.6154C189.221 22.6154 194.422 23.9615 199.088 26.6538C203.831 29.2692 207.541 33 210.218 37.8462C212.896 42.6154 214.234 48.1923 214.234 54.5769C214.234 60.9615 212.896 66.5769 210.218 71.4231C207.541 76.1923 203.831 79.9231 199.088 82.6154C194.422 85.2308 189.221 86.5385 183.483 86.5385C175.604 86.5385 169.408 84.0385 164.895 79.0385V108H146.995V23.5385H164.092V30.6923C168.529 25.3077 174.993 22.6154 183.483 22.6154ZM180.385 71.7692C184.975 71.7692 188.723 70.2308 191.63 67.1539C194.613 64 196.105 59.8077 196.105 54.5769C196.105 49.3462 194.613 45.1923 191.63 42.1154C188.723 38.9615 184.975 37.3846 180.385 37.3846C175.796 37.3846 172.009 38.9615 169.026 42.1154C166.119 45.1923 164.666 49.3462 164.666 54.5769C164.666 59.8077 166.119 64 169.026 67.1539C172.009 70.2308 175.796 71.7692 180.385 71.7692Z" fill="black"/>
<path d="M249.752 22.6154C259.314 22.6154 266.658 24.9231 271.783 29.5385C276.908 34.0769 279.471 40.9615 279.471 50.1923V85.6154H262.718V77.8846C259.352 83.6539 253.08 86.5385 243.901 86.5385C239.158 86.5385 235.027 85.7308 231.508 84.1154C228.066 82.5 225.427 80.2692 223.591 77.4231C221.755 74.5769 220.837 71.3462 220.837 67.7308C220.837 61.9615 222.979 57.4231 227.263 54.1154C231.623 50.8077 238.316 49.1538 247.343 49.1538H261.571C261.571 45.2308 260.385 42.2308 258.014 40.1539C255.643 38 252.085 36.9231 247.343 36.9231C244.054 36.9231 240.802 37.4615 237.59 38.5385C234.453 39.5385 231.776 40.9231 229.558 42.6923L223.132 30.1154C226.498 27.7308 230.514 25.8846 235.18 24.5769C239.923 23.2692 244.78 22.6154 249.752 22.6154ZM248.375 74.4231C251.435 74.4231 254.151 73.7308 256.522 72.3462C258.894 70.8846 260.576 68.7692 261.571 66V59.6539H249.293C241.95 59.6539 238.278 62.0769 238.278 66.9231C238.278 69.2308 239.158 71.0769 240.917 72.4615C242.753 73.7692 245.239 74.4231 248.375 74.4231Z" fill="black"/>
<path d="M346.883 38.3077H326V85.6154H308.215V38.3077H287.332V23.5385H346.883V38.3077Z" fill="black"/>
<path d="M382.763 86.5385C376.261 86.5385 370.409 85.1923 365.207 82.5C360.082 79.7308 356.066 75.9231 353.159 71.0769C350.252 66.2308 348.799 60.7308 348.799 54.5769C348.799 48.4231 350.252 42.9231 353.159 38.0769C356.066 33.2308 360.082 29.4615 365.207 26.7692C370.409 24 376.261 22.6154 382.763 22.6154C389.265 22.6154 395.078 24 400.204 26.7692C405.329 29.4615 409.345 33.2308 412.251 38.0769C415.158 42.9231 416.612 48.4231 416.612 54.5769C416.612 60.7308 415.158 66.2308 412.251 71.0769C409.345 75.9231 405.329 79.7308 400.204 82.5C395.078 85.1923 389.265 86.5385 382.763 86.5385ZM382.763 71.7692C387.352 71.7692 391.101 70.2308 394.007 67.1539C396.991 64 398.482 59.8077 398.482 54.5769C398.482 49.3462 396.991 45.1923 394.007 42.1154C391.101 38.9615 387.352 37.3846 382.763 37.3846C378.173 37.3846 374.387 38.9615 371.403 42.1154C368.42 45.1923 366.928 49.3462 366.928 54.5769C366.928 59.8077 368.42 64 371.403 67.1539C374.387 70.2308 378.173 71.7692 382.763 71.7692Z" fill="black"/>
<path d="M458.297 86.5385C451.719 86.5385 445.79 85.1923 440.512 82.5C435.31 79.7308 431.218 75.9231 428.235 71.0769C425.328 66.2308 423.874 60.7308 423.874 54.5769C423.874 48.4231 425.328 42.9231 428.235 38.0769C431.218 33.2308 435.31 29.4615 440.512 26.7692C445.79 24 451.719 22.6154 458.297 22.6154C464.799 22.6154 470.46 24 475.279 26.7692C480.175 29.4615 483.732 33.3462 485.95 38.4231L472.066 45.9231C468.853 40.2308 464.225 37.3846 458.182 37.3846C453.516 37.3846 449.653 38.9231 446.593 42C443.534 45.0769 442.004 49.2692 442.004 54.5769C442.004 59.8846 443.534 64.0769 446.593 67.1539C449.653 70.2308 453.516 71.7692 458.182 71.7692C464.302 71.7692 468.93 68.9231 472.066 63.2308L485.95 70.8462C483.732 75.7692 480.175 79.6154 475.279 82.3846C470.46 85.1538 464.799 86.5385 458.297 86.5385Z" fill="black"/>
<path d="M581.296 54.3462C581.296 63.9615 578.083 71.5769 571.658 77.1923C565.309 82.7308 556.206 85.9231 544.349 86.7692V108H527.941V86.7692C516.084 85.9231 506.943 82.7692 500.518 77.3077C494.169 71.7692 490.994 64.1154 490.994 54.3462C490.994 44.7308 494.13 37.2692 500.403 31.9615C506.752 26.6538 515.931 23.5769 527.941 22.7308V0H544.349V22.7308C556.206 23.5769 565.309 26.6923 571.658 32.0769C578.083 37.4615 581.296 44.8846 581.296 54.3462ZM508.32 54.3462C508.32 59.8846 509.888 64.1539 513.025 67.1539C516.161 70.1539 521.133 72.0385 527.941 72.8077V36.6923C521.133 37.3846 516.161 39.1923 513.025 42.1154C509.888 44.9615 508.32 49.0385 508.32 54.3462ZM544.349 72.8077C551.157 72.0385 556.129 70.1539 559.266 67.1539C562.479 64.1539 564.085 59.8846 564.085 54.3462C564.085 49.0385 562.479 44.9615 559.266 42.1154C556.129 39.1923 551.157 37.3846 544.349 36.6923V72.8077Z" fill="black"/>
<path d="M653.427 54.8077C653.427 55.0385 653.312 56.6539 653.083 59.6539H606.383C607.224 63.5 609.213 66.5385 612.349 68.7692C615.485 71 619.387 72.1154 624.053 72.1154C627.266 72.1154 630.096 71.6539 632.544 70.7308C635.068 69.7308 637.401 68.1923 639.543 66.1154L649.067 76.5C643.253 83.1923 634.762 86.5385 623.594 86.5385C616.633 86.5385 610.475 85.1923 605.12 82.5C599.766 79.7308 595.635 75.9231 592.728 71.0769C589.821 66.2308 588.368 60.7308 588.368 54.5769C588.368 48.5 589.783 43.0385 592.614 38.1923C595.52 33.2692 599.46 29.4615 604.432 26.7692C609.481 24 615.103 22.6154 621.299 22.6154C627.342 22.6154 632.812 23.9231 637.707 26.5385C642.603 29.1538 646.428 32.9231 649.181 37.8462C652.012 42.6923 653.427 48.3462 653.427 54.8077ZM621.414 36.2308C617.36 36.2308 613.956 37.3846 611.202 39.6923C608.448 42 606.765 45.1538 606.153 49.1538H636.56C635.948 45.2308 634.265 42.1154 631.511 39.8077C628.757 37.4231 625.392 36.2308 621.414 36.2308Z" fill="black"/>
<path d="M703.521 22.6154C709.258 22.6154 714.459 23.9615 719.126 26.6538C723.868 29.2692 727.578 33 730.256 37.8462C732.933 42.6154 734.272 48.1923 734.272 54.5769C734.272 60.9615 732.933 66.5769 730.256 71.4231C727.578 76.1923 723.868 79.9231 719.126 82.6154C714.459 85.2308 709.258 86.5385 703.521 86.5385C695.642 86.5385 689.446 84.0385 684.933 79.0385V108H667.033V23.5385H684.129V30.6923C688.566 25.3077 695.03 22.6154 703.521 22.6154ZM700.423 71.7692C705.012 71.7692 708.761 70.2308 711.667 67.1539C714.651 64 716.142 59.8077 716.142 54.5769C716.142 49.3462 714.651 45.1923 711.667 42.1154C708.761 38.9615 705.012 37.3846 700.423 37.3846C695.833 37.3846 692.047 38.9615 689.063 42.1154C686.156 45.1923 684.703 49.3462 684.703 54.5769C684.703 59.8077 686.156 64 689.063 67.1539C692.047 70.2308 695.833 71.7692 700.423 71.7692Z" fill="black"/>
<path d="M806 54.7015C806 54.9313 805.886 56.5403 805.658 59.5283H759.251C760.088 63.3591 762.064 66.3854 765.18 68.6073C768.297 70.8292 772.174 71.9401 776.811 71.9401C780.003 71.9401 782.816 71.4804 785.248 70.561C787.757 69.565 790.075 68.0327 792.203 65.9641L801.667 76.3072C795.89 82.9729 787.453 86.3057 776.354 86.3057C769.437 86.3057 763.318 84.9649 757.997 82.2833C752.676 79.5251 748.571 75.7326 745.683 70.9058C742.794 66.079 741.35 60.6009 741.35 54.4716C741.35 48.4189 742.756 42.9792 745.569 38.1524C748.457 33.2489 752.372 29.4564 757.313 26.7748C762.33 24.0166 767.917 22.6376 774.074 22.6376C780.079 22.6376 785.514 23.94 790.379 26.545C795.244 29.1499 799.045 32.9041 801.781 37.8076C804.594 42.6344 806 48.2657 806 54.7015ZM774.188 36.1986C770.159 36.1986 766.777 37.3479 764.04 39.6464C761.304 41.9449 759.631 45.0861 759.023 49.0702H789.239C788.631 45.1627 786.958 42.0598 784.222 39.7613C781.485 37.3862 778.141 36.1986 774.188 36.1986Z" fill="black"/>
</svg>
