<svg width="62" height="76" viewBox="0 0 62 76" fill="none" xmlns="http://www.w3.org/2000/svg">
<path d="M37.5136 19.601C37.8069 23.9996 41.619 27.4207 46.0175 27.1275C50.4161 26.8342 53.8372 23.0221 53.544 18.6236C53.2508 14.225 49.4387 10.8039 45.0401 11.0971C40.6415 11.2926 37.2204 15.1047 37.5136 19.601Z" fill="#8E6A50"/>
<path d="M1.93398 21.7514C2.22722 26.15 6.03931 29.5711 10.4379 29.2779C14.8365 28.9846 18.2576 25.1725 17.9643 20.774C17.6711 16.3754 13.859 12.9543 9.46043 13.2475C5.06185 13.443 1.73849 17.2551 1.93398 21.7514Z" fill="#936952"/>
<path d="M42.987 17.6461C54.8142 25.9545 61.3632 49.2181 53.8368 57.722C45.4306 67.2034 10.7308 69.4516 3.88854 59.8724C-2.95369 50.2933 -0.803282 25.4658 10.633 18.8191C18.355 14.4205 33.6033 11.0971 42.987 17.6461Z" fill="#A27659"/>
<path d="M42.3024 39.0526C42.2046 37.9774 43.0843 37 44.1595 36.9022C45.2347 36.8045 46.2122 37.6842 46.3099 38.7594C46.4077 39.8346 45.528 40.8121 44.4528 40.9098C43.2798 41.0075 42.3024 40.1278 42.3024 39.0526Z" fill="#3C2C16"/>
<path d="M11.4156 41.4962C11.3179 40.421 12.1976 39.4436 13.2728 39.3458C14.348 39.2481 15.3255 40.1278 15.4232 41.203C15.521 42.2782 14.6413 43.2557 13.566 43.3534C12.3931 43.4512 11.4156 42.6692 11.4156 41.4962Z" fill="#3C2C16"/>
<path d="M34.6779 39.1502C38.2945 42.1804 38.9787 50.8798 37.708 53.4212C35.9486 56.8423 22.8506 57.8198 20.7979 54.1054C18.7453 50.3911 18.5498 42.3759 22.2641 39.3457C24.8055 37.2931 31.8432 36.8043 34.6779 39.1502Z" fill="#BB9D6C"/>
<path d="M24.1228 43.158C24.2206 44.5265 26.1755 45.5039 28.6191 45.3085C30.9651 45.2107 32.92 43.94 32.8222 42.5716C32.7245 41.2031 30.7696 40.2257 28.3259 40.4211C25.8823 40.6166 24.0251 41.7896 24.1228 43.158Z" fill="#3C2C16"/>
<path d="M34.8741 45.5038C34.6786 46.8722 33.7989 48.1429 32.7237 48.8271C31.5507 49.6091 30.1823 49.9024 28.9116 50.0001C27.6409 50.0978 26.1747 49.9024 25.0017 49.2181C23.8288 48.6317 22.7535 47.5564 22.3626 46.2858C22.2648 46.0903 22.3626 45.9925 22.5581 45.8948C22.6558 45.8948 22.8513 45.8948 22.949 45.9925C23.5355 46.97 24.4152 47.8497 25.4904 48.2407C26.5657 48.7294 27.7386 48.8271 28.9116 48.7294C30.0845 48.6317 31.2575 48.4362 32.2349 47.8497C33.2124 47.2632 33.9944 46.3835 34.3853 45.3083C34.4831 45.1128 34.5808 45.1128 34.7763 45.1128C34.7763 45.2105 34.8741 45.406 34.8741 45.5038Z" fill="#3B2B15"/>
<path d="M31.8449 64.9552L41.1308 60.4589C43.2812 59.3837 45.7248 61.0454 45.5294 63.4891L44.7474 72.9704C44.5519 75.2186 42.1082 76.4893 40.1533 75.3163L31.8449 70.3313C30.8674 69.7448 29.6945 69.7448 28.8148 70.3313L20.3109 75.2186C18.2582 76.3915 15.7168 74.9253 15.7168 72.5794L15.8145 63.1958C15.8145 60.9477 18.2582 59.4815 20.2131 60.5567L29.2058 65.1507C29.9877 65.3462 30.9652 65.3462 31.8449 64.9552Z" fill="black"/>
<path d="M54.4224 24.1952C55.0089 24.2929 55.5954 24.3907 56.0841 24.4884C57.7458 24.7816 59.3097 25.1726 60.7759 26.0523C61.8511 26.6388 62.2421 27.5185 61.8511 28.6915C61.3624 30.2554 60.1894 31.0374 58.7233 31.5261C56.5728 32.2104 54.3247 32.3081 52.0765 32.1126C49.6329 31.9171 47.287 31.7216 44.9411 31.2329C41.6177 30.5487 38.4898 29.6689 35.4597 28.105C33.407 27.0298 31.3544 26.0524 29.4972 24.7817C27.7377 23.6087 25.9783 22.1425 24.4144 20.7741C23.2414 19.6989 22.1662 18.5259 21.1888 17.3529C20.4068 16.3755 19.8203 15.2025 19.8203 13.9318C19.8203 12.8566 20.0158 11.7814 20.9933 11.0972C21.3843 10.804 22.0685 10.804 22.655 10.9017C24.3166 11.1949 25.7828 12.0747 27.249 13.0521C27.4445 13.2476 27.7377 13.3454 28.1287 13.5408C28.2265 13.2476 28.3242 13.0521 28.422 12.8566C29.3994 10.3152 30.4746 7.77383 31.4521 5.23243C32.4296 2.69103 34.3845 1.22484 36.9259 0.442871C39.4673 -0.241352 42.0087 -0.0458596 44.5501 0.442871C47.4825 1.12709 50.2193 2.30005 52.8585 3.86398C55.2044 5.23243 57.2571 6.89411 58.2345 9.53326C59.0165 11.3904 59.0165 13.2476 58.3323 15.007C57.2571 17.9394 56.0841 20.7741 54.9112 23.6087C54.6179 23.7064 54.5202 23.9019 54.4224 24.1952Z" fill="black"/>
</svg>
