<svg xmlns="http://www.w3.org/2000/svg" xmlns:xlink="http://www.w3.org/1999/xlink"><defs><symbol viewBox="0 0 18 19" fill="none" id="icon-basket">
<path fill-rule="evenodd" clip-rule="evenodd" d="M6.06836 6.27052C6.27505 4.41033 6.79176 1.02584 9.1945 1C11.5714 1.02584 12.0881 4.41033 12.2948 6.27052H11.5714C11.3647 4.92705 10.8738 1.80091 9.1945 1.80091C7.48933 1.80091 7.02429 4.92705 6.79176 6.27052H6.06836Z" fill="" stroke="" stroke-width="0.3" />
<path fill-rule="evenodd" clip-rule="evenodd" d="M1.8315 7.48463L2.78742 15.5196C3.12329 16.5272 3.89836 16.9922 4.9318 17.0956H13.4576C14.4911 16.9922 15.2403 16.5272 15.5762 15.5196L16.5579 7.48463H1.8315ZM12.3209 7.94968C11.9592 7.94968 11.675 8.23387 11.675 8.59558C11.675 8.95728 11.9592 9.26731 12.3209 9.26731C12.6826 9.26731 12.9668 8.95728 12.9668 8.59558C12.9668 8.23387 12.6826 7.94968 12.3209 7.94968ZM4.85429 17.9998C3.51083 17.9998 2.52906 17.2764 2.01235 15.7521L1.00475 7.20044C0.978912 6.96792 1.05642 6.8129 1.28894 6.76123H17.0747C17.3072 6.8129 17.3847 6.96792 17.3589 7.20044L16.3513 15.7521C15.8345 17.2764 14.8528 17.9998 13.5093 17.9998H4.85429Z" fill="" stroke="" stroke-width="0.3" />
<path d="M6.04238 9.2415C6.3991 9.2415 6.68828 8.95232 6.68828 8.5956C6.68828 8.23888 6.3991 7.94971 6.04238 7.94971C5.68566 7.94971 5.39648 8.23888 5.39648 8.5956C5.39648 8.95232 5.68566 9.2415 6.04238 9.2415Z" fill="" stroke="" stroke-width="0.3" />
</symbol></defs></svg>