<svg width="20" height="26" viewBox="0 0 20 26" fill="none" xmlns="http://www.w3.org/2000/svg">
<path d="M17.4865 0.839292C17.2032 1.22321 16.8694 1.56715 16.4941 1.86181C15.7182 2.53847 14.834 3.30536 14.834 4.81808C14.834 6.3308 15.7212 7.1037 16.4941 7.77736C17.2188 8.40591 17.8414 8.95025 17.8414 10.054C17.8414 11.1577 17.2219 11.699 16.4941 12.3276C15.7152 13.0042 14.834 13.7711 14.834 15.2838C14.834 16.7965 15.7212 17.5664 16.4941 18.2311C17.2188 18.8596 17.8414 19.404 17.8414 20.5077C17.8414 21.6114 17.2219 22.1648 16.4941 22.7933C15.9428 23.2134 15.4842 23.7427 15.1468 24.3481C15.0941 24.4558 15.0864 24.58 15.1253 24.6933C15.1642 24.8067 15.2466 24.9 15.3543 24.9526C15.4619 25.0053 15.5861 25.013 15.6995 24.9741C15.8128 24.9351 15.9061 24.8528 15.9588 24.7451C16.2487 24.2493 16.6353 23.8167 17.0955 23.473C17.8715 22.7963 18.7556 22.0294 18.7556 20.5167C18.7556 19.004 17.8684 18.2311 17.0955 17.5604C16.3708 16.9319 15.7482 16.3875 15.7482 15.2838C15.7482 14.1801 16.3738 13.6358 17.0955 13.0072C17.8715 12.3306 18.7556 11.5637 18.7556 10.051C18.7556 8.53823 17.8684 7.77135 17.0955 7.1037C16.3708 6.47516 15.7482 5.93082 15.7482 4.8271C15.7482 3.72339 16.3738 3.17905 17.0955 2.5505C17.532 2.20423 17.9185 1.79943 18.2444 1.34754C18.2809 1.29829 18.3071 1.2421 18.3212 1.18241C18.3353 1.12271 18.3371 1.06077 18.3265 1.00036C18.3158 0.939947 18.293 0.882343 18.2593 0.831064C18.2256 0.779785 18.1819 0.735908 18.1307 0.70212C18.0795 0.668331 18.0219 0.64534 17.9615 0.634548C17.9012 0.623756 17.8392 0.625393 17.7795 0.639356C17.7198 0.653322 17.6635 0.679323 17.6142 0.715767C17.5648 0.752212 17.5234 0.798338 17.4925 0.851322L17.4865 0.839292Z" fill="#3C2C16" stroke="#3C2C16" stroke-width="0.5"/>
<path d="M12.9748 0.839292C12.6915 1.22323 12.3577 1.56718 11.9823 1.86181C11.2034 2.53847 10.3223 3.30536 10.3223 4.81808C10.3223 6.3308 11.2094 7.1037 11.9823 7.77736C12.7071 8.40591 13.3297 8.95025 13.3297 10.054C13.3297 11.1577 12.7101 11.699 11.9823 12.3276C11.2064 13.0042 10.3223 13.7711 10.3223 15.2838C10.3223 16.7965 11.2094 17.5664 11.9823 18.2311C12.7071 18.8596 13.3297 19.404 13.3297 20.5077C13.3297 21.6114 12.7101 22.1648 11.9823 22.7933C11.4311 23.2134 10.9724 23.7427 10.635 24.3481C10.5824 24.4558 10.5747 24.58 10.6136 24.6933C10.6525 24.8067 10.7349 24.9 10.8425 24.9526C10.9502 25.0053 11.0744 25.013 11.1878 24.9741C11.3011 24.9351 11.3944 24.8528 11.447 24.7451C11.737 24.2493 12.1236 23.8167 12.5838 23.473C13.3627 22.7963 14.2439 22.0294 14.2439 20.5167C14.2439 19.004 13.3567 18.2311 12.5838 17.5604C11.859 16.9319 11.2365 16.3875 11.2365 15.2838C11.2365 14.1801 11.8621 13.6358 12.5838 13.0072C13.3627 12.3306 14.2439 11.5637 14.2439 10.051C14.2439 8.53823 13.3567 7.77135 12.5838 7.1037C11.859 6.47516 11.2365 5.93082 11.2365 4.8271C11.2365 3.72339 11.8621 3.17905 12.5838 2.5505C13.0203 2.20426 13.4069 1.79946 13.7327 1.34754C13.7692 1.29829 13.7954 1.2421 13.8095 1.18241C13.8236 1.12271 13.8254 1.06077 13.8147 1.00036C13.8041 0.939947 13.7812 0.882343 13.7476 0.831064C13.7139 0.779785 13.6702 0.735908 13.619 0.70212C13.5678 0.668331 13.5102 0.64534 13.4498 0.634548C13.3894 0.623756 13.3275 0.625393 13.2678 0.639356C13.208 0.653322 13.1518 0.679323 13.1024 0.715767C13.0531 0.752212 13.0117 0.798338 12.9808 0.851322L12.9748 0.839292Z" fill="#3C2C16" stroke="#3C2C16" stroke-width="0.5"/>
<path d="M6.63949 24.7451C6.92859 24.2495 7.31412 23.817 7.77328 23.473C8.54919 22.7963 9.43337 22.0294 9.43337 20.5167C9.43337 19.004 8.54618 18.2311 7.77328 17.5604C7.0485 16.9319 6.42597 16.3875 6.42597 15.2838C6.42597 14.1801 7.05151 13.6358 7.77328 13.0072C8.54919 12.3306 9.43337 11.5637 9.43337 10.051C9.43337 8.53823 8.54618 7.77135 7.77328 7.1037C7.0485 6.47516 6.42597 5.93082 6.42597 4.8271C6.42597 3.72339 7.05151 3.17905 7.77328 2.5505C8.2097 2.20423 8.59628 1.79943 8.92211 1.34754C8.95867 1.29829 8.98481 1.2421 8.99893 1.18241C9.01304 1.12271 9.01483 1.06077 9.00419 1.00036C8.99354 0.939947 8.97069 0.882343 8.93703 0.831064C8.90337 0.779785 8.8596 0.735908 8.80841 0.70212C8.75721 0.668331 8.69966 0.64534 8.63928 0.634548C8.5789 0.623756 8.51695 0.625393 8.45722 0.639356C8.39749 0.653322 8.34123 0.679323 8.29189 0.715767C8.24255 0.752212 8.20116 0.798338 8.17026 0.851322C7.88425 1.23139 7.54842 1.57126 7.1718 1.86181C6.39589 2.53847 5.51172 3.30536 5.51172 4.81808C5.51172 6.3308 6.3989 7.1037 7.1718 7.77736C7.89658 8.40591 8.51912 8.95025 8.51912 10.054C8.51912 11.1577 7.89959 11.699 7.1718 12.3276C6.39289 13.0042 5.51172 13.7711 5.51172 15.2838C5.51172 16.7965 6.3989 17.5664 7.1718 18.2311C7.89659 18.8596 8.51912 19.404 8.51912 20.5077C8.51912 21.6114 7.89959 22.1648 7.1718 22.7933C6.62058 23.2134 6.16192 23.7427 5.82449 24.3481C5.77185 24.4558 5.76413 24.58 5.80305 24.6933C5.84197 24.8067 5.92432 24.9 6.032 24.9526C6.13968 25.0053 6.26386 25.013 6.37722 24.9741C6.49058 24.9351 6.58384 24.8528 6.63649 24.7451L6.63949 24.7451Z" fill="#3C2C16" stroke="#3C2C16" stroke-width="0.5"/>
<path d="M3.65252 0.839292C3.36923 1.22323 3.0354 1.56718 2.66008 1.86181C1.88117 2.53847 0.999999 3.30536 0.999999 4.81808C0.999999 6.3308 1.88718 7.1037 2.66008 7.77736C3.38487 8.40591 4.0074 8.95025 4.0074 10.054C4.0074 11.1577 3.38787 11.699 2.66008 12.3276C1.88417 13.0042 1 13.7711 1 15.2838C1 16.7965 1.88718 17.5664 2.66008 18.2311C3.38487 18.8596 4.0074 19.404 4.0074 20.5077C4.0074 21.6114 3.38787 22.1648 2.66008 22.7933C2.1088 23.2134 1.65013 23.7427 1.31277 24.3481C1.2867 24.4014 1.27139 24.4594 1.26772 24.5186C1.26404 24.5778 1.27206 24.6372 1.29133 24.6933C1.3106 24.7495 1.34074 24.8013 1.38002 24.8457C1.4193 24.8902 1.46696 24.9265 1.52028 24.9526C1.5736 24.9787 1.63152 24.994 1.69076 24.9977C1.74999 25.0013 1.80937 24.9933 1.8655 24.9741C1.92163 24.9548 1.97342 24.9246 2.0179 24.8854C2.06239 24.8461 2.0987 24.7984 2.12477 24.7451C2.41474 24.2493 2.80131 23.8167 3.26156 23.473C4.04048 22.7963 4.92165 22.0294 4.92165 20.5167C4.92165 19.004 4.03446 18.2311 3.26156 17.5604C2.53678 16.9319 1.91425 16.3875 1.91425 15.2838C1.91425 14.1801 2.53979 13.6358 3.26156 13.0072C4.04048 12.3306 4.92165 11.5637 4.92165 10.051C4.92165 8.53823 4.03446 7.77135 3.26156 7.1037C2.53678 6.47516 1.91425 5.93082 1.91425 4.8271C1.91425 3.72339 2.53979 3.17905 3.26156 2.5505C3.69801 2.20426 4.08459 1.79946 4.41039 1.34754C4.44696 1.29829 4.47309 1.2421 4.48721 1.18241C4.50132 1.12271 4.50311 1.06077 4.49247 1.00036C4.48183 0.939947 4.45898 0.882343 4.42531 0.831064C4.39165 0.779785 4.34789 0.735908 4.29669 0.70212C4.24549 0.668331 4.18795 0.64534 4.12756 0.634548C4.06718 0.623756 4.00523 0.625393 3.9455 0.639356C3.88577 0.653322 3.82951 0.679323 3.78017 0.715767C3.73083 0.752212 3.68945 0.798338 3.65854 0.851322L3.65252 0.839292Z" fill="#3C2C16" stroke="#3C2C16" stroke-width="0.5"/>
</svg>
