<svg width="26" height="27" viewBox="0 0 26 27" fill="none" xmlns="http://www.w3.org/2000/svg">
<path d="M6.4548 1.01977C7.88691 0.896948 9.35501 1.35132 10.477 2.24676C11.5903 3.12557 12.372 4.40671 12.6645 5.79283C12.8037 6.41571 12.8342 7.05976 12.79 7.69534C12.5483 12.1532 12.3091 16.6113 12.0664 21.0692C12.0489 21.1914 12.0749 21.313 12.0749 21.4352C11.9618 22.5696 11.4188 23.6445 10.6204 24.4522C9.88773 25.1976 8.92574 25.7131 7.89961 25.9115C6.99146 26.0706 6.03885 26.0216 5.167 25.7116C4.192 25.3712 3.32711 24.7305 2.70545 23.9074C2.27951 23.3371 1.96762 22.6807 1.80819 21.9864C1.75737 21.7247 1.69082 21.4582 1.74315 21.1911C1.49721 16.6026 1.24763 12.0137 1.00018 7.4252C0.997454 7.32355 1.0271 7.22433 1.02408 7.12268C1.02256 5.67334 1.53411 4.22248 2.46979 3.11256C3.44933 1.92247 4.91501 1.13896 6.4548 1.01977ZM5.93236 2.0108C5.02452 2.20109 4.17778 2.66272 3.51679 3.31222C3.10023 3.72515 2.74326 4.20191 2.49127 4.73282C2.23655 5.22229 2.0856 5.75865 1.99333 6.30105C3.51588 5.50514 5.24777 5.1273 6.96303 5.18478C8.68978 5.23258 10.4117 5.72174 11.8801 6.63775C11.7467 5.10643 10.9263 3.63954 9.6557 2.76527C8.58541 2.0226 7.20806 1.73249 5.93236 2.0108ZM5.64951 6.1374C5.64921 6.74182 5.64951 7.34594 5.64921 7.95036C6.44543 7.77884 7.27795 7.78458 8.07265 7.96125C8.07144 7.37165 8.07295 6.78205 8.07174 6.19276C7.27099 6.07115 6.4548 6.05299 5.64951 6.1374ZM2.11918 7.27001C2.06109 7.30419 1.99938 7.33142 1.93676 7.35653C1.93918 7.48994 1.90681 7.62244 1.92526 7.75585C2.11887 11.3137 2.31067 14.8719 2.50367 18.4297C3.2167 18.3357 3.87194 17.9131 4.27217 17.3183C4.54473 16.9253 4.68994 16.4574 4.74348 15.9854C4.74318 15.7104 4.74318 15.4355 4.74318 15.1605C4.63095 15.2122 4.52235 15.2866 4.39469 15.2903C4.21378 15.3027 4.03379 15.1932 3.95967 15.028C3.85924 14.8226 3.94575 14.5491 4.14935 14.4432C4.34386 14.3422 4.54443 14.2541 4.7453 14.1676C4.74076 13.8134 4.74409 13.4588 4.74348 13.1046C4.64396 13.1569 4.53929 13.2144 4.42282 13.2078C4.2277 13.2081 4.04377 13.0662 3.99385 12.8777C3.93577 12.6889 4.02229 12.4681 4.19261 12.3689C4.36988 12.2678 4.56077 12.1955 4.7453 12.1099C4.74046 11.8234 4.74439 11.537 4.74348 11.2502C4.63216 11.308 4.52235 11.3845 4.39257 11.3878C4.2044 11.4011 4.01745 11.2816 3.94878 11.1062C3.86438 10.9099 3.94364 10.6588 4.12938 10.5514C4.32632 10.4382 4.53505 10.3481 4.74318 10.2582C4.74318 9.91277 4.74318 9.567 4.74318 9.22153C4.62853 9.27779 4.52295 9.35282 4.40376 9.39971C4.19624 9.47291 3.94696 9.36794 3.8544 9.16858C3.75275 8.97225 3.82354 8.70634 4.01291 8.59048C4.24555 8.44981 4.49179 8.33213 4.74288 8.22807C4.74409 7.57766 4.74227 6.92756 4.74348 6.27746C3.82414 6.46865 2.93143 6.79688 2.11918 7.27001ZM8.97807 6.37759C8.97868 7.00138 8.97807 7.62516 8.97837 8.24894C9.17319 8.33425 9.3668 8.4244 9.55164 8.53028C9.68505 8.605 9.77278 8.75233 9.77731 8.9054C9.79093 9.13228 9.60881 9.34767 9.38284 9.37187C9.23491 9.39729 9.09968 9.32196 8.97777 9.24966C8.97928 9.59997 8.97747 9.95028 8.97868 10.3009C9.11935 10.3632 9.25911 10.4286 9.39554 10.4999C9.50505 10.5541 9.61789 10.6203 9.67537 10.7335C9.79607 10.9428 9.71288 11.2381 9.49749 11.3497C9.33353 11.4462 9.12751 11.4087 8.97686 11.3046C8.97958 11.5975 8.97807 11.8906 8.97777 12.1837C9.13417 12.2585 9.29541 12.3253 9.44334 12.4167C9.64451 12.5489 9.69927 12.849 9.55829 13.0441C9.43668 13.2313 9.17531 13.2925 8.97747 13.1957C8.97959 13.5523 8.97777 13.909 8.97807 14.2656C9.13538 14.341 9.29692 14.4093 9.44394 14.504C9.63967 14.6383 9.68989 14.9339 9.55043 15.126C9.43003 15.3102 9.17471 15.3722 8.97716 15.2809C8.97958 15.4548 8.97807 15.6285 8.97777 15.8027C8.97474 15.9159 9.02678 16.0199 9.05521 16.1273C9.36317 17.1069 10.2955 17.8689 11.328 17.9255C11.5119 14.527 11.698 11.1289 11.8789 7.73013C11.0101 7.09909 10.0178 6.6429 8.97807 6.37759ZM5.65042 8.8818C5.6477 9.25026 5.65072 9.61873 5.64891 9.98719C6.44543 9.81869 7.27855 9.82686 8.07204 10.0096C8.07174 9.63809 8.07356 9.2666 8.07083 8.89541C7.28309 8.68275 6.44059 8.6764 5.65042 8.8818ZM5.64891 10.9198C5.65012 11.2296 5.64891 11.5394 5.64951 11.8492C6.44724 11.6873 7.28036 11.6979 8.07235 11.887C8.07174 11.573 8.07265 11.259 8.07174 10.9452C7.28521 10.7265 6.43968 10.7135 5.64891 10.9198ZM5.64982 12.7785C5.64891 13.156 5.64982 13.5336 5.64921 13.9114C6.44785 13.7544 7.28097 13.7698 8.07235 13.9628C8.07174 13.5829 8.07265 13.2032 8.07174 12.8233C7.28642 12.5985 6.44301 12.5831 5.64982 12.7785ZM5.65042 14.8386C5.6483 15.1402 5.64982 15.4418 5.64921 15.7434C5.64679 15.9068 5.66343 16.0729 5.62047 16.2329C5.57025 16.6428 5.44895 17.0424 5.26653 17.4124C5.75721 17.7815 6.38432 17.9618 6.996 17.9061C7.58167 17.8713 8.14314 17.6054 8.56544 17.2018C8.31799 16.8143 8.15554 16.3766 8.07386 15.9261C8.06932 15.5849 8.07386 15.2437 8.07174 14.9027C7.28884 14.6683 6.44482 14.6517 5.65042 14.8386ZM7.08494 18.8085C6.26664 18.8856 5.42535 18.6518 4.76194 18.1669C4.62883 18.3169 4.48635 18.4582 4.32964 18.5834C4.32843 19.3113 4.32964 20.0391 4.32904 20.767C4.32087 21.0631 4.39469 21.3551 4.49603 21.6309C4.83636 22.5409 5.71728 23.2322 6.69046 23.3078C7.26796 23.3656 7.86391 23.2258 8.34854 22.9048C9.126 22.4054 9.60246 21.4758 9.54952 20.5534C9.54861 19.778 9.55194 19.0024 9.54801 18.2271C9.40673 18.1278 9.27363 18.0183 9.14597 17.9025C8.58269 18.4176 7.8497 18.7574 7.08494 18.8085ZM10.4556 18.6775C10.4568 19.2426 10.4546 19.808 10.4565 20.3731C10.4876 20.8341 10.4359 21.3006 10.2973 21.7417C10.0039 22.6925 9.29481 23.5062 8.38666 23.9158C7.79464 24.1929 7.12306 24.2773 6.47689 24.1981C5.86944 24.1218 5.28438 23.8753 4.80217 23.499C4.01261 22.9051 3.50529 21.9607 3.42483 20.9784C3.42059 20.3583 3.42422 19.7381 3.42301 19.1183C3.14409 19.2278 2.85217 19.3085 2.55328 19.3373C2.59443 20.0963 2.63163 20.8559 2.67822 21.6146C2.77382 22.128 2.97832 22.6174 3.24755 23.0637C3.82596 23.9924 4.76889 24.6915 5.83314 24.9547C6.17105 25.0487 6.52317 25.0684 6.87167 25.0881C7.20716 25.0742 7.54567 25.0575 7.87359 24.9798C8.22633 24.8966 8.56968 24.7719 8.89065 24.6031C9.80121 24.1339 10.5251 23.3232 10.8972 22.37C11.0219 22.0345 11.1417 21.6869 11.1444 21.3254C11.1894 20.4941 11.2348 19.6628 11.279 18.8312C10.9989 18.8164 10.7227 18.7619 10.4556 18.6775Z" fill="#3C2C16" stroke="#3C2C16" stroke-width="0.3"/>
<path d="M18.9884 1.03362C20.1365 0.90687 21.319 1.14676 22.3312 1.70188C23.3543 2.26002 24.2044 3.12944 24.7471 4.1598C25.2405 5.0743 25.4913 6.11525 25.4885 7.15318C25.4891 7.24393 25.5146 7.33257 25.5118 7.42362C25.2644 12.0128 25.0148 16.6022 24.7689 21.1916C24.8218 21.4657 24.7519 21.7395 24.699 22.0075C24.4195 23.2031 23.6889 24.2812 22.6951 24.9991C22.2731 25.3116 21.8006 25.5551 21.3042 25.726C20.4535 26.0198 19.5287 26.0663 18.6445 25.9175C17.8531 25.7687 17.0974 25.4344 16.4564 24.9476C15.357 24.1166 14.5862 22.8367 14.4395 21.46C14.4274 21.3701 14.4528 21.2812 14.4513 21.1916C14.2126 16.7734 13.974 12.3552 13.7353 7.93729C13.7238 7.67532 13.6978 7.41394 13.7041 7.15197C13.6965 5.85206 14.1022 4.55216 14.8561 3.49246C15.4405 2.66478 16.2349 1.98533 17.1513 1.55062C17.7318 1.28562 18.3516 1.09594 18.9884 1.03362ZM17.1888 2.55618C16.7329 2.81694 16.3227 3.15606 15.9721 3.54691C15.2046 4.39516 14.7357 5.50024 14.6319 6.63769C17.5657 4.809 21.463 4.70039 24.5187 6.30099C24.3686 5.34687 23.9684 4.42874 23.3434 3.69C22.6543 2.85809 21.6887 2.25457 20.632 2.02254C19.4709 1.75603 18.217 1.95841 17.1888 2.55618ZM18.4403 6.1927C18.4391 6.78229 18.4406 7.37189 18.4397 7.96119C19.2341 7.78452 20.0666 7.77878 20.8628 7.9503C20.8625 7.34588 20.8628 6.74176 20.8625 6.13734C20.0572 6.05293 19.2407 6.07078 18.4403 6.1927ZM21.7685 6.2774C21.7697 6.9275 21.7676 7.57791 21.7694 8.22831C21.937 8.29759 22.1022 8.37261 22.2628 8.45762C22.4201 8.54414 22.6116 8.62097 22.6743 8.80642C22.7856 9.0693 22.5874 9.39571 22.304 9.41901C22.1007 9.45016 21.9401 9.30224 21.7688 9.22146C21.7688 9.56694 21.7688 9.91271 21.7688 10.2582C21.9703 10.3447 22.1715 10.4327 22.3633 10.5398C22.4955 10.6094 22.5853 10.751 22.595 10.8995C22.621 11.1394 22.4229 11.3723 22.1827 11.3869C22.0296 11.4062 21.8965 11.3191 21.7682 11.2504C21.7676 11.5366 21.7719 11.8231 21.7661 12.1093C21.9506 12.1958 22.1424 12.2678 22.3197 12.3691C22.4456 12.4429 22.5257 12.583 22.5357 12.7276C22.552 12.9527 22.3778 13.1714 22.1536 13.2022C22.016 13.2298 21.885 13.1699 21.7685 13.1045C21.7679 13.4588 21.7712 13.813 21.7667 14.1673C21.9603 14.2508 22.153 14.3364 22.3415 14.4314C22.4658 14.4913 22.5581 14.6114 22.585 14.7469C22.6416 14.9904 22.4595 15.2527 22.212 15.2857C22.0508 15.318 21.9065 15.2285 21.7688 15.1604C21.7697 15.4448 21.7667 15.7294 21.7697 16.0138C21.8148 16.3042 21.8714 16.5968 21.993 16.8666C22.3354 17.6879 23.1217 18.3147 24.0083 18.4297C24.1917 15.0433 24.3753 11.657 24.5583 8.27066C24.5722 7.96573 24.607 7.6611 24.5752 7.35647C24.5126 7.33136 24.4509 7.30443 24.3934 7.26995C23.5809 6.79712 22.6879 6.46859 21.7685 6.2774ZM14.6331 7.73007C14.814 11.1288 15.0001 14.527 15.184 17.9254C15.7512 17.8939 16.2976 17.6474 16.7159 17.2668C17.1295 16.9032 17.4084 16.3989 17.5315 15.865C17.5382 15.6705 17.5303 15.4756 17.5348 15.2808C17.337 15.3725 17.0811 15.3099 16.961 15.125C16.8221 14.9329 16.8726 14.638 17.0681 14.5037C17.2151 14.4093 17.3766 14.3409 17.5339 14.2659C17.5342 13.9089 17.5327 13.5523 17.5345 13.1956C17.3567 13.2806 17.128 13.2452 16.9955 13.0964C16.8149 12.9118 16.8427 12.5794 17.052 12.4284C17.2027 12.3289 17.3721 12.262 17.5342 12.184C17.5336 11.8905 17.5324 11.5974 17.5351 11.3046C17.357 11.435 17.0911 11.4455 16.9271 11.2864C16.7205 11.1085 16.7377 10.7458 16.9619 10.59C17.1419 10.4748 17.3394 10.3895 17.5333 10.3008C17.5342 9.95052 17.5327 9.59991 17.5342 9.2496C17.435 9.30435 17.3346 9.3706 17.2172 9.37484C17.0251 9.39027 16.8333 9.26775 16.7659 9.08775C16.6851 8.89384 16.7631 8.65032 16.9428 8.54111C17.1322 8.42948 17.3325 8.33752 17.5336 8.24888C17.5339 7.6251 17.5333 7.00132 17.5339 6.37753C16.4942 6.64284 15.502 7.09903 14.6331 7.73007ZM18.4412 8.89505C18.4382 9.26654 18.4406 9.63803 18.44 10.0095C19.2332 9.8268 20.0666 9.81863 20.8631 9.98713C20.8613 9.61866 20.864 9.2502 20.8616 8.88204C20.0717 8.67603 19.2292 8.68299 18.4412 8.89505ZM18.4403 10.9449C18.4391 11.2589 18.4403 11.5729 18.4397 11.8869C19.2316 11.6978 20.0648 11.6873 20.8625 11.8491C20.8631 11.539 20.8622 11.2292 20.8628 10.9195C20.072 10.7135 19.2271 10.7265 18.4403 10.9449ZM18.4403 12.8232C18.4391 13.2032 18.4403 13.5828 18.4397 13.9628C19.231 13.7698 20.0639 13.7543 20.8628 13.9113C20.8622 13.5335 20.8631 13.156 20.8622 12.7784C20.0693 12.583 19.2259 12.5987 18.4403 12.8232ZM18.4403 14.9024C18.4378 15.2433 18.4427 15.5845 18.4381 15.9255C18.3565 16.3762 18.194 16.8143 17.9466 17.2018C18.1344 17.3815 18.3489 17.533 18.5812 17.6498C19.4207 18.077 20.4955 17.9841 21.2455 17.4123C21.0268 16.9779 20.9103 16.499 20.8622 16.0174C20.8625 15.6245 20.8634 15.2315 20.8616 14.8385C20.0672 14.6516 19.2232 14.6685 18.4403 14.9024ZM16.9646 18.2264C16.9595 19.0026 16.9637 19.7792 16.9625 20.5554C16.9102 21.4781 17.3875 22.4074 18.1653 22.9063C18.9485 23.426 20.023 23.4596 20.838 22.9925C21.5916 22.5775 22.1134 21.7734 22.1805 20.9154C22.1854 20.1383 22.1818 19.3608 22.1824 18.5837C22.026 18.4581 21.8829 18.3168 21.7501 18.1668C20.8707 18.8157 19.6757 18.9954 18.6405 18.6523C18.168 18.4984 17.7327 18.237 17.366 17.9024C17.2384 18.018 17.1056 18.1278 16.9646 18.2264ZM15.233 18.8311C15.2823 19.7372 15.328 20.6438 15.3819 21.5498C15.4696 22.0747 15.6735 22.5762 15.9433 23.0336C16.49 23.9363 17.3821 24.6227 18.3964 24.9156C18.8075 25.0448 19.2407 25.0768 19.6691 25.0877C20.0073 25.0653 20.3491 25.0469 20.6774 24.9552C21.666 24.712 22.546 24.0906 23.1338 23.2633C23.4726 22.7674 23.7219 22.2057 23.8338 21.6146C23.8804 20.8558 23.9176 20.0962 23.9587 19.3372C23.6598 19.3082 23.3676 19.2277 23.089 19.1179C23.0887 19.6473 23.089 20.1764 23.089 20.7058C23.1081 21.2648 22.9517 21.8206 22.7003 22.3167C22.3742 22.955 21.8457 23.4844 21.2137 23.8205C20.3624 24.2821 19.3139 24.3502 18.4034 24.0292C17.8963 23.8489 17.4341 23.5485 17.0593 23.1631C16.3526 22.4404 15.9851 21.4091 16.0543 20.4027C16.0589 19.8276 16.0546 19.2525 16.0565 18.6774C15.7893 18.7621 15.5131 18.816 15.233 18.8311Z" fill="#3C2C16" stroke="#3C2C16" stroke-width="0.3"/>
</svg>
