<svg width="25" height="27" viewBox="0 0 25 27" fill="none" xmlns="http://www.w3.org/2000/svg">
<path d="M12.4957 17.6247C10.8047 17.6247 9.49307 19.6782 9.49307 21.4447C9.49307 23.137 10.6717 24.231 12.4957 24.231C14.3194 24.231 15.4977 23.1288 15.4977 21.4239C15.4977 19.4707 14.0388 17.6247 12.4957 17.6247ZM12.4957 23.3881C11.8504 23.3881 10.3493 23.1988 10.3493 21.4444C10.3493 19.9698 11.4323 18.4671 12.4957 18.4671C13.5588 18.4671 14.6416 19.9594 14.6416 21.4228C14.6416 23.2465 12.9991 23.3881 12.4957 23.3881ZM23.7362 19.4788C23.382 18.5112 22.6962 17.7579 21.8061 17.3573C21.1702 17.0587 20.4756 16.9602 19.7772 17.0627C19.4627 16.2091 18.8557 15.1426 18.3956 14.3884C20.1451 13.6171 21.606 12.3065 21.606 10.0738C21.606 9.05451 21.354 8.00234 20.8574 6.93977C21.1148 6.78837 21.3429 6.59232 21.5241 6.36256C22.4299 5.1382 22.2673 2.8187 20.6953 1.65951C20.0934 1.22836 19.3471 1 18.5377 1C17.4704 1 16.4404 1.41317 15.8622 2.06313C13.7871 1.15027 11.428 1.10112 9.13576 2.06762C8.57354 1.41486 7.54584 1 6.46334 1C5.64826 1 4.89882 1.22836 4.29607 1.65951C3.55319 2.19065 3.07287 3.0184 2.94245 3.99053C2.8243 4.87193 3.02065 5.75811 3.46301 6.3561C3.63281 6.59569 3.85342 6.7909 4.13168 6.94623C3.64252 7.99897 3.38595 9.07221 3.38595 10.0744C3.38595 12.1619 4.76725 13.5003 6.5775 14.3252C6.08206 15.1356 5.51156 16.1925 5.2099 17.0402C4.48871 16.9481 3.78065 17.0467 3.18361 17.3267C1.14476 18.2775 0.409587 20.8554 1.51035 23.1946C2.08142 24.4091 3.09057 25.3467 4.27894 25.7657C4.72244 25.9228 5.17422 26 5.61687 26C6.1554 26 6.68138 25.8854 7.16541 25.6554C7.51045 25.4863 7.81839 25.2784 8.08437 25.036C9.31784 25.5944 10.8356 25.8885 12.4963 25.8885C14.1564 25.8885 15.673 25.5944 16.9056 25.0366C17.1893 25.302 17.4909 25.5034 17.8354 25.6593C18.7144 26.0697 19.7355 26.1059 20.7093 25.7613C21.8925 25.3427 22.9028 24.408 23.4779 23.201C24.0687 22.002 24.1628 20.6456 23.7362 19.4788ZM4.24156 10.0738C4.24156 9.07979 4.53409 7.99475 5.08775 6.93584C5.14397 6.82826 5.15082 6.70214 5.10573 6.58979C5.06121 6.47772 4.96902 6.38896 4.85373 6.34767C4.53066 6.23195 4.31176 6.08112 4.15936 5.86709C3.84343 5.43987 3.70159 4.76239 3.79064 4.1012C3.89024 3.36023 4.24841 2.73528 4.79864 2.34092C5.37428 1.92887 6.02098 1.8432 6.46248 1.8432C7.32123 1.8432 8.14516 2.17295 8.52559 2.66618C8.54357 2.69792 8.56184 2.72545 8.57981 2.75241C8.58666 2.7628 8.59437 2.77263 8.60122 2.7864C8.70539 2.99088 8.9571 3.07598 9.16601 2.9788C11.452 1.91792 13.7894 1.97718 15.8148 2.97402C15.9164 3.0243 16.0343 3.03273 16.1419 2.99706C16.2495 2.96138 16.3385 2.88555 16.3893 2.78527C16.3959 2.77207 16.4033 2.76224 16.4099 2.75297C16.4278 2.72601 16.445 2.70017 16.4629 2.66899C16.8625 2.17408 17.6904 1.84376 18.5372 1.84376C18.9741 1.84376 19.6162 1.92999 20.1859 2.33811C21.3531 3.19873 21.493 4.97305 20.8392 5.85726C20.6688 6.07297 20.4196 6.2474 20.1368 6.34824C20.0215 6.38924 19.9293 6.47772 19.8845 6.58979C19.8397 6.70271 19.846 6.82938 19.9025 6.9364C20.4641 8.01104 20.749 9.06659 20.749 10.0744C20.749 14.5095 13.4363 14.6446 12.6021 14.6449C12.6027 14.6446 4.24156 14.5926 4.24156 10.0738ZM22.705 22.8373C22.2233 23.8479 21.3905 24.6245 20.4193 24.968C19.6619 25.2352 18.8739 25.2104 18.197 24.8956C17.8599 24.7425 17.588 24.5411 17.3148 24.2428C17.185 24.1001 16.9741 24.0622 16.8011 24.1496C15.6407 24.7355 14.1518 25.0453 12.4957 25.0453C10.8398 25.0453 9.35095 24.7349 8.18997 24.1496C8.01645 24.0622 7.80554 24.1007 7.67598 24.2428C7.43567 24.5066 7.13487 24.7285 6.78783 24.8984C6.11973 25.2161 5.33119 25.2419 4.56776 24.972C3.59372 24.6285 2.76237 23.8513 2.2869 22.8395C1.38649 20.9251 1.94129 18.8381 3.55119 18.0876C4.08431 17.8373 4.74585 17.7815 5.41138 17.9292C5.63542 17.9798 5.85831 17.8463 5.91853 17.6281C6.13628 16.8371 6.78983 15.5982 7.37945 14.6494C9.10865 15.2648 11.0761 15.4875 12.5836 15.4875H12.6044C13.0748 15.4869 15.4133 15.4437 17.5885 14.7024C18.0429 15.4403 18.8377 16.8031 19.0734 17.661C19.1348 17.8843 19.368 18.0171 19.5948 17.9584C20.2301 17.7955 20.8674 17.8508 21.4399 18.1191C21.4419 18.1202 21.4439 18.1208 21.4459 18.1219C21.4459 18.1219 21.447 18.1224 21.4482 18.123C22.1288 18.4286 22.6551 19.0111 22.9305 19.7656C23.2795 20.7186 23.1985 21.8374 22.705 22.8373ZM11.1038 7.09285C11.1038 6.1328 10.311 5.35195 9.33611 5.35195C8.36063 5.35195 7.56696 6.1328 7.56696 7.09285C7.56696 8.05233 8.36063 8.8329 9.33611 8.8329C10.311 8.83346 11.1038 8.05233 11.1038 7.09285ZM9.33611 7.99082C8.84124 7.99082 8.42313 7.57989 8.42313 7.09341C8.42313 6.60664 8.84124 6.19516 9.33611 6.19516C9.83012 6.19516 10.2477 6.60664 10.2477 7.09341C10.2477 7.57989 9.83041 7.99082 9.33611 7.99082ZM14.7757 10.5758C14.7757 10.0081 14.4792 9.05507 12.4963 9.05507C10.9837 9.05507 10.2171 9.56684 10.2171 10.5758C10.2171 11.6487 11.234 12.9453 12.4963 12.9453C13.7586 12.9453 14.7757 11.6487 14.7757 10.5758ZM12.4957 12.1021C11.71 12.1021 11.0727 11.1782 11.0727 10.5752C11.0727 10.3553 11.0727 9.89715 12.4957 9.89715C13.9187 9.89715 13.9187 10.3898 13.9187 10.5752C13.9195 11.1782 13.2811 12.1021 12.4957 12.1021ZM15.6558 8.80172C16.6482 8.80172 17.4247 8.03688 17.4247 7.06139C17.4247 6.10134 16.6313 5.32021 15.6558 5.32021C14.6804 5.32021 13.8873 6.10134 13.8873 7.06139C13.8864 8.02087 14.6804 8.80172 15.6558 8.80172ZM15.6558 6.16285C16.1504 6.16285 16.5685 6.57434 16.5685 7.06139C16.5685 7.56501 16.1676 7.95908 15.6558 7.95908C15.1613 7.95908 14.7434 7.54759 14.7434 7.06139C14.7426 6.57434 15.1607 6.16285 15.6558 6.16285Z" fill="#F19000" stroke="#F19000" stroke-width="0.5"/>
</svg>
