<svg width="35" height="26" viewBox="0 0 35 26" fill="none" xmlns="http://www.w3.org/2000/svg">
<path d="M2.32 8.57936V17.4206H9.58C9.66673 17.4205 9.75264 17.4367 9.83282 17.4683C9.913 17.5 9.98587 17.5464 10.0473 17.605L15.52 22.8429V3.15714L10.0473 8.39496C9.98587 8.45357 9.913 8.50002 9.83282 8.53166C9.75264 8.5633 9.66673 8.57951 9.58 8.57936H2.32ZM9.30676 18.6837H1.66C1.57333 18.6837 1.4875 18.6673 1.40743 18.6356C1.32735 18.6039 1.2546 18.5573 1.19331 18.4987C1.13202 18.4401 1.08341 18.3704 1.05024 18.2938C1.01707 18.2172 1 18.1351 1 18.0522V7.94784C1 7.86491 1.01707 7.78279 1.05024 7.70617C1.08341 7.62955 1.13202 7.55993 1.19331 7.50129C1.2546 7.44265 1.32735 7.39613 1.40743 7.3644C1.4875 7.33266 1.57333 7.31632 1.66 7.31632H9.30676L15.7127 1.18553C15.805 1.09699 15.9227 1.03666 16.0509 1.0122C16.1791 0.987736 16.312 1.00024 16.4327 1.04814C16.5535 1.09603 16.6566 1.17714 16.7291 1.2812C16.8016 1.38527 16.8402 1.50758 16.84 1.63265V24.3674C16.8402 24.4924 16.8016 24.6147 16.7291 24.7188C16.6566 24.8229 16.5535 24.904 16.4327 24.9519C16.312 24.9998 16.1791 25.0123 16.0509 24.9878C15.9227 24.9633 15.805 24.903 15.7127 24.8145L9.30676 18.6837ZM29.5542 23.271C29.4298 23.3861 29.263 23.4497 29.09 23.4483C28.9169 23.4468 28.7514 23.3804 28.629 23.2633C28.5067 23.1463 28.4372 22.9879 28.4357 22.8223C28.4342 22.6567 28.5008 22.4972 28.621 22.3781C29.9101 21.148 30.9323 19.6862 31.6289 18.0768C32.3255 16.4673 32.6827 14.742 32.68 13C32.68 9.43444 31.2029 6.0937 28.621 3.62194C28.5008 3.50283 28.4342 3.34331 28.4357 3.17772C28.4372 3.01214 28.5067 2.85375 28.629 2.73666C28.7514 2.61957 28.9169 2.55315 29.09 2.55172C29.263 2.55028 29.4298 2.61393 29.5542 2.72897C30.966 4.07627 32.0855 5.67726 32.8484 7.43992C33.6114 9.20258 34.0027 11.0921 34 13C34 16.9041 32.3817 20.5656 29.5542 23.271ZM25.82 19.6979C25.6955 19.8129 25.5288 19.8766 25.3557 19.8751C25.1827 19.8737 25.0171 19.8073 24.8948 19.6902C24.7724 19.5731 24.703 19.4147 24.7015 19.2491C24.7 19.0836 24.7665 18.924 24.8867 18.8049C25.6848 18.0436 26.3177 17.1388 26.749 16.1426C27.1804 15.1463 27.4016 14.0783 27.4 13C27.4016 11.9217 27.1804 10.8537 26.749 9.85745C26.3177 8.86122 25.6848 7.95641 24.8867 7.19507C24.8237 7.13682 24.7734 7.06713 24.7388 6.99008C24.7042 6.91304 24.686 6.83017 24.6852 6.74632C24.6845 6.66246 24.7012 6.57931 24.7344 6.50169C24.7676 6.42408 24.8166 6.35357 24.8785 6.29428C24.9405 6.23498 25.0142 6.18809 25.0953 6.15634C25.1764 6.12458 25.2633 6.1086 25.351 6.10933C25.4386 6.11006 25.5252 6.12748 25.6057 6.16058C25.6862 6.19368 25.7591 6.24179 25.82 6.3021C26.7406 7.1807 27.4708 8.22472 27.9685 9.37416C28.4661 10.5236 28.7215 11.7558 28.72 13C28.72 15.5463 27.664 17.9334 25.82 19.6979ZM22.087 16.126C22.0261 16.1863 21.9533 16.2344 21.8728 16.2675C21.7922 16.3006 21.7056 16.3181 21.618 16.3188C21.5304 16.3195 21.4435 16.3035 21.3623 16.2718C21.2812 16.24 21.2075 16.1931 21.1456 16.1338C21.0836 16.0746 21.0346 16.004 21.0014 15.9264C20.9682 15.8488 20.9515 15.7657 20.9523 15.6818C20.953 15.598 20.9713 15.5151 21.0058 15.438C21.0404 15.361 21.0907 15.2913 21.1538 15.2331C21.4608 14.9402 21.7042 14.5921 21.87 14.2089C22.0358 13.8256 22.1208 13.4148 22.12 13C22.1208 12.5852 22.0358 12.1744 21.87 11.7911C21.7042 11.4079 21.4608 11.0598 21.1538 10.7669C21.0907 10.7087 21.0404 10.639 21.0058 10.562C20.9713 10.4849 20.953 10.402 20.9523 10.3182C20.9515 10.2343 20.9682 10.1512 21.0014 10.0736C21.0346 9.99596 21.0836 9.92545 21.1456 9.86615C21.2075 9.80686 21.2812 9.75996 21.3623 9.72821C21.4435 9.69646 21.5304 9.68048 21.618 9.68121C21.7056 9.68194 21.7922 9.69936 21.8728 9.73245C21.9533 9.76555 22.0261 9.81366 22.087 9.87398C22.5166 10.2841 22.8572 10.7714 23.0894 11.3078C23.3216 11.8443 23.4408 12.4194 23.44 13C23.4408 13.5806 23.3216 14.1557 23.0894 14.6922C22.8572 15.2286 22.5166 15.7159 22.087 16.126Z" fill="#3C2C16" stroke="#3C2C16" stroke-width="0.2"/>
</svg>
