<svg width="20" height="27" viewBox="0 0 20 27" fill="none" xmlns="http://www.w3.org/2000/svg">
<path d="M3.93726 5.70704C1.88421 5.70704 1.6467 6.89016 2.7269 8.33581C3.80711 9.78115 5.50072 10.7299 7.38592 11.1818L7.38561 9.98319C7.38561 9.67981 7.63167 9.43375 7.93505 9.43375H12.1409C12.4443 9.43375 12.6903 9.67981 12.6903 9.98319V11.1812C14.5743 10.729 16.2669 9.78051 17.3465 8.33581C18.4131 6.90853 18.2107 5.70704 16.1362 5.70704C12.07 5.70704 8.00377 5.70704 3.93726 5.70704ZM6.09798 4.60815C6.28356 -0.202876 13.7924 -0.202559 13.978 4.60815H16.1362C18.8314 4.60815 19.8378 6.48259 18.4622 8.65154C18.8397 9.11168 19.0604 9.67759 19.0604 10.2764V23.2176C19.0604 24.8916 17.4707 26 15.9009 26H4.17287C2.60276 26 1.01334 24.8916 1.01334 23.2176V10.2764C1.01334 9.67791 1.23375 9.11137 1.61155 8.65154C0.240319 6.49051 1.24325 4.60815 3.93726 4.60815H6.09798ZM17.7569 9.5487C16.4183 10.9678 14.6246 11.8959 12.6903 12.3346V15.4716C12.6903 15.6527 12.6026 15.8133 12.4674 15.9134L10.3963 17.7077C10.1863 17.8898 9.87663 17.8834 9.67427 17.7033L7.57657 15.8858C7.45148 15.7775 7.38719 15.6249 7.38719 15.4716L7.38624 12.3355C5.451 11.8969 3.65605 10.9684 2.31648 9.5487C2.18411 9.77006 2.11222 10.0177 2.11222 10.2764V23.2176C2.11222 24.2738 3.21618 24.9011 4.17287 24.9011H15.9009C16.8572 24.9011 17.9615 24.2738 17.9615 23.2176V10.2764C17.9615 10.0177 17.8893 9.77006 17.7569 9.5487ZM8.48449 10.5326V15.2227L10.0378 16.5686L11.5915 15.2227V10.5326H8.48449ZM7.20795 4.60815H12.868C12.5472 1.21396 7.52875 1.21396 7.20795 4.60815Z" fill="#3C2C16" stroke="#3C2C16" stroke-width="0.3"/>
</svg>
