<svg width="47" height="46" viewBox="0 0 47 46" fill="none" xmlns="http://www.w3.org/2000/svg">
<path d="M46.3226 21.6201L46.313 21.5946C45.9157 20.5997 44.7294 20.4028 43.8632 20.2582C43.6518 20.2231 43.4549 20.1907 43.3062 20.1542C42.2101 19.8175 41.1787 19.6805 40.0867 19.5366C39.8065 19.4994 39.5208 19.4623 39.2405 19.4223C38.5623 19.2949 37.911 19.1173 37.2225 18.9293C36.2799 18.6718 35.3057 18.4061 34.244 18.2814C32.88 18.1837 31.9925 17.9007 30.7587 17.3871C30.5997 17.3072 30.4 17.2232 30.1645 17.1364C30.1659 17.0139 30.1439 16.8906 30.0716 16.7881C29.9834 16.6022 29.8995 16.3488 29.8822 16.3054C29.3789 15.2637 28.9231 14.1146 28.4205 12.6274C28.3055 11.9815 28.1479 11.1319 27.9448 10.2788C27.7761 9.60478 27.5743 8.94932 27.3788 8.31519C26.9657 6.97672 26.5767 5.71192 26.5064 4.33833C26.4032 3.29799 25.9825 1.76604 25.3153 0.87648C25.1597 0.643762 24.9573 0.42619 24.7452 0.263701L24.7542 0.236161C24.7273 0.224456 24.7018 0.214817 24.6599 0.200358C24.5339 0.113605 24.4223 0.0550806 24.3115 0.0179007L23.6863 0L23.6801 0.0550811C22.712 0.173506 22.1626 1.10094 21.6724 1.95469C21.2779 2.30721 21.0107 2.85734 20.7897 3.35789C20.5694 3.72211 20.3608 4.09391 20.1494 4.46984C19.9311 4.85954 19.7094 5.25406 19.4808 5.63136C19.193 6.04034 18.95 6.42935 18.7517 6.79427C18.5768 7.05934 18.3985 7.31891 18.2215 7.57642C17.5592 8.53896 16.8748 9.53455 16.4362 10.7794C16.0844 11.9492 15.6747 13.1438 15.2947 14.1042C15.1969 14.4926 15.1053 14.8602 14.8051 15.2685C14.7583 15.3628 14.6385 15.5398 14.5325 15.6871C14.2887 15.6672 14.0478 15.6499 13.8247 15.641C13.5135 15.6073 13.2023 15.5618 12.8918 15.5164C12.5778 15.4709 12.2638 15.4255 11.9327 15.389C11.0844 15.336 10.3174 15.3628 9.57449 15.389C8.83915 15.4145 8.14375 15.4393 7.36711 15.3883C6.92921 15.3883 6.46584 15.3153 5.97562 15.2375C5.48058 15.159 4.98554 15.0626 4.50977 15.0799L4.35554 15.064C3.23946 14.949 0.91297 14.7074 0.322224 16.3646C0.29606 16.461 0.285044 16.5491 0.279536 16.6304C0.135636 16.8252 0.0419994 17.0683 0 17.385C0 17.8628 0.296061 18.3 0.511567 18.6195L0.751858 19.0285C1.10507 19.6599 1.50578 20.3752 2.05659 20.9253C3.19815 22.1385 4.49394 22.9895 5.86546 23.8908C6.49751 24.3066 7.15092 24.7356 7.7933 25.2086C8.01294 25.3594 8.24083 25.5067 8.46942 25.6541C9.9993 26.6428 11.3206 27.4965 10.632 29.3101C10.3091 30.1597 10.0337 31.0603 9.7659 31.9306C9.43197 33.0198 9.08633 34.1455 8.64981 35.1707C7.63907 37.5454 6.49407 40.2368 6.75227 43.048C6.81836 43.7661 7.08826 44.2357 7.55438 44.4416C8.69388 44.9476 10.5845 43.5238 11.492 42.8394L11.6387 42.7244C12.0242 42.3388 12.6219 41.8225 12.8181 41.6889L12.9448 41.62C13.1568 41.461 13.3957 41.2751 13.634 41.0899C13.8605 40.9136 14.0863 40.7381 14.3246 40.5549C14.927 39.9531 16.251 38.8316 16.2496 38.8316C16.6524 38.53 17.0931 38.2449 17.5186 37.9695C17.9565 37.6866 18.4088 37.3939 18.8316 37.0765C19.0464 36.9154 19.2378 36.7784 19.4285 36.6414L19.5332 36.5657C19.9304 36.9251 20.3263 37.2852 20.7181 37.6508C21.1746 38.3035 21.9423 38.8577 22.374 39.1662L22.7058 39.4732C22.9537 39.7039 23.203 39.9352 23.479 40.1755C23.8536 40.4565 24.4051 40.8221 24.9318 40.9914C25.2072 41.1629 25.4861 41.3316 25.7718 41.5051L26.5092 41.9547C26.8232 42.1344 27.4256 42.5544 28.0632 42.9984C28.8715 43.5617 29.708 44.1448 30.2444 44.4423C30.4151 44.5276 30.6231 44.6598 30.8544 44.8065C31.5567 45.2513 32.447 45.8158 33.2993 45.8158C33.6099 45.8158 33.9156 45.7408 34.204 45.557C35.1563 44.9222 35.117 43.6395 35.0888 42.7031C35.0847 42.5523 35.0798 42.4084 35.0791 42.2948C35.2079 39.9972 35.1404 38.1678 34.8636 36.5119C34.759 36.0926 34.6275 35.6726 34.4967 35.2533C34.3734 34.8595 34.2509 34.4657 34.1503 34.0718C34.1379 33.5493 33.9328 31.5347 33.4625 30.6059C33.1761 30.2244 32.9847 29.8437 32.7836 29.4416C34.1793 29.2357 35.4468 28.771 36.6758 28.3214C37.1309 28.1548 37.5853 27.9881 38.0632 27.8284C39.9339 27.1006 41.565 26.2854 43.4859 25.3243L43.8219 25.128C44.9621 24.4691 46.8693 23.3696 46.3226 21.6201ZM35.3835 25.8434C34.7535 26.0954 34.1021 26.3564 33.5327 26.5484C32.8587 26.6827 32.3409 26.7488 31.9912 26.7509L31.8128 26.7275C31.052 26.6263 29.9036 26.4727 29.6543 27.7203C29.3356 28.835 29.9139 29.8636 30.4234 30.7711C30.6568 31.187 30.8771 31.5801 31.0011 31.9512C31.1725 32.4642 31.2448 33.101 31.3164 33.7166C31.3687 34.1786 31.419 34.6144 31.5175 35.0495C31.5808 35.2375 31.6517 35.4262 31.7254 35.6169C31.8879 36.0417 32.0559 36.481 32.1268 36.9705C32.2569 37.6232 32.3031 38.466 32.3478 39.2805C32.3712 39.7204 32.3946 40.1528 32.4311 40.5487C32.4704 40.9756 32.3946 41.1691 32.3189 41.2062C32.1013 41.3088 31.3625 40.9556 30.7057 40.3215C30.484 40.1067 29.7535 39.3307 29.6041 39.1001L29.6006 39.0147L29.4884 38.9162C29.0781 38.5575 28.6939 38.1988 28.309 37.8394C27.9193 37.4752 27.5289 37.1116 27.1296 36.7639C26.8748 36.5085 26.0486 35.9467 25.8069 35.9467C25.8055 35.9467 25.8048 35.9467 25.8035 35.9467C25.5473 35.8544 24.5462 34.8395 24.0657 34.3521C23.7145 33.9961 23.437 33.7152 23.2883 33.594C23.0825 33.4267 22.8711 33.2146 22.6473 32.9902C22.06 32.4008 21.3949 31.7316 20.5432 31.6318C19.3046 31.4879 17.9076 32.8422 16.7805 33.9307C16.4603 34.2398 16.1588 34.5325 15.9226 34.7246C15.7691 34.8492 15.5129 35.0888 15.1962 35.3862C12.6267 37.7974 11.8273 38.1472 11.6049 38.0164C11.2476 37.8036 11.6875 36.8266 11.9788 36.1801C12.1557 35.7876 12.3086 35.4482 12.3513 35.1859C12.5296 34.0911 12.7954 32.9833 13.0522 31.9134C13.2388 31.1367 13.4315 30.3339 13.5892 29.5421C13.6347 29.3362 13.7111 29.0829 13.793 28.8102C14.0519 27.9448 14.3459 26.9636 14.0863 26.3632C13.8226 25.7567 13.2202 25.4448 12.6886 25.1694C12.4366 25.0385 12.1984 24.9146 12.0332 24.779L11.8934 24.6626C11.7688 24.5593 11.6414 24.4533 11.4858 24.3301C11.1808 24.1207 10.8772 23.9211 10.5735 23.7207L10.1508 23.4419C9.6757 23.0962 9.17171 22.741 8.66909 22.3864C7.96887 21.8927 7.26934 21.399 6.68135 20.9625C6.27512 20.557 5.74979 19.9656 5.07504 19.1566C5.0055 19.0202 4.92219 18.8708 4.82855 18.7125L4.97108 18.7076C5.63274 18.6829 6.2944 18.6588 6.98636 18.6574C7.64114 18.5982 8.28972 18.6443 8.97548 18.6952C9.41957 18.7276 9.87812 18.7607 10.3649 18.7607C10.3745 18.7607 10.3842 18.7607 10.3945 18.7607C10.787 18.7249 11.1677 18.6656 11.545 18.6071C12.2356 18.4997 12.8856 18.3964 13.5507 18.4481C13.9342 18.5031 14.2578 18.541 14.5642 18.5272C15.7319 18.6594 17.3354 18.8398 18.1465 17.9379C18.7001 17.385 19.264 15.3911 19.3576 15.0372C19.7583 14.065 19.9146 13.0095 20.0647 11.9884C20.1976 11.0865 20.3236 10.2355 20.6024 9.44505C21.1023 8.04599 21.8906 6.96157 22.7258 5.81382L22.774 5.72018C22.7857 5.68438 22.7988 5.64651 22.8133 5.60658C23.9052 7.69897 24.6254 9.96694 25.3243 12.1674C25.4895 12.6886 25.6548 13.2092 25.8145 13.6877L25.8606 13.9066C25.8854 14.0175 25.9095 14.1276 25.926 14.2178C25.9405 14.3645 25.9529 14.5428 25.9673 14.7425C26.0555 16.0004 26.2028 18.1052 27.2872 18.992C27.7823 19.4037 28.3661 19.5263 28.8818 19.6337C29.087 19.6764 29.2846 19.717 29.4333 19.7652C29.6385 19.8561 29.8437 19.9525 30.0502 20.0496C30.7897 20.3966 31.5546 20.7553 32.4056 20.9253C32.9806 21.0266 33.5451 21.1064 34.1056 21.1856C35.2712 21.3502 36.3722 21.5051 37.5461 21.85C38.1162 21.9925 38.7021 22.0511 39.2674 22.1075C39.9704 22.1778 40.6348 22.2432 41.2799 22.4738C41.7564 22.5695 42.1447 22.6645 42.5268 22.7602C40.9845 23.7255 39.1779 24.4278 37.3092 25.1163C36.6799 25.325 36.021 25.5887 35.3835 25.8434Z" fill="white"/>
</svg>
