<svg width="150" height="157" viewBox="0 0 150 157" fill="none" xmlns="http://www.w3.org/2000/svg">
<path d="M65.8912 116.214C59.0515 119.009 63.1019 128.764 69.828 125.565C84.9681 118.584 99.7676 110.392 113.062 100.335C124.291 91.8395 136.484 79.8046 137.526 64.914C138.703 48.5691 119.525 49.7135 109.051 53.5303C99.183 57.1769 90.5292 63.2053 82.377 69.8552C85.078 57.7662 87.1165 45.6456 86.6501 33.14C86.3856 20.5776 80.1304 4.14409 64.1702 7.43386C48.0081 10.7804 44.2152 29.0591 42.2271 42.9085C40.0465 58.0104 39.7083 73.4657 41.7772 88.5709C44.2278 105.421 49.0287 121.719 55.7919 137.247C56.8045 139.685 60.4862 137.67 59.3442 135.158C46.6917 105.273 43.9138 70.2133 50.2121 38.3754C51.7867 30.416 54.0617 20.2987 62.0876 16.2987C71.8172 11.384 77.1673 20.3375 78.2838 28.9564C80.3873 46.1217 75.5597 63.8198 71.7165 80.3697C70.7194 84.5718 75.7228 86.8687 78.701 84.2882C87.5631 76.6761 96.482 69.2659 106.962 63.9221C111.726 61.4931 117.556 58.9822 123.131 59.0487C132.091 59.1437 130.257 66.958 127.452 72.8668C121.858 84.3531 110.734 92.0567 100.393 98.6686C89.2434 105.508 77.7377 111.467 65.8912 116.214Z" fill="#F8A326"/>
</svg>
