<svg width="692" height="630" viewBox="0 0 692 630" fill="none" xmlns="http://www.w3.org/2000/svg">
<path d="M345.62 72.0671L346 72.5102L346.38 72.0671C383.942 28.2372 441.495 0.5 501.454 0.5C607.58 0.5 690.953 83.3486 690.953 188.794C690.953 253.505 661.669 312.264 610.102 374.911C558.608 437.467 484.948 503.838 396.167 583.833L395.756 584.204L395.755 584.205L345.999 629.213L296.244 584.548L296.243 584.547L294.907 583.34C206.54 503.547 133.213 437.335 81.8986 374.954C30.331 312.264 1.04688 253.505 1.04688 188.794C1.04688 83.3486 84.4197 0.5 190.546 0.5C250.505 0.5 308.058 28.2372 345.62 72.0671Z" stroke="#F8A326"/>
</svg>
