<svg width="280" height="253" viewBox="0 0 280 253" fill="none" xmlns="http://www.w3.org/2000/svg">
<path d="M137.731 30.778L140 33.4024L142.269 30.778C156.973 13.7737 179.531 3 203 3C244.507 3 277 35.0656 277 75.8311C277 100.889 265.584 123.868 244.88 148.798C224.144 173.763 194.42 200.309 158.314 232.552L158.302 232.563L158.297 232.567L139.992 248.978L121.701 232.703L121.694 232.697L121.307 232.351C85.373 200.192 55.784 173.711 35.121 148.816C14.4157 123.869 3 100.889 3 75.8311C3 35.0656 35.4934 3 77 3C100.469 3 123.027 13.7737 137.731 30.778Z" stroke="#F8A326" stroke-width="6"/>
</svg>
