<svg width="83" height="83" viewBox="0 0 83 83" fill="none" xmlns="http://www.w3.org/2000/svg">
<path fill-rule="evenodd" clip-rule="evenodd" d="M58.8072 36.3818C59.0205 36.702 58.9083 37.1022 59.1216 37.4224C59.4729 37.8685 59.7552 38.2517 59.9125 38.772L59.9189 38.9034C60.0632 39.1608 60.2076 39.4181 60.352 39.6754C60.352 39.6754 60.2894 39.744 60.3584 39.8069C60.4964 39.9328 60.4338 40.0013 60.5028 40.0642C60.5718 40.1272 60.7097 40.253 60.7161 40.3845L60.66 40.5845C60.6664 40.716 60.8044 40.8419 60.8108 40.9734C60.7547 41.1734 60.6985 41.3735 60.705 41.5049C60.7499 42.4253 60.9329 43.4716 60.9089 44.3291C60.8527 44.5291 60.9281 44.7235 60.9345 44.855C60.941 44.9865 61.0099 45.0494 60.9474 45.118L60.8223 45.2551L60.8913 45.318C60.8977 45.4495 60.7662 45.4552 60.7726 45.5867L60.848 45.7811C60.8544 45.9125 60.7919 45.9811 60.7293 46.0497C60.6668 46.1182 60.7983 46.1126 60.7357 46.1812L60.6171 46.4498L60.6925 46.6442C60.6363 46.8442 60.5738 46.9128 60.5177 47.1129C60.5241 47.2443 60.5305 47.3758 60.5369 47.5073C60.5434 47.6388 60.6123 47.7017 60.5498 47.7703L60.4247 47.9074C60.4311 48.0389 60.5001 48.1018 60.4375 48.1704L60.3124 48.3075L60.3814 48.3704C60.3189 48.439 60.2002 48.7076 60.0751 48.8447C59.8939 49.1819 59.525 49.7248 59.2812 50.1305C58.6686 51.0792 58.3061 51.7535 57.3615 52.6505C57.3615 52.6505 57.2925 52.5876 57.23 52.6562C57.1674 52.7247 57.0423 52.8619 56.9798 52.9304C56.8547 53.0676 56.9236 53.1305 56.7986 53.2676C56.6735 53.4047 56.5419 53.4104 56.4168 53.5475C56.2917 53.6846 56.3607 53.7476 56.2356 53.8847C55.9854 54.1589 55.7978 54.3646 55.5476 54.6389C55.1723 55.0503 54.5965 55.4044 54.2212 55.8158C53.6518 56.3014 53.283 56.8443 52.9013 57.1242C52.9013 57.1242 52.8323 57.0613 52.7697 57.1298C52.7072 57.1984 52.6446 57.2669 52.5821 57.3355C52.5195 57.4041 52.388 57.4097 52.3255 57.4783C52.2629 57.5469 51.9373 57.6267 51.7433 57.7009C51.5492 57.7751 51.4241 57.9123 51.23 57.9865C51.1675 58.055 50.967 57.9977 50.967 57.9977L50.8419 58.1349C50.7104 58.1405 50.7104 58.1405 50.6478 58.2091C50.5853 58.2777 50.4537 58.2833 50.3912 58.3519C50.3286 58.4204 50.1971 58.4261 50.003 58.5003L49.8779 58.6374C49.6149 58.6487 49.2957 58.86 48.9766 59.0714C48.9766 59.0714 48.9076 59.0085 48.845 59.077C48.7825 59.1456 48.582 59.0883 48.5195 59.1569C48.4569 59.2254 48.3879 59.1625 48.3254 59.2311C48.1939 59.2367 48.0623 59.2424 47.9308 59.248C47.7993 59.2537 47.8057 59.3851 47.6742 59.3908C47.6116 59.4594 47.4737 59.3335 47.4737 59.3335C47.3422 59.3392 47.2171 59.4763 47.0856 59.4819C46.954 59.4876 46.954 59.4876 46.8225 59.4932C46.3654 59.5787 45.4448 59.6182 44.8497 59.5779C44.7182 59.5835 44.5866 59.5892 44.4551 59.5948C44.3236 59.6005 44.1857 59.4746 44.0541 59.4803C43.9226 59.4859 43.7911 59.4915 43.6596 59.4972C42.601 59.4109 41.9369 59.3076 40.928 58.8897C40.6586 58.7695 40.3891 58.6493 40.0507 58.4662C39.9191 58.4718 39.7187 58.4146 39.6497 58.3516C39.3802 58.2314 39.0418 58.0483 38.7723 57.9281C38.7033 57.8652 38.6344 57.8023 38.5654 57.7394C38.4964 57.6765 38.4339 57.745 38.3649 57.6821C37.8885 57.3731 37.5308 56.7956 37.048 56.3551C36.4898 55.7203 36.007 55.2798 35.5177 54.7079L35.3798 54.582C35.3734 54.4505 35.2354 54.3247 35.091 54.0674C35.0156 53.873 34.9402 53.6786 34.8713 53.6156C34.7959 53.4212 34.5954 53.364 34.52 53.1696C34.52 53.1696 34.5825 53.101 34.5136 53.0381C34.3692 52.7807 34.2312 52.6549 34.1559 52.4605L34.0179 52.3347C34.0051 52.0717 33.6538 51.6256 33.5094 51.3683C33.4404 51.3053 33.5655 51.1682 33.4966 51.1053C33.4212 50.9109 33.4147 50.7794 33.3393 50.585C33.2639 50.3906 33.2575 50.2591 33.1821 50.0647C33.1067 49.8703 33.1003 49.7388 33.0249 49.5444C32.9559 49.4815 33.0874 49.4758 33.0185 49.4129C32.8116 49.2241 32.9799 48.624 32.9607 48.2295C32.9542 48.098 32.8853 48.0351 32.8163 47.9722C32.7473 47.9093 32.8724 47.7722 32.8034 47.7092C32.7906 47.4463 32.7152 47.2519 32.7713 47.0518C32.8339 46.9832 32.7649 46.9203 32.7649 46.9203C32.7585 46.7888 32.8146 46.5888 32.8771 46.5202L32.9333 46.3202C32.9958 46.2516 32.9894 46.1201 33.0519 46.0515C33.0455 45.9201 32.9076 45.7942 32.9701 45.7257C32.9637 45.5942 33.0952 45.5885 33.0888 45.457C33.1513 45.3885 33.0198 45.3941 33.0824 45.3256L33.1385 45.1255C33.1321 44.994 33.0631 44.9311 33.1257 44.8625C33.1192 44.731 33.3133 44.6568 33.3069 44.5254C33.3694 44.4568 33.2315 44.3309 33.294 44.2624C33.2876 44.1309 33.3502 44.0623 33.3437 43.9308C33.4063 43.8623 33.3309 43.6679 33.3309 43.6679C33.3245 43.5364 33.5185 43.4622 33.5121 43.3307C33.5746 43.2621 33.4993 43.0677 33.4993 43.0677C33.5618 42.9992 33.6244 42.9306 33.6244 42.9306C33.6869 42.862 33.6805 42.7305 33.743 42.662C33.8056 42.5934 33.7366 42.5305 33.7366 42.5305C34.0429 42.0562 34.4808 41.5762 34.8496 41.0333C35.3436 40.3533 35.5745 39.6846 36.2754 39.1934C36.2754 39.1934 36.3444 39.2563 36.4069 39.1877L36.4695 39.1192L36.601 39.1135C36.9827 38.8336 37.427 38.4852 37.8087 38.2052C37.8712 38.1367 38.1968 38.0568 38.2594 37.9883C38.3219 37.9197 38.3845 37.8511 38.3845 37.8511C38.447 37.7826 38.6475 37.8398 38.6475 37.8398C38.7791 37.8342 38.7726 37.7027 38.9041 37.6971C38.9667 37.6285 39.1046 37.7544 39.1672 37.6858C39.2987 37.6801 39.2923 37.5487 39.4238 37.543C39.5553 37.5374 39.8184 37.5261 39.9499 37.5204C40.0814 37.5148 40.144 37.4462 40.2065 37.3777C40.2691 37.3091 40.2755 37.4406 40.338 37.372L40.4006 37.3035C40.5321 37.2978 40.7951 37.2865 40.9267 37.2809C41.0582 37.2752 41.1272 37.3382 41.1897 37.2696C41.3212 37.2639 41.3148 37.1325 41.4463 37.1268C41.5779 37.1212 41.8409 37.1099 41.9724 37.1042C42.367 37.0873 42.4295 37.0187 42.8305 37.1333C42.8995 37.1962 42.8931 37.0647 42.962 37.1276C43.1 37.2535 43.2251 37.1164 43.363 37.2422C43.501 37.368 43.6951 37.2938 43.8266 37.2882C44.2901 37.3342 45.1611 37.6262 45.631 37.8037C46.3079 38.1699 46.9912 38.6676 47.4804 39.2396C47.7628 39.6227 47.92 40.143 48.1462 40.7263C48.2216 40.9207 48.297 41.1151 48.3724 41.3095C48.3788 41.441 48.4478 41.5039 48.4542 41.6354C48.4606 41.7669 48.5296 41.8298 48.536 41.9613L48.6804 42.2186C48.6932 42.4816 48.775 42.8075 48.9258 43.1963L48.8697 43.3963L49.0077 43.5222C49.0205 43.7851 48.9644 43.9852 48.9772 44.2482C48.9837 44.3797 49.059 44.5741 49.0029 44.7741L48.8842 45.0427L48.9532 45.1056L48.8281 45.2428C48.8281 45.2428 48.8474 45.6372 48.7223 45.7744C48.6598 45.8429 48.5411 46.1115 48.485 46.3116C48.1851 46.9174 47.8787 47.3917 47.4345 47.7402C47.2468 47.9459 46.9902 48.0886 46.7336 48.2314C46.671 48.3 46.6646 48.1685 46.6021 48.2371C46.477 48.3742 46.2075 48.254 46.076 48.2596C45.9445 48.2653 45.8194 48.4024 45.7504 48.3395C45.6189 48.3451 45.4809 48.2193 45.4119 48.1564C45.4119 48.1564 45.3494 48.2249 45.2804 48.162C45.2804 48.162 44.8602 47.653 44.7976 47.7216C44.403 47.7385 44.233 46.9552 44.1512 46.6293C44.1319 46.2349 44.2441 45.8348 44.1559 45.3774C44.1366 44.9829 43.9858 44.5941 43.835 44.2053C43.7661 44.1424 43.8976 44.1367 43.8286 44.0738L43.7532 43.8794C43.7468 43.7479 43.7404 43.6165 43.6024 43.4906C43.2511 43.0445 42.8309 42.5355 42.1668 42.4322L41.8974 42.312L41.8348 42.3806L41.6969 42.2548L41.6343 42.3233L41.4964 42.1975C41.2333 42.2088 41.0328 42.1515 40.7072 42.2314C40.6447 42.2999 40.5757 42.237 40.5132 42.3056C40.3191 42.3798 39.8556 42.3338 39.6054 42.608C39.2862 42.8194 39.105 43.1566 38.9238 43.4937C38.8612 43.5623 38.8612 43.5623 38.7987 43.6309C38.4362 44.3052 38.0112 45.0482 37.9872 45.9056C37.9936 46.0371 38.069 46.2315 38.0755 46.363C38.0819 46.4945 38.0883 46.626 38.0947 46.7575C38.1766 47.0834 38.2584 47.4093 38.4027 47.6666C38.4092 47.7981 38.353 47.9981 38.422 48.061L38.56 48.1869L38.4974 48.2555L38.6354 48.3813C38.5857 48.7128 39.1439 49.3477 39.5016 49.9253C39.7903 50.4399 40.0791 50.9546 40.3614 51.3377C40.6437 51.7209 40.9886 52.0355 41.3334 52.3501C41.6783 52.6647 41.9606 53.0479 42.299 53.231C42.6375 53.4141 43.3705 53.5803 43.9655 53.6207C44.0971 53.615 44.1596 53.5465 44.2286 53.6094L44.3665 53.7352L44.5606 53.661C44.1228 54.141 44.1917 54.2039 44.2607 54.2668L44.4548 54.1926C44.5863 54.187 44.7243 54.3128 44.8558 54.3072C45.2503 54.2902 45.7075 54.2047 46.171 54.2507C46.3715 54.308 46.5656 54.2338 46.6971 54.2281C47.0227 54.1483 47.6674 53.8571 48.1181 53.6401C48.3747 53.4973 48.6314 53.3546 48.888 53.2118C48.888 53.2118 48.9569 53.2747 49.0195 53.2061C49.1446 53.069 49.2071 53.0004 49.4012 52.9262C50.046 52.635 51.1783 51.5324 51.9289 50.7096C52.9296 49.6125 54.1935 48.5042 54.4051 47.441C54.4677 47.3725 54.3361 47.3781 54.3987 47.3096C54.5238 47.1724 54.5109 46.9095 54.5045 46.778C54.5414 46.1835 54.5654 45.326 54.4643 44.6056C54.3825 44.2797 54.6262 43.874 54.607 43.4795C54.6005 43.348 54.4 43.2908 54.3936 43.1593C54.3246 43.0964 54.3808 42.8963 54.3808 42.8963C54.3743 42.7648 54.2428 42.7705 54.2364 42.639C54.1674 42.5761 54.2236 42.376 54.2236 42.376C54.2171 42.2445 54.0856 42.2502 54.0792 42.1187C54.0102 42.0558 54.0663 41.8557 54.0663 41.8557C54.0599 41.7242 53.9284 41.7299 53.922 41.5984C53.853 41.5355 53.9091 41.3354 53.9091 41.3354C53.8401 41.2725 53.5643 41.0208 53.6268 40.9522L53.6894 40.8837C53.545 40.6263 53.3316 40.3061 53.1183 39.9859L52.9804 39.86L53.0429 39.7914L52.905 39.6656C52.8985 39.5341 52.8985 39.5341 52.8296 39.4712L52.6852 39.2139L52.7477 39.1453C52.6723 38.9509 52.5344 38.8251 52.4654 38.7621C52.3964 38.6992 52.4526 38.4992 52.4526 38.4992C52.3836 38.4362 52.3146 38.3733 52.2457 38.3104C52.2457 38.3104 52.3082 38.2418 52.2392 38.1789L52.0323 37.9902C52.0949 37.9216 51.9569 37.7957 51.8125 37.5384C51.5302 37.1552 50.9095 36.589 50.4892 36.0799C50.3513 35.9541 50.3384 35.6911 50.2005 35.5653C49.9182 35.1821 49.6423 34.9304 49.0969 34.5586C48.89 34.3698 48.6895 34.3125 48.5515 34.1867C48.5515 34.1867 48.489 34.2552 48.42 34.1923C48.1441 33.9406 47.6742 33.7632 47.3357 33.58C46.7968 33.3396 46.1953 33.1678 45.6003 33.1275C45.4687 33.1331 45.4062 33.2017 45.3372 33.1388L45.1993 33.0129L45.1367 33.0815C44.9362 33.0242 44.7293 32.8354 44.5978 32.8411C44.5288 32.7782 44.3347 32.8524 44.3347 32.8524C44.2032 32.858 44.1342 32.7951 44.0653 32.7322C43.6643 32.6176 43.3258 32.4345 42.9938 32.3829C42.4613 32.274 41.8663 32.2336 41.2086 32.2618C41.0771 32.2675 40.8831 32.3417 40.7515 32.3473C40.62 32.353 40.4821 32.2271 40.3505 32.2328L40.2126 32.1069L40.15 32.1755L40.0121 32.0497C39.9496 32.1182 39.6801 31.998 39.5486 32.0037L39.4235 32.1408L39.223 32.0835L39.0979 32.2207L38.8974 32.1634L38.7723 32.3005L38.5718 32.2432C38.4403 32.2489 38.4467 32.3804 38.3152 32.386L38.1147 32.3287C38.0521 32.3973 37.9896 32.4659 37.9896 32.4659C37.927 32.5344 37.7265 32.4771 37.7265 32.4771C37.664 32.5457 37.595 32.4828 37.5325 32.5514C37.4009 32.557 37.3384 32.6256 37.2758 32.6941C37.2133 32.7627 37.1443 32.6998 37.1443 32.6998C36.368 32.9966 35.5485 33.7565 34.7096 34.1219C34.453 34.2646 34.1274 34.3445 33.9398 34.5502C33.6206 34.7615 33.3768 35.1673 32.9951 35.4472C32.9326 35.5157 32.8011 35.5214 32.7385 35.59C31.6623 36.4926 30.2301 38.2011 29.2422 39.5611C28.9359 40.0354 28.6231 40.3782 28.3168 40.8525C28.2543 40.9211 28.1917 40.9897 28.1292 41.0582C28.0731 41.2583 27.7667 41.7326 27.454 42.0754C27.2038 42.3497 26.9536 42.6239 26.8349 42.8925C26.5976 43.4298 26.4917 43.9614 26.4549 44.5559C26.3491 45.0875 26.3122 45.682 25.7429 46.1676C25.637 46.6992 25.6867 46.3676 25.6306 46.5677C25.637 46.6992 25.6435 46.8306 25.6499 46.9621L25.5248 47.0993C25.5376 47.3622 25.5633 47.8882 25.5826 48.2826L25.7205 48.4085C25.6644 48.6085 25.7398 48.8029 25.7527 49.0659C25.7655 49.3289 25.8473 49.6548 25.9227 49.8492C25.9291 49.9807 25.9356 50.1121 25.942 50.2436C25.9484 50.3751 26.0864 50.501 26.0928 50.6324C26.0992 50.7639 26.1056 50.8954 26.1121 51.0269C26.1185 51.1584 26.2564 51.2842 26.2629 51.4157C26.2693 51.5472 26.2132 51.7472 26.2821 51.8102L26.4201 51.936L26.3575 52.0046L26.4955 52.1304L26.4329 52.199C26.5083 52.3934 26.5901 52.7193 26.6655 52.9137C26.7345 52.9766 26.603 52.9823 26.672 53.0452C26.8099 53.171 26.7538 53.3711 26.7602 53.5026L26.8982 53.6284L26.8356 53.697L26.9736 53.8228C26.9864 54.0858 26.9928 54.2173 27.1372 54.4746C27.3634 55.0578 27.5206 55.5781 27.7468 56.1613C27.8912 56.4187 28.1045 56.7389 28.2489 56.9962C28.2489 56.9962 28.1863 57.0648 28.2553 57.1277C28.3243 57.1906 28.4686 57.448 28.4751 57.5795L28.613 57.7053C28.6323 58.0997 29.391 58.7919 29.6797 59.3065C29.6797 59.3065 29.6172 59.3751 29.6862 59.438C29.8241 59.5639 29.8995 59.7583 29.9749 59.9527L30.1193 60.21C30.1257 60.3415 30.1257 60.3415 30.1947 60.4044C30.2701 60.5988 30.4208 60.9876 30.6342 61.3079C30.9165 61.6911 31.2614 62.0057 31.5437 62.3888C31.826 62.772 32.3778 63.2754 32.8542 63.5843C33.1236 63.7045 33.0675 63.9046 33.4124 64.2192C33.4813 64.2821 33.6129 64.2765 33.8198 64.4652C34.1647 64.7798 34.6475 65.2203 35.0549 65.4663C35.3243 65.5865 35.7943 65.764 36.1327 65.9471C36.3332 66.0044 36.4712 66.1302 36.6027 66.1246C36.8032 66.1819 36.9411 66.3077 37.0727 66.3021C37.1416 66.365 37.3357 66.2908 37.3357 66.2908C37.4672 66.2851 37.5362 66.348 37.6052 66.411C38.0062 66.5255 38.6141 66.8288 39.084 67.0063C39.153 67.0692 39.3535 67.1265 39.3535 67.1265L39.5476 67.0523L39.6855 67.1781L39.7481 67.1096L39.886 67.2354L39.9486 67.1669C40.0175 67.2298 40.0865 67.2927 40.218 67.2871L40.4121 67.2128L40.5501 67.3387L40.6126 67.2701L40.7505 67.396C40.9446 67.3217 41.4771 67.4307 41.7466 67.5509C41.8781 67.5452 41.8845 67.6767 42.0161 67.6711C42.085 67.734 42.2101 67.5968 42.2101 67.5968C42.5422 67.6485 42.7426 67.7058 43.0057 67.6945C43.1372 67.6888 43.2687 67.6832 43.4003 67.6775C43.6633 67.6662 44.0579 67.6493 44.1894 67.6437C44.515 67.5638 44.9031 67.4154 45.2913 67.267C45.3538 67.1984 45.4918 67.3243 45.5543 67.2557C45.8799 67.1758 46.4621 66.9532 46.8502 66.8048C46.9818 66.7992 47.0507 66.8621 47.1133 66.7935L47.2384 66.6564C47.3699 66.6507 47.5079 66.7766 47.5704 66.708C47.7019 66.7024 47.6955 66.5709 47.827 66.5652C47.8896 66.4967 48.0901 66.5539 48.0901 66.5539L48.2152 66.4168C48.4157 66.4741 48.8599 66.1256 49.1791 65.9143C49.3732 65.8401 49.4918 65.5715 49.6234 65.5658C49.6234 65.5658 49.6923 65.6287 49.7549 65.5602C49.9425 65.3545 50.2056 65.3432 50.5247 65.1319C50.8439 64.9205 51.232 64.7721 51.5512 64.5608L51.6763 64.4236L51.7453 64.4865C52.2585 64.201 52.8969 63.7783 53.4037 63.3613C53.7228 63.1499 53.973 62.8757 54.2922 62.6644C54.2922 62.6644 54.3612 62.7273 54.4237 62.6587C54.5488 62.5216 54.8054 62.3788 55.1246 62.1675C55.4438 61.9561 55.694 61.6819 56.0131 61.4705C56.52 61.0535 57.0893 60.5679 57.7838 59.9452C57.7838 59.9452 57.8528 60.0081 57.9153 59.9395C57.9779 59.871 58.103 59.7338 58.1655 59.6653C58.7349 59.1797 59.5608 58.5513 60.2553 57.9286C61.3315 57.0259 62.1446 56.1346 62.6193 55.0601L62.7444 54.923C62.738 54.7915 62.7316 54.66 62.7941 54.5915L62.9192 54.4543L62.8502 54.3914C62.9689 54.1228 63.094 53.9857 63.2752 53.6485C63.2752 53.6485 63.2063 53.5856 63.2688 53.517C63.3939 53.3799 63.45 53.1798 63.5062 52.9798C63.6248 52.7111 63.8061 52.374 63.9873 52.0368C64.3994 51.0309 64.8805 50.0879 65.1612 49.0876C65.2173 48.8876 65.2044 48.6246 65.3295 48.4875C65.4546 48.3504 65.3167 48.2245 65.4418 48.0874L65.4979 47.8873C65.4915 47.7559 65.4225 47.6929 65.4851 47.6244L65.6102 47.4872C65.6037 47.3558 65.5973 47.2243 65.6534 47.0242C65.716 46.9557 65.5845 46.9613 65.647 46.8927L65.7031 46.6927C65.7657 46.6241 65.6277 46.4983 65.6903 46.4297C65.7464 46.2297 65.8025 46.0296 65.7961 45.8981C65.8522 45.6981 65.7768 45.5037 65.833 45.3036C65.8265 45.1721 65.8137 44.9092 65.8073 44.7777C65.788 44.3832 65.9628 43.9145 66.0125 43.583C66.0061 43.4515 65.9307 43.2571 65.9243 43.1256C65.9114 42.8627 65.9611 42.5311 65.8793 42.2052C65.86 41.8108 65.7718 41.3534 65.7461 40.8274C65.7396 40.696 65.6643 40.5016 65.6578 40.3701C65.6514 40.2386 65.645 40.1071 65.6386 39.9756C65.6321 39.8441 65.5006 39.8498 65.4942 39.7183C65.4252 39.6554 65.5503 39.5182 65.5503 39.5182C65.5439 39.3867 65.4124 39.3924 65.4059 39.2609L65.4621 39.0609C65.4556 38.9294 65.3241 38.935 65.3177 38.8035C65.3113 38.672 65.4299 38.4034 65.3545 38.209C65.3481 38.0775 65.2166 38.0832 65.2102 37.9517L65.2663 37.7516C65.2599 37.6202 65.1219 37.4943 65.1155 37.3628C65.1091 37.2313 65.2342 37.0942 65.0962 36.9684C65.0273 36.9054 65.1524 36.7683 65.0834 36.7054L64.9454 36.5796L65.008 36.511C65.0016 36.3795 64.8011 36.3222 64.7947 36.1907C64.7257 36.1278 64.7818 35.9278 64.7818 35.9278C64.7064 35.7334 64.4995 35.5446 64.4931 35.4131C64.4931 35.4131 64.5556 35.3445 64.4866 35.2816C64.4177 35.2187 64.2733 34.9614 64.2669 34.8299C64.1915 34.6355 64.0535 34.5096 63.9781 34.3152C63.8273 33.9264 63.614 33.6062 63.3942 33.1544C63.3188 32.96 63.1119 32.7713 63.1055 32.6398C63.0365 32.5769 63.0926 32.3768 63.0926 32.3768C62.9418 31.988 62.3901 31.4846 62.0388 31.0385C62.0388 31.0385 62.1013 30.97 62.0324 30.9071C61.8254 30.7183 61.819 30.5868 61.4741 30.2722C61.3362 30.1464 61.1983 30.0205 61.1293 29.9576C61.1293 29.9576 61.1918 29.889 61.1229 29.8261C60.5021 29.2598 59.8059 28.4991 59.2477 27.8643C59.0408 27.6755 58.8275 27.3553 58.5516 27.1036C58.3447 26.9148 58.0062 26.7317 57.7993 26.5429C57.5924 26.3542 57.517 26.1598 57.3037 25.8395C56.67 25.0103 55.7109 24.2608 54.6137 23.3856C54.4758 23.2598 54.2688 23.071 54.1309 22.9452C53.993 22.8193 53.9304 22.8879 53.8614 22.825C53.8614 22.825 53.924 22.7564 53.855 22.6935L53.786 22.6305C53.6481 22.5047 53.6352 22.2417 53.5663 22.1788C53.077 21.6069 52.6825 21.6238 52.0746 21.3205C51.7361 21.1374 51.3287 20.8913 50.9903 20.7082C50.9903 20.7082 50.9277 20.7768 50.8587 20.7139C50.6583 20.6566 50.4578 20.5993 50.3198 20.4735C50.1193 20.4162 49.9878 20.4218 49.8498 20.296C49.5114 20.1129 48.966 19.741 48.6276 19.5579C48.6276 19.5579 48.5651 19.6264 48.4961 19.5635C48.4271 19.5006 48.3581 19.4377 48.2266 19.4433C47.6941 19.3344 46.9547 19.0367 46.3532 18.8649C46.3532 18.8649 46.2906 18.9335 46.2217 18.8705C45.9522 18.7503 45.6827 18.6302 45.3443 18.447C45.1438 18.3898 44.8118 18.3381 44.7428 18.2752C44.6738 18.2123 44.4798 18.2865 44.4108 18.2236C44.3418 18.1606 44.1478 18.2349 44.0788 18.1719C44.0098 18.109 43.7468 18.1203 43.6152 18.126L43.4212 18.2002C43.2897 18.2058 43.1517 18.08 43.0202 18.0856C42.8887 18.0913 42.7636 18.2284 42.6946 18.1655C42.5631 18.1711 42.5566 18.0396 42.4251 18.0453C42.1621 18.0565 41.8365 18.1364 41.5045 18.0848C41.3729 18.0904 41.1099 18.1017 40.9094 18.0444C40.7089 17.9871 40.3144 18.0041 40.0513 18.0154C39.7883 18.0267 39.3312 18.1122 39.0056 18.192C38.874 18.1976 38.8051 18.1347 38.7425 18.2033L38.6174 18.3404L38.4169 18.2831C38.2854 18.2888 38.2918 18.4203 38.1603 18.4259L37.9598 18.3686C37.8283 18.3743 37.7032 18.5114 37.5717 18.5171C37.3776 18.5913 37.1081 18.4711 36.9766 18.4767L36.8515 18.6138C36.388 18.5679 35.5988 18.6017 35.0792 18.7558C34.7536 18.8356 34.5659 19.0413 34.2468 19.2527C33.9902 19.3954 33.6646 19.4753 33.4079 19.6181C33.3454 19.6866 33.339 19.5552 33.2764 19.6237C33.2139 19.6923 33.0759 19.5664 33.0134 19.635C32.8819 19.6406 32.8257 19.8407 32.6317 19.9149C32.375 20.0577 32.1184 20.2005 31.7993 20.4118C31.286 20.6973 30.6348 20.857 30.1152 21.0111C29.0133 21.3878 28.0558 22.0218 26.8978 22.5986C26.1279 23.0269 25.2201 23.3294 24.4567 23.8892C24.1375 24.1005 23.9563 24.4377 23.6371 24.649C23.3805 24.7918 23.0613 25.0031 22.8112 25.2774C22.6861 25.4145 22.6299 25.6146 22.4359 25.6888C22.4359 25.6888 22.3669 25.6259 22.3043 25.6944C22.2418 25.763 22.0413 25.7057 21.9787 25.7743L21.7847 25.8485C21.7221 25.9171 21.5906 25.9227 21.5281 25.9913C21.4655 26.0598 21.265 26.0026 21.265 26.0026C21.1335 26.0082 21.1399 26.1397 21.0084 26.1453C20.5513 26.2308 20.0813 26.0533 19.8054 25.8017C19.5985 25.6129 19.329 25.4927 19.1157 25.1725C19.1157 25.1725 19.1782 25.1039 19.1093 25.041L18.9649 24.7836L19.021 24.5836C18.9521 24.5207 18.8831 24.4578 18.8831 24.4578C18.8141 24.3948 18.8702 24.1948 18.8638 24.0633C18.851 23.8003 18.7691 23.4744 18.8188 23.1429L18.8124 23.0114C18.9311 22.7428 19.2503 22.5314 19.4315 22.1943C19.0545 21.2222 19.1667 20.8221 19.2918 20.685C19.7922 20.1365 20.6246 19.6396 21.3191 19.0169C21.6383 18.8055 21.8949 18.6628 22.1451 18.3885C22.3327 18.1828 22.5894 18.04 22.846 17.8973C23.109 17.886 23.2341 17.7488 23.4282 17.6746C23.5597 17.669 23.6222 17.6004 23.6848 17.5318C23.7473 17.4633 23.8163 17.5262 23.8163 17.5262C24.0104 17.452 24.0665 17.2519 24.2606 17.1777C24.2606 17.1777 24.3296 17.2407 24.3921 17.1721C24.5862 17.0979 24.7177 17.0922 24.8428 16.9551C25.0369 16.8809 25.1684 16.8753 25.2935 16.7381C25.4876 16.6639 25.4811 16.5324 25.6752 16.4582C25.7378 16.3897 25.9382 16.4469 25.9382 16.4469C26.0008 16.3784 26.0633 16.3098 26.1259 16.2412C26.1884 16.1727 26.3889 16.23 26.3889 16.23C26.6456 16.0872 26.5766 16.0243 26.8332 15.8815C26.8332 15.8815 26.9022 15.9444 26.9647 15.8758L27.0273 15.8073C27.0898 15.7387 27.2903 15.796 27.2903 15.796C27.741 15.579 27.8036 15.5104 27.8661 15.4419C28.1227 15.2991 28.5109 15.1507 28.8926 14.8708C28.8926 14.8708 28.9616 14.9337 29.0241 14.8651C29.1492 14.728 29.2118 14.6594 29.3433 14.6538C29.4058 14.5852 29.6063 14.6425 29.6063 14.6425C29.8004 14.5683 30.1196 14.357 30.3762 14.2142C30.5077 14.2085 30.5767 14.2715 30.6392 14.2029L30.7643 14.0658C30.8958 14.0601 31.0899 13.9859 31.284 13.9117C31.4781 13.8375 31.6031 13.7004 31.7972 13.6262C31.8598 13.5576 32.0603 13.6149 32.0603 13.6149L32.1854 13.4777L32.2543 13.5407C32.4484 13.4664 32.5735 13.3293 32.705 13.3237C32.7676 13.2551 32.9681 13.3124 32.9681 13.3124C33.0306 13.2438 33.0932 13.1753 33.1557 13.1067C33.2183 13.0381 33.4188 13.0954 33.4188 13.0954C33.6128 13.0212 33.7379 12.8841 33.932 12.8099C33.932 12.8099 34.001 12.8728 34.0635 12.8042C34.1886 12.6671 34.3891 12.7244 34.5832 12.6502C34.7147 12.6445 34.9088 12.5703 34.9713 12.5017C35.0339 12.4332 35.2344 12.4904 35.3659 12.4848L35.491 12.3477L35.6915 12.4049L35.8166 12.2678C35.9481 12.2622 36.1486 12.3195 36.3427 12.2452C36.5367 12.171 36.8688 12.2227 37.0003 12.217L37.1254 12.0799C37.3259 12.1372 37.7204 12.1202 37.9835 12.1089L38.1086 11.9718L38.3091 12.0291L38.4342 11.892C38.5657 11.8863 38.7662 11.9436 38.9602 11.8694C39.2858 11.7895 39.6179 11.8412 40.006 11.6928C40.269 11.6815 40.6572 11.533 41.0517 11.5161C41.3148 11.5048 41.7094 11.4879 41.9099 11.5452C41.9788 11.6081 42.2419 11.5968 42.3734 11.5912C42.6364 11.5799 42.8995 11.5686 43.031 11.5629C43.294 11.5516 43.4945 11.6089 43.695 11.6662C43.9581 11.6549 44.1521 11.5807 44.3526 11.638C44.6157 11.6267 44.8162 11.684 45.0167 11.7413C45.2172 11.7985 45.4802 11.7872 45.6117 11.7816C46.0127 11.8962 46.5517 12.1365 47.0842 12.2455C47.2157 12.2398 47.2847 12.3027 47.3536 12.3657C47.4226 12.4286 47.4852 12.36 47.4852 12.36C47.6857 12.4173 47.6921 12.5488 47.8236 12.5431C47.8926 12.606 48.0866 12.5318 48.0866 12.5318C48.2871 12.5891 48.3561 12.652 48.4251 12.715C48.6256 12.7722 48.6946 12.8352 48.895 12.8924C48.964 12.9554 49.0955 12.9497 49.296 13.007C49.5655 13.1272 49.7034 13.253 49.9039 13.3103C49.9729 13.3732 50.167 13.299 50.167 13.299C50.236 13.3619 50.3049 13.4249 50.3049 13.4249C50.6434 13.608 51.3138 13.8427 51.7212 14.0888C51.9907 14.209 52.1351 14.4663 52.4045 14.5865C52.4045 14.5865 52.4671 14.5179 52.5361 14.5808L52.605 14.6438C52.674 14.7067 52.8055 14.701 52.8745 14.764C53.2129 14.9471 53.8834 15.1818 54.2908 15.4279C54.6293 15.611 54.9677 15.7941 55.3751 16.0402C55.6446 16.1604 56.2653 16.7266 56.7481 17.1671C57.093 17.4817 57.5694 17.7907 57.9143 18.1053C58.8109 18.9232 59.5135 19.8154 60.5416 20.6277C60.5416 20.6277 61.0052 20.6737 60.9491 20.8738C60.8994 21.2053 61.6388 21.503 61.9147 21.7547C62.0526 21.8805 62.1345 22.2064 62.2724 22.3322C62.3414 22.3952 62.4793 22.521 62.5483 22.5839C62.7616 22.9042 63.3198 23.539 63.6711 23.9851C64.2293 24.62 64.7121 25.0604 65.2704 25.6953C65.4083 25.8211 65.6216 26.1414 65.6906 26.2043C65.6906 26.2043 65.6281 26.2729 65.697 26.3358L65.904 26.5245C65.9104 26.656 66.0483 26.7819 66.1237 26.9763C66.2681 27.2336 66.4125 27.4909 66.5568 27.7483C66.7012 28.0056 66.9145 28.3258 67.0589 28.5832C67.0589 28.5832 66.9964 28.6517 67.0653 28.7146C67.2033 28.8405 67.0782 28.9776 67.2161 29.1035C67.2851 29.1664 67.4423 29.6867 67.5867 29.944L67.7246 30.0699C67.7311 30.2013 67.9444 30.5216 68.0198 30.716C68.108 31.1734 68.7352 31.8711 68.955 32.3229C69.024 32.3858 68.8924 32.3914 68.9614 32.4544C69.0304 32.5173 68.9053 32.6544 68.9743 32.7173L69.1122 32.8432L69.0497 32.9117L69.1876 33.0376L69.1251 33.1062L69.263 33.232L69.2005 33.3006L69.3384 33.4264L69.2759 33.495C69.3513 33.6894 69.4266 33.8838 69.502 34.0782C69.571 34.1411 69.4395 34.1468 69.5085 34.2097L69.5774 34.2726C69.5839 34.4041 69.5903 34.5356 69.5967 34.6671C69.6031 34.7985 69.7411 34.9244 69.7475 35.0559C69.7539 35.1874 69.7604 35.3188 69.7668 35.4503C69.7732 35.5818 69.9111 35.7077 69.9176 35.8391C69.924 35.9706 69.9304 36.1021 69.9368 36.2336C69.9433 36.3651 70.0812 36.4909 70.0876 36.6224C70.0941 36.7539 70.1005 36.8854 70.1069 37.0169L70.2449 37.1427C70.1952 37.4742 70.2144 37.8687 70.3027 38.3261C70.3155 38.5891 70.3909 38.7835 70.4038 39.0464C70.4102 39.1779 70.4166 39.3094 70.423 39.4409C70.4359 39.7039 70.5803 39.9612 70.5931 40.2242C70.6878 40.813 70.7135 41.339 70.7392 41.8649C70.7456 41.9964 70.752 42.1279 70.7584 42.2594C70.7649 42.3909 70.6398 42.528 70.6462 42.6595C70.5901 42.8595 70.7409 43.2483 70.6847 43.4484C70.6976 43.7114 70.6479 44.0429 70.5918 44.2429C70.5356 44.443 70.611 44.6374 70.5549 44.8375C70.5613 44.9689 70.4427 45.2376 70.4491 45.369C70.4555 45.5005 70.5309 45.6949 70.4684 45.7635L70.3433 45.9006L70.4122 45.9636L70.2871 46.1007L70.3561 46.1636C70.3 46.3637 70.2439 46.5637 70.1877 46.7638C70.1252 46.8323 70.2567 46.8267 70.1942 46.8952L70.1316 46.9638C70.138 47.0953 70.1444 47.2268 70.1509 47.3583L70.0258 47.4954C70.0322 47.6269 70.0322 47.6269 70.0386 47.7584C70.045 47.8899 70.0515 48.0213 70.0579 48.1528C70.0643 48.2843 69.9392 48.4214 69.9456 48.5529C69.8831 48.6215 70.0146 48.6158 69.9521 48.6844C69.827 48.8215 69.9024 49.016 69.9088 49.1474L69.7837 49.2846L69.8527 49.3475L69.7276 49.4846L69.7965 49.5475L69.6714 49.6847L69.7404 49.7476L69.6153 49.8847L69.6843 49.9476L69.5592 50.0848L69.6282 50.1477L69.5031 50.2848L69.572 50.3477L69.4469 50.4849C69.4598 50.7478 69.2289 51.4166 69.0477 51.7537L68.9226 51.8909L68.9915 51.9538L68.8664 52.0909C68.8729 52.2224 68.6981 52.6911 68.5168 53.0283C68.3982 53.2969 68.2169 53.6341 68.0983 53.9027C68.0421 54.1027 67.8545 54.3084 67.7984 54.5085C67.6797 54.7771 67.3172 55.4514 67.0109 55.9258C66.8858 56.0629 66.8923 56.1944 66.7672 56.3315C66.7672 56.3315 66.8361 56.3944 66.7736 56.463L66.5859 56.6687C66.5924 56.8002 66.3983 56.8744 66.2796 57.143C66.2796 57.143 66.3486 57.2059 66.286 57.2745C66.2235 57.343 66.0984 57.4802 66.0358 57.5487C66.0358 57.5487 66.1048 57.6117 66.0423 57.6802C65.9797 57.7488 65.9172 57.8174 65.8546 57.8859C65.6108 58.2917 64.9292 59.1774 64.3599 59.663C64.3599 59.663 64.2909 59.6 64.2284 59.6686C64.0407 59.8743 63.6654 60.2857 63.3462 60.497C63.2837 60.5656 63.2211 60.6342 63.1586 60.7027C62.902 60.8455 62.339 61.4626 62.0199 61.6739C61.8258 61.7481 61.8948 61.8111 61.7633 61.8167C61.5002 61.828 60.7625 62.9137 60.4497 63.2566C60.2621 63.4623 59.8739 63.6107 59.6237 63.8849C59.3671 64.0277 59.1859 64.3649 58.8667 64.5762C58.8667 64.5762 58.7978 64.5133 58.7352 64.5819C58.6727 64.6504 58.5476 64.7876 58.485 64.8561C58.485 64.8561 58.416 64.7932 58.3535 64.8618L58.1658 65.0675L58.0969 65.0046C57.9718 65.1417 57.7777 65.2159 57.7152 65.2845C57.3334 65.5644 56.6951 65.987 56.1883 66.4041C55.9317 66.5468 55.744 66.7525 55.4313 67.0954C55.3062 67.2325 55.1747 67.2381 55.1121 67.3067C54.7304 67.5866 54.4176 67.9294 54.0985 68.1408C54.0985 68.1408 54.0295 68.0778 53.967 68.1464C53.7793 68.3521 53.3286 68.5691 53.072 68.7119C52.8779 68.7861 52.8218 68.9861 52.6903 68.9918C52.6903 68.9918 52.6213 68.9289 52.5588 68.9974C52.3711 69.2031 52.1081 69.2144 51.914 69.2886L51.7889 69.4257L51.7199 69.3628L51.5948 69.4999L51.5259 69.437C51.3318 69.5112 51.0816 69.7855 50.9501 69.7911L50.7496 69.7339L50.6245 69.871L50.5555 69.8081L50.4304 69.9452L50.3614 69.8823L50.2363 70.0194L50.1674 69.9565L50.0423 70.0936L49.9733 70.0307L49.8482 70.1678L49.7792 70.1049L49.6541 70.242C49.4536 70.1848 49.266 70.3905 49.0094 70.5332L48.8843 70.6704C48.7528 70.676 48.6277 70.8131 48.4336 70.8873C48.4336 70.8873 48.3646 70.8244 48.3021 70.893C48.177 71.0301 48.039 70.9043 47.9139 71.0414C47.7888 71.1785 47.6509 71.0527 47.5258 71.1898C47.4632 71.2584 47.3253 71.1325 47.2627 71.2011L47.1376 71.3382L47.0687 71.2753L46.9436 71.4124C46.812 71.4181 46.6741 71.2922 46.549 71.4294L46.4865 71.4979C46.3549 71.5036 46.2234 71.5092 46.0919 71.5149C45.8978 71.5891 45.7037 71.6633 45.5097 71.7375C45.4471 71.8061 45.4407 71.6746 45.3782 71.7431C45.3156 71.8117 45.1777 71.6859 45.1151 71.7544C44.921 71.8286 44.8585 71.8972 44.5954 71.9085C44.4639 71.9141 44.3324 71.9198 44.2009 71.9254C43.9378 71.9367 43.6058 71.8851 43.4118 71.9593L43.2867 72.0964C43.0862 72.0391 42.8921 72.1134 42.629 72.1246C42.2345 72.1416 41.9089 72.2214 41.4453 72.1754C41.3138 72.1811 41.1198 72.2553 40.9193 72.198C40.7877 72.2037 40.7813 72.0722 40.6498 72.0778C40.4493 72.0205 40.2552 72.0947 40.1237 72.1004C39.9922 72.106 39.9296 72.1746 39.8607 72.1117C39.7291 72.1173 39.4597 71.9971 39.2592 71.9398C39.0587 71.8826 38.9272 71.8882 38.7267 71.8309C38.5951 71.8366 38.4636 71.8422 38.4636 71.8422C38.0626 71.7277 37.7306 71.676 37.3296 71.5615C37.2607 71.4986 37.2671 71.6301 37.1981 71.5671L36.9976 71.5099C36.9286 71.4469 36.8035 71.5841 36.7346 71.5211C36.6031 71.5268 36.5966 71.3953 36.4651 71.4009C36.3961 71.338 36.2021 71.4122 36.2021 71.4122C35.8011 71.2977 35.4626 71.1146 35.0616 71C34.9927 70.9371 34.9237 70.8742 34.7922 70.8798C34.7232 70.8169 34.5291 70.8911 34.5291 70.8911C34.3976 70.8967 34.3912 70.7653 34.2597 70.7709C34.1907 70.708 33.9966 70.7822 33.9966 70.7822C33.9276 70.7193 33.8587 70.6563 33.8587 70.6563C33.7897 70.5934 33.6582 70.5991 33.4577 70.5418C33.3887 70.4789 33.2572 70.4845 33.1882 70.4216C33.1192 70.3587 32.9252 70.4329 32.9252 70.4329C32.7247 70.3756 32.5178 70.1868 32.4488 70.1239C32.4488 70.1239 32.3862 70.1925 32.3173 70.1296C31.9788 69.9464 31.5089 69.769 31.0325 69.46C30.5625 69.2825 30.1551 69.0365 29.6097 68.6646C29.1334 68.3557 28.3121 67.7321 27.6849 67.0343C27.616 66.9714 27.547 66.9085 27.478 66.8455C27.1267 66.3995 26.2926 65.5129 25.8034 64.941C25.6654 64.8152 25.5275 64.6893 25.5211 64.5578C25.4521 64.4949 25.5836 64.4893 25.5146 64.4263C25.3767 64.3005 25.2885 63.8431 25.0751 63.5229C24.9307 63.2655 24.7864 63.0082 24.5795 62.8194C24.4351 62.5621 24.2346 62.5048 24.0213 62.1846C23.9523 62.1217 24.0148 62.0531 23.9459 61.9902C23.8079 61.8643 23.601 61.6756 23.5946 61.5441C23.5946 61.5441 23.6571 61.4755 23.5881 61.4126C23.3812 61.2238 23.2866 60.635 23.0732 60.3147C22.9978 60.1203 22.8663 60.126 22.8599 59.9945C22.7909 59.9316 22.847 59.7315 22.847 59.7315C22.7026 59.4742 22.4893 59.1539 22.276 58.8337C22.276 58.8337 22.3385 58.7651 22.2695 58.7022C22.1941 58.5078 22.1252 58.4449 22.0498 58.2505C21.9808 58.1875 21.9744 58.0561 21.9054 57.9931C21.7546 57.6043 21.6038 57.2155 21.453 56.8267C21.3022 56.4379 21.0825 55.9862 20.9317 55.5973C20.8627 55.5344 20.9942 55.5288 20.9252 55.4659L20.8498 55.2715C20.7809 55.2085 20.906 55.0714 20.837 55.0085C20.7616 54.8141 20.6862 54.6197 20.6798 54.4882C20.5915 54.0308 20.4407 53.642 20.2899 53.2532C20.2146 53.0588 20.1392 52.8644 20.0638 52.67C19.9948 52.607 20.1199 52.4699 20.0509 52.407C19.9819 52.3441 19.913 52.2811 19.9065 52.1496C19.9001 52.0182 20.0252 51.881 19.9562 51.8181C19.9498 51.6866 19.8183 51.6923 19.8119 51.5608L19.868 51.3607C19.8616 51.2292 19.7236 51.1034 19.7172 50.9719C19.7108 50.8404 19.8359 50.7033 19.7669 50.6404C19.7605 50.5089 19.629 50.5145 19.6225 50.3831C19.6161 50.2516 19.7412 50.1144 19.6722 50.0515C19.6658 49.92 19.5343 49.9257 19.5279 49.7942C19.5086 49.3997 19.4893 49.0053 19.4636 48.4793C19.4508 48.2164 19.3754 48.0219 19.369 47.8905C19.3625 47.759 19.4941 47.7533 19.4876 47.6218C19.4812 47.4904 19.4122 47.4274 19.4748 47.3589C19.5116 46.7644 19.417 46.1755 19.4474 45.4495C19.4345 45.1865 19.4217 44.9236 19.4778 44.7235C19.5404 44.655 19.4714 44.592 19.4714 44.592C19.5339 44.5235 19.5965 44.4549 19.5901 44.3234L19.5147 44.129C19.5082 43.9975 19.5708 43.929 19.6269 43.7289C19.6205 43.5974 19.683 43.5288 19.6766 43.3974C19.7327 43.1973 19.7263 43.0658 19.7824 42.8658C19.8386 42.6657 19.8321 42.5342 20.0134 42.1971C20.0695 41.997 20.2636 41.9228 20.2571 41.7913C20.2571 41.7913 20.1882 41.7284 20.2507 41.6598C20.4384 41.4541 20.4255 41.1912 20.4816 40.9911C21.1247 39.3165 22.1559 37.4935 23.4566 35.7906C23.7068 35.5164 23.888 35.1792 24.1382 34.9049C24.3259 34.6992 24.5889 34.6879 24.7701 34.3508C24.8327 34.2822 24.7637 34.2193 24.8262 34.1507C24.9513 34.0136 26.0275 33.1109 25.9521 32.9165C25.9457 32.7851 26.0772 32.7794 26.2649 32.5737C27.3346 31.5396 28.3418 30.574 29.487 29.7343C29.7436 29.5916 29.9938 29.3173 30.313 29.106C30.5696 28.9632 30.8198 28.6889 31.1389 28.4776C31.1389 28.4776 31.2079 28.5405 31.2705 28.4719C31.3956 28.3348 31.4645 28.3977 31.5271 28.3292C31.7212 28.255 31.8463 28.1178 31.9088 28.0493C32.1029 27.9751 32.228 27.8379 32.2905 27.7694C32.2905 27.7694 32.3595 27.8323 32.422 27.7637L32.6097 27.558L32.6787 27.6209C32.9978 27.4096 33.1855 27.2039 33.5046 26.9926C33.5046 26.9926 33.5736 27.0555 33.6362 26.9869C33.7613 26.8498 34.0869 26.7699 34.2809 26.6957C34.6691 26.5473 34.9257 26.4045 35.3138 26.2561C35.3764 26.1876 35.3828 26.319 35.4454 26.2505C35.5705 26.1134 35.7084 26.2392 35.8335 26.1021C35.896 26.0335 36.034 26.1593 36.0965 26.0908L36.2216 25.9536L36.2906 26.0166L36.4157 25.8794L36.4847 25.9424L36.6098 25.8052L36.6787 25.8681L36.8038 25.731L36.8728 25.7939L36.9979 25.6568L37.0669 25.7197L37.192 25.5826C37.3235 25.577 37.3235 25.577 37.455 25.5713C37.5866 25.5657 37.7116 25.4285 37.8432 25.4229C37.9747 25.4172 38.1062 25.4116 38.2377 25.406C38.3693 25.4003 38.4944 25.2632 38.6259 25.2575C38.7574 25.2519 38.8889 25.2463 39.0204 25.2406L39.1455 25.1035C39.346 25.1608 39.4086 25.0922 39.6027 25.018C39.6652 24.9494 39.6716 25.0809 39.7342 25.0123L39.7967 24.9438C39.9282 24.9381 40.0598 24.9325 40.1913 24.9268C40.3228 24.9212 40.4543 24.9156 40.5169 24.847C40.5794 24.7784 41.237 24.7502 41.3686 24.7446C41.6316 24.7333 41.8882 24.5905 42.0887 24.6478C42.2202 24.6421 42.3518 24.6365 42.3518 24.6365L42.4897 24.7623C42.6212 24.7567 42.7463 24.6196 42.8843 24.7454C43.0222 24.8712 43.2099 24.6655 43.3478 24.7914C43.4168 24.8543 43.6798 24.843 43.8113 24.8374C43.9429 24.8317 43.9493 24.9632 44.0808 24.9576C44.1498 25.0205 44.2749 24.8834 44.2749 24.8834L44.4128 25.0092C45.0015 24.9181 45.8163 25.4101 46.5493 25.5763C46.6808 25.5707 46.7434 25.5021 46.8123 25.565L46.9503 25.6909L47.0128 25.6223L47.1508 25.7482L47.2133 25.6796L47.3513 25.8054C47.7458 25.7885 48.2094 25.8345 48.8109 26.0063L48.9488 26.1322L49.0114 26.0636L49.1493 26.1894C49.2808 26.1838 49.6882 26.4298 49.9577 26.55L50.0957 26.6759C50.3587 26.6646 51.1799 27.2882 51.5248 27.6028C51.7317 27.7915 52.0012 27.9117 52.2771 28.1634C52.9604 28.6611 53.5876 29.3589 54.2148 30.0567C54.9109 30.8174 55.6006 31.4466 56.0337 32.2186L56.1717 32.3444C56.1156 32.5445 56.6048 33.1164 56.8181 33.4366C57.0315 33.7569 57.1823 34.1457 57.3956 34.466C57.3956 34.466 57.3331 34.5345 57.402 34.5974C57.54 34.7233 57.4774 34.7918 57.6154 34.9177C58.7254 36.0559 58.8633 36.1817 58.8072 36.3818Z" fill="white"/>
</svg>
