<svg width="59" height="49" viewBox="0 0 59 49" fill="none" xmlns="http://www.w3.org/2000/svg">
<path d="M49.2148 7.49864C48.8519 6.85716 48.1159 6.46028 47.3777 6.78571C42.9407 8.90206 38.3478 10.8467 33.8221 12.7617L33.7925 12.6946C32.9483 11.1432 32.2007 9.62933 31.3565 8.07793C31.0231 7.50355 30.443 7.27841 29.9061 7.51508C24.7172 9.56216 19.6763 11.9448 14.6057 14.2603C10.2733 16.2504 5.46545 17.889 1.42892 20.5502C0.988758 20.8244 0.889896 21.5091 1.09699 21.9789C3.36703 27.3099 6.16599 32.5681 7.83207 38.1654C8.00163 38.7318 8.84227 39.0024 9.37913 38.7658C12.9062 37.1307 16.5892 35.6674 19.9683 33.6968C21.0846 36.4106 22.268 39.0949 23.4809 41.8463C23.7176 42.3831 24.3648 42.5787 24.8346 42.3716C35.7947 37.7803 46.6069 32.8534 57.5669 28.2621C58.238 27.9663 58.4711 27.2223 58.2048 26.6184C55.499 20.1169 52.7635 13.5484 49.2148 7.49864ZM15.4441 22.7071C16.6116 25.719 17.8166 28.6341 19.0512 31.6164C15.8084 32.8056 12.6681 34.5907 9.50615 36.145C7.96417 31.3746 5.59527 26.7284 3.68817 22.0388C7.84304 19.6461 12.5542 17.9699 16.8866 15.9798C21.1519 14.0193 25.3955 11.8279 29.8166 10.0392C30.4458 11.2846 31.1126 12.4334 31.7418 13.6788C31.7418 13.6788 31.7418 13.6788 31.7714 13.7459C26.2765 16.008 20.7521 18.203 15.2277 20.398C14.0277 20.7667 14.4397 22.4285 15.4441 22.7071ZM55.3236 26.4459C45.1608 30.846 34.7159 34.9697 24.849 40.0409C21.9101 34.2834 19.4034 28.4155 17.0013 22.4213C26.3725 18.771 37.5851 14.3889 47.4578 9.87623C50.4205 15.1423 52.9352 20.8464 55.3236 26.4459Z" fill="#F19000"/>
<path d="M34.6762 20.8805C34.2736 21.058 34.0643 21.3105 34.0484 21.6381C32.3765 22.9362 30.74 24.86 31.7163 27.0745C32.7813 29.4903 36.1619 29.5228 38.2797 28.509C40.7706 27.2506 42.6937 24.1587 40.7505 21.5689C39.1998 19.6877 36.6815 20.1568 34.6762 20.8805ZM37.1534 26.6813C36.0421 27.2513 33.9264 27.5428 33.3348 26.2007C32.7727 24.9256 34.0123 23.7379 35.0348 22.9666C35.1315 23.0041 35.1986 22.9745 35.2657 22.9449C36.0927 22.8208 37.0163 22.7342 37.7682 22.8035C40.3139 23.1239 38.533 25.9929 37.1534 26.6813Z" fill="#F19000"/>
</svg>
