<svg width="74" height="80" viewBox="0 0 74 80" fill="none" xmlns="http://www.w3.org/2000/svg">
<path d="M24.0627 54.9788C25.0515 58.6705 19.7663 60.0542 18.9794 56.283C17.1179 47.8627 15.8619 39.2038 15.8448 30.5813C15.8309 23.2985 16.973 14.5105 22.7804 9.42262C29.1443 3.82379 34.6732 12.0811 36.3781 17.5895C37.9637 22.7951 38.1882 28.2457 37.9997 33.6841C42.134 28.7893 46.4886 24.1574 51.7855 20.4369C57.0426 16.6154 65.7686 14.0503 69.407 21.6535C73.0853 29.3576 66.7431 36.6387 61.6606 41.7907C56.1225 47.4138 49.8624 52.3886 42.9934 56.2625C35.2863 60.5249 27.0713 63.6466 18.5593 65.7192C17.2381 66.0651 16.9164 63.918 18.3081 63.6026C34.5765 59.4637 49.8863 49.6388 61.0295 37.0835C63.8153 33.9446 67.2708 29.8421 66.4072 25.2848C65.3875 19.7396 60.0257 20.3372 56.1263 22.574C48.3979 27.0781 42.6186 34.6038 37.0042 41.3648C35.5854 43.0902 33.0739 41.7479 33.2049 39.7139C33.5676 33.682 33.8294 27.6899 32.7514 21.7012C32.2614 18.979 31.4716 15.792 29.7001 13.5167C26.8577 9.85607 24.2127 13.0561 22.6564 16.0601C19.6755 21.9579 19.9828 28.9501 20.495 35.2784C21.1663 42.0105 22.3117 48.614 24.0627 54.9788Z" fill="#D4BFE2"/>
</svg>
