<svg width="80" height="80" viewBox="0 0 80 80" fill="none" xmlns="http://www.w3.org/2000/svg">
<circle cx="40" cy="40" r="40" fill="#FF9800"/>
<path d="M22.6 34.1584V44.8416H31.4C31.5051 44.8414 31.6093 44.861 31.7064 44.8992C31.8036 44.9375 31.892 44.9936 31.9664 45.0644L38.6 51.3935V27.6065L31.9664 33.9356C31.892 34.0064 31.8036 34.0625 31.7064 34.1008C31.6093 34.139 31.5051 34.1586 31.4 34.1584H22.6ZM31.0688 46.3678H21.8C21.6949 46.3678 21.5909 46.348 21.4939 46.3097C21.3968 46.2713 21.3086 46.2151 21.2343 46.1443C21.16 46.0734 21.1011 45.9893 21.0609 45.8967C21.0207 45.8041 21 45.7049 21 45.6047V33.3953C21 33.2951 21.0207 33.1959 21.0609 33.1033C21.1011 33.0107 21.16 32.9266 21.2343 32.8557C21.3086 32.7849 21.3968 32.7287 21.4939 32.6903C21.5909 32.652 21.6949 32.6322 21.8 32.6322H31.0688L38.8336 25.2242C38.9455 25.1172 39.0882 25.0443 39.2435 25.0147C39.3989 24.9852 39.56 25.0003 39.7063 25.0582C39.8527 25.116 39.9777 25.214 40.0656 25.3398C40.1535 25.4655 40.2003 25.6133 40.2 25.7645V53.2355C40.2003 53.3867 40.1535 53.5345 40.0656 53.6602C39.9777 53.7859 39.8527 53.884 39.7063 53.9418C39.56 53.9997 39.3989 54.0148 39.2435 53.9853C39.0882 53.9557 38.9455 53.8828 38.8336 53.7758L31.0688 46.3678ZM55.6112 51.9108C55.4603 52.0498 55.2582 52.1267 55.0485 52.125C54.8387 52.1233 54.6381 52.043 54.4897 51.9015C54.3414 51.7601 54.2573 51.5687 54.2554 51.3686C54.2536 51.1685 54.3343 50.9757 54.48 50.8318C56.0425 49.3455 57.2816 47.5791 58.126 45.6344C58.9703 43.6897 59.4033 41.6049 59.4 39.5C59.4 35.1916 57.6096 31.1549 54.48 28.1682C54.3343 28.0243 54.2536 27.8315 54.2554 27.6314C54.2573 27.4313 54.3414 27.2399 54.4897 27.0985C54.6381 26.957 54.8387 26.8767 55.0485 26.875C55.2582 26.8733 55.4603 26.9502 55.6112 27.0892C57.3224 28.7172 58.6794 30.6517 59.6042 32.7816C60.529 34.9114 61.0033 37.1947 61 39.5C61 44.2174 59.0384 48.6418 55.6112 51.9108ZM51.0848 47.5933C50.9339 47.7323 50.7318 47.8092 50.5221 47.8075C50.3123 47.8057 50.1117 47.7255 49.9633 47.584C49.815 47.4425 49.7309 47.2511 49.729 47.051C49.7272 46.851 49.8079 46.6582 49.9536 46.5143C50.921 45.5943 51.6881 44.501 52.2109 43.2973C52.7338 42.0935 53.0019 40.803 53 39.5C53.0019 38.197 52.7338 36.9065 52.2109 35.7027C51.6881 34.499 50.921 33.4057 49.9536 32.4857C49.8772 32.4153 49.8162 32.3311 49.7743 32.238C49.7324 32.1449 49.7103 32.0448 49.7094 31.9435C49.7085 31.8421 49.7287 31.7417 49.7689 31.6479C49.8092 31.5541 49.8686 31.4689 49.9437 31.3973C50.0188 31.3256 50.1081 31.2689 50.2064 31.2306C50.3047 31.1922 50.4101 31.1729 50.5163 31.1738C50.6225 31.1747 50.7275 31.1957 50.8251 31.2357C50.9227 31.2757 51.011 31.3338 51.0848 31.4067C52.2007 32.4683 53.0858 33.7299 53.689 35.1188C54.2923 36.5077 54.6019 37.9966 54.6 39.5C54.6 42.5768 53.32 45.4612 51.0848 47.5933ZM46.56 43.2773C46.4862 43.3502 46.3979 43.4083 46.3003 43.4483C46.2027 43.4883 46.0977 43.5093 45.9915 43.5102C45.8853 43.5111 45.7799 43.4918 45.6816 43.4534C45.5833 43.415 45.494 43.3584 45.4189 43.2867C45.3438 43.2151 45.2844 43.1299 45.2441 43.0361C45.2039 42.9423 45.1837 42.8418 45.1846 42.7405C45.1855 42.6392 45.2076 42.5391 45.2495 42.446C45.2914 42.3529 45.3524 42.2687 45.4288 42.1983C45.8009 41.8444 46.096 41.4238 46.297 40.9607C46.498 40.4976 46.601 40.0012 46.6 39.5C46.601 38.9988 46.498 38.5024 46.297 38.0393C46.096 37.5762 45.8009 37.1556 45.4288 36.8017C45.3524 36.7313 45.2914 36.6471 45.2495 36.554C45.2076 36.4609 45.1855 36.3608 45.1846 36.2595C45.1837 36.1582 45.2039 36.0577 45.2441 35.9639C45.2844 35.8701 45.3438 35.7849 45.4189 35.7133C45.494 35.6416 45.5833 35.585 45.6816 35.5466C45.7799 35.5082 45.8853 35.4889 45.9915 35.4898C46.0977 35.4907 46.2027 35.5117 46.3003 35.5517C46.3979 35.5917 46.4862 35.6498 46.56 35.7227C47.0807 36.2183 47.4936 36.8071 47.7751 37.4553C48.0565 38.1035 48.2009 38.7984 48.2 39.5C48.2009 40.2016 48.0565 40.8965 47.7751 41.5447C47.4936 42.1929 47.0807 42.7817 46.56 43.2773Z" fill="white" stroke="white" stroke-width="0.2"/>
</svg>
