<svg width="45" height="51" viewBox="0 0 45 51" fill="none" xmlns="http://www.w3.org/2000/svg">
<path d="M26.0295 49.7435C26.0015 50.0671 26.2411 50.3521 26.5647 50.3802C26.8883 50.4082 27.1733 50.1686 27.2014 49.845C27.2606 49.1856 27.5697 48.5965 28.0341 48.1725C28.4933 47.753 29.1051 47.4972 29.7774 47.4972C30.4496 47.4972 31.0615 47.753 31.5207 48.1725C31.985 48.5965 32.2942 49.1856 32.3534 49.845L32.4019 50.3848H35.2471L35.2956 49.845C35.3548 49.1856 35.664 48.5965 36.1282 48.1725C36.5875 47.753 37.1994 47.4972 37.8716 47.4972C38.5438 47.4972 39.1557 47.753 39.6149 48.1725C40.0792 48.5965 40.3884 49.1856 40.4476 49.845L40.4961 50.3848H43.1623C43.6683 50.3848 44.1279 50.1782 44.4607 49.8454C44.7934 49.5127 45 49.0531 45 48.5471V45.7755H44.4094C43.6474 45.7755 42.9575 45.4666 42.4582 44.9673C41.9588 44.468 41.65 43.7781 41.65 43.016C41.65 42.254 41.9588 41.5641 42.4582 41.0647C42.9575 40.5654 43.6474 40.2565 44.4094 40.2565H45V37.1047H44.4094C43.6474 37.1047 42.9575 36.7959 42.4582 36.2965C41.9588 35.7972 41.65 35.1073 41.65 34.3453C41.65 33.5832 41.9588 32.8933 42.4582 32.394C42.9575 31.8946 43.6474 31.5858 44.4094 31.5858H45V28.434H44.4094C43.6474 28.434 42.9575 28.1251 42.4582 27.6258C41.9588 27.1265 41.65 26.4366 41.65 25.6745C41.65 24.9124 41.9588 24.2225 42.4582 23.7232C42.9575 23.2239 43.6474 22.915 44.4094 22.915H45V19.7632H44.4094C43.6474 19.7632 42.9575 19.4544 42.4582 18.955C41.9588 18.4557 41.65 17.7658 41.65 17.0037C41.65 16.2417 41.9588 15.5518 42.4582 15.0525C42.9575 14.5531 43.6474 14.2442 44.4094 14.2442H45V11.0925H44.4094C43.6474 11.0925 42.9575 10.7836 42.4582 10.2843C41.9588 9.78492 41.65 9.09502 41.65 8.33297C41.65 7.57091 41.9588 6.88101 42.4582 6.38169C42.9575 5.88234 43.6474 5.57348 44.4094 5.57348H45V1.83765C45 1.33166 44.7934 0.872111 44.4607 0.539349C44.1279 0.206554 43.6683 0 43.1623 0H40.9507L40.8358 0.442923C40.6899 1.00487 40.3591 1.4929 39.912 1.83839C39.4766 2.17485 38.9288 2.37505 38.3322 2.37505C37.7357 2.37505 37.1878 2.17485 36.7524 1.83839C36.3053 1.4929 35.9745 1.00487 35.8287 0.442923L35.7137 0H32.8565L32.7416 0.442923C32.5957 1.00487 32.2649 1.4929 31.8178 1.83839C31.3824 2.17485 30.8346 2.37505 30.238 2.37505C29.6415 2.37505 29.0936 2.17485 28.6582 1.83839C28.2111 1.4929 27.8803 1.00487 27.7345 0.442923L27.6195 0H24.7623L24.6473 0.442923C24.5015 1.00487 24.1707 1.4929 23.7236 1.83839C23.2882 2.17485 22.7404 2.37505 22.1438 2.37505C21.5473 2.37505 20.9994 2.17485 20.564 1.83839C20.1169 1.4929 19.7861 1.00487 19.6403 0.442923L19.5253 0H16.6681L16.5531 0.442923C16.4073 1.00487 16.0765 1.4929 15.6294 1.83839C15.194 2.17485 14.6462 2.37505 14.0496 2.37505C13.4531 2.37505 12.9052 2.17485 12.4698 1.83839C12.0227 1.4929 11.6919 1.00487 11.5461 0.442923L11.4311 0H8.701C8.19503 0 7.73547 0.206554 7.4027 0.539349C7.06991 0.872111 6.86336 1.33168 6.86336 1.83765V5.57348H7.45392C8.21598 5.57348 8.90586 5.88234 9.4052 6.38169C9.90454 6.88101 10.2134 7.57091 10.2134 8.33297C10.2134 9.09502 9.90454 9.78492 9.4052 10.2843C8.90586 10.7836 8.21598 11.0925 7.45392 11.0925H6.86336V14.2442H7.45392C8.21598 14.2442 8.90586 14.5531 9.4052 15.0525C9.90454 15.5518 10.2134 16.2417 10.2134 17.0037C10.2134 17.7658 9.90454 18.4557 9.4052 18.955C8.90586 19.4544 8.21598 19.7632 7.45392 19.7632H6.86336L6.86337 22.915H7.45392C8.20937 22.915 8.89472 23.2351 9.39337 23.7443C9.89977 24.2614 10.2134 24.9737 10.2134 25.7454C10.2134 26.0715 10.4778 26.3359 10.804 26.3359C11.1301 26.3359 11.3945 26.0715 11.3945 25.7454C11.3945 24.6572 10.9503 23.6508 10.2331 22.9184C9.65256 22.3256 8.893 21.9123 8.04447 21.7797V20.9003C8.8962 20.7723 9.65871 20.3717 10.2403 19.7901C10.9534 19.077 11.3945 18.0918 11.3945 17.0037C11.3945 15.9156 10.9534 14.9305 10.2403 14.2174C9.65871 13.6358 8.8962 13.2352 8.04447 13.1071V12.2296C8.8962 12.1015 9.65871 11.7009 10.2403 11.1193C10.9534 10.4062 11.3945 9.42108 11.3945 8.33297C11.3945 7.24487 10.9534 6.25971 10.2403 5.54658C9.65871 4.96501 8.8962 4.56441 8.04447 4.43638V1.83765C8.04447 1.65774 8.11851 1.49371 8.23779 1.37444C8.35706 1.25516 8.5211 1.18112 8.701 1.18112H10.5515C10.803 1.81335 11.2205 2.36111 11.75 2.77036C12.3876 3.26302 13.1853 3.55616 14.0496 3.55616C14.9139 3.55616 15.7116 3.26302 16.3492 2.77036C16.8787 2.36111 17.2962 1.81335 17.5477 1.18112H18.6457C18.8972 1.81335 19.3147 2.36111 19.8443 2.77036C20.4818 3.26302 21.2795 3.55616 22.1438 3.55616C23.0081 3.55616 23.8059 3.26302 24.4434 2.77036C24.9729 2.36111 25.3905 1.81335 25.6419 1.18112H26.7399C26.9914 1.81335 27.4089 2.36111 27.9385 2.77036C28.576 3.26302 29.3737 3.55616 30.238 3.55616C31.1023 3.55616 31.9001 3.26302 32.5376 2.77036C33.0671 2.36111 33.4846 1.81335 33.7362 1.18112H34.8341C35.0856 1.81335 35.5031 2.36111 36.0327 2.77036C36.6702 3.26302 37.4679 3.55616 38.3322 3.55616C39.1965 3.55616 39.9943 3.26302 40.6318 2.77036C41.1613 2.36111 41.5789 1.81335 41.8304 1.18112H43.1623C43.3423 1.18112 43.5063 1.25516 43.6256 1.37444C43.7448 1.49371 43.8189 1.65773 43.8189 1.83765V4.43638C42.9672 4.56441 42.2046 4.96501 41.6231 5.54658C40.9099 6.25971 40.4688 7.24487 40.4688 8.33297C40.4688 9.42108 40.9099 10.4062 41.6231 11.1193C42.2046 11.7009 42.9672 12.1015 43.8189 12.2296V13.1071C42.9672 13.2352 42.2046 13.6358 41.6231 14.2174C40.9099 14.9305 40.4688 15.9156 40.4688 17.0037C40.4688 18.0918 40.9099 19.077 41.6231 19.7901C42.2046 20.3717 42.9672 20.7723 43.8189 20.9003V21.7779C42.9672 21.9059 42.2046 22.3065 41.6231 22.8881C40.9099 23.6012 40.4688 24.5864 40.4688 25.6745C40.4688 26.7626 40.9099 27.7478 41.6231 28.4609C42.2046 29.0425 42.9672 29.4431 43.8189 29.5711V30.4487C42.9672 30.5767 42.2046 30.9773 41.6231 31.5589C40.9099 32.272 40.4688 33.2572 40.4688 34.3453C40.4688 35.4334 40.9099 36.4185 41.6231 37.1316C42.2046 37.7132 42.9672 38.1138 43.8189 38.2418V39.1194C42.9672 39.2475 42.2046 39.6481 41.6231 40.2296C40.9099 40.9428 40.4688 41.9279 40.4688 43.016C40.4688 44.1041 40.9099 45.0893 41.6231 45.8024C42.2046 46.384 42.9672 46.7846 43.8189 46.9126V48.5471C43.8189 48.727 43.7448 48.8911 43.6256 49.0103C43.5063 49.1296 43.3423 49.2037 43.1623 49.2037H41.5313C41.3532 48.458 40.9546 47.7992 40.4085 47.3005C39.739 46.6891 38.8485 46.3161 37.8716 46.3161C36.8946 46.3161 36.0042 46.689 35.3347 47.3005C34.7886 47.7992 34.3899 48.458 34.2119 49.2037H33.4371C33.259 48.458 32.8604 47.7992 32.3143 47.3005C31.6448 46.6891 30.7543 46.3161 29.7774 46.3161C28.8004 46.3161 27.91 46.6891 27.2405 47.3005C26.5659 47.9165 26.1163 48.7768 26.0295 49.7435V49.7435ZM26.5167 43.137C26.6716 42.9281 26.6278 42.6331 26.4189 42.4782C26.2099 42.3233 25.9149 42.3671 25.76 42.576C25.2314 43.2921 24.54 43.7886 23.8071 44.1249C22.8349 44.571 21.7895 44.7388 20.9431 44.7638C19.5452 44.8049 18.6186 44.2925 17.6461 43.7548C16.511 43.1271 15.3193 42.4681 13.3048 42.4649V42.4631C11.2794 42.4631 10.0838 43.1269 8.94636 43.7585C7.98077 44.2946 7.06171 44.8049 5.66636 44.7638C4.81999 44.7388 3.77464 44.571 2.80245 44.1249C2.06953 43.7886 1.37808 43.2921 0.849484 42.576C0.694574 42.3671 0.399588 42.3233 0.190644 42.4782C-0.0182887 42.6331 -0.0620807 42.9281 0.0928404 43.137C0.724783 43.9932 1.54481 44.5836 2.41119 44.9812C3.51336 45.4869 4.69038 45.677 5.64053 45.705C7.29303 45.7536 8.32248 45.1821 9.40404 44.5816C10.4346 44.0094 11.5177 43.408 13.3048 43.408V43.4061C15.0715 43.4089 16.1576 44.0095 17.1921 44.5816C18.2776 45.1818 19.312 45.7538 20.969 45.705C21.9191 45.677 23.0961 45.4869 24.1983 44.9812C25.0647 44.5836 25.8847 43.9932 26.5167 43.137V43.137ZM26.5167 36.5779C26.6716 36.3689 26.6278 36.074 26.4189 35.919C26.2099 35.7641 25.9149 35.8079 25.76 36.0168C25.2314 36.733 24.54 37.2294 23.8071 37.5657C22.8349 38.0118 21.7895 38.1797 20.9431 38.2046C19.5452 38.2458 18.6186 37.7334 17.6461 37.1956C16.511 36.5679 15.3193 35.9089 13.3048 35.9058V35.9039C11.2794 35.9039 10.0838 36.5677 8.94636 37.1993C7.98077 37.7354 7.06171 38.2457 5.66636 38.2046C4.81999 38.1797 3.77464 38.0118 2.80245 37.5657C2.06953 37.2294 1.37808 36.733 0.849484 36.0168C0.694574 35.8079 0.399588 35.7641 0.190644 35.919C-0.0182887 36.074 -0.0620807 36.3689 0.0928404 36.5779C0.724783 37.434 1.54481 38.0245 2.41119 38.422C3.51336 38.9277 4.69038 39.1178 5.64053 39.1458C7.29303 39.1945 8.32248 38.6229 9.40404 38.0224C10.4346 37.4502 11.5177 36.8488 13.3048 36.8488V36.8469C15.0715 36.8498 16.1576 37.4503 17.1921 38.0224C18.2776 38.6227 19.312 39.1946 20.969 39.1458C21.9191 39.1178 23.0961 38.9277 24.1983 38.422C25.0647 38.0245 25.8847 37.434 26.5167 36.5779V36.5779ZM26.5167 30.0187C26.6716 29.8098 26.6278 29.5148 26.4189 29.3599C26.2099 29.205 25.9149 29.2487 25.76 29.4577C25.2314 30.1738 24.54 30.6703 23.8071 31.0066C22.8349 31.4526 21.7895 31.6205 20.9431 31.6455C19.5452 31.6866 18.6186 31.1742 17.6461 30.6365C16.511 30.0088 15.3193 29.3498 13.3048 29.3466V29.3447C11.2794 29.3447 10.0838 30.0086 8.94636 30.6402C7.98077 31.1763 7.06171 31.6866 5.66636 31.6455C4.81999 31.6205 3.77464 31.4526 2.80245 31.0066C2.06953 30.6703 1.37808 30.1738 0.849484 29.4577C0.694574 29.2487 0.399588 29.205 0.190644 29.3599C-0.0182887 29.5148 -0.0620807 29.8098 0.0928404 30.0187C0.724783 30.8749 1.54481 31.4653 2.41119 31.8629C3.51336 32.3686 4.69038 32.5587 5.64053 32.5867C7.29303 32.6353 8.32248 32.0637 9.40404 31.4632C10.4346 30.891 11.5177 30.2896 13.3048 30.2896V30.2878C15.0715 30.2906 16.1576 30.8912 17.1921 31.4632C18.2776 32.0635 19.312 32.6355 20.969 32.5867C21.9191 32.5587 23.0961 32.3686 24.1983 31.8629C25.0647 31.4653 25.8847 30.8749 26.5167 30.0187V30.0187ZM29.748 42.3547C29.4881 42.3557 29.2782 42.5672 29.2792 42.8272C29.2802 43.0871 29.4918 43.2969 29.7517 43.2959L37.5542 43.2608V7.11974H14.3091V25.8659C14.3091 26.1268 14.5206 26.3383 14.7815 26.3383C15.0425 26.3383 15.254 26.1268 15.254 25.8659V8.06463H36.6093V42.3244L29.748 42.3547V42.3547Z" fill="#FF9800"/>
</svg>
