<svg width="83" height="83" viewBox="0 0 83 83" fill="none" xmlns="http://www.w3.org/2000/svg">
<path fill-rule="evenodd" clip-rule="evenodd" d="M58.8062 36.3818C59.0196 36.702 58.9073 37.1021 59.1207 37.4224C59.4719 37.8685 59.7543 38.2517 59.9115 38.772L59.9179 38.9034C60.0623 39.1608 60.2066 39.4181 60.351 39.6754C60.351 39.6754 60.2885 39.744 60.3574 39.8069C60.4954 39.9328 60.4328 40.0013 60.5018 40.0642C60.5708 40.1272 60.7087 40.253 60.7152 40.3845L60.659 40.5845C60.6654 40.716 60.8034 40.8419 60.8098 40.9734C60.7537 41.1734 60.6976 41.3735 60.704 41.5049C60.749 42.4253 60.9319 43.4716 60.9079 44.3291C60.8517 44.5291 60.9271 44.7235 60.9336 44.855C60.94 44.9865 61.009 45.0494 60.9464 45.118L60.8213 45.2551L60.8903 45.318C60.8967 45.4495 60.7652 45.4552 60.7716 45.5867L60.847 45.7811C60.8534 45.9125 60.7909 45.9811 60.7283 46.0497C60.6658 46.1182 60.7973 46.1126 60.7348 46.1812L60.6161 46.4498L60.6915 46.6442C60.6354 46.8442 60.5728 46.9128 60.5167 47.1129C60.5231 47.2443 60.5295 47.3758 60.536 47.5073C60.5424 47.6388 60.6114 47.7017 60.5488 47.7703L60.4237 47.9074C60.4301 48.0389 60.4991 48.1018 60.4366 48.1704L60.3115 48.3075L60.3804 48.3704C60.3179 48.439 60.1992 48.7076 60.0741 48.8447C59.8929 49.1819 59.524 49.7248 59.2803 50.1305C58.6676 51.0792 58.3052 51.7535 57.3605 52.6505C57.3605 52.6505 57.2915 52.5876 57.229 52.6562C57.1664 52.7247 57.0413 52.8619 56.9788 52.9304C56.8537 53.0676 56.9227 53.1305 56.7976 53.2676C56.6725 53.4047 56.541 53.4104 56.4159 53.5475C56.2908 53.6846 56.3597 53.7476 56.2346 53.8847C55.9844 54.1589 55.7968 54.3646 55.5466 54.6389C55.1713 55.0503 54.5955 55.4044 54.2202 55.8158C53.6509 56.3014 53.282 56.8443 52.9003 57.1242C52.9003 57.1242 52.8313 57.0613 52.7688 57.1298C52.7062 57.1984 52.6437 57.2669 52.5811 57.3355C52.5186 57.4041 52.387 57.4097 52.3245 57.4783C52.2619 57.5469 51.9363 57.6267 51.7423 57.7009C51.5482 57.7751 51.4231 57.9123 51.229 57.9865C51.1665 58.055 50.966 57.9977 50.966 57.9977L50.8409 58.1349C50.7094 58.1405 50.7094 58.1405 50.6468 58.2091C50.5843 58.2777 50.4528 58.2833 50.3902 58.3519C50.3277 58.4204 50.1961 58.4261 50.0021 58.5003L49.877 58.6374C49.6139 58.6487 49.2948 58.86 48.9756 59.0714C48.9756 59.0714 48.9066 59.0085 48.8441 59.077C48.7815 59.1456 48.581 59.0883 48.5185 59.1569C48.4559 59.2254 48.387 59.1625 48.3244 59.2311C48.1929 59.2367 48.0614 59.2424 47.9298 59.248C47.7983 59.2537 47.8047 59.3851 47.6732 59.3908C47.6107 59.4594 47.4727 59.3335 47.4727 59.3335C47.3412 59.3392 47.2161 59.4763 47.0846 59.4819C46.9531 59.4876 46.9531 59.4876 46.8215 59.4932C46.3644 59.5787 45.4438 59.6182 44.8487 59.5779C44.7172 59.5835 44.5857 59.5892 44.4541 59.5948C44.3226 59.6005 44.1847 59.4746 44.0532 59.4803C43.9216 59.4859 43.7901 59.4915 43.6586 59.4972C42.6 59.4109 41.936 59.3076 40.9271 58.8897C40.6576 58.7695 40.3881 58.6493 40.0497 58.4662C39.9182 58.4718 39.7177 58.4146 39.6487 58.3516C39.3792 58.2314 39.0408 58.0483 38.7713 57.9281C38.7024 57.8652 38.6334 57.8023 38.5644 57.7394C38.4954 57.6765 38.4329 57.745 38.3639 57.6821C37.8875 57.3731 37.5298 56.7956 37.047 56.3551C36.4888 55.7203 36.006 55.2798 35.5168 54.7079L35.3788 54.582C35.3724 54.4505 35.2344 54.3247 35.0901 54.0674C35.0147 53.873 34.9393 53.6786 34.8703 53.6156C34.7949 53.4212 34.5944 53.364 34.519 53.1696C34.519 53.1696 34.5816 53.101 34.5126 53.0381C34.3682 52.7807 34.2303 52.6549 34.1549 52.4605L34.0169 52.3347C34.0041 52.0717 33.6528 51.6256 33.5084 51.3683C33.4395 51.3053 33.5645 51.1682 33.4956 51.1053C33.4202 50.9109 33.4138 50.7794 33.3384 50.585C33.263 50.3906 33.2565 50.2591 33.1811 50.0647C33.1057 49.8703 33.0993 49.7388 33.0239 49.5444C32.9549 49.4815 33.0865 49.4758 33.0175 49.4129C32.8106 49.2241 32.979 48.624 32.9597 48.2295C32.9533 48.098 32.8843 48.0351 32.8153 47.9722C32.7463 47.9093 32.8714 47.7722 32.8025 47.7092C32.7896 47.4463 32.7142 47.2519 32.7703 47.0518C32.8329 46.9832 32.7639 46.9203 32.7639 46.9203C32.7575 46.7888 32.8136 46.5888 32.8762 46.5202L32.9323 46.3202C32.9948 46.2516 32.9884 46.1201 33.051 46.0515C33.0445 45.9201 32.9066 45.7942 32.9691 45.7257C32.9627 45.5942 33.0942 45.5885 33.0878 45.457C33.1504 45.3885 33.0188 45.3941 33.0814 45.3256L33.1375 45.1255C33.1311 44.994 33.0621 44.9311 33.1247 44.8625C33.1183 44.731 33.3123 44.6568 33.3059 44.5254C33.3684 44.4568 33.2305 44.3309 33.293 44.2624C33.2866 44.1309 33.3492 44.0623 33.3427 43.9308C33.4053 43.8623 33.3299 43.6679 33.3299 43.6679C33.3235 43.5364 33.5175 43.4622 33.5111 43.3307C33.5737 43.2621 33.4983 43.0677 33.4983 43.0677C33.5608 42.9992 33.6234 42.9306 33.6234 42.9306C33.6859 42.862 33.6795 42.7305 33.742 42.662C33.8046 42.5934 33.7356 42.5305 33.7356 42.5305C34.0419 42.0562 34.4798 41.5762 34.8487 41.0333C35.3426 40.3533 35.5735 39.6846 36.2744 39.1934C36.2744 39.1934 36.3434 39.2563 36.4059 39.1877L36.4685 39.1192L36.6 39.1135C36.9817 38.8336 37.426 38.4852 37.8077 38.2052C37.8703 38.1367 38.1959 38.0568 38.2584 37.9883C38.321 37.9197 38.3835 37.8511 38.3835 37.8511C38.4461 37.7826 38.6466 37.8398 38.6466 37.8398C38.7781 37.8342 38.7716 37.7027 38.9032 37.6971C38.9657 37.6285 39.1037 37.7544 39.1662 37.6858C39.2977 37.6801 39.2913 37.5487 39.4228 37.543C39.5544 37.5374 39.8174 37.5261 39.9489 37.5204C40.0804 37.5148 40.143 37.4462 40.2055 37.3777C40.2681 37.3091 40.2745 37.4406 40.3371 37.372L40.3996 37.3035C40.5311 37.2978 40.7942 37.2865 40.9257 37.2809C41.0572 37.2752 41.1262 37.3382 41.1887 37.2696C41.3203 37.2639 41.3138 37.1325 41.4454 37.1268C41.5769 37.1212 41.8399 37.1099 41.9714 37.1042C42.366 37.0873 42.4286 37.0187 42.8295 37.1333C42.8985 37.1962 42.8921 37.0647 42.9611 37.1276C43.099 37.2535 43.2241 37.1164 43.3621 37.2422C43.5 37.368 43.6941 37.2938 43.8256 37.2882C44.2891 37.3342 45.1601 37.6262 45.63 37.8037C46.3069 38.1699 46.9902 38.6676 47.4795 39.2396C47.7618 39.6227 47.919 40.143 48.1452 40.7263C48.2206 40.9207 48.296 41.1151 48.3714 41.3095C48.3778 41.441 48.4468 41.5039 48.4532 41.6354C48.4596 41.7669 48.5286 41.8298 48.535 41.9613L48.6794 42.2186C48.6922 42.4816 48.7741 42.8075 48.9249 43.1963L48.8687 43.3963L49.0067 43.5222C49.0195 43.7851 48.9634 43.9852 48.9763 44.2482C48.9827 44.3797 49.0581 44.5741 49.0019 44.7741L48.8833 45.0427L48.9522 45.1056L48.8271 45.2428C48.8271 45.2428 48.8464 45.6372 48.7213 45.7744C48.6588 45.8429 48.5401 46.1115 48.484 46.3116C48.1841 46.9174 47.8778 47.3917 47.4335 47.7402C47.2458 47.9459 46.9892 48.0886 46.7326 48.2314C46.6701 48.3 46.6636 48.1685 46.6011 48.2371C46.476 48.3742 46.2065 48.254 46.075 48.2596C45.9435 48.2653 45.8184 48.4024 45.7494 48.3395C45.6179 48.3451 45.4799 48.2193 45.411 48.1564C45.411 48.1564 45.3484 48.2249 45.2794 48.162C45.2794 48.162 44.8592 47.653 44.7966 47.7216C44.4021 47.7385 44.232 46.9552 44.1502 46.6293C44.1309 46.2349 44.2432 45.8348 44.1549 45.3774C44.1356 44.9829 43.9848 44.5941 43.8341 44.2053C43.7651 44.1424 43.8966 44.1367 43.8276 44.0738L43.7522 43.8794C43.7458 43.7479 43.7394 43.6164 43.6014 43.4906C43.2502 43.0445 42.8299 42.5355 42.1659 42.4322L41.8964 42.312L41.8338 42.3806L41.6959 42.2548L41.6333 42.3233L41.4954 42.1975C41.2324 42.2088 41.0319 42.1515 40.7063 42.2314C40.6437 42.2999 40.5748 42.237 40.5122 42.3056C40.3181 42.3798 39.8546 42.3338 39.6044 42.608C39.2852 42.8194 39.104 43.1566 38.9228 43.4937C38.8602 43.5623 38.8602 43.5623 38.7977 43.6309C38.4352 44.3052 38.0102 45.0482 37.9862 45.9056C37.9927 46.0371 38.0681 46.2315 38.0745 46.363C38.0809 46.4945 38.0873 46.626 38.0938 46.7575C38.1756 47.0834 38.2574 47.4093 38.4018 47.6666C38.4082 47.7981 38.3521 47.9981 38.421 48.061L38.559 48.1869L38.4964 48.2555L38.6344 48.3813C38.5847 48.7128 39.1429 49.3477 39.5006 49.9253C39.7893 50.4399 40.0781 50.9546 40.3604 51.3377C40.6427 51.7209 40.9876 52.0355 41.3324 52.3501C41.6773 52.6647 41.9596 53.0479 42.2981 53.231C42.6365 53.4141 43.3695 53.5803 43.9646 53.6207C44.0961 53.615 44.1586 53.5465 44.2276 53.6094L44.3656 53.7352L44.5596 53.661C44.1218 54.141 44.1908 54.2039 44.2597 54.2668L44.4538 54.1926C44.5853 54.187 44.7233 54.3128 44.8548 54.3072C45.2494 54.2902 45.7065 54.2047 46.17 54.2507C46.3705 54.308 46.5646 54.2338 46.6961 54.2281C47.0217 54.1483 47.6665 53.8571 48.1171 53.6401C48.3738 53.4973 48.6304 53.3546 48.887 53.2118C48.887 53.2118 48.956 53.2747 49.0185 53.2061C49.1436 53.069 49.2062 53.0004 49.4002 52.9262C50.045 52.635 51.1773 51.5324 51.9279 50.7096C52.9287 49.6125 54.1925 48.5042 54.4041 47.441C54.4667 47.3725 54.3352 47.3781 54.3977 47.3096C54.5228 47.1724 54.51 46.9095 54.5035 46.778C54.5404 46.1835 54.5644 45.326 54.4633 44.6056C54.3815 44.2797 54.6253 43.874 54.606 43.4795C54.5996 43.348 54.3991 43.2908 54.3926 43.1593C54.3237 43.0964 54.3798 42.8963 54.3798 42.8963C54.3734 42.7648 54.2419 42.7705 54.2354 42.639C54.1665 42.5761 54.2226 42.376 54.2226 42.376C54.2162 42.2445 54.0846 42.2502 54.0782 42.1187C54.0092 42.0558 54.0654 41.8557 54.0654 41.8557C54.0589 41.7242 53.9274 41.7299 53.921 41.5984C53.852 41.5355 53.9081 41.3354 53.9081 41.3354C53.8392 41.2725 53.5633 41.0208 53.6258 40.9522L53.6884 40.8837C53.544 40.6263 53.3307 40.3061 53.1173 39.9859L52.9794 39.86L53.0419 39.7914L52.904 39.6656C52.8976 39.5341 52.8976 39.5341 52.8286 39.4712L52.6842 39.2139L52.7468 39.1453C52.6714 38.9509 52.5334 38.8251 52.4644 38.7621C52.3955 38.6992 52.4516 38.4992 52.4516 38.4992C52.3826 38.4362 52.3136 38.3733 52.2447 38.3104C52.2447 38.3104 52.3072 38.2418 52.2383 38.1789L52.0313 37.9902C52.0939 37.9216 51.9559 37.7957 51.8116 37.5384C51.5293 37.1552 50.9085 36.589 50.4882 36.0799C50.3503 35.9541 50.3374 35.6911 50.1995 35.5653C49.9172 35.1821 49.6413 34.9304 49.0959 34.5586C48.889 34.3698 48.6885 34.3125 48.5506 34.1867C48.5506 34.1867 48.488 34.2552 48.419 34.1923C48.1432 33.9406 47.6732 33.7632 47.3348 33.58C46.7958 33.3396 46.1943 33.1678 45.5993 33.1275C45.4678 33.1331 45.4052 33.2017 45.3362 33.1388L45.1983 33.0129L45.1357 33.0815C44.9352 33.0242 44.7283 32.8354 44.5968 32.8411C44.5278 32.7782 44.3338 32.8524 44.3338 32.8524C44.2022 32.858 44.1333 32.7951 44.0643 32.7322C43.6633 32.6176 43.3249 32.4345 42.9928 32.3829C42.4603 32.274 41.8653 32.2336 41.2077 32.2618C41.0761 32.2675 40.8821 32.3417 40.7506 32.3473C40.619 32.353 40.4811 32.2271 40.3496 32.2328L40.2116 32.1069L40.1491 32.1755L40.0111 32.0497C39.9486 32.1182 39.6791 31.998 39.5476 32.0037L39.4225 32.1408L39.222 32.0835L39.0969 32.2207L38.8964 32.1634L38.7713 32.3005L38.5708 32.2432C38.4393 32.2489 38.4457 32.3804 38.3142 32.386L38.1137 32.3287C38.0511 32.3973 37.9886 32.4659 37.9886 32.4659C37.926 32.5344 37.7256 32.4771 37.7256 32.4771C37.663 32.5457 37.594 32.4828 37.5315 32.5514C37.4 32.557 37.3374 32.6256 37.2749 32.6941C37.2123 32.7627 37.1433 32.6998 37.1433 32.6998C36.3671 32.9966 35.5475 33.7565 34.7087 34.1219C34.4521 34.2646 34.1265 34.3445 33.9388 34.5502C33.6196 34.7615 33.3759 35.1673 32.9942 35.4472C32.9316 35.5157 32.8001 35.5214 32.7375 35.59C31.6614 36.4926 30.2292 38.2011 29.2412 39.5611C28.9349 40.0354 28.6222 40.3782 28.3158 40.8525C28.2533 40.9211 28.1907 40.9897 28.1282 41.0582C28.0721 41.2583 27.7658 41.7326 27.453 42.0754C27.2028 42.3497 26.9526 42.6239 26.8339 42.8925C26.5966 43.4298 26.4908 43.9614 26.4539 44.5559C26.3481 45.0875 26.3112 45.682 25.7419 46.1676C25.6361 46.6991 25.6858 46.3676 25.6296 46.5677C25.6361 46.6992 25.6425 46.8306 25.6489 46.9621L25.5238 47.0993C25.5366 47.3622 25.5623 47.8882 25.5816 48.2826L25.7196 48.4085C25.6634 48.6085 25.7388 48.8029 25.7517 49.0659C25.7645 49.3289 25.8464 49.6548 25.9217 49.8492C25.9282 49.9807 25.9346 50.1121 25.941 50.2436C25.9474 50.3751 26.0854 50.501 26.0918 50.6324C26.0982 50.7639 26.1047 50.8954 26.1111 51.0269C26.1175 51.1584 26.2555 51.2842 26.2619 51.4157C26.2683 51.5472 26.2122 51.7472 26.2812 51.8102L26.4191 51.936L26.3566 52.0046L26.4945 52.1304L26.4319 52.199C26.5073 52.3934 26.5892 52.7193 26.6646 52.9137C26.7335 52.9766 26.602 52.9823 26.671 53.0452C26.8089 53.171 26.7528 53.3711 26.7592 53.5026L26.8972 53.6284L26.8346 53.697L26.9726 53.8228C26.9854 54.0858 26.9918 54.2173 27.1362 54.4746C27.3624 55.0578 27.5196 55.5781 27.7458 56.1613C27.8902 56.4187 28.1035 56.7389 28.2479 56.9962C28.2479 56.9962 28.1853 57.0648 28.2543 57.1277C28.3233 57.1906 28.4677 57.448 28.4741 57.5795L28.612 57.7053C28.6313 58.0997 29.39 58.7919 29.6787 59.3065C29.6787 59.3065 29.6162 59.3751 29.6852 59.438C29.8231 59.5639 29.8985 59.7583 29.9739 59.9527L30.1183 60.21C30.1247 60.3415 30.1247 60.3415 30.1937 60.4044C30.2691 60.5988 30.4199 60.9876 30.6332 61.3079C30.9155 61.6911 31.2604 62.0057 31.5427 62.3888C31.825 62.772 32.3768 63.2754 32.8532 63.5843C33.1227 63.7045 33.0665 63.9046 33.4114 64.2192C33.4804 64.2821 33.6119 64.2765 33.8188 64.4652C34.1637 64.7798 34.6465 65.2203 35.0539 65.4663C35.3234 65.5865 35.7933 65.764 36.1318 65.9471C36.3323 66.0044 36.4702 66.1302 36.6017 66.1246C36.8022 66.1819 36.9402 66.3077 37.0717 66.3021C37.1407 66.365 37.3347 66.2908 37.3347 66.2908C37.4663 66.2851 37.5352 66.348 37.6042 66.411C38.0052 66.5255 38.6131 66.8288 39.0831 67.0063C39.152 67.0692 39.3525 67.1265 39.3525 67.1265L39.5466 67.0523L39.6845 67.1781L39.7471 67.1096L39.885 67.2354L39.9476 67.1669C40.0166 67.2298 40.0855 67.2927 40.2171 67.2871L40.4111 67.2128L40.5491 67.3387L40.6116 67.2701L40.7496 67.396C40.9436 67.3218 41.4762 67.4307 41.7456 67.5509C41.8771 67.5452 41.8836 67.6767 42.0151 67.6711C42.0841 67.734 42.2092 67.5968 42.2092 67.5968C42.5412 67.6485 42.7417 67.7058 43.0047 67.6945C43.1362 67.6888 43.2678 67.6832 43.3993 67.6775C43.6623 67.6662 44.0569 67.6493 44.1884 67.6437C44.514 67.5638 44.9021 67.4154 45.2903 67.267C45.3528 67.1984 45.4908 67.3243 45.5533 67.2557C45.8789 67.1758 46.4611 66.9532 46.8493 66.8048C46.9808 66.7992 47.0498 66.8621 47.1123 66.7935L47.2374 66.6564C47.3689 66.6507 47.5069 66.7766 47.5694 66.708C47.7009 66.7024 47.6945 66.5709 47.826 66.5652C47.8886 66.4967 48.0891 66.5539 48.0891 66.5539L48.2142 66.4168C48.4147 66.4741 48.8589 66.1256 49.1781 65.9143C49.3722 65.8401 49.4909 65.5715 49.6224 65.5658C49.6224 65.5658 49.6914 65.6287 49.7539 65.5602C49.9416 65.3545 50.2046 65.3432 50.5238 65.1319C50.8429 64.9205 51.2311 64.7721 51.5502 64.5608L51.6753 64.4236L51.7443 64.4865C52.2575 64.201 52.8959 63.7783 53.4027 63.3613C53.7219 63.1499 53.9721 62.8757 54.2912 62.6644C54.2912 62.6644 54.3602 62.7273 54.4228 62.6587C54.5479 62.5216 54.8045 62.3788 55.1236 62.1675C55.4428 61.9561 55.693 61.6819 56.0122 61.4705C56.519 61.0535 57.0883 60.5679 57.7828 59.9452C57.7828 59.9452 57.8518 60.0081 57.9143 59.9395C57.9769 59.871 58.102 59.7338 58.1645 59.6653C58.7339 59.1797 59.5599 58.5513 60.2543 57.9286C61.3305 57.0259 62.1436 56.1346 62.6183 55.0601L62.7434 54.923C62.737 54.7915 62.7306 54.66 62.7931 54.5915L62.9182 54.4543L62.8493 54.3914C62.9679 54.1228 63.093 53.9857 63.2743 53.6485C63.2743 53.6485 63.2053 53.5856 63.2678 53.517C63.3929 53.3799 63.4491 53.1798 63.5052 52.9798C63.6239 52.7111 63.8051 52.374 63.9863 52.0368C64.3984 51.0309 64.8796 50.0879 65.1602 49.0876C65.2163 48.8876 65.2035 48.6246 65.3286 48.4875C65.4537 48.3504 65.3157 48.2245 65.4408 48.0874L65.4969 47.8873C65.4905 47.7559 65.4215 47.6929 65.4841 47.6244L65.6092 47.4872C65.6028 47.3558 65.5963 47.2243 65.6525 47.0242C65.715 46.9557 65.5835 46.9613 65.646 46.8927L65.7022 46.6927C65.7647 46.6241 65.6268 46.4983 65.6893 46.4297C65.7454 46.2297 65.8016 46.0296 65.7951 45.8981C65.8513 45.6981 65.7759 45.5037 65.832 45.3036C65.8256 45.1721 65.8127 44.9092 65.8063 44.7777C65.787 44.3832 65.9618 43.9145 66.0115 43.583C66.0051 43.4515 65.9297 43.2571 65.9233 43.1256C65.9104 42.8627 65.9601 42.5311 65.8783 42.2052C65.859 41.8108 65.7708 41.3534 65.7451 40.8274C65.7387 40.696 65.6633 40.5016 65.6569 40.3701C65.6504 40.2386 65.644 40.1071 65.6376 39.9756C65.6312 39.8441 65.4996 39.8498 65.4932 39.7183C65.4242 39.6554 65.5493 39.5182 65.5493 39.5182C65.5429 39.3867 65.4114 39.3924 65.405 39.2609L65.4611 39.0609C65.4547 38.9294 65.3231 38.935 65.3167 38.8035C65.3103 38.672 65.429 38.4034 65.3536 38.209C65.3471 38.0775 65.2156 38.0832 65.2092 37.9517L65.2653 37.7516C65.2589 37.6202 65.121 37.4943 65.1145 37.3628C65.1081 37.2313 65.2332 37.0942 65.0953 36.9684C65.0263 36.9054 65.1514 36.7683 65.0824 36.7054L64.9445 36.5796L65.007 36.511C65.0006 36.3795 64.8001 36.3222 64.7937 36.1907C64.7247 36.1278 64.7808 35.9278 64.7808 35.9278C64.7054 35.7334 64.4985 35.5446 64.4921 35.4131C64.4921 35.4131 64.5546 35.3445 64.4857 35.2816C64.4167 35.2187 64.2723 34.9614 64.2659 34.8299C64.1905 34.6355 64.0526 34.5096 63.9772 34.3152C63.8264 33.9264 63.613 33.6062 63.3933 33.1544C63.3179 32.96 63.1109 32.7713 63.1045 32.6398C63.0355 32.5769 63.0917 32.3768 63.0917 32.3768C62.9409 31.988 62.3891 31.4846 62.0378 31.0385C62.0378 31.0385 62.1003 30.97 62.0314 30.9071C61.8245 30.7183 61.818 30.5868 61.4732 30.2722C61.3352 30.1464 61.1973 30.0205 61.1283 29.9576C61.1283 29.9576 61.1909 29.889 61.1219 29.8261C60.5011 29.2598 59.805 28.4991 59.2468 27.8643C59.0398 27.6755 58.8265 27.3553 58.5506 27.1036C58.3437 26.9148 58.0053 26.7317 57.7983 26.5429C57.5914 26.3542 57.516 26.1598 57.3027 25.8395C56.6691 25.0103 55.7099 24.2608 54.6127 23.3856C54.4748 23.2598 54.2679 23.071 54.1299 22.9452C53.992 22.8193 53.9294 22.8879 53.8605 22.825C53.8605 22.825 53.923 22.7564 53.854 22.6935L53.7851 22.6305C53.6471 22.5047 53.6343 22.2417 53.5653 22.1788C53.0761 21.6069 52.6815 21.6238 52.0736 21.3205C51.7351 21.1374 51.3277 20.8913 50.9893 20.7082C50.9893 20.7082 50.9267 20.7768 50.8578 20.7139C50.6573 20.6566 50.4568 20.5993 50.3188 20.4735C50.1183 20.4162 49.9868 20.4218 49.8489 20.296C49.5104 20.1129 48.9651 19.741 48.6266 19.5579C48.6266 19.5579 48.5641 19.6264 48.4951 19.5635C48.4261 19.5006 48.3572 19.4377 48.2256 19.4433C47.6931 19.3344 46.9537 19.0367 46.3522 18.8649C46.3522 18.8649 46.2897 18.9335 46.2207 18.8705C45.9512 18.7504 45.6818 18.6302 45.3433 18.447C45.1428 18.3898 44.8108 18.3381 44.7418 18.2752C44.6729 18.2123 44.4788 18.2865 44.4098 18.2236C44.3408 18.1606 44.1468 18.2349 44.0778 18.1719C44.0088 18.109 43.7458 18.1203 43.6143 18.126L43.4202 18.2002C43.2887 18.2058 43.1507 18.08 43.0192 18.0856C42.8877 18.0913 42.7626 18.2284 42.6936 18.1655C42.5621 18.1711 42.5557 18.0396 42.4241 18.0453C42.1611 18.0565 41.8355 18.1364 41.5035 18.0848C41.372 18.0904 41.1089 18.1017 40.9084 18.0444C40.7079 17.9871 40.3134 18.0041 40.0503 18.0154C39.7873 18.0267 39.3302 18.1122 39.0046 18.192C38.8731 18.1976 38.8041 18.1347 38.7415 18.2033L38.6164 18.3404L38.4159 18.2831C38.2844 18.2888 38.2909 18.4203 38.1593 18.4259L37.9588 18.3686C37.8273 18.3743 37.7022 18.5114 37.5707 18.5171C37.3766 18.5913 37.1072 18.4711 36.9756 18.4767L36.8505 18.6138C36.387 18.5679 35.5979 18.6017 35.0782 18.7558C34.7526 18.8356 34.565 19.0413 34.2458 19.2527C33.9892 19.3954 33.6636 19.4753 33.407 19.6181C33.3444 19.6866 33.338 19.5552 33.2754 19.6237C33.2129 19.6923 33.0749 19.5664 33.0124 19.635C32.8809 19.6406 32.8248 19.8407 32.6307 19.9149C32.3741 20.0577 32.1174 20.2005 31.7983 20.4118C31.285 20.6973 30.6339 20.857 30.1142 21.0111C29.0123 21.3878 28.0548 22.0218 26.8968 22.5986C26.127 23.0269 25.2192 23.3294 24.4557 23.8892C24.1365 24.1005 23.9553 24.4377 23.6362 24.649C23.3795 24.7918 23.0604 25.0031 22.8102 25.2774C22.6851 25.4145 22.629 25.6146 22.4349 25.6888C22.4349 25.6888 22.3659 25.6259 22.3034 25.6944C22.2408 25.763 22.0403 25.7057 21.9778 25.7743L21.7837 25.8485C21.7211 25.9171 21.5896 25.9227 21.5271 25.9913C21.4645 26.0598 21.264 26.0026 21.264 26.0026C21.1325 26.0082 21.1389 26.1397 21.0074 26.1453C20.5503 26.2308 20.0803 26.0533 19.8044 25.8017C19.5975 25.6129 19.3281 25.4927 19.1147 25.1725C19.1147 25.1725 19.1773 25.1039 19.1083 25.041L18.9639 24.7836L19.02 24.5836C18.9511 24.5207 18.8821 24.4578 18.8821 24.4578C18.8131 24.3948 18.8693 24.1948 18.8628 24.0633C18.85 23.8003 18.7682 23.4744 18.8179 23.1429L18.8114 23.0114C18.9301 22.7428 19.2493 22.5314 19.4305 22.1943C19.0535 21.2222 19.1658 20.8221 19.2909 20.685C19.7913 20.1365 20.6237 19.6396 21.3181 19.0169C21.6373 18.8055 21.8939 18.6628 22.1441 18.3885C22.3318 18.1828 22.5884 18.04 22.845 17.8973C23.108 17.886 23.2331 17.7488 23.4272 17.6746C23.5587 17.669 23.6213 17.6004 23.6838 17.5318C23.7464 17.4633 23.8153 17.5262 23.8153 17.5262C24.0094 17.452 24.0655 17.2519 24.2596 17.1777C24.2596 17.1777 24.3286 17.2407 24.3911 17.1721C24.5852 17.0979 24.7167 17.0922 24.8418 16.9551C25.0359 16.8809 25.1674 16.8753 25.2925 16.7381C25.4866 16.6639 25.4802 16.5324 25.6742 16.4582C25.7368 16.3897 25.9373 16.4469 25.9373 16.4469C25.9998 16.3784 26.0624 16.3098 26.1249 16.2412C26.1875 16.1727 26.388 16.23 26.388 16.23C26.6446 16.0872 26.5756 16.0243 26.8322 15.8815C26.8322 15.8815 26.9012 15.9444 26.9637 15.8758L27.0263 15.8073C27.0888 15.7387 27.2893 15.796 27.2893 15.796C27.74 15.579 27.8026 15.5104 27.8651 15.4419C28.1217 15.2991 28.5099 15.1507 28.8916 14.8708C28.8916 14.8708 28.9606 14.9337 29.0231 14.8651C29.1482 14.728 29.2108 14.6594 29.3423 14.6538C29.4048 14.5852 29.6053 14.6425 29.6053 14.6425C29.7994 14.5683 30.1186 14.357 30.3752 14.2142C30.5067 14.2085 30.5757 14.2715 30.6382 14.2029L30.7633 14.0658C30.8949 14.0601 31.0889 13.9859 31.283 13.9117C31.4771 13.8375 31.6022 13.7004 31.7962 13.6262C31.8588 13.5576 32.0593 13.6149 32.0593 13.6149L32.1844 13.4777L32.2534 13.5407C32.4474 13.4664 32.5725 13.3293 32.704 13.3237C32.7666 13.2551 32.9671 13.3124 32.9671 13.3124C33.0296 13.2438 33.0922 13.1753 33.1547 13.1067C33.2173 13.0381 33.4178 13.0954 33.4178 13.0954C33.6118 13.0212 33.7369 12.8841 33.931 12.8099C33.931 12.8099 34 12.8728 34.0625 12.8042C34.1876 12.6671 34.3881 12.7244 34.5822 12.6502C34.7137 12.6445 34.9078 12.5703 34.9703 12.5017C35.0329 12.4332 35.2334 12.4904 35.3649 12.4848L35.49 12.3477L35.6905 12.4049L35.8156 12.2678C35.9471 12.2622 36.1476 12.3195 36.3417 12.2452C36.5358 12.171 36.8678 12.2227 36.9993 12.217L37.1244 12.0799C37.3249 12.1372 37.7195 12.1202 37.9825 12.1089L38.1076 11.9718L38.3081 12.0291L38.4332 11.892C38.5647 11.8863 38.7652 11.9436 38.9593 11.8694C39.2849 11.7895 39.6169 11.8412 40.005 11.6928C40.2681 11.6815 40.6562 11.533 41.0508 11.5161C41.3138 11.5048 41.7084 11.4879 41.9089 11.5452C41.9778 11.6081 42.2409 11.5968 42.3724 11.5912C42.6355 11.5799 42.8985 11.5686 43.03 11.5629C43.2931 11.5517 43.4936 11.6089 43.6941 11.6662C43.9571 11.6549 44.1512 11.5807 44.3517 11.638C44.6147 11.6267 44.8152 11.684 45.0157 11.7413C45.2162 11.7985 45.4792 11.7872 45.6108 11.7816C46.0117 11.8962 46.5507 12.1365 47.0832 12.2455C47.2147 12.2398 47.2837 12.3027 47.3527 12.3657C47.4216 12.4286 47.4842 12.36 47.4842 12.36C47.6847 12.4173 47.6911 12.5488 47.8226 12.5431C47.8916 12.606 48.0857 12.5318 48.0857 12.5318C48.2862 12.5891 48.3551 12.652 48.4241 12.715C48.6246 12.7722 48.6936 12.8352 48.8941 12.8924C48.963 12.9554 49.0946 12.9497 49.2951 13.007C49.5645 13.1272 49.7025 13.253 49.903 13.3103C49.9719 13.3732 50.166 13.299 50.166 13.299C50.235 13.3619 50.304 13.4249 50.304 13.4249C50.6424 13.608 51.3129 13.8427 51.7203 14.0888C51.9897 14.209 52.1341 14.4663 52.4036 14.5865C52.4036 14.5865 52.4661 14.5179 52.5351 14.5808L52.6041 14.6438C52.673 14.7067 52.8046 14.701 52.8735 14.764C53.212 14.9471 53.8824 15.1818 54.2898 15.4279C54.6283 15.611 54.9667 15.7941 55.3741 16.0402C55.6436 16.1604 56.2644 16.7266 56.7472 17.1671C57.092 17.4817 57.5684 17.7907 57.9133 18.1053C58.8099 18.9232 59.5125 19.8154 60.5407 20.6277C60.5407 20.6277 61.0042 20.6737 60.9481 20.8738C60.8984 21.2053 61.6378 21.503 61.9137 21.7547C62.0517 21.8805 62.1335 22.2064 62.2714 22.3322C62.3404 22.3952 62.4783 22.521 62.5473 22.5839C62.7607 22.9042 63.3189 23.539 63.6702 23.9851C64.2284 24.62 64.7112 25.0604 65.2694 25.6953C65.4073 25.8211 65.6207 26.1414 65.6896 26.2043C65.6896 26.2043 65.6271 26.2729 65.6961 26.3358L65.903 26.5245C65.9094 26.656 66.0473 26.7819 66.1227 26.9763C66.2671 27.2336 66.4115 27.4909 66.5559 27.7483C66.7002 28.0056 66.9136 28.3258 67.0579 28.5832C67.0579 28.5832 66.9954 28.6517 67.0644 28.7146C67.2023 28.8405 67.0772 28.9776 67.2152 29.1035C67.2841 29.1664 67.4413 29.6867 67.5857 29.944L67.7237 30.0699C67.7301 30.2013 67.9434 30.5216 68.0188 30.716C68.1071 31.1734 68.7343 31.8711 68.954 32.3229C69.023 32.3858 68.8915 32.3914 68.9604 32.4544C69.0294 32.5173 68.9043 32.6544 68.9733 32.7173L69.1112 32.8432L69.0487 32.9117L69.1866 33.0376L69.1241 33.1062L69.262 33.232L69.1995 33.3006L69.3374 33.4264L69.2749 33.495C69.3503 33.6894 69.4257 33.8838 69.5011 34.0782C69.57 34.1411 69.4385 34.1468 69.5075 34.2097L69.5765 34.2726C69.5829 34.4041 69.5893 34.5356 69.5957 34.6671C69.6022 34.7985 69.7401 34.9244 69.7465 35.0559C69.753 35.1874 69.7594 35.3188 69.7658 35.4503C69.7722 35.5818 69.9102 35.7077 69.9166 35.8391C69.923 35.9706 69.9294 36.1021 69.9359 36.2336C69.9423 36.3651 70.0802 36.4909 70.0867 36.6224C70.0931 36.7539 70.0995 36.8854 70.1059 37.0169L70.2439 37.1427C70.1942 37.4742 70.2135 37.8687 70.3017 38.3261C70.3145 38.5891 70.3899 38.7835 70.4028 39.0464C70.4092 39.1779 70.4156 39.3094 70.4221 39.4409C70.4349 39.7039 70.5793 39.9612 70.5921 40.2242C70.6868 40.813 70.7125 41.339 70.7382 41.8649C70.7446 41.9964 70.751 42.1279 70.7575 42.2594C70.7639 42.3909 70.6388 42.528 70.6452 42.6595C70.5891 42.8595 70.7399 43.2483 70.6838 43.4484C70.6966 43.7114 70.6469 44.0429 70.5908 44.2429C70.5347 44.443 70.6101 44.6374 70.5539 44.8375C70.5604 44.9689 70.4417 45.2376 70.4481 45.369C70.4545 45.5005 70.5299 45.6949 70.4674 45.7635L70.3423 45.9006L70.4112 45.9636L70.2862 46.1007L70.3551 46.1636C70.299 46.3637 70.2429 46.5637 70.1868 46.7638C70.1242 46.8323 70.2557 46.8267 70.1932 46.8952L70.1306 46.9638C70.137 47.0953 70.1435 47.2268 70.1499 47.3583L70.0248 47.4954C70.0312 47.6269 70.0312 47.6269 70.0376 47.7584C70.0441 47.8899 70.0505 48.0213 70.0569 48.1528C70.0633 48.2843 69.9382 48.4214 69.9447 48.5529C69.8821 48.6215 70.0136 48.6158 69.9511 48.6844C69.826 48.8215 69.9014 49.016 69.9078 49.1474L69.7827 49.2846L69.8517 49.3475L69.7266 49.4846L69.7956 49.5475L69.6705 49.6847L69.7394 49.7476L69.6143 49.8847L69.6833 49.9476L69.5582 50.0848L69.6272 50.1477L69.5021 50.2848L69.5711 50.3477L69.446 50.4849C69.4588 50.7478 69.2279 51.4166 69.0467 51.7537L68.9216 51.8909L68.9905 51.9538L68.8655 52.0909C68.8719 52.2224 68.6971 52.6911 68.5159 53.0283C68.3972 53.2969 68.216 53.6341 68.0973 53.9027C68.0412 54.1027 67.8535 54.3084 67.7974 54.5085C67.6787 54.7771 67.3163 55.4514 67.01 55.9258C66.8849 56.0629 66.8913 56.1944 66.7662 56.3315C66.7662 56.3315 66.8352 56.3944 66.7726 56.463L66.585 56.6687C66.5914 56.8002 66.3973 56.8744 66.2786 57.143C66.2786 57.143 66.3476 57.2059 66.2851 57.2745C66.2225 57.343 66.0974 57.4802 66.0349 57.5487C66.0349 57.5487 66.1038 57.6117 66.0413 57.6802C65.9787 57.7488 65.9162 57.8174 65.8536 57.8859C65.6099 58.2917 64.9283 59.1774 64.3589 59.663C64.3589 59.663 64.2899 59.6 64.2274 59.6686C64.0397 59.8743 63.6644 60.2857 63.3453 60.497C63.2827 60.5656 63.2202 60.6342 63.1576 60.7027C62.901 60.8455 62.3381 61.4626 62.0189 61.6739C61.8248 61.7481 61.8938 61.8111 61.7623 61.8167C61.4992 61.828 60.7615 62.9137 60.4487 63.2566C60.2611 63.4623 59.873 63.6107 59.6228 63.8849C59.3661 64.0277 59.1849 64.3649 58.8658 64.5762C58.8658 64.5762 58.7968 64.5133 58.7342 64.5819C58.6717 64.6504 58.5466 64.7876 58.484 64.8561C58.484 64.8561 58.4151 64.7932 58.3525 64.8618L58.1649 65.0675L58.0959 65.0046C57.9708 65.1417 57.7767 65.2159 57.7142 65.2845C57.3325 65.5644 56.6941 65.987 56.1873 66.4041C55.9307 66.5468 55.743 66.7525 55.4303 67.0954C55.3052 67.2325 55.1737 67.2381 55.1111 67.3067C54.7294 67.5866 54.4167 67.9294 54.0975 68.1408C54.0975 68.1408 54.0285 68.0779 53.966 68.1464C53.7783 68.3521 53.3276 68.5691 53.071 68.7119C52.877 68.7861 52.8208 68.9861 52.6893 68.9918C52.6893 68.9918 52.6203 68.9288 52.5578 68.9974C52.3701 69.2031 52.1071 69.2144 51.913 69.2886L51.7879 69.4257L51.719 69.3628L51.5939 69.4999L51.5249 69.437C51.3308 69.5112 51.0806 69.7855 50.9491 69.7911L50.7486 69.7339L50.6235 69.871L50.5545 69.8081L50.4294 69.9452L50.3605 69.8823L50.2354 70.0194L50.1664 69.9565L50.0413 70.0936L49.9723 70.0307L49.8472 70.1678L49.7783 70.1049L49.6532 70.242C49.4527 70.1848 49.265 70.3905 49.0084 70.5332L48.8833 70.6704C48.7518 70.676 48.6267 70.8131 48.4326 70.8873C48.4326 70.8873 48.3636 70.8244 48.3011 70.893C48.176 71.0301 48.038 70.9043 47.9129 71.0414C47.7878 71.1785 47.6499 71.0527 47.5248 71.1898C47.4623 71.2584 47.3243 71.1325 47.2618 71.2011L47.1367 71.3382L47.0677 71.2753L46.9426 71.4124C46.8111 71.4181 46.6731 71.2922 46.548 71.4294L46.4855 71.4979C46.354 71.5036 46.2224 71.5092 46.0909 71.5149C45.8968 71.5891 45.7028 71.6633 45.5087 71.7375C45.4461 71.8061 45.4397 71.6746 45.3772 71.7431C45.3146 71.8117 45.1767 71.6859 45.1141 71.7544C44.9201 71.8286 44.8575 71.8972 44.5945 71.9085C44.4629 71.9141 44.3314 71.9198 44.1999 71.9254C43.9369 71.9367 43.6048 71.8851 43.4108 71.9593L43.2857 72.0964C43.0852 72.0391 42.8911 72.1134 42.6281 72.1246C42.2335 72.1416 41.9079 72.2214 41.4444 72.1754C41.3129 72.1811 41.1188 72.2553 40.9183 72.198C40.7868 72.2037 40.7803 72.0722 40.6488 72.0778C40.4483 72.0205 40.2543 72.0947 40.1227 72.1004C39.9912 72.106 39.9287 72.1746 39.8597 72.1117C39.7282 72.1173 39.4587 71.9971 39.2582 71.9398C39.0577 71.8826 38.9262 71.8882 38.7257 71.8309C38.5942 71.8366 38.4627 71.8422 38.4627 71.8422C38.0617 71.7277 37.7296 71.676 37.3287 71.5615C37.2597 71.4986 37.2661 71.6301 37.1971 71.5671L36.9966 71.5099C36.9277 71.4469 36.8026 71.5841 36.7336 71.5211C36.6021 71.5268 36.5957 71.3953 36.4641 71.4009C36.3952 71.338 36.2011 71.4122 36.2011 71.4122C35.8001 71.2977 35.4617 71.1146 35.0607 71C34.9917 70.9371 34.9227 70.8742 34.7912 70.8798C34.7222 70.8169 34.5282 70.8911 34.5282 70.8911C34.3966 70.8967 34.3902 70.7653 34.2587 70.7709C34.1897 70.708 33.9956 70.7822 33.9956 70.7822C33.9267 70.7193 33.8577 70.6563 33.8577 70.6563C33.7887 70.5934 33.6572 70.5991 33.4567 70.5418C33.3877 70.4789 33.2562 70.4845 33.1872 70.4216C33.1183 70.3587 32.9242 70.4329 32.9242 70.4329C32.7237 70.3756 32.5168 70.1868 32.4478 70.1239C32.4478 70.1239 32.3853 70.1925 32.3163 70.1296C31.9778 69.9464 31.5079 69.769 31.0315 69.46C30.5615 69.2825 30.1541 69.0365 29.6088 68.6646C29.1324 68.3557 28.3111 67.7321 27.684 67.0343C27.615 66.9714 27.546 66.9085 27.477 66.8455C27.1257 66.3995 26.2916 65.5129 25.8024 64.941C25.6645 64.8152 25.5265 64.6893 25.5201 64.5578C25.4511 64.4949 25.5826 64.4893 25.5137 64.4263C25.3757 64.3005 25.2875 63.8431 25.0741 63.5229C24.9298 63.2655 24.7854 63.0082 24.5785 62.8194C24.4341 62.5621 24.2336 62.5048 24.0203 62.1846C23.9513 62.1217 24.0138 62.0531 23.9449 61.9902C23.8069 61.8643 23.6 61.6756 23.5936 61.5441C23.5936 61.5441 23.6561 61.4755 23.5872 61.4126C23.3802 61.2238 23.2856 60.635 23.0722 60.3147C22.9968 60.1203 22.8653 60.126 22.8589 59.9945C22.7899 59.9316 22.846 59.7315 22.846 59.7315C22.7017 59.4742 22.4883 59.1539 22.275 58.8337C22.275 58.8337 22.3375 58.7651 22.2686 58.7022C22.1932 58.5078 22.1242 58.4449 22.0488 58.2505C21.9798 58.1875 21.9734 58.0561 21.9044 57.9931C21.7536 57.6043 21.6028 57.2155 21.452 56.8267C21.3013 56.4379 21.0815 55.9862 20.9307 55.5973C20.8617 55.5344 20.9932 55.5288 20.9243 55.4659L20.8489 55.2715C20.7799 55.2085 20.905 55.0714 20.836 55.0085C20.7606 54.8141 20.6852 54.6197 20.6788 54.4882C20.5906 54.0308 20.4398 53.642 20.289 53.2532C20.2136 53.0588 20.1382 52.8644 20.0628 52.67C19.9938 52.607 20.1189 52.4699 20.0499 52.407C19.981 52.3441 19.912 52.2811 19.9056 52.1496C19.8991 52.0182 20.0242 51.881 19.9553 51.8181C19.9488 51.6866 19.8173 51.6923 19.8109 51.5608L19.867 51.3607C19.8606 51.2292 19.7227 51.1034 19.7162 50.9719C19.7098 50.8404 19.8349 50.7033 19.7659 50.6404C19.7595 50.5089 19.628 50.5145 19.6216 50.3831C19.6151 50.2516 19.7402 50.1144 19.6713 50.0515C19.6648 49.92 19.5333 49.9257 19.5269 49.7942C19.5076 49.3997 19.4883 49.0053 19.4626 48.4793C19.4498 48.2164 19.3744 48.022 19.368 47.8905C19.3616 47.759 19.4931 47.7533 19.4867 47.6218C19.4802 47.4904 19.4113 47.4274 19.4738 47.3589C19.5107 46.7644 19.416 46.1755 19.4464 45.4495C19.4336 45.1865 19.4207 44.9236 19.4768 44.7235C19.5394 44.655 19.4704 44.592 19.4704 44.592C19.533 44.5235 19.5955 44.4549 19.5891 44.3234L19.5137 44.129C19.5073 43.9975 19.5698 43.929 19.6259 43.7289C19.6195 43.5974 19.6821 43.5288 19.6756 43.3974C19.7318 43.1973 19.7253 43.0658 19.7815 42.8658C19.8376 42.6657 19.8312 42.5342 20.0124 42.1971C20.0685 41.997 20.2626 41.9228 20.2562 41.7913C20.2562 41.7913 20.1872 41.7284 20.2497 41.6598C20.4374 41.4541 20.4245 41.1912 20.4807 40.9911C21.1237 39.3165 22.1549 37.4935 23.4556 35.7906C23.7058 35.5164 23.887 35.1792 24.1372 34.9049C24.3249 34.6992 24.5879 34.6879 24.7691 34.3508C24.8317 34.2822 24.7627 34.2193 24.8253 34.1507C24.9504 34.0136 26.0265 33.1109 25.9511 32.9165C25.9447 32.7851 26.0762 32.7794 26.2639 32.5737C27.3336 31.5396 28.3409 30.574 29.486 29.7343C29.7426 29.5916 29.9928 29.3173 30.312 29.106C30.5686 28.9632 30.8188 28.6889 31.138 28.4776C31.138 28.4776 31.2069 28.5405 31.2695 28.4719C31.3946 28.3348 31.4636 28.3977 31.5261 28.3292C31.7202 28.255 31.8453 28.1178 31.9078 28.0493C32.1019 27.9751 32.227 27.8379 32.2895 27.7694C32.2895 27.7694 32.3585 27.8323 32.4211 27.7637L32.6087 27.558L32.6777 27.6209C32.9969 27.4096 33.1845 27.2039 33.5037 26.9926C33.5037 26.9926 33.5726 27.0555 33.6352 26.9869C33.7603 26.8498 34.0859 26.7699 34.2799 26.6957C34.6681 26.5473 34.9247 26.4045 35.3128 26.2561C35.3754 26.1876 35.3818 26.319 35.4444 26.2505C35.5695 26.1134 35.7074 26.2392 35.8325 26.1021C35.8951 26.0335 36.033 26.1593 36.0956 26.0908L36.2207 25.9536L36.2896 26.0166L36.4147 25.8794L36.4837 25.9424L36.6088 25.8052L36.6778 25.8681L36.8029 25.731L36.8718 25.7939L36.9969 25.6568L37.0659 25.7197L37.191 25.5826C37.3225 25.577 37.3225 25.577 37.4541 25.5713C37.5856 25.5657 37.7107 25.4285 37.8422 25.4229C37.9737 25.4172 38.1052 25.4116 38.2368 25.406C38.3683 25.4003 38.4934 25.2632 38.6249 25.2575C38.7564 25.2519 38.8879 25.2463 39.0195 25.2406L39.1446 25.1035C39.3451 25.1608 39.4076 25.0922 39.6017 25.018C39.6642 24.9494 39.6707 25.0809 39.7332 25.0123L39.7957 24.9438C39.9273 24.9381 40.0588 24.9325 40.1903 24.9268C40.3218 24.9212 40.4534 24.9156 40.5159 24.847C40.5785 24.7784 41.2361 24.7502 41.3676 24.7446C41.6306 24.7333 41.8872 24.5905 42.0877 24.6478C42.2193 24.6421 42.3508 24.6365 42.3508 24.6365L42.4887 24.7623C42.6203 24.7567 42.7454 24.6196 42.8833 24.7454C43.0212 24.8712 43.2089 24.6655 43.3468 24.7914C43.4158 24.8543 43.6789 24.843 43.8104 24.8374C43.9419 24.8317 43.9483 24.9632 44.0798 24.9576C44.1488 25.0205 44.2739 24.8834 44.2739 24.8834L44.4119 25.0092C45.0005 24.9181 45.8153 25.4101 46.5483 25.5763C46.6798 25.5707 46.7424 25.5021 46.8114 25.565L46.9493 25.6909L47.0119 25.6223L47.1498 25.7482L47.2124 25.6796L47.3503 25.8054C47.7449 25.7885 48.2084 25.8345 48.8099 26.0063L48.9478 26.1322L49.0104 26.0636L49.1483 26.1894C49.2799 26.1838 49.6873 26.4298 49.9567 26.55L50.0947 26.6759C50.3577 26.6646 51.179 27.2882 51.5238 27.6028C51.7308 27.7915 52.0002 27.9117 52.2761 28.1634C52.9594 28.6611 53.5866 29.3589 54.2138 30.0567C54.9099 30.8174 55.5997 31.4466 56.0328 32.2186L56.1707 32.3444C56.1146 32.5445 56.6038 33.1164 56.8172 33.4366C57.0305 33.7569 57.1813 34.1457 57.3946 34.466C57.3946 34.466 57.3321 34.5345 57.4011 34.5974C57.539 34.7233 57.4765 34.7918 57.6144 34.9177C58.7244 36.0559 58.8623 36.1817 58.8062 36.3818Z" fill="white"/>
</svg>
