<svg width="35" height="34" viewBox="0 0 35 34" fill="none" xmlns="http://www.w3.org/2000/svg">
<path d="M34.3761 16.0443L34.3689 16.0254C34.0741 15.287 33.1937 15.1409 32.551 15.0336C32.3941 15.0076 32.248 14.9835 32.1376 14.9565C31.3242 14.7066 30.5588 14.6049 29.7484 14.4981C29.5404 14.4706 29.3284 14.443 29.1204 14.4133C28.6172 14.3188 28.1338 14.187 27.6229 14.0475C26.9234 13.8564 26.2004 13.6592 25.4125 13.5667C24.4003 13.4941 23.7417 13.2841 22.8261 12.903C22.7081 12.8437 22.5599 12.7814 22.3851 12.717C22.3862 12.626 22.3698 12.5346 22.3162 12.4584C22.2508 12.3205 22.1884 12.1325 22.1756 12.1003C21.8021 11.3272 21.4639 10.4744 21.0909 9.37078C21.0056 8.89151 20.8886 8.261 20.7378 7.62794C20.6127 7.12772 20.4629 6.6413 20.3178 6.17072C20.0113 5.17743 19.7226 4.23882 19.6705 3.21948C19.5938 2.44744 19.2816 1.31058 18.7865 0.650437C18.6711 0.477737 18.5208 0.316276 18.3635 0.195693L18.3701 0.175255C18.3502 0.166569 18.3313 0.159416 18.3001 0.148686C18.2066 0.0843066 18.1238 0.0408753 18.0416 0.0132842L17.5776 0L17.573 0.0408758C16.8546 0.128759 16.4469 0.817006 16.0831 1.45058C15.7903 1.71219 15.5921 2.12043 15.4281 2.49189C15.2646 2.76218 15.1097 3.0381 14.9529 3.31707C14.7909 3.60627 14.6264 3.89904 14.4568 4.17904C14.2432 4.48255 14.0628 4.77123 13.9157 5.04203C13.7859 5.23875 13.6535 5.43138 13.5222 5.62247C13.0307 6.33677 12.5228 7.0756 12.1973 7.9994C11.9363 8.8675 11.6322 9.75399 11.3502 10.4668C11.2776 10.7549 11.2097 11.0278 10.9869 11.3308C10.9522 11.4008 10.8633 11.5321 10.7846 11.6414C10.6037 11.6266 10.4249 11.6138 10.2593 11.6072C10.0284 11.5822 9.79742 11.5484 9.56699 11.5147C9.33399 11.481 9.101 11.4473 8.85524 11.4202C8.22575 11.3809 7.65655 11.4008 7.10524 11.4202C6.55955 11.4391 6.04349 11.4575 5.46714 11.4197C5.14218 11.4197 4.79831 11.3655 4.43452 11.3078C4.06714 11.2495 3.69977 11.178 3.34671 11.1908L3.23225 11.179C2.40401 11.0937 0.677516 10.9144 0.239123 12.1442C0.219707 12.2157 0.211531 12.2811 0.207444 12.3414C0.100656 12.486 0.0311678 12.6664 0 12.9014C0 13.256 0.219708 13.5805 0.379634 13.8176L0.557955 14.1211C0.820071 14.5896 1.11744 15.1205 1.5262 15.5287C2.37335 16.429 3.33496 17.0605 4.35276 17.7294C4.82181 18.038 5.3067 18.3563 5.78342 18.7073C5.94641 18.8192 6.11553 18.9286 6.28517 19.0379C7.42049 19.7716 8.401 20.4052 7.89006 21.751C7.65042 22.3816 7.44604 23.0499 7.24728 23.6957C6.99947 24.504 6.74298 25.3394 6.41904 26.1002C5.66897 27.8625 4.81926 29.8598 5.01086 31.946C5.05992 32.4789 5.26021 32.8274 5.60612 32.9801C6.45174 33.3557 7.8548 32.2991 8.52823 31.7912L8.63706 31.7058C8.92319 31.4197 9.3667 31.0365 9.51232 30.9374L9.60633 30.8863C9.7637 30.7683 9.941 30.6303 10.1178 30.4929C10.2859 30.3621 10.4535 30.2318 10.6303 30.0958C11.0773 29.6493 12.0599 28.8169 12.0589 28.8169C12.3578 28.5932 12.6848 28.3816 13.0006 28.1772C13.3255 27.9672 13.6612 27.7501 13.9749 27.5145C14.1343 27.395 14.2764 27.2933 14.4179 27.1916L14.4956 27.1354C14.7904 27.4021 15.0842 27.6694 15.3749 27.9407C15.7137 28.4251 16.2834 28.8364 16.6038 29.0653L16.85 29.2931C17.034 29.4643 17.2189 29.636 17.4238 29.8143C17.7018 30.0228 18.1111 30.2941 18.5019 30.4198C18.7063 30.547 18.9132 30.6722 19.1253 30.801L19.6725 31.1346C19.9055 31.268 20.3526 31.5796 20.8257 31.9092C21.4256 32.3272 22.0464 32.7599 22.4444 32.9807C22.5711 33.044 22.7254 33.1421 22.8971 33.2509C23.4183 33.581 24.0789 34 24.7115 34C24.9419 34 25.1688 33.9443 25.3829 33.8079C26.0895 33.3368 26.0604 32.3849 26.0394 31.69C26.0364 31.5781 26.0328 31.4713 26.0323 31.387C26.1278 29.682 26.0778 28.3244 25.8724 27.0956C25.7947 26.7844 25.6971 26.4727 25.6 26.1616C25.5086 25.8693 25.4176 25.577 25.343 25.2848C25.3338 24.897 25.1816 23.4019 24.8326 22.7127C24.62 22.4296 24.478 22.147 24.3288 21.8486C25.3645 21.6959 26.3051 21.351 27.2172 21.0173C27.5549 20.8937 27.8921 20.77 28.2467 20.6515C29.635 20.1114 30.8454 19.5065 32.271 18.7932L32.5203 18.6476C33.3664 18.1586 34.7817 17.3426 34.3761 16.0443ZM26.2581 19.1784C25.7906 19.3654 25.3072 19.5591 24.8847 19.7016C24.3845 19.8013 24.0002 19.8503 23.7407 19.8519L23.6083 19.8345C23.0437 19.7594 22.1915 19.6454 22.0065 20.5713C21.77 21.3985 22.1992 22.1619 22.5773 22.8353C22.7505 23.1439 22.914 23.4356 23.0059 23.711C23.1332 24.0917 23.1868 24.5643 23.24 25.0211C23.2788 25.364 23.3161 25.6874 23.3891 26.0103C23.4362 26.1498 23.4888 26.2898 23.5435 26.4313C23.664 26.7466 23.7887 27.0726 23.8413 27.4359C23.9379 27.9202 23.9721 28.5456 24.0054 29.1501C24.0227 29.4766 24.0401 29.7975 24.0672 30.0913C24.0963 30.408 24.0401 30.5516 23.9839 30.5792C23.8224 30.6553 23.2742 30.3932 22.7867 29.9226C22.6222 29.7632 22.0801 29.1874 21.9692 29.0162L21.9667 28.9529L21.8834 28.8798C21.5789 28.6136 21.2937 28.3474 21.0081 28.0807C20.7189 27.8104 20.4292 27.5406 20.1329 27.2826C19.9438 27.093 19.3307 26.6761 19.1513 26.6761C19.1503 26.6761 19.1498 26.6761 19.1488 26.6761C18.9587 26.6076 18.2158 25.8545 17.8592 25.4927C17.5986 25.2286 17.3927 25.0201 17.2823 24.9302C17.1295 24.806 16.9727 24.6486 16.8066 24.4821C16.3708 24.0447 15.8772 23.5481 15.2451 23.474C14.326 23.3672 13.2892 24.3722 12.4528 25.18C12.2152 25.4094 11.9914 25.6266 11.8162 25.7691C11.7022 25.8616 11.5122 26.0394 11.2771 26.2602C9.37027 28.0495 8.77706 28.3091 8.61203 28.212C8.34684 28.0541 8.67334 27.3291 8.88947 26.8493C9.02078 26.558 9.13421 26.3061 9.16589 26.1115C9.29823 25.2991 9.49545 24.477 9.68604 23.6829C9.8245 23.1066 9.96757 22.5108 10.0846 21.9232C10.1183 21.7705 10.175 21.5824 10.2358 21.3801C10.4279 20.7378 10.6461 20.0097 10.4535 19.5642C10.2578 19.114 9.81071 18.8826 9.41626 18.6782C9.22925 18.5811 9.05246 18.4892 8.92983 18.3885L8.82611 18.3022C8.73363 18.2255 8.63911 18.1468 8.52363 18.0554C8.29728 17.9 8.07195 17.7519 7.84662 17.6032L7.5329 17.3962C7.18035 17.1397 6.80634 16.8761 6.43334 16.613C5.91371 16.2466 5.39459 15.8803 4.95824 15.5563C4.65678 15.2554 4.26692 14.8165 3.7662 14.2161C3.71459 14.1149 3.65277 14.0041 3.58328 13.8865L3.68904 13.883C4.18006 13.8646 4.67108 13.8467 5.18459 13.8457C5.6705 13.8017 6.15181 13.836 6.66072 13.8738C6.99028 13.8978 7.33057 13.9223 7.69181 13.9223C7.69896 13.9223 7.70611 13.9223 7.71378 13.9223C8.00502 13.8957 8.28757 13.8518 8.56757 13.8084C9.08005 13.7287 9.56239 13.652 10.056 13.6903C10.3406 13.7312 10.5807 13.7593 10.8081 13.7491C11.6746 13.8472 12.8646 13.9811 13.4665 13.3117C13.8773 12.9014 14.2958 11.4217 14.3653 11.1591C14.6627 10.4376 14.7787 9.65436 14.89 8.89662C14.9887 8.22728 15.0822 7.59575 15.2891 7.00918C15.66 5.97094 16.2451 5.16619 16.8649 4.31444L16.9006 4.24495C16.9093 4.21839 16.919 4.19028 16.9297 4.16065C17.7401 5.71342 18.2746 7.39648 18.7932 9.02947C18.9158 9.41626 19.0384 9.80253 19.157 10.1576L19.1912 10.3201C19.2096 10.4024 19.2275 10.4841 19.2397 10.5511C19.2505 10.6599 19.2597 10.7922 19.2704 10.9404C19.3358 11.8739 19.4451 13.4359 20.2499 14.094C20.6173 14.3995 21.0505 14.4905 21.4332 14.5702C21.5855 14.6019 21.7321 14.632 21.8425 14.6678C21.9948 14.7352 22.147 14.8068 22.3003 14.8788C22.8491 15.1363 23.4167 15.4025 24.0483 15.5287C24.4749 15.6038 24.8939 15.6631 25.3098 15.7219C26.1748 15.844 26.9918 15.9589 27.863 16.2149C28.2861 16.3207 28.7209 16.3641 29.1404 16.406C29.6621 16.4581 30.1551 16.5067 30.6339 16.6778C30.9875 16.7489 31.2756 16.8194 31.5592 16.8904C30.4147 17.6068 29.074 18.1279 27.6872 18.6389C27.2202 18.7937 26.7313 18.9894 26.2581 19.1784Z" fill="#3C2C16"/>
</svg>
