<svg width="469" height="427" viewBox="0 0 469 427" fill="none" xmlns="http://www.w3.org/2000/svg">
<path d="M233.857 48.9355L234.237 49.3785L234.617 48.9355C260.038 19.2723 298.99 0.5 339.568 0.5C411.388 0.5 467.806 56.5645 467.806 127.921C467.806 171.715 447.989 211.492 413.06 253.926C378.177 296.303 328.274 341.268 268.111 395.477L267.842 395.72L267.841 395.72L234.236 426.119L200.632 395.953L200.631 395.952L199.734 395.142C139.853 341.071 90.1756 296.214 55.414 253.955C20.4845 211.492 0.667969 171.715 0.667969 127.921C0.667969 56.5645 57.0858 0.5 128.906 0.5C169.484 0.5 208.436 19.2723 233.857 48.9355Z" stroke="white"/>
</svg>
