<svg width="50" height="52" viewBox="0 0 50 52" fill="none" xmlns="http://www.w3.org/2000/svg">
<path d="M21.4545 38.1438C19.1781 38.9708 20.3786 42.2181 22.623 41.2574C27.6721 39.1667 32.6253 36.6748 37.1098 33.5527C40.8972 30.9154 45.0467 27.1312 45.5804 22.2675C46.1774 16.9293 39.8812 17.0562 36.4012 18.1709C33.1219 19.2376 30.2095 21.1003 27.4534 23.1729C28.4944 19.2483 29.3188 15.3048 29.3277 11.2028C29.4035 7.08476 27.5672 1.62137 22.2972 2.49253C16.9603 3.37967 15.4817 9.31748 14.6515 13.8279C13.742 18.7461 13.4314 23.8038 13.9138 28.778C14.4985 34.3285 15.8603 39.7287 17.8747 44.9021C18.1748 45.7139 19.4067 45.1013 19.0652 44.264C15.3075 34.3118 14.8509 22.7929 17.3254 12.4464C17.9441 9.85979 18.82 6.57546 21.5005 5.36913C24.7508 3.88519 26.3874 6.88692 26.6416 9.72433C27.1086 15.3737 25.2986 21.108 23.8259 26.4789C23.445 27.8424 25.054 28.6594 26.0629 27.8527C29.0639 25.474 32.0809 23.1623 35.5827 21.5475C37.1744 20.8135 39.1164 20.0665 40.9414 20.1603C43.8747 20.3073 43.1732 22.843 42.1782 24.7421C40.1975 28.4319 36.4544 30.8112 32.9817 32.8432C29.2415 34.939 25.3959 36.742 21.4545 38.1438Z" fill="#3C2C16"/>
</svg>
