<svg width="57" height="58" viewBox="0 0 57 58" fill="none" xmlns="http://www.w3.org/2000/svg">
<path d="M48.6421 20.1003L48.6248 20.0809C47.9328 19.3287 46.8083 19.5559 45.9869 19.721C45.7865 19.7614 45.5999 19.7994 45.455 19.8174C44.3633 19.8893 43.3972 20.1173 42.3747 20.3597C42.1122 20.4217 41.8448 20.4856 41.5814 20.5451C40.9335 20.6618 40.2925 20.7245 39.6147 20.7907C38.6869 20.8811 37.728 20.9749 36.7391 21.2242C35.4898 21.6001 34.6024 21.6491 33.3279 21.61C33.159 21.5928 32.9525 21.5857 32.713 21.5883C32.6727 21.4785 32.6112 21.3761 32.5119 21.3092C32.3702 21.1734 32.2093 20.976 32.1792 20.9431C31.3768 20.1852 30.5803 19.3153 29.6272 18.16C29.3055 17.6232 28.8764 16.9191 28.4057 16.2275C28.0265 15.6838 27.6241 15.1678 27.2345 14.6688C26.4117 13.6156 25.6355 12.62 25.1065 11.4191C24.6612 10.5266 23.7661 9.30349 22.8692 8.73684C22.6514 8.58217 22.3971 8.4569 22.1529 8.38402L22.1515 8.35642C22.1236 8.3551 22.0976 8.35516 22.0552 8.35652C21.9134 8.32195 21.7941 8.30763 21.6827 8.31212L21.1192 8.5084L21.1323 8.55962C20.3094 8.99386 20.1344 10.0073 19.9871 10.935C19.7551 11.3832 19.7036 11.9644 19.6765 12.4857C19.6037 12.8853 19.5439 13.2876 19.4831 13.6946C19.4208 14.1161 19.357 14.5432 19.2813 14.9572C19.1636 15.4195 19.0789 15.8489 19.026 16.2416C18.9601 16.5373 18.8892 16.8293 18.8189 17.1189C18.5551 18.202 18.2829 19.3221 18.3144 20.5809C18.3979 21.7433 18.4382 22.9475 18.4254 23.9329C18.47 24.3124 18.5132 24.6713 18.3842 25.1372C18.3744 25.2372 18.3277 25.4357 18.2832 25.603C18.0591 25.668 17.8384 25.7344 17.6364 25.8022C17.3475 25.8778 17.0546 25.9429 16.7623 26.0078C16.4669 26.0739 16.1716 26.14 15.8639 26.2198C15.0896 26.4606 14.4148 26.7449 13.7613 27.0204C13.1143 27.2928 12.5027 27.551 11.7929 27.7692C11.4025 27.9179 10.9646 28.0101 10.5011 28.1072C10.033 28.2053 9.55891 28.2874 9.14055 28.4643L8.99767 28.5025C7.96351 28.7789 5.80712 29.3532 5.84303 31.0314C5.85243 31.1263 5.87252 31.2086 5.89519 31.2829C5.83304 31.5055 5.83206 31.754 5.90214 32.0506C6.06436 32.4767 6.47677 32.766 6.77737 32.9777L7.13047 33.2607C7.65974 33.7038 8.25989 34.2055 8.93777 34.509C10.3675 35.2032 11.8117 35.522 13.3406 35.86C14.0453 36.0162 14.7735 36.1768 15.5069 36.3805C15.7539 36.4404 16.0071 36.4944 16.261 36.5481C17.9607 36.9103 19.4286 37.223 19.4304 39.0737C19.4309 39.9409 19.4911 40.8374 19.5478 41.7042C19.6198 42.7888 19.6938 43.9098 19.6527 44.9721C19.5577 47.4326 19.4505 50.221 20.6351 52.6399C20.9378 53.2577 21.3379 53.5848 21.8234 53.6101C23.0112 53.6745 24.2135 51.7631 24.7903 50.8448L24.882 50.6925C25.0949 50.2178 25.4525 49.5545 25.5821 49.3688L25.6717 49.2644C25.8067 49.0505 25.9566 48.8037 26.1062 48.5577C26.2483 48.3236 26.3901 48.0904 26.5403 47.8462C26.8731 47.1052 27.6729 45.6556 27.6717 45.6561C27.9284 45.2505 28.2245 44.8467 28.5104 44.4567C28.8048 44.0557 29.1088 43.6413 29.3779 43.2147C29.5148 42.9981 29.6389 42.811 29.7625 42.6241L29.8301 42.521C30.3063 42.7066 30.7815 42.8933 31.255 43.0862C31.8836 43.5132 32.7562 43.7468 33.2458 43.8753L33.646 44.0364C33.9453 44.1579 34.2461 44.2795 34.5738 44.4001C35.0031 44.5234 35.619 44.6621 36.1461 44.6343C36.4499 44.6937 36.7558 44.7494 37.0695 44.8071L37.8796 44.9576C38.2205 45.0113 38.9003 45.1812 39.6195 45.3607C40.5314 45.5885 41.4753 45.8244 42.0545 45.9075C42.2357 45.9257 42.466 45.973 42.722 46.0252C43.4992 46.1833 44.4846 46.3845 45.2446 46.0951C45.5215 45.9897 45.7686 45.819 45.9634 45.5572C46.5969 44.6679 46.1264 43.5375 45.7834 42.7122C45.7285 42.5792 45.6754 42.4525 45.6362 42.3514C44.971 40.2592 44.2897 38.651 43.4808 37.2685C43.2451 36.9302 42.9853 36.6003 42.7263 36.2709C42.4827 35.9616 42.2397 35.652 42.0164 35.335C41.8279 34.8733 40.961 33.1467 40.2264 32.4782C39.8415 32.2353 39.5416 31.9608 39.2258 31.6706C40.4003 31.0132 41.3727 30.1685 42.3159 29.3504C42.6651 29.0473 43.0137 28.7445 43.3855 28.4399C44.8064 27.1559 45.9839 25.8753 47.3704 24.3661L47.6033 24.0771C48.3963 23.1025 49.7235 21.4746 48.6421 20.1003ZM40.3223 27.5797C39.8462 28.0183 39.354 28.4721 38.9115 28.8367C38.3561 29.1852 37.9169 29.4199 37.6058 29.5405L37.4388 29.5802C36.7261 29.7483 35.65 30.0012 35.8513 31.1982C35.9455 32.3004 36.8104 33.0212 37.5728 33.6573C37.9221 33.9489 38.252 34.2246 38.4885 34.5134C38.8155 34.9125 39.0962 35.4559 39.369 35.9804C39.5725 36.3745 39.7653 36.7461 40.0008 37.1006C40.1211 37.2467 40.2483 37.3908 40.3788 37.5359C40.6679 37.8595 40.9668 38.1941 41.1962 38.6065C41.5338 39.1443 41.8611 39.88 42.1775 40.5911C42.3477 40.9754 42.5154 41.353 42.6824 41.6936C42.8623 42.0609 42.8604 42.2591 42.8055 42.318C42.6464 42.4833 41.8677 42.4192 41.0668 42.0768C40.7962 41.9605 39.8814 41.5167 39.6699 41.3617L39.6378 41.2868L39.5044 41.2371C39.0167 41.0566 38.5524 40.8672 38.0872 40.6774C37.6161 40.4849 37.1446 40.2933 36.6705 40.1189C36.3566 39.9776 35.4292 39.7572 35.2137 39.8392C35.2125 39.8397 35.2119 39.8399 35.2106 39.8404C34.951 39.8451 33.7138 39.2801 33.1198 39.0086C32.6859 38.8104 32.3431 38.6542 32.1694 38.5966C31.929 38.5173 31.6686 38.4 31.3928 38.2758C30.6691 37.9497 29.8489 37.5788 29.0556 37.779C27.9024 38.0712 27.1165 39.753 26.4812 41.1062C26.3006 41.4905 26.1311 41.8538 25.9858 42.1052C25.8912 42.2685 25.7441 42.5691 25.5627 42.9418C24.0903 45.964 23.4963 46.5472 23.2536 46.5061C22.8627 46.4377 22.9233 45.4173 22.9635 44.7419C22.9881 44.3319 23.0091 43.9774 22.9581 43.729C22.7454 42.6924 22.6063 41.6144 22.472 40.5732C22.3747 39.8174 22.2741 39.0362 22.1458 38.2766C22.1165 38.0777 22.0986 37.8258 22.0791 37.5549C22.0161 36.6953 21.9451 35.7207 21.5099 35.2735C21.0688 34.8222 20.4258 34.7487 19.8583 34.6835C19.5892 34.6525 19.3348 34.6228 19.1414 34.558L18.9773 34.5017C18.8311 34.4519 18.6815 34.4006 18.5009 34.3436C18.1579 34.2605 17.8194 34.1856 17.4807 34.11L17.0091 34.0049C16.4681 33.858 15.8981 33.7123 15.3296 33.5668C14.5377 33.3644 13.7464 33.1617 13.0739 32.9721C12.574 32.7484 11.9049 32.3995 11.0286 31.9072C10.9203 31.8093 10.7953 31.7043 10.658 31.5949L10.7835 31.5422C11.365 31.2955 11.9468 31.0494 12.5633 30.8132C13.127 30.5382 13.7209 30.3591 14.3497 30.1717C14.7566 30.0498 15.1767 29.9236 15.6107 29.7583C15.6193 29.7551 15.6279 29.7518 15.6371 29.7483C15.9749 29.5831 16.2943 29.4011 16.6108 29.2208C17.1901 28.8906 17.7345 28.5778 18.3451 28.3981C18.7057 28.317 19.0071 28.2409 19.2756 28.1246C20.3617 27.846 21.8527 27.4625 22.2696 26.3829C22.5755 25.702 22.4013 23.7327 22.3647 23.3854C22.3919 22.3826 22.1729 21.3884 21.9601 20.427C21.7724 19.5777 21.5958 18.7762 21.5761 17.9767C21.5468 16.5596 21.8816 15.3251 22.2366 14.0182L22.2477 13.9183C22.246 13.8824 22.2448 13.8442 22.2442 13.8037C23.9282 15.2986 25.3403 17.0763 26.7104 18.801C27.0347 19.2097 27.3587 19.6177 27.6636 19.9901L27.7791 20.1696C27.8388 20.2601 27.8977 20.3501 27.9431 20.4249C28.0057 20.5508 28.0773 20.7056 28.158 20.8787C28.6636 21.9703 29.5096 23.797 30.7775 24.2195C31.3587 24.4186 31.9209 24.3296 32.4172 24.2503C32.6146 24.2187 32.8046 24.1879 32.9535 24.1803C33.1673 24.1917 33.383 24.208 33.6001 24.2244C34.3773 24.2828 35.1811 24.3429 35.9976 24.2057C36.5445 24.1007 37.0751 23.9803 37.6016 23.8606C38.6968 23.6116 39.731 23.3759 40.8948 23.285C41.4515 23.2185 41.9938 23.0718 42.517 22.9302C43.1676 22.7541 43.7822 22.5869 44.4358 22.5735C44.8931 22.4971 45.2716 22.45 45.6448 22.4056C44.5974 23.7899 43.2249 25.0294 41.7926 26.2777C41.3023 26.6773 40.8043 27.1362 40.3223 27.5797Z" fill="#F8A326"/>
</svg>
