<svg width="82" height="98" viewBox="0 0 82 98" fill="none" xmlns="http://www.w3.org/2000/svg">
<path d="M49.4048 25.2929C49.7832 30.9688 54.7023 35.3833 60.3781 35.005C66.054 34.6266 70.4685 29.7075 70.0901 24.0316C69.7117 18.3558 64.7927 13.9412 59.1168 14.3196C53.441 14.5719 49.0264 19.491 49.4048 25.2929Z" fill="#8E6A50"/>
<path d="M3.49286 28.0678C3.87125 33.7437 8.79032 38.1583 14.4662 37.7799C20.142 37.4015 24.5566 32.4824 24.1782 26.8065C23.7998 21.1307 18.8807 16.7161 13.2049 17.0945C7.52902 17.3468 3.2406 22.2659 3.49286 28.0678Z" fill="#936952"/>
<path d="M56.4678 22.7704C71.7295 33.4915 80.1802 63.5105 70.4682 74.4838C59.621 86.7184 14.8448 89.6194 6.01574 77.2586C-2.81337 64.8979 -0.0385119 32.8609 14.7187 24.284C24.683 18.6081 44.3593 14.3197 56.4678 22.7704Z" fill="#A27659"/>
<path d="M55.5843 50.3929C55.4582 49.0054 56.5934 47.7441 57.9808 47.618C59.3682 47.4919 60.6295 48.627 60.7556 50.0145C60.8818 51.4019 59.7466 52.6632 58.3592 52.7893C56.8456 52.9155 55.5843 51.7803 55.5843 50.3929Z" fill="#3C2C16"/>
<path d="M15.7281 53.5462C15.602 52.1587 16.7372 50.8974 18.1246 50.7713C19.512 50.6452 20.7733 51.7804 20.8995 53.1678C21.0256 54.5552 19.8904 55.8165 18.503 55.9427C16.9894 56.0688 15.7281 55.0597 15.7281 53.5462Z" fill="#3C2C16"/>
<path d="M45.7463 50.519C50.4131 54.429 51.2961 65.6546 49.6564 68.934C47.386 73.3485 30.4846 74.6099 27.8359 69.8169C25.1871 65.024 24.9349 54.6813 29.7278 50.7713C33.0072 48.1225 42.0886 47.4919 45.7463 50.519Z" fill="#BB9D6C"/>
<path d="M32.1251 55.6904C32.2513 57.4562 34.7739 58.7175 37.9271 58.4652C40.9542 58.3391 43.4768 56.6994 43.3507 54.9336C43.2246 53.1678 40.702 51.9065 37.5487 52.1587C34.3955 52.411 31.999 53.9245 32.1251 55.6904Z" fill="#3C2C16"/>
<path d="M45.999 58.7174C45.7467 60.4832 44.6116 62.1229 43.2241 63.0058C41.7106 64.0149 39.9448 64.3933 38.3051 64.5194C36.6654 64.6455 34.7734 64.3933 33.2599 63.5104C31.7463 62.7536 30.3589 61.3661 29.8544 59.7265C29.7282 59.4742 29.8544 59.3481 30.1066 59.2219C30.2327 59.2219 30.485 59.2219 30.6111 59.3481C31.3679 60.6094 32.5031 61.7445 33.8905 62.2491C35.278 62.8797 36.7915 63.0058 38.3051 62.8797C39.8186 62.7536 41.3322 62.5013 42.5935 61.7445C43.8548 60.9878 44.8638 59.8526 45.3684 58.4652C45.4945 58.2129 45.6206 58.2129 45.8729 58.2129C45.8729 58.339 45.999 58.5913 45.999 58.7174Z" fill="#3B2B15"/>
<path d="M42.0896 83.8173L54.072 78.0153C56.8468 76.6279 60.0001 78.7721 59.7478 81.9254L58.7388 94.16C58.4865 97.061 55.3333 98.7007 52.8107 97.1871L42.0896 90.7545C40.8283 89.9977 39.3147 89.9977 38.1796 90.7545L27.2062 97.061C24.5575 98.5746 21.2781 96.6826 21.2781 93.6555L21.4043 81.547C21.4043 78.646 24.5575 76.754 27.0801 78.1415L38.6841 84.0696C39.6931 84.3218 40.9544 84.3219 42.0896 83.8173Z" fill="black"/>
<path d="M71.2248 31.2211C71.9816 31.3472 72.7384 31.4733 73.369 31.5995C75.5132 31.9779 77.5313 32.4824 79.4233 33.6176C80.8107 34.3743 81.3152 35.5095 80.8107 37.0231C80.18 39.0412 78.6665 40.0502 76.7745 40.6808C73.9997 41.5638 71.0987 41.6899 68.1977 41.4376C65.0444 41.1854 62.0173 40.9331 58.9902 40.3025C54.7018 39.4195 50.6656 38.2844 46.7556 36.2663C44.1068 34.8789 41.4581 33.6176 39.0616 31.9779C36.7913 30.4643 34.5209 28.5724 32.5029 26.8065C30.9893 25.4191 29.6019 23.9055 28.3406 22.392C27.3315 21.1307 26.5747 19.6171 26.5747 17.9774C26.5747 16.59 26.827 15.2026 28.0883 14.3197C28.5928 13.9413 29.4757 13.9413 30.2325 14.0674C32.3767 14.4458 34.2687 15.581 36.1606 16.8423C36.4129 17.0945 36.7913 17.2206 37.2958 17.4729C37.4219 17.0945 37.5481 16.8423 37.6742 16.59C38.9355 13.3106 40.3229 10.0312 41.5842 6.75185C42.8455 3.47246 45.3681 1.58051 48.6475 0.571474C51.9269 -0.311437 55.2063 -0.0591766 58.4857 0.571474C62.2696 1.45438 65.8012 2.96795 69.2067 4.98603C72.2338 6.75185 74.8826 8.89606 76.1439 12.3016C77.1529 14.698 77.1529 17.0945 76.27 19.3649C74.8826 23.1488 73.369 26.8065 71.8555 30.4643C71.4771 30.5904 71.3509 30.8427 71.2248 31.2211Z" fill="black"/>
</svg>
