<svg width="33" height="37" viewBox="0 0 33 37" fill="none" xmlns="http://www.w3.org/2000/svg">
<path d="M26.8947 1.9942L26.8948 1.99417C26.9164 1.96866 26.9396 1.94366 26.9611 1.92066H3.98045C2.8445 1.92066 1.92021 2.84476 1.92021 3.98045V34.8877L5.46673 33.737L5.4976 33.8321L5.46674 33.737C5.51793 33.7204 5.57107 33.7121 5.62421 33.7121C5.67735 33.7121 5.73049 33.7204 5.78167 33.737L5.75082 33.8321L5.78169 33.737L9.8383 35.0532L13.8918 33.737L13.8918 33.737C13.9938 33.7039 14.1038 33.7031 14.2073 33.7375C14.2074 33.7376 14.2076 33.7376 14.2078 33.7377L18.257 35.0532L22.3091 33.737L22.3091 33.737C22.4115 33.7038 22.5217 33.7038 22.6241 33.737L22.6241 33.737L26.1653 34.8876V18.1582V3.98045C26.1653 3.87227 26.1711 3.76556 26.182 3.66053C26.182 3.66052 26.182 3.66051 26.182 3.66051L26.2815 3.67081C26.2835 3.65135 26.2867 3.63232 26.29 3.61328C26.2923 3.59993 26.2946 3.58657 26.2964 3.57307L26.1974 3.55943C26.1983 3.55291 26.1992 3.54633 26.2001 3.53971C26.2084 3.47882 26.2173 3.41388 26.2306 3.35025L26.3285 3.37068L26.2306 3.35025C26.2362 3.32306 26.2446 3.29229 26.2519 3.26592C26.2554 3.25284 26.2587 3.24083 26.2612 3.23089C26.2612 3.23089 26.2612 3.23088 26.2612 3.23088L26.3582 3.25528C26.3609 3.24445 26.3636 3.23361 26.3663 3.22277C26.3781 3.17502 26.39 3.12728 26.4047 3.08074C26.4129 3.0551 26.4224 3.03018 26.432 3.00525C26.4371 2.99179 26.4423 2.97833 26.4473 2.96475C26.4508 2.95506 26.4543 2.94536 26.4578 2.93566C26.4739 2.89095 26.49 2.84627 26.5088 2.80287L26.8947 1.9942ZM26.8947 1.9942C26.8605 2.03468 26.8286 2.0769 26.7987 2.11655L26.7891 2.1293C26.783 2.13738 26.7765 2.14589 26.7697 2.15472C26.7508 2.17929 26.73 2.20632 26.7113 2.23343L26.7113 2.23347M26.8947 1.9942L26.7113 2.23347M26.7113 2.23347C26.6822 2.27548 26.6556 2.31917 26.6306 2.36007M26.7113 2.23347L26.6306 2.36007M26.6306 2.36007C26.6267 2.36651 26.6228 2.37288 26.619 2.37916M26.6306 2.36007L26.619 2.37916M26.619 2.37916C26.6134 2.38833 26.6072 2.39819 26.6007 2.40852M26.619 2.37916L26.6007 2.40852M26.6007 2.40852C26.5847 2.43412 26.5669 2.46258 26.5514 2.4905L26.6007 2.40852ZM1.56722 36.0751L1.56758 36.075L5.62421 34.7588L9.68084 36.075L9.7117 35.9799L9.68085 36.075C9.78323 36.1082 9.89339 36.1082 9.99578 36.075L9.99581 36.075L14.0493 34.7588L18.0985 36.0743C18.0987 36.0744 18.099 36.0744 18.0992 36.0745C18.2026 36.1088 18.3125 36.108 18.4144 36.075L18.4145 36.075L22.4666 34.7588L26.5179 36.075L26.5181 36.075C26.5693 36.0916 26.6224 36.0999 26.6754 36.0999C26.7819 36.0999 26.8872 36.0661 26.975 36.0026L26.9752 36.0024C27.1074 35.9062 27.1855 35.7529 27.1855 35.5896V18.6685H31.8091C32.091 18.6685 32.3193 18.4398 32.3193 18.1582V3.98045C32.3193 2.28189 30.9407 0.9 29.2457 0.9H3.98045C2.28168 0.9 0.9 2.28168 0.9 3.98045V35.5896C0.9 35.7528 0.978033 35.9062 1.11018 36.0021C1.24214 36.0978 1.41191 36.1248 1.56722 36.0751ZM29.2457 1.92066C30.3776 1.92066 31.299 2.84446 31.299 3.98045V17.6478H27.1855V3.98045C27.1855 2.84476 28.1098 1.92066 29.2457 1.92066Z" fill="#FFF" stroke="#F19000" stroke-width="1.2"/>
<path d="M5.8061 27.8401H17.5163C17.7981 27.8401 18.0264 27.6114 18.0264 27.3298C18.0264 27.0481 17.7981 26.8194 17.5163 26.8194H5.8061C5.52428 26.8194 5.296 27.0481 5.296 27.3298C5.296 27.6114 5.52428 27.8401 5.8061 27.8401Z" fill="#F19000" stroke="#F19000" stroke-width="0.2"/>
<path d="M5.8061 23.2542H21.268C21.5498 23.2542 21.7781 23.0255 21.7781 22.7438C21.7781 22.4621 21.5498 22.2335 21.268 22.2335H5.8061C5.52428 22.2335 5.296 22.4621 5.296 22.7438C5.296 23.0255 5.52428 23.2542 5.8061 23.2542Z" fill="#F19000" stroke="#F19000" stroke-width="0.2"/>
<path d="M5.8061 18.6687H17.5163C17.7981 18.6687 18.0264 18.4401 18.0264 18.1584C18.0264 17.8767 17.7981 17.648 17.5163 17.648H5.8061C5.52428 17.648 5.296 17.8767 5.296 18.1584C5.296 18.4401 5.52428 18.6687 5.8061 18.6687Z" fill="#F19000" stroke="#F19000" stroke-width="0.2"/>
<path d="M5.8061 14.0828H22.1151C22.3969 14.0828 22.6252 13.8541 22.6252 13.5724C22.6252 13.2908 22.3969 13.0621 22.1151 13.0621H5.8061C5.52428 13.0621 5.296 13.2908 5.296 13.5724C5.296 13.8541 5.52428 14.0828 5.8061 14.0828Z" fill="#F19000" stroke="#F19000" stroke-width="0.2"/>
<path d="M5.8061 9.49683H20.6218C20.9036 9.49683 21.1319 9.26818 21.1319 8.9865C21.1319 8.70482 20.9036 8.47617 20.6218 8.47617H5.8061C5.52428 8.47617 5.296 8.70482 5.296 8.9865C5.296 9.26818 5.52428 9.49683 5.8061 9.49683Z" fill="#F19000" stroke="#F19000" stroke-width="0.2"/>
</svg>
