<svg width="29" height="28" viewBox="0 0 29 28" fill="none" xmlns="http://www.w3.org/2000/svg">
<path d="M12.4842 24.5731C12.4842 23.9309 12.2937 23.3032 11.937 22.7692C11.5802 22.2352 11.0731 21.8191 10.4798 21.5733C9.88646 21.3275 9.2336 21.2632 8.60375 21.3885C7.9739 21.5138 7.39535 21.8231 6.94125 22.2772C6.48715 22.7313 6.17791 23.3098 6.05263 23.9397C5.92734 24.5695 5.99164 25.2224 6.2374 25.8157C6.48315 26.409 6.89932 26.9161 7.43328 27.2729C7.96725 27.6296 8.59501 27.8201 9.2372 27.8201C10.0984 27.8201 10.9242 27.478 11.5332 26.8691C12.1421 26.2601 12.4842 25.4343 12.4842 24.5731ZM7.96439 24.5731C7.96439 24.3162 8.04056 24.0651 8.18328 23.8515C8.32599 23.638 8.52883 23.4715 8.76615 23.3732C9.00348 23.2749 9.26462 23.2492 9.51656 23.2993C9.7685 23.3494 9.99992 23.4731 10.1816 23.6547C10.3632 23.8364 10.4869 24.0678 10.537 24.3197C10.5871 24.5717 10.5614 24.8328 10.4631 25.0701C10.3648 25.3075 10.1983 25.5103 9.98475 25.653C9.77116 25.7957 9.52006 25.8719 9.26318 25.8719C8.91928 25.871 8.58976 25.7338 8.3469 25.4903C8.10403 25.2469 7.96764 24.917 7.96764 24.5731H7.96439Z" fill=""/>
<path d="M24.824 24.5731C24.824 23.9309 24.6336 23.3032 24.2768 22.7692C23.92 22.2352 23.4129 21.8191 22.8196 21.5733C22.2263 21.3275 21.5734 21.2632 20.9436 21.3885C20.3137 21.5138 19.7352 21.8231 19.2811 22.2772C18.827 22.7313 18.5178 23.3098 18.3925 23.9397C18.2672 24.5695 18.3315 25.2224 18.5772 25.8157C18.823 26.409 19.2392 26.9161 19.7731 27.2729C20.3071 27.6296 20.9349 27.8201 21.577 27.8201C22.0034 27.8201 22.4257 27.7361 22.8196 27.5729C23.2135 27.4097 23.5715 27.1706 23.873 26.8691C24.1745 26.5676 24.4137 26.2096 24.5769 25.8157C24.74 25.4217 24.824 24.9995 24.824 24.5731ZM20.3042 24.5731C20.3042 24.3162 20.3804 24.0651 20.5231 23.8515C20.6658 23.638 20.8687 23.4715 21.106 23.3732C21.3433 23.2749 21.6045 23.2492 21.8564 23.2993C22.1083 23.3494 22.3398 23.4731 22.5214 23.6547C22.703 23.8364 22.8267 24.0678 22.8769 24.3197C22.927 24.5717 22.9012 24.8328 22.8029 25.0701C22.7046 25.3075 22.5382 25.5103 22.3246 25.653C22.111 25.7957 21.8599 25.8719 21.603 25.8719C21.4319 25.8728 21.2623 25.8398 21.104 25.7749C20.9457 25.71 20.8017 25.6145 20.6804 25.4938C20.5591 25.3731 20.4629 25.2296 20.3972 25.0716C20.3315 24.9136 20.2977 24.7442 20.2977 24.5731H20.3042Z" fill=""/>
<path d="M6.76018 3.75349L5.51984 0H0V1.94818H4.11066L8.47783 15.1666L6.3738 20.2741H24.8231V18.3259H9.28308L10.1825 16.1407L26.3849 14.4782L28.872 4.08793L6.76018 3.75349ZM24.8231 12.6794L10.2117 14.1795L7.40633 5.71141L26.4108 5.99715L24.8231 12.6794Z" fill=""/>
</svg>
