<svg width="18" height="17" viewBox="0 0 18 17" fill="none" xmlns="http://www.w3.org/2000/svg">
<path d="M8.88529 3.9209C6.24572 3.9209 4.09766 5.97557 4.09766 8.50038C4.09766 11.0252 6.24572 13.0788 8.88529 13.0788C11.5249 13.0788 13.6718 11.0252 13.6718 8.50038C13.6718 5.97557 11.5249 3.9209 8.88529 3.9209ZM8.88529 11.7739C6.99777 11.7739 5.46295 10.3047 5.46295 8.50038C5.46295 6.69492 6.99777 5.22683 8.88529 5.22683C10.7717 5.22683 12.3076 6.69492 12.3076 8.50038C12.3065 10.3047 10.7717 11.7739 8.88529 11.7739Z" fill="white"/>
<path d="M14.1939 4.36375C14.5427 4.36375 14.8254 4.09333 14.8254 3.75976C14.8254 3.42618 14.5427 3.15576 14.1939 3.15576C13.8452 3.15576 13.5625 3.42618 13.5625 3.75976C13.5625 4.09333 13.8452 4.36375 14.1939 4.36375Z" fill="white"/>
<path d="M13.6529 0H4.1175C1.84315 0 0 1.7641 0 3.93957V13.0604C0 15.2359 1.84429 17 4.1175 17H13.6529C15.9273 17 17.7716 15.2359 17.7716 13.0604V3.94066C17.7716 1.7641 15.9273 0 13.6529 0ZM16.4063 13.0604C16.4063 14.5122 15.1707 15.6941 13.6529 15.6941H4.1175C2.59975 15.6941 1.36529 14.5122 1.36529 13.0604V3.94066C1.36529 2.48889 2.59975 1.30702 4.1175 1.30702H13.6529C15.1707 1.30702 16.4063 2.48781 16.4063 3.94066V13.0604Z" fill="white"/>
</svg>
