<svg width="24" height="27" viewBox="0 0 24 27" fill="none" xmlns="http://www.w3.org/2000/svg">
<path d="M14.9533 26.15L15.1033 26.15L15.1033 26L15.1033 25.7093L15.1033 17.8605L15.1033 17.5698L15.1033 17.4198L14.9533 17.4198L14.3719 17.4198L14.2219 17.4198L14.2219 17.5698L14.2219 17.8605L14.2219 25.2686L1.73121 25.2686L1.73121 1.7314L14.2219 1.7314L14.2219 9.13954L14.2219 9.43023L14.2219 9.58023L14.3719 9.58023L14.9533 9.58023L15.1033 9.58023L15.1033 9.43023L15.1033 9.13954L15.1033 1.2907L15.1033 1L15.1033 0.850001L14.9533 0.850001L14.6626 0.850001L1.29051 0.850002L0.999817 0.850002L0.849817 0.850002L0.849817 1L0.849817 1.2907L0.849819 25.7093L0.849819 26L0.849819 26.15L0.999819 26.15L1.29052 26.15L14.6626 26.15L14.9533 26.15ZM18.0438 18.6739L18.1498 18.7823L18.257 18.6751L18.466 18.4662L23.1171 13.815L23.1172 13.815L23.1195 13.8126L23.3193 13.6037L23.4207 13.4977L23.317 13.3939L23.1171 13.1941L18.466 8.54292L18.257 8.33398L18.151 8.22791L18.0449 8.33398L17.6361 8.74277L17.5324 8.84651L17.6338 8.95252L17.8336 9.16146L17.8336 9.16149L17.836 9.16384L21.7314 13.0593L6.52307 13.0593L6.23238 13.0593L6.08238 13.0593L6.08238 13.2093L6.08238 13.7907L6.08238 13.9407L6.23238 13.9407L6.52307 13.9407L21.732 13.9407L17.836 17.8452L17.8359 17.8454L17.6361 18.0451L17.5312 18.15L17.635 18.2561L18.0438 18.6739Z" fill="" stroke="" stroke-width="0.3"/>
</svg>
