<svg width="30" height="30" viewBox="0 0 30 30" fill="none" xmlns="http://www.w3.org/2000/svg">
<circle cx="15" cy="15" r="14.5" stroke="#F19000"/>
<path d="M18.6402 10.394C16.7815 8.53533 13.7561 8.53533 11.8974 10.394C11.1241 11.1673 10.6357 12.193 10.5244 13.2838C10.4132 14.3719 10.6845 15.4762 11.2869 16.3906C11.2896 16.3961 11.2923 16.3988 11.295 16.4042L15.0043 21.4919C15.0667 21.576 15.1644 21.6248 15.2675 21.6248C15.3706 21.6248 15.4683 21.576 15.5307 21.4919L19.2399 16.4042C19.2426 16.3988 19.2453 16.3961 19.248 16.3906C19.8504 15.4762 20.1217 14.3746 20.0105 13.2838C19.902 12.1957 19.4136 11.1673 18.6402 10.394ZM18.7108 16.0271L15.2675 20.7457L11.8241 16.0271C11.3059 15.2402 11.0752 14.2878 11.1702 13.3516C11.2652 12.4101 11.6858 11.5255 12.356 10.858C13.9623 9.25167 16.5726 9.25167 18.1789 10.858C18.8464 11.5255 19.267 12.4128 19.3647 13.3516C19.4597 14.2878 19.2263 15.2374 18.7108 16.0271Z" fill="#F19000" stroke="#F19000" stroke-width="0.5"/>
<path d="M15.2669 11.4497C14.1734 11.4497 13.2861 12.3397 13.2861 13.4305C13.2861 14.5213 14.1761 15.4113 15.2669 15.4113C16.3577 15.4113 17.2477 14.5213 17.2477 13.4305C17.2477 12.3397 16.3604 11.4497 15.2669 11.4497ZM15.2669 14.7601C14.5343 14.7601 13.9374 14.1631 13.9374 13.4305C13.9374 12.6979 14.5343 12.1009 15.2669 12.1009C15.9995 12.1009 16.5965 12.6979 16.5965 13.4305C16.5965 14.1631 15.9995 14.7601 15.2669 14.7601Z" fill="#F19000" stroke="#F19000" stroke-width="0.5"/>
</svg>
