<svg width="20" height="20" viewBox="0 0 20 20" fill="none" xmlns="http://www.w3.org/2000/svg">
<path d="M1.95789 13.6751C3.13814 15.3824 4.61765 16.8619 6.32489 18.0421L7.4827 18.842C8.73565 19.7101 10.2537 20.1106 11.7718 19.9737C13.29 19.8367 14.7118 19.1709 15.7891 18.0926L16.3032 17.5761C16.6319 17.2469 16.8165 16.8007 16.8165 16.3354C16.8165 15.8702 16.6319 15.424 16.3032 15.0947L14.2566 13.0506C13.9274 12.7218 13.4812 12.5372 13.0159 12.5372C12.5507 12.5372 12.1045 12.7218 11.7752 13.0506L10.5165 14.3093C10.4536 14.3702 10.3719 14.4081 10.2847 14.4168C10.1975 14.4255 10.1099 14.4046 10.0361 14.3573C8.29491 13.2015 6.80137 11.7104 5.6427 9.97109C5.59545 9.89729 5.57448 9.80971 5.5832 9.72252C5.59192 9.63534 5.62981 9.55364 5.69074 9.49067L6.94943 8.23197C7.27815 7.90275 7.46279 7.45653 7.46279 6.99129C7.46279 6.52605 7.27815 6.07983 6.94943 5.75061L4.90285 3.70403C4.57363 3.3753 4.12741 3.19067 3.66217 3.19067C3.19693 3.19067 2.75071 3.3753 2.42149 3.70403L1.90744 4.22048C0.829076 5.29781 0.163302 6.71964 0.0263264 8.23778C-0.110649 9.75592 0.289875 11.274 1.15799 12.5269L1.95789 13.6751ZM2.91872 5.23176L3.43998 4.71531C3.46898 4.68625 3.50343 4.66321 3.54135 4.64748C3.57927 4.63176 3.61992 4.62366 3.66097 4.62366C3.70202 4.62366 3.74267 4.63176 3.78059 4.64748C3.81851 4.66321 3.85296 4.68625 3.88196 4.71531L5.92854 6.76189C5.98664 6.82077 6.0192 6.90016 6.0192 6.98288C6.0192 7.0656 5.98664 7.14499 5.92854 7.20387L4.67225 8.46257C4.37197 8.76052 4.18399 9.15317 4.14021 9.57391C4.09643 9.99466 4.19953 10.4176 4.43204 10.771C5.69734 12.6688 7.32808 14.2954 9.22902 15.5559C9.58233 15.7874 10.0047 15.8899 10.4248 15.8461C10.8449 15.8024 11.237 15.615 11.535 15.3157L12.7937 14.057C12.8227 14.028 12.8572 14.0049 12.8951 13.9892C12.933 13.9735 12.9737 13.9654 13.0147 13.9654C13.0558 13.9654 13.0964 13.9735 13.1343 13.9892C13.1723 14.0049 13.2067 14.028 13.2357 14.057L15.2847 16.1156C15.3137 16.1446 15.3368 16.1791 15.3525 16.217C15.3682 16.2549 15.3763 16.2956 15.3763 16.3366C15.3763 16.3777 15.3682 16.4183 15.3525 16.4563C15.3368 16.4942 15.3137 16.5286 15.2847 16.5576L14.7706 17.0741C13.9318 17.9132 12.825 18.4313 11.6432 18.538C10.4615 18.6447 9.27979 18.3332 8.30421 17.6578L7.14641 16.8579C5.58183 15.7764 4.22599 14.4206 3.14452 12.856L2.34462 11.6982C1.66848 10.723 1.35628 9.54141 1.46252 8.35955C1.56877 7.17769 2.08671 6.07068 2.92593 5.23176H2.91872Z" fill=""/>
<path d="M9.01042 0C8.8193 4.0276e-09 8.63601 0.0759232 8.50086 0.211067C8.36572 0.346211 8.28979 0.529505 8.28979 0.720628C8.28979 0.91175 8.36572 1.09504 8.50086 1.23019C8.63601 1.36533 8.8193 1.44126 9.01042 1.44126C11.5418 1.44443 13.9686 2.45144 15.7586 4.2414C17.5486 6.03137 18.5556 8.45818 18.5587 10.9896C18.5587 11.1807 18.6347 11.364 18.7698 11.4991C18.905 11.6343 19.0882 11.7102 19.2794 11.7102C19.4705 11.7102 19.6538 11.6343 19.7889 11.4991C19.9241 11.364 20 11.1807 20 10.9896C19.9968 8.07593 18.838 5.28254 16.7777 3.22228C14.7175 1.16203 11.9241 0.0031791 9.01042 0Z" fill=""/>
<path d="M15.2174 10.9896C15.2174 11.1807 15.2934 11.364 15.4285 11.4991C15.5636 11.6343 15.7469 11.7102 15.9381 11.7102C16.1292 11.7102 16.3125 11.6343 16.4476 11.4991C16.5828 11.364 16.6587 11.1807 16.6587 10.9896C16.6561 8.96191 15.8495 7.01802 14.4158 5.58424C12.982 4.15046 11.0381 3.34385 9.01042 3.34131C8.8193 3.34131 8.63601 3.41723 8.50086 3.55238C8.36572 3.68752 8.28979 3.87081 8.28979 4.06194C8.28979 4.25306 8.36572 4.43635 8.50086 4.5715C8.63601 4.70664 8.8193 4.78256 9.01042 4.78256C10.656 4.78447 12.2337 5.43903 13.3973 6.60266C14.561 7.76629 15.2155 9.34396 15.2174 10.9896Z" fill=""/>
<path d="M8.28979 7.72014C8.28979 7.91126 8.36572 8.09456 8.50086 8.2297C8.63601 8.36484 8.8193 8.44077 9.01042 8.44077C9.68597 8.44204 10.3335 8.71096 10.8112 9.18864C11.2889 9.66633 11.5578 10.3138 11.559 10.9894C11.559 11.1805 11.635 11.3638 11.7701 11.4989C11.9053 11.6341 12.0885 11.71 12.2797 11.71C12.4708 11.71 12.6541 11.6341 12.7892 11.4989C12.9244 11.3638 13.0003 11.1805 13.0003 10.9894C12.999 9.9316 12.5783 8.9175 11.8303 8.16952C11.0823 7.42155 10.0682 7.00078 9.01042 6.99951C8.8193 6.99951 8.63601 7.07544 8.50086 7.21058C8.36572 7.34572 8.28979 7.52902 8.28979 7.72014Z" fill=""/>
</svg>
