<svg width="32" height="23" viewBox="0 0 32 23" fill="none" xmlns="http://www.w3.org/2000/svg">
    <path d="M15.7458 0.00335192C15.7194 0.00564454 15.6931 0.00939466 15.6671 0.0145851L4.62492 2.23876C4.45472 2.27407 4.30308 2.36984 4.19806 2.50835L0.142875 7.83289C0.0748207 7.92403 0.0293632 8.03002 0.0102369 8.14215C-0.0088894 8.25428 -0.00113868 8.36935 0.0328522 8.4779C0.0668432 8.58645 0.126104 8.68539 0.205767 8.76659C0.285429 8.84778 0.38322 8.90892 0.491104 8.94497L3.95093 10.0571V18.6954C3.9528 18.8452 4.00145 18.9907 4.09006 19.1116C4.17868 19.2324 4.30284 19.3225 4.44519 19.3694L15.5885 22.964C15.7344 23.012 15.8919 23.012 16.0378 22.964L27.1812 19.3694C27.3235 19.3225 27.4477 19.2324 27.5363 19.1116C27.6249 18.9907 27.6736 18.8452 27.6754 18.6954V10.0571L31.1353 8.94497C31.2431 8.90892 31.3409 8.84778 31.4206 8.76659C31.5003 8.68539 31.5595 8.58645 31.5935 8.4779C31.6275 8.36935 31.6352 8.25428 31.6161 8.14215C31.597 8.03002 31.5515 7.92403 31.4835 7.83289L27.4283 2.50835C27.3233 2.36984 27.1716 2.27407 27.0014 2.23876L15.9592 0.0145851C15.889 0.000228645 15.8171 -0.00355757 15.7458 0.00335192ZM15.8132 1.45243L24.0246 3.10371L15.8132 5.01336L7.60172 3.10371L15.8132 1.45243ZM4.90575 3.9462L14.8359 6.26024L11.567 11.0119L1.89525 7.90029L4.90575 3.9462ZM26.7206 3.9462L29.7311 7.90029L20.0593 11.0119L16.7905 6.26024L26.7206 3.9462ZM15.0943 8.42825V21.3015L5.38878 18.1674V10.5289L11.6344 12.5396C11.7819 12.5895 11.9415 12.5902 12.0894 12.5415C12.2373 12.4929 12.3654 12.3976 12.4545 12.27L15.0943 8.42825ZM16.5321 8.42825L19.1719 12.27C19.261 12.3976 19.3891 12.4929 19.537 12.5415C19.6848 12.5902 19.8445 12.5895 19.9919 12.5396L26.2376 10.5289V18.1674L16.5321 21.3015V8.42825Z"/>
</svg>