<svg viewBox="0 0 56 59" fill="none" xmlns="http://www.w3.org/2000/svg">
    <path fill-rule="evenodd" clip-rule="evenodd" d="M12.8216 19.6306C12.9134 19.2609 13.2806 19.0761 13.3724 18.7064C13.4641 18.1519 13.5559 17.6898 13.8313 17.2277L13.9231 17.1353C14.0149 16.8581 14.1067 16.5808 14.1985 16.3036C14.1985 16.3036 14.2902 16.3036 14.2902 16.2112C14.2902 16.0263 14.382 16.0263 14.382 15.9339C14.382 15.8415 14.382 15.6567 14.4738 15.5643L14.6574 15.4718C14.7492 15.3794 14.7492 15.1946 14.841 15.1022C15.0245 15.0098 15.2081 14.9173 15.2999 14.8249C15.9424 14.178 16.5849 13.3463 17.2275 12.7918C17.411 12.6993 17.5028 12.5145 17.5946 12.4221C17.6864 12.3297 17.6864 12.2373 17.7782 12.2373H17.9618V12.1448C18.0535 12.0524 18.1453 12.1448 18.2371 12.0524L18.3289 11.8676C18.4207 11.7752 18.5125 11.7752 18.6043 11.7752C18.6961 11.7752 18.6043 11.6828 18.6961 11.6828L18.9714 11.5903L19.0632 11.4055C19.2468 11.3131 19.3386 11.3131 19.5222 11.2207C19.6139 11.1283 19.7057 11.0358 19.7975 10.9434C19.8893 10.851 19.8893 10.7586 19.9811 10.7586H20.1647C20.2565 10.6662 20.2565 10.5738 20.3482 10.5738H20.5318V10.4813C20.6236 10.4813 20.899 10.3889 21.0826 10.3889C21.4497 10.2965 22.0922 10.2041 22.5512 10.1117C23.6526 9.92684 24.3869 9.74201 25.672 9.83443C25.672 9.83443 25.6719 9.92684 25.7637 9.92684C25.8555 9.92684 26.0391 9.92684 26.1309 9.92684C26.3145 9.92684 26.3145 9.83443 26.498 9.83443C26.6816 9.83443 26.7734 9.92684 26.957 9.92684C27.1406 9.92684 27.1406 9.83443 27.3241 9.83443C27.6913 9.83443 27.9666 9.83443 28.3338 9.83443C28.8845 9.83443 29.527 10.0193 30.0778 10.0193C30.8121 10.1117 31.4546 10.0193 31.9135 10.1117C31.9135 10.1117 31.9135 10.2041 32.0053 10.2041C32.0971 10.2041 32.1889 10.2041 32.2807 10.2041C32.3725 10.2041 32.4643 10.2965 32.556 10.2965C32.6478 10.2965 32.9232 10.4813 33.1068 10.5738C33.2904 10.6662 33.4739 10.6662 33.6575 10.7586C33.7493 10.7586 33.8411 10.9434 33.8411 10.9434H34.0247C34.1164 11.0358 34.1164 11.0358 34.2082 11.0358C34.3 11.0358 34.3918 11.1283 34.4836 11.1283C34.5754 11.1283 34.6672 11.2207 34.8507 11.3131H35.0343C35.2179 11.4979 35.5851 11.5903 35.9522 11.6828C35.9522 11.6828 35.9522 11.7752 36.044 11.7752C36.1358 11.7752 36.2276 11.96 36.3194 11.96C36.4111 11.96 36.4111 12.0524 36.5029 12.0524C36.5947 12.1448 36.6865 12.2373 36.7783 12.3297C36.8701 12.4221 36.9619 12.3297 37.0537 12.4221C37.1454 12.4221 37.1454 12.6069 37.1454 12.6069C37.2372 12.6993 37.4208 12.6993 37.5126 12.7918C37.6044 12.8842 37.6044 12.8842 37.6962 12.9766C38.0633 13.2538 38.7058 13.9008 39.073 14.3628C39.1648 14.4553 39.2566 14.5477 39.3484 14.6401C39.4401 14.7325 39.4401 14.9173 39.5319 15.0098C39.6237 15.1022 39.7155 15.1946 39.8073 15.287C40.4498 16.1187 40.817 16.6732 41.1841 17.6898C41.2759 17.9671 41.3677 18.2443 41.4595 18.614C41.5513 18.7064 41.6431 18.8912 41.6431 18.9837C41.7348 19.2609 41.8266 19.6306 41.9184 19.9078C41.9184 20.0002 41.9184 20.0927 41.9184 20.1851C41.9184 20.2775 42.0102 20.2775 42.0102 20.3699C42.102 20.9244 41.9184 21.5713 41.9184 22.2182C41.8266 23.05 41.8266 23.6969 41.7348 24.4362V24.6211C41.6431 24.7135 41.6431 24.8983 41.5513 25.1756C41.4595 25.3604 41.3677 25.5452 41.3677 25.6376C41.2759 25.8225 41.3677 26.0073 41.2759 26.1921C41.2759 26.1921 41.1841 26.1921 41.1841 26.2846C41.0923 26.5618 41.0923 26.7466 41.0005 26.9315V27.1163C40.817 27.3011 40.7252 27.8556 40.6334 28.1329C40.6334 28.2253 40.4498 28.2253 40.4498 28.3177C40.358 28.5026 40.2662 28.595 40.1744 28.7798C40.0827 28.9646 39.9909 29.0571 39.8991 29.2419C39.8073 29.4267 39.7155 29.5191 39.6237 29.704C39.6237 29.7964 39.5319 29.704 39.5319 29.7964C39.5319 30.0736 38.9812 30.3509 38.7058 30.6281C38.6141 30.7206 38.6141 30.813 38.6141 30.9054C38.6141 30.9978 38.4305 30.9978 38.4305 31.0902C38.2469 31.2751 38.1551 31.4599 37.9715 31.5523C37.8797 31.5523 37.8797 31.6447 37.8797 31.6447C37.788 31.7371 37.6044 31.8295 37.5126 31.8295L37.329 31.922C37.2372 31.922 37.1454 32.0144 37.0537 32.0144C36.9619 32.1068 36.9619 32.2916 36.8701 32.2916C36.7783 32.384 36.6865 32.2916 36.5947 32.3841C36.5029 32.3841 36.5947 32.4765 36.5029 32.4765L36.3194 32.5689C36.2276 32.6613 36.2276 32.7537 36.1358 32.7537C36.044 32.8461 35.8604 32.7537 35.7686 32.8461C35.6768 32.8461 35.6768 33.031 35.5851 33.031C35.4933 33.1234 35.4015 33.1234 35.3097 33.2158C35.2179 33.2158 35.1261 33.4006 35.1261 33.4006C35.0343 33.493 34.8507 33.4006 34.759 33.493C34.6672 33.493 34.5754 33.6779 34.5754 33.6779C34.4836 33.6779 34.3918 33.6779 34.3918 33.6779C34.3 33.6779 34.2082 33.7703 34.1164 33.7703C34.0247 33.7703 34.0247 33.8627 34.0247 33.8627C33.4739 33.9551 32.8314 33.9551 32.1889 34.0475C31.3628 34.14 30.7203 34.4172 29.8942 34.2324C29.8942 34.2324 29.8942 34.14 29.8024 34.14H29.7106L29.6188 34.0475C29.1599 33.9551 28.6092 33.8627 28.1502 33.7703C28.0584 33.7703 27.7831 33.5855 27.6913 33.5855C27.5995 33.5855 27.5077 33.5855 27.5077 33.5855C27.4159 33.5855 27.3241 33.4006 27.3241 33.4006C27.2323 33.3082 27.1406 33.4006 27.0488 33.3082C26.957 33.3082 26.957 33.1234 26.8652 33.1234C26.7734 33.031 26.6816 33.1234 26.5898 33.031C26.498 32.9385 26.3145 32.7537 26.2227 32.6613C26.1309 32.5689 26.0391 32.5689 25.9473 32.5689C25.8555 32.5689 25.9473 32.4765 25.8555 32.4765H25.7637C25.6719 32.384 25.4884 32.1992 25.3966 32.1068C25.3048 32.0144 25.3048 31.922 25.213 31.922C25.1212 31.8296 25.0294 31.922 24.9376 31.8295C24.8459 31.7371 24.6623 31.5523 24.5705 31.4599C24.2951 31.1826 24.2033 31.1826 24.0198 30.813C24.0198 30.7206 23.928 30.813 23.928 30.7206C23.928 30.5357 23.7444 30.5357 23.7444 30.3509C23.7444 30.1661 23.5608 30.0736 23.469 29.9812C23.1937 29.6116 22.8265 28.7798 22.6429 28.3177C22.4594 27.5784 22.3676 26.7466 22.4594 26.0073C22.5512 25.5452 22.8265 25.0831 23.1019 24.5287C23.1937 24.3438 23.2855 24.159 23.3773 23.9741C23.469 23.8817 23.469 23.7893 23.5608 23.6969C23.6526 23.6045 23.6526 23.5121 23.7444 23.4197L23.8362 23.1424C24.0198 22.9576 24.2033 22.6803 24.3869 22.3107L24.5705 22.2182V22.0334C24.7541 21.8486 24.9376 21.7562 25.1212 21.5713C25.213 21.4789 25.3048 21.2941 25.4884 21.2017L25.7637 21.1092V21.0168H25.9473C25.9473 21.0168 26.2227 20.7396 26.4063 20.7396C26.498 20.7396 26.7734 20.6472 26.957 20.5547C27.5995 20.3699 28.1502 20.2775 28.701 20.3699C28.9763 20.3699 29.2517 20.4623 29.527 20.5547C29.6188 20.5547 29.527 20.6472 29.6188 20.6472C29.8024 20.6472 29.8942 20.9244 29.986 21.0168C30.0778 21.1092 30.2613 21.1092 30.2613 21.2017C30.3531 21.2941 30.3531 21.4789 30.3531 21.5713C30.3531 21.5713 30.4449 21.5713 30.4449 21.6637C30.4449 21.6637 30.3531 22.3107 30.4449 22.3107C30.7203 22.5879 30.2613 23.2348 30.0778 23.5121C29.8024 23.7893 29.4353 23.9742 29.1599 24.3438C28.8845 24.6211 28.701 24.9907 28.5174 25.3604C28.5174 25.4528 28.4256 25.3604 28.4256 25.4528L28.3338 25.6376C28.242 25.7301 28.1502 25.8225 28.1502 26.0073C28.0584 26.5618 27.9666 27.2087 28.3338 27.7632L28.4256 28.0405H28.5174V28.2253H28.6092V28.4101C28.7927 28.595 28.8845 28.7798 29.1599 28.9646C29.2517 28.9646 29.2517 29.0571 29.3435 29.0571C29.527 29.1495 29.8024 29.5191 30.1696 29.5191C30.5367 29.6116 30.9039 29.5191 31.271 29.4267C31.3628 29.4267 31.3628 29.4267 31.4546 29.4267C32.1889 29.2419 33.015 29.0571 33.6575 28.5026C33.7493 28.4101 33.8411 28.2253 33.9329 28.1329C34.0247 28.0405 34.1164 27.9481 34.2082 27.8556C34.3918 27.5784 34.5754 27.3011 34.6672 27.0239C34.759 26.9315 34.9425 26.8391 34.9425 26.7466V26.5618H35.0343V26.377C35.3097 26.1921 35.4015 25.3604 35.5851 24.7135C35.7686 24.159 35.9522 23.6045 36.044 23.1424C36.1358 22.6803 36.1358 22.2182 36.1358 21.7562C36.1358 21.2941 36.2276 20.832 36.1358 20.4623C36.044 20.0927 35.6768 19.4457 35.3097 18.9837C35.2179 18.8912 35.1261 18.8912 35.1261 18.7988V18.614L34.9425 18.5216C35.585 18.5216 35.5851 18.4292 35.5851 18.3367L35.4015 18.2443C35.3097 18.1519 35.3097 17.9671 35.2179 17.8747C34.9425 17.5974 34.5754 17.3202 34.3 16.9505C34.2082 16.7657 34.0247 16.6732 33.9329 16.5808C33.6575 16.396 33.015 16.1188 32.556 15.9339C32.2807 15.8415 32.0053 15.7491 31.73 15.6567C31.73 15.6567 31.73 15.5643 31.6382 15.5643C31.4546 15.5643 31.3628 15.5643 31.1792 15.4718C30.5367 15.1946 28.9763 15.1022 27.8749 15.1022C26.4063 15.1022 24.7541 14.9173 23.8362 15.4718C23.7444 15.4718 23.8362 15.5643 23.7444 15.5643C23.5608 15.5643 23.3772 15.7491 23.2855 15.8415C22.8265 16.2112 22.184 16.7657 21.7251 17.3202C21.5415 17.5974 21.0826 17.6898 20.8072 17.9671C20.7154 18.0595 20.8072 18.2443 20.7154 18.3367C20.7154 18.4292 20.5318 18.5216 20.5318 18.5216C20.44 18.614 20.5318 18.7064 20.44 18.7988C20.44 18.8912 20.2565 18.9837 20.2565 18.9837C20.1647 19.0761 20.2565 19.1685 20.1647 19.2609C20.1647 19.3533 19.9811 19.4457 19.9811 19.4457C19.8893 19.5382 19.9811 19.6306 19.8893 19.723C19.8893 19.8154 19.7057 19.9078 19.7057 19.9078C19.7057 20.0002 19.7057 20.3699 19.6139 20.3699H19.5222C19.4304 20.6472 19.3386 21.0168 19.2468 21.3865V21.5713H19.155V21.7562C19.0632 21.8486 19.0632 21.8486 19.0632 21.941L18.9714 22.2182H18.8796C18.7879 22.4031 18.7879 22.5879 18.7879 22.6803C18.7879 22.7727 18.6043 22.8652 18.6043 22.8652C18.6043 22.9576 18.6043 23.05 18.6043 23.1424C18.6043 23.1424 18.5125 23.1424 18.5125 23.2348V23.5121C18.4207 23.5121 18.4207 23.6969 18.3289 23.9741C18.2371 24.4362 18.2371 25.268 18.1453 25.9149C18.1453 26.0997 17.9618 26.2846 17.9618 26.4694C17.87 26.9315 17.87 27.3011 17.9618 27.9481C17.9618 28.2253 18.0535 28.4101 18.0535 28.595C18.0535 28.595 18.1453 28.595 18.1453 28.6874C18.1453 29.0571 18.3289 29.5191 18.4207 29.8888C18.6043 30.4433 18.8796 30.9978 19.2468 31.4599C19.3386 31.5523 19.4304 31.5523 19.4304 31.6447V31.8295H19.5222C19.6139 32.0144 19.6139 32.2916 19.7057 32.3841C19.7057 32.4765 19.8893 32.5689 19.8893 32.5689C19.9811 32.6613 19.9811 32.7537 19.9811 32.8461C20.1647 33.2158 20.2565 33.5855 20.44 33.8627C20.7154 34.3248 21.0826 34.7869 21.5415 35.249C21.6333 35.3414 21.8169 35.4338 21.9086 35.5262C22.0004 35.6186 22.0004 35.8035 22.0922 35.8959V36.0807H22.184V36.2655C22.2758 36.2655 22.3676 36.5428 22.4594 36.6352H22.6429L22.7347 36.82H22.9183L23.0101 37.0049H23.1937L23.2855 37.1897C23.3772 37.2821 23.469 37.1897 23.5608 37.2821L23.6526 37.467C23.7444 37.467 23.8362 37.467 23.8362 37.467C23.928 37.467 24.0198 37.6518 24.0198 37.6518C24.1116 37.6518 24.1116 37.7442 24.2033 37.7442C24.2951 37.8366 24.3869 37.8366 24.4787 37.8366C24.5705 37.8366 24.5705 37.929 24.5705 37.929C25.3048 38.2987 26.4063 38.3911 27.2323 38.7608C27.5077 38.8532 27.7831 39.038 28.0584 39.038C28.4256 39.1305 28.8845 39.038 29.3435 39.1305C29.4353 39.1305 29.527 39.2229 29.6188 39.2229C30.9957 39.4077 33.1986 39.3153 34.8507 39.1305C35.4015 39.038 35.8604 39.038 36.4111 38.9456C36.5029 38.9456 36.5947 38.9456 36.6865 38.9456C36.8701 38.8532 37.4208 38.7608 37.8797 38.7608C38.2469 38.7608 38.6141 38.7608 38.8894 38.6684C39.4401 38.4835 39.8991 38.2063 40.358 37.8366C40.817 37.5594 41.2759 37.1897 42.0102 37.2821C42.4691 37.0049 42.1938 37.1897 42.3774 37.0973C42.4691 37.0049 42.5609 36.9125 42.6527 36.82H42.8363C43.0199 36.6352 43.387 36.2655 43.6624 35.9883V35.8035C43.846 35.711 43.9378 35.5262 44.1213 35.3414C44.3049 35.1565 44.4885 34.8793 44.5803 34.6945C44.6721 34.602 44.7638 34.5096 44.8556 34.4172C44.9474 34.3248 44.9474 34.14 45.0392 34.0475C45.131 33.9551 45.2228 33.8627 45.3146 33.7703C45.4064 33.6779 45.4064 33.493 45.4982 33.4006C45.5899 33.3082 45.7735 33.2158 45.7735 33.1234V32.9385H45.8653V32.7537H45.9571C46.0489 32.5689 46.2325 32.2916 46.3242 32.1068C46.3242 32.0144 46.416 32.1068 46.416 32.0144C46.416 31.8295 46.5996 31.7371 46.6914 31.6447V31.4599H46.7832V31.2751C46.9668 31.0902 47.0585 30.9978 47.1503 30.7206C47.4257 30.1661 47.7011 29.704 47.9764 29.1495C48.0682 28.8722 48.16 28.5026 48.2518 28.2253C48.2518 28.2253 48.3436 28.2253 48.3436 28.1329C48.3436 28.0405 48.4354 27.7632 48.5272 27.6708V27.486C48.8025 27.2087 48.8025 26.1921 48.9861 25.6376C48.9861 25.6376 49.0779 25.6376 49.0779 25.5452C49.0779 25.3604 49.1697 25.1756 49.2615 24.9907L49.3532 24.7135C49.445 24.6211 49.445 24.6211 49.445 24.5287C49.5368 24.3438 49.7204 23.9742 49.8122 23.6045C49.904 23.1424 49.904 22.6803 49.9958 22.2182C50.0875 21.7562 50.0875 21.0168 49.9958 20.4623C49.904 20.1851 50.0876 20.0927 50.0876 19.6306C50.0876 19.5382 49.9958 19.4457 49.9958 19.1685C49.9958 18.7064 49.9958 18.0595 49.904 17.5974C49.8122 17.3202 49.6286 16.8581 49.5368 16.4884C49.445 16.3036 49.445 16.1187 49.3532 16.0263C49.2615 15.8415 49.2615 15.6567 49.1697 15.5643C49.1697 15.4718 48.9861 15.3794 48.9861 15.3794C48.8943 15.287 48.8943 15.1946 48.8943 15.1022C48.7107 14.7325 48.5272 14.0856 48.3436 13.6235C48.3436 13.5311 48.2518 13.3463 48.2518 13.3463L48.0682 13.2538V13.069H47.9764V12.8842H47.8846C47.8846 12.7918 47.8846 12.6993 47.7929 12.6069L47.6093 12.5145V12.3297H47.5175V12.1448C47.3339 12.0524 47.0585 11.5903 46.9668 11.3131C46.875 11.2207 46.9668 11.1283 46.875 11.0358C46.875 10.9434 46.6914 10.9434 46.6914 10.9434C46.5078 10.6662 46.416 10.4813 46.2325 10.2965C46.1407 10.2041 46.0489 10.1117 45.9571 10.0193C45.7735 9.83443 45.4981 9.55718 45.4064 9.46476C45.131 9.27993 44.7638 9.0951 44.3967 8.91026C44.3049 8.91026 44.3049 8.72543 44.2131 8.72543C43.9378 8.5406 43.387 8.26335 43.0199 8.07851C42.9281 7.9861 42.9281 7.89368 42.8363 7.89368H42.6527C42.5609 7.80127 42.5609 7.61643 42.4691 7.61643C42.3774 7.52402 42.2856 7.61643 42.1938 7.52401C42.102 7.52401 42.0102 7.33918 42.0102 7.33918H41.8266C41.7348 7.15435 41.1841 7.06193 40.817 6.96952C40.6334 6.8771 40.358 6.96952 40.2662 6.8771C40.2662 6.8771 40.2662 6.78468 40.1744 6.78468C39.8991 6.78468 39.7155 6.59985 39.3484 6.50743C38.9812 6.41502 38.6141 6.23018 38.2469 6.13777H38.0633V6.04535C37.5126 5.86052 36.7783 5.67569 36.1358 5.58327C35.7686 5.49085 35.4015 5.49085 35.0343 5.39844C35.0343 5.39844 35.0343 5.30602 34.9425 5.30602C34.759 5.30602 34.4836 5.2136 34.1164 5.12119C33.7493 5.02877 33.3821 5.02877 33.015 4.93635C32.3725 4.84394 31.6382 4.75152 30.7203 4.65911C30.7203 4.65911 30.7203 4.56669 30.6285 4.56669C30.5367 4.56669 30.3531 4.56669 30.2613 4.56669C29.527 4.47427 28.5174 4.28944 27.5995 4.19702C26.2227 4.01219 25.0294 4.01219 23.928 4.38185H23.7444C23.6526 4.47427 23.5608 4.56669 23.469 4.56669H23.2855V4.65911C23.0101 4.75152 22.8265 4.75152 22.4594 4.84394C22.4594 4.84394 22.4594 4.93635 22.3676 4.93635C22.184 4.93635 22.0004 5.02877 21.8169 5.12119C21.5415 5.2136 21.1743 5.30602 20.8072 5.39844C19.7975 5.7681 18.7879 6.04535 17.87 6.50743C17.6864 6.59985 17.5028 6.78468 17.3192 6.78468C17.1357 6.78468 17.1357 6.96952 16.9521 6.96952L16.7685 7.06193C16.6767 7.15435 16.6767 7.24677 16.5849 7.24677H16.4014C16.3096 7.33918 16.2178 7.4316 16.0342 7.52401C15.9424 7.52401 16.0342 7.61643 15.9424 7.61643L15.7589 7.70885C15.6671 7.70885 15.6671 7.89368 15.5753 7.89368C15.3917 7.9861 15.2081 8.07851 15.1163 8.17093C14.9328 8.26335 14.841 8.44818 14.6574 8.5406C14.5656 8.63301 14.382 8.81785 14.2902 8.91026C14.0149 9.18751 13.5559 9.37235 13.2806 9.55718C13.1888 9.64959 13.097 9.83443 13.0052 9.92684C12.8216 10.1117 12.5463 10.2965 12.3627 10.5738C12.0873 10.851 11.812 11.2207 11.4448 11.5903C11.353 11.6828 11.2612 11.8676 11.1695 11.96C11.0777 12.0524 10.9859 12.1448 10.8941 12.2373C10.8023 12.3297 10.8941 12.4221 10.8023 12.5145C10.8023 12.6069 10.6187 12.6069 10.6187 12.6069C10.5269 12.6993 10.6187 12.7918 10.5269 12.8842L10.3434 12.9766C10.2516 13.069 10.3434 13.1614 10.2516 13.2538C10.1598 13.3463 9.88442 13.4387 9.79263 13.6235C9.70084 13.7159 9.79263 13.8083 9.70084 13.9008L9.51727 13.9932C9.42548 14.0856 9.42548 14.2704 9.33369 14.3628C9.2419 14.4553 9.05833 14.4553 9.05833 14.6401C9.05833 14.7325 8.87475 14.7325 8.87475 14.8249V15.0098H8.78296C8.69117 15.1022 8.78296 15.287 8.69118 15.3794C8.69118 15.4718 8.5076 15.5643 8.5076 15.5643C8.41581 15.7491 8.41581 16.0263 8.32402 16.1187C8.32402 16.1187 8.23224 16.1187 8.23224 16.2112C8.23224 16.3036 8.14045 16.5808 8.04866 16.6732C7.95687 16.8581 7.95687 17.0429 7.86508 17.2277C7.68151 17.5974 7.58972 17.9671 7.40614 18.4292C7.31435 18.614 7.31436 18.8912 7.22257 18.9837C7.22257 19.0761 7.03899 19.1685 7.03899 19.1685C6.85541 19.5382 6.85542 20.2775 6.76363 20.832C6.76363 20.832 6.67184 20.832 6.67184 20.9244C6.67184 21.2017 6.58005 21.2941 6.58005 21.7562C6.58005 21.941 6.58005 22.1258 6.58005 22.2182C6.58005 22.2182 6.48826 22.2182 6.48826 22.3107C6.48826 23.1424 6.39648 24.159 6.30469 24.9907C6.30469 25.268 6.2129 25.6376 6.2129 26.0073C6.2129 26.2846 6.30469 26.6542 6.30469 26.9315C6.30469 27.2087 6.2129 27.3936 6.12111 27.7632C5.93753 28.7798 6.02932 29.9812 6.12111 31.3675C6.12111 31.5523 6.12111 31.8295 6.12111 32.0144C6.12111 32.1992 6.2129 32.1992 6.2129 32.2916C6.2129 32.2916 6.12111 32.2916 6.12111 32.3841V32.4765C6.12111 32.6613 5.93754 32.8461 5.93754 32.9385C5.84575 33.6779 6.12111 33.9551 6.30469 34.602C6.39648 34.9717 6.48826 35.4338 6.58005 35.8035C6.58005 35.8035 6.67184 35.8035 6.67184 35.8959C6.76363 36.0807 6.85542 36.2655 6.85542 36.4504C6.9472 36.6352 7.03899 36.7276 7.03899 36.9125C7.13078 37.2821 7.22257 37.929 7.31436 38.2987C7.31436 38.2987 7.40614 38.2987 7.40614 38.3911C7.40614 38.4835 7.40614 38.576 7.49793 38.6684C7.77329 39.1305 8.04866 39.8698 8.32402 40.4243C8.32402 40.4243 8.41581 40.4243 8.41581 40.5167C8.5076 40.7939 8.59939 41.0712 8.69118 41.4409C8.78296 41.6257 8.96654 41.9029 8.96654 41.9954C8.96654 42.0878 9.15012 42.1802 9.15012 42.2726C9.15012 42.365 9.33369 42.4574 9.33369 42.5499C9.33369 42.6423 9.51727 42.8271 9.60906 42.9195L9.79263 43.0119C9.88442 43.1044 9.88442 43.2892 9.97621 43.3816C10.068 43.474 10.2516 43.474 10.2516 43.5664C10.3434 43.6589 10.2516 43.7513 10.3434 43.8437C10.5269 44.0285 10.8023 44.2134 10.9859 44.4906C11.0777 44.583 11.2612 44.7679 11.353 44.9527C11.4448 45.1375 11.7202 45.4148 11.9038 45.5996C12.0873 45.7844 12.4545 46.0617 12.7298 46.2465C12.8216 46.3389 12.8216 46.4314 12.9134 46.4314H13.097L13.1888 46.6162C13.2806 46.7086 13.3724 46.6162 13.4642 46.7086L13.5559 46.8934C13.6477 46.9859 13.8313 46.9859 13.9231 47.0783C14.1067 47.1707 14.1985 47.4479 14.2902 47.5404H14.4738C14.7492 47.91 15.2999 48.4645 15.7589 48.7418C16.0342 48.9266 16.3096 48.9266 16.6767 49.019C16.9521 49.1114 17.2275 49.2963 17.5028 49.3887C17.5946 49.3887 17.5028 49.4811 17.5946 49.4811C17.6864 49.4811 17.6864 49.6659 17.7782 49.6659C17.87 49.7584 18.0535 49.6659 18.2371 49.7583C18.5125 49.8508 18.7879 49.9432 19.155 50.0356C19.7057 50.2204 20.2565 50.5901 20.7154 50.8673C21.7251 51.4218 22.8265 51.6991 24.0198 52.1612C24.8459 52.4384 25.672 52.9005 26.5898 53.0853C26.957 53.1778 27.3241 53.0853 27.6913 53.1778C27.9667 53.2702 28.3338 53.3626 28.701 53.3626C28.8845 53.3626 29.0681 53.2702 29.2517 53.3626C29.2517 53.3626 29.2517 53.455 29.3435 53.455C29.4353 53.455 29.527 53.6398 29.6188 53.6398L29.8024 53.7323C29.8942 53.7323 29.986 53.8247 30.0778 53.8247C30.1696 53.8247 30.2613 54.0095 30.2613 54.0095C30.3531 54.1019 30.4449 54.0095 30.5367 54.1019C30.9039 54.3792 31.0874 54.8413 31.0874 55.2109C31.0874 55.4882 31.1792 55.7654 31.0874 56.1351C31.0874 56.1351 30.9957 56.1351 30.9957 56.2275L30.9039 56.5048L30.7203 56.5972C30.7203 56.6896 30.7203 56.782 30.7203 56.782C30.7203 56.8744 30.5367 56.9668 30.4449 57.0593C30.2613 57.2441 30.0778 57.5213 29.8024 57.7062L29.7106 57.7986C29.4353 57.891 29.0681 57.7986 28.701 57.891C28.242 58.8152 27.8749 59 27.6913 59C26.957 59 26.0391 58.7227 25.1212 58.6303C24.7541 58.5379 24.4787 58.4455 24.1116 58.4455C23.8362 58.4455 23.5608 58.3531 23.2855 58.2607C23.1019 58.0758 22.9183 58.0758 22.7347 57.9834C22.6429 57.891 22.5512 57.891 22.4594 57.891C22.3676 57.891 22.3676 57.7986 22.3676 57.7986C22.184 57.7062 22.0004 57.7986 21.8169 57.7062C21.8169 57.7062 21.8169 57.6138 21.7251 57.6138C21.5415 57.5213 21.4497 57.4289 21.2661 57.4289C21.0826 57.3365 20.9908 57.2441 20.8072 57.2441C20.6236 57.1517 20.5318 57.2441 20.3482 57.1517C20.2565 57.1517 20.1647 56.9668 20.1647 56.9668C20.0729 56.9668 19.9811 56.9668 19.8893 56.9668C19.7975 56.9668 19.7057 56.782 19.7057 56.782C19.4304 56.6896 19.4304 56.782 19.155 56.6896C19.155 56.6896 19.155 56.5972 19.0632 56.5972H18.9714C18.8796 56.5972 18.7879 56.4123 18.7879 56.4123C18.3289 56.2275 18.2371 56.2275 18.1453 56.2275C17.87 56.1351 17.5028 55.9503 17.0439 55.8578C17.0439 55.8578 17.0439 55.7654 16.9521 55.7654C16.7685 55.7654 16.6767 55.7654 16.5849 55.673C16.4932 55.673 16.4014 55.4882 16.4014 55.4882C16.2178 55.3958 15.8506 55.3033 15.5753 55.2109C15.4835 55.1185 15.4835 55.0261 15.3917 55.0261H15.2081C15.1163 54.9337 14.9328 54.8413 14.7492 54.7488C14.5656 54.6564 14.382 54.6564 14.1985 54.564C14.1067 54.564 14.0149 54.3792 14.0149 54.3792H13.8313V54.2868C13.6477 54.1943 13.4641 54.1943 13.3724 54.1019C13.2806 54.1019 13.1888 53.9171 13.1888 53.9171C13.097 53.9171 13.0052 53.9171 12.9134 53.9171C12.8216 53.9171 12.7298 53.7323 12.7298 53.7323C12.5463 53.6398 12.3627 53.6398 12.1791 53.5474C12.1791 53.5474 12.1791 53.455 12.0873 53.455C11.9038 53.455 11.812 53.2702 11.6284 53.1778C11.5366 53.0853 11.353 52.9929 11.2612 52.9929C11.1695 52.9929 11.0777 52.8081 10.9859 52.7157H10.8023L10.7105 52.5308H10.5269C10.4351 52.4384 10.3434 52.2536 10.1598 52.1612C9.97621 52.0688 9.79263 51.7915 9.70084 51.6991H9.51727C9.42548 51.5143 9.15011 51.237 8.96654 51.0522H8.78296L8.69118 50.8673H8.5076C8.41581 50.7749 8.32402 50.5901 8.14045 50.4977C7.86508 50.3129 7.68151 50.0356 7.31436 49.8508C7.13078 49.6659 6.76363 49.4811 6.48826 49.2039C6.30469 49.019 6.02932 48.7418 5.93754 48.5569C5.93754 48.4645 5.75396 48.2797 5.66217 48.1873C5.4786 48.0024 5.29502 47.8176 5.20323 47.7252C5.01966 47.5404 4.92787 47.3555 4.83608 47.1707C4.6525 46.9859 4.46893 46.8934 4.37714 46.7086C4.19356 46.5238 4.10178 46.3389 4.00999 46.1541C3.9182 45.9693 3.73462 45.7844 3.64284 45.692C3.45926 45.3224 3.27568 44.7679 3.00032 44.3058C2.90853 44.2134 2.90853 44.1209 2.90853 44.0285C2.90853 43.9361 2.81674 43.9361 2.81674 43.9361C2.72496 43.7513 2.81674 43.6589 2.72496 43.5664C2.72496 43.474 2.54138 43.3816 2.54138 43.3816C2.44959 43.1968 2.44959 43.1044 2.44959 43.0119C2.3578 42.8271 2.3578 42.7347 2.26602 42.5499C2.26602 42.4574 2.17423 42.365 2.08244 42.1802C1.99065 41.903 1.99065 41.7181 1.89886 41.5333C1.89886 41.4409 1.71529 41.3485 1.71529 41.3485C1.71529 41.256 1.71529 41.1636 1.71529 41.1636C1.6235 40.794 1.34814 40.147 1.25635 39.685C1.16456 39.4077 1.25635 39.1305 1.16456 38.8532C1.16456 38.8532 1.07277 38.8532 1.07277 38.7608V38.6684C1.07277 38.576 0.980984 38.4835 0.980984 38.3911C0.889196 38.0215 0.613832 37.3745 0.522044 36.9125C0.430256 36.5428 0.338469 36.1731 0.246681 35.711C0.154893 35.4338 0.154892 34.602 0.154892 33.9551C0.154892 33.493 0.0631042 32.9385 0.0631042 32.4765C0.0631042 31.2751 0.24668 30.1661 0.154892 28.8722C0.154892 28.8722 -0.120472 28.5026 0.0631042 28.4101C0.338468 28.2253 0.0631042 27.486 0.0631042 27.1163C0.0631042 26.9315 0.246681 26.6542 0.246681 26.4694C0.246681 26.377 0.246681 26.1921 0.246681 26.0997C0.338469 25.7301 0.430256 24.8983 0.522044 24.3438C0.613832 23.5121 0.613833 22.8652 0.705621 22.0334C0.705621 21.8486 0.797409 21.4789 0.797409 21.3865C0.797409 21.3865 0.889197 21.3865 0.889197 21.2941V21.0168C0.980985 20.9244 0.980984 20.7396 1.07277 20.5547C1.16456 20.2775 1.25635 20.0002 1.34814 19.723C1.43993 19.4457 1.53171 19.0761 1.6235 18.7988C1.6235 18.7988 1.71529 18.7988 1.71529 18.7064C1.71529 18.5216 1.89886 18.5216 1.89886 18.3367C1.89886 18.2443 2.17423 17.7822 2.26602 17.505V17.3202C2.3578 17.2277 2.44959 16.8581 2.54138 16.6732C2.81674 16.3036 2.90853 15.3794 3.09211 14.9173C3.09211 14.8249 3.1839 14.9173 3.1839 14.8249C3.1839 14.7325 3.36747 14.7325 3.36747 14.6401V14.4553H3.45926V14.2704H3.55105V14.0856H3.64284V13.9008H3.73462C3.82641 13.7159 3.9182 13.5311 4.00999 13.3463C4.00999 13.2538 4.10178 13.3463 4.10178 13.2538V13.1614C4.19356 13.069 4.28535 12.9766 4.37714 12.8842C4.46893 12.7918 4.46893 12.6069 4.56072 12.5145C4.6525 12.4221 4.74429 12.3297 4.83608 12.2373C4.92787 12.1448 4.92787 11.96 5.01966 11.8676C5.11144 11.7752 5.20323 11.6828 5.29502 11.5903C5.38681 11.4979 5.38681 11.3131 5.4786 11.2207C5.57038 11.1283 5.66217 11.0358 5.75396 10.9434V10.7586C6.02932 10.5738 6.30469 10.2965 6.58005 9.92684C6.76363 9.74201 6.85541 9.55718 7.03899 9.37234C7.13078 9.27993 7.22257 9.18751 7.31436 9.0951C7.49793 8.91026 7.58972 8.63301 7.7733 8.44818C8.14045 7.9861 8.5076 7.61643 8.87475 7.24677C8.96654 7.15435 9.05833 7.06193 9.15012 6.96952C9.2419 6.8771 9.42548 6.8771 9.51727 6.78468C9.70084 6.69227 9.88442 6.3226 10.068 6.23018C10.2516 6.04535 10.5269 5.86052 10.7105 5.7681C10.8941 5.67569 10.9859 5.49085 11.1695 5.39844C11.2612 5.30602 11.5366 5.2136 11.6284 5.12119C11.7202 5.02877 11.812 4.84394 11.9038 4.84394H12.0873V4.75152H12.2709V4.65911C12.4545 4.56669 12.6381 4.47427 12.8216 4.38185C12.9134 4.38185 12.8216 4.28944 12.9134 4.28944H13.0052C13.097 4.19702 13.1888 4.10461 13.2806 4.01219H13.4642C13.5559 3.91977 13.5559 3.91977 13.6477 3.82736C13.7395 3.73494 13.8313 3.64252 13.9231 3.55011C14.0149 3.45769 14.1985 3.45769 14.2902 3.36527C14.382 3.36527 14.2902 3.27286 14.382 3.27286C14.5656 3.27286 14.6574 3.08802 14.7492 2.99561H14.9328V2.90319H15.1163V2.81078H15.2999V2.71836H15.4835V2.62594H15.6671V2.53352H15.8506V2.44111H16.0342C16.2178 2.25627 16.8603 1.97903 17.2275 1.88661H17.411V1.79419H17.5946C17.6864 1.70178 18.1453 1.51694 18.5125 1.42453C18.7879 1.33211 19.155 1.23969 19.4304 1.14728C19.6139 1.05486 19.8893 1.05486 20.0729 0.962445C20.3482 0.870029 21.0826 0.685194 21.6333 0.592778C21.8169 0.592778 21.9086 0.500363 22.0922 0.500363C22.0922 0.500363 22.0922 0.407946 22.184 0.407946H22.4594C22.5512 0.31553 22.7347 0.407946 23.0101 0.315529C23.0101 0.315529 23.0101 0.223112 23.1019 0.223112C23.1937 0.223112 23.3773 0.223112 23.469 0.223112C23.469 0.223112 23.469 0.130696 23.5608 0.130696C23.6526 0.130696 23.7444 0.130696 23.8362 0.130696C24.2951 0.038279 25.3966 -0.054136 26.1309 0.0382805C26.1309 0.0382805 26.1309 0.130696 26.2227 0.130696C26.498 0.130696 27.0488 0.130696 27.4159 0.223112C27.5077 0.223112 27.5995 0.223112 27.6913 0.223112C27.9667 0.315529 28.7927 0.31553 29.1599 0.407946C29.3435 0.500363 29.3435 0.407946 29.4353 0.500363C29.6188 0.685196 30.9039 0.500363 31.3628 0.500363C31.6382 0.500363 32.0053 0.685195 32.3725 0.685195C32.6478 0.777611 33.015 0.685195 33.3821 0.777612C33.3821 0.777612 33.3821 0.870028 33.4739 0.870028C33.5657 0.870028 33.7493 0.870028 33.8411 0.870028C33.8411 0.870028 33.8411 0.962445 33.9329 0.962445H34.2082V1.05486C34.3918 1.05486 34.5754 1.14728 34.6672 1.14728C35.1261 1.23969 35.8604 1.42453 36.5029 1.51694C36.7783 1.60936 37.0537 1.60936 37.5126 1.60936C37.6962 1.60936 37.788 1.70178 37.8797 1.70178C38.3387 1.79419 38.7976 1.79419 39.1648 1.88661C39.1648 1.88661 39.1648 1.97903 39.2566 1.97903C39.5319 1.97903 39.9909 2.16386 40.2662 2.25628C40.4498 2.34869 40.6334 2.25628 40.7252 2.34869C40.7252 2.34869 40.7252 2.44111 40.817 2.44111C41.0923 2.44111 41.2759 2.62594 41.4595 2.71836H41.6431V2.81078H41.8266V2.90319C42.0102 2.99561 42.3774 2.99561 42.4691 3.08802L42.5609 3.27286H42.7445V3.36527H42.9281V3.45769H43.1117V3.55011H43.2952V3.64252H43.4788V3.73494H43.6624C43.7542 3.91977 44.0295 3.91977 44.3049 4.01219H44.4885C44.5803 4.10461 44.7638 4.10461 44.9474 4.19702C44.9474 4.19702 44.9474 4.28944 45.0392 4.28944C45.2228 4.28944 45.2228 4.47427 45.4064 4.47427C45.5899 4.47427 45.5899 4.65911 45.7735 4.65911C45.8653 4.65911 45.8653 4.84394 45.9571 4.84394H46.1407V4.93635H46.3242C46.416 5.02877 46.416 5.2136 46.5996 5.2136H46.6914C46.7832 5.30602 46.875 5.39844 46.9668 5.49085C47.1503 5.58327 47.3339 5.67569 47.5175 5.7681C47.6093 5.7681 47.5175 5.86052 47.6093 5.86052C47.7011 5.86052 47.7011 6.04535 47.7929 6.04535C47.9764 6.13777 48.0682 6.13777 48.2518 6.3226C48.3436 6.41502 48.4354 6.50743 48.5272 6.59985C48.7107 6.78468 48.8943 7.06193 49.0779 7.15435H49.2615C49.3532 7.33918 49.5368 7.4316 49.7204 7.61643C49.9958 7.89368 50.2711 8.07851 50.5465 8.44818C50.6383 8.5406 50.8219 8.63301 50.9136 8.81785C51.0054 8.91026 50.9136 9.00268 51.0054 9.0951C51.0972 9.27993 51.2808 9.37234 51.3726 9.46476C51.4644 9.55718 51.5562 9.55718 51.5562 9.6496C51.6479 9.74201 51.7397 10.0193 51.8315 10.2041C51.9233 10.3889 52.0151 10.4813 52.1069 10.6662C52.1987 10.7586 52.2905 10.851 52.2905 10.851C52.474 11.2207 52.6576 11.4979 52.8412 11.8676C52.8412 11.96 52.933 11.8676 52.933 11.96L53.0248 12.1448C53.0248 12.2373 53.2083 12.2373 53.2083 12.3297C53.3001 12.4221 53.2083 12.5145 53.3001 12.6069C53.3001 12.6993 53.4837 12.7918 53.4837 12.7918C53.6673 13.1614 53.7591 13.5311 53.9426 13.9008C53.9426 13.9932 53.9426 14.0856 54.0344 14.178C54.0344 14.2704 54.218 14.3628 54.218 14.3628C54.3098 14.4553 54.218 14.5477 54.3098 14.6401C54.3098 14.7325 54.4934 14.8249 54.4934 14.8249C54.4934 14.9173 54.4934 15.0098 54.4934 15.0098C54.4934 15.1022 54.5852 15.1946 54.677 15.3794C54.677 15.4718 54.7687 15.5642 54.7687 15.6567C54.7687 15.7491 54.9523 15.8415 54.9523 15.8415C55.0441 16.0263 55.0441 16.3036 55.0441 16.396C55.0441 16.396 55.1359 16.396 55.1359 16.4884C55.2277 16.8581 55.4113 17.3202 55.503 17.8747C55.6866 18.3367 55.7784 18.7988 55.8702 19.4457C55.962 20.0002 56.0538 21.0168 55.962 21.941C55.962 22.0334 55.962 22.1258 55.962 22.2182C55.8702 22.7727 55.7784 23.9742 55.6866 24.7135C55.6866 24.8983 55.6866 25.0831 55.5948 25.1756C55.5948 25.268 55.503 25.1756 55.503 25.268C55.503 25.4528 55.2277 25.8225 55.1359 26.1921C55.0441 26.4694 54.9523 26.7466 54.9523 27.0239C54.8605 27.3011 54.9523 27.486 54.8605 27.8556C54.8605 27.9481 54.7687 27.9481 54.7687 28.0405C54.7687 28.2253 54.7687 28.5026 54.677 28.595C54.677 28.595 54.5852 28.595 54.5852 28.6874C54.5852 28.9646 54.218 29.4267 54.1262 29.7964C54.0344 29.9812 54.1262 30.0736 54.0344 30.1661C54.0344 30.2585 53.8509 30.3509 53.8509 30.3509C53.7591 30.6281 53.6673 30.9978 53.5755 31.3675C53.5755 31.3675 53.4837 31.3675 53.4837 31.4599C53.3919 31.6447 53.3919 31.7371 53.3001 31.922C53.3001 32.0144 53.2083 32.1068 53.2083 32.1992C53.0248 32.5689 52.8412 32.9385 52.6576 33.3082C52.474 33.6779 52.2905 34.14 52.1069 34.5096C52.1069 34.602 52.0151 34.5096 52.0151 34.602L51.9233 34.7869C51.9233 34.8793 51.7397 34.8793 51.7397 34.9717C51.6479 35.1565 51.5562 35.3414 51.4644 35.4338C51.189 35.8035 51.0054 36.1731 50.8219 36.5428C50.7301 36.7276 50.6383 36.9125 50.5465 37.0973C50.5465 37.1897 50.3629 37.1897 50.3629 37.2821C50.3629 37.3745 50.3629 37.467 50.2711 37.5594C50.1793 37.6518 49.9958 37.6518 49.9958 37.7442C49.904 37.8366 49.9958 37.929 49.904 38.0215L49.7204 38.1139C49.6286 38.2063 49.6286 38.3911 49.5368 38.4835C49.445 38.576 49.2615 38.576 49.2615 38.6684C49.1697 38.7608 49.2615 38.8532 49.1697 38.9456C49.0779 39.038 48.8943 39.038 48.8943 39.1305C48.8025 39.2229 48.8943 39.3153 48.8025 39.4077C48.5272 39.685 48.2518 39.9622 47.8846 40.3319C47.7011 40.5167 47.6093 40.7015 47.5175 40.7939C47.4257 40.8864 47.3339 40.794 47.2421 40.8864C47.1503 40.9788 47.1503 41.0712 47.0585 41.0712C46.5996 41.4409 46.2325 41.9029 45.6817 42.365C45.4982 42.5499 45.3146 42.7347 45.131 42.8271C45.0392 42.8271 45.0392 42.9195 45.0392 42.9195C44.9474 42.9195 44.8556 42.9195 44.7638 43.0119L44.6721 43.1968C44.5803 43.2892 44.4885 43.2892 44.3049 43.3816C44.2131 43.474 44.1213 43.474 44.0295 43.5664C43.846 43.6589 43.7542 43.7513 43.5706 43.8437C43.387 43.9361 43.2952 44.0285 42.9281 44.1209C42.7445 44.2134 42.5609 44.1209 42.4691 44.2134C42.4691 44.2134 42.4691 44.3058 42.3774 44.3058C42.102 44.3058 41.9184 44.4906 41.7348 44.583C40.0827 45.2299 38.0633 45.692 35.9522 45.8769C35.5851 45.8769 35.2179 45.9693 34.8507 45.9693C34.5754 45.9693 34.3918 45.7844 34.0247 45.8769C33.9329 45.8769 33.9329 45.9693 33.8411 45.9693C33.6575 45.9693 32.2807 45.7844 32.1889 45.9693C32.0971 46.0617 32.0053 45.9693 31.73 45.9693C30.2613 45.8769 28.8845 45.7844 27.5077 45.5072C27.2323 45.4148 26.8652 45.4148 26.498 45.3224C26.2227 45.2299 25.8555 45.2299 25.4884 45.1375C25.4884 45.1375 25.4884 45.0451 25.3966 45.0451C25.213 45.0451 25.213 44.9527 25.1212 44.9527C24.9376 44.8603 24.7541 44.8603 24.6623 44.8603C24.4787 44.7679 24.2951 44.7679 24.2033 44.7679C24.2033 44.7679 24.2033 44.6754 24.1116 44.6754H23.8362V44.583C23.469 44.4906 23.1937 44.4906 22.8265 44.3982C22.8265 44.3982 22.8265 44.3058 22.7347 44.3058C22.5512 44.3058 22.2758 44.1209 22.0922 44.0285C21.7251 43.8437 21.4497 43.7513 21.0826 43.5664C20.9908 43.5664 21.0826 43.474 20.9908 43.474C20.8072 43.474 20.8072 43.2892 20.6236 43.2892C20.5318 43.2892 20.5318 43.1044 20.44 43.1044H20.2565V43.0119H20.0729V42.9195H19.8893V42.8271H19.7057V42.7347H19.5222V42.6423H19.3386C19.2468 42.5499 19.2468 42.5499 19.155 42.4574C19.0632 42.365 18.8796 42.365 18.7879 42.2726C18.6961 42.1802 18.6043 42.0878 18.5125 41.9954C18.4207 41.9029 18.2371 41.9029 18.1453 41.8105C18.0535 41.7181 17.9618 41.6257 17.87 41.5333H17.6864C17.5946 41.3484 17.5028 41.3484 17.3192 41.256C17.2275 41.256 17.3192 41.1636 17.2275 41.1636H17.1357C17.0439 41.0712 16.9521 40.9788 16.8603 40.8864C16.7685 40.794 16.6767 40.7015 16.5849 40.7015C16.4932 40.7015 16.0342 40.2394 15.9424 40.147C15.7588 39.9622 15.4835 39.8698 15.3917 39.685C15.2999 39.5925 15.2081 39.5001 15.2081 39.5001V39.3153C15.1163 39.2229 14.9328 39.2229 14.9328 39.038C14.9328 38.8532 14.6574 38.8532 14.6574 38.6684C14.6574 38.576 14.4738 38.3911 14.382 38.2987C14.2902 38.2063 14.382 38.1139 14.2902 38.0215C14.2902 37.929 14.1067 37.929 14.1067 37.929V37.7442C13.6477 37.3745 13.4641 36.4504 13.097 35.8035C13.0052 35.711 12.9134 35.711 12.9134 35.6186V35.4338H12.8216V35.249H12.7298V35.0641C12.4545 34.7869 12.1791 34.4172 11.9038 33.8627V33.6779H11.812V33.493C11.7202 33.4006 11.6284 32.9385 11.5366 32.6613V32.4765C11.353 32.2916 11.2612 31.2751 11.2612 30.813C11.2612 30.5357 11.1695 30.2585 11.1695 29.8888C11.0777 29.0571 11.1695 28.1329 11.2612 27.2087C11.353 26.1921 11.353 25.268 11.6284 24.4362V24.2514C11.812 24.159 11.9038 23.4197 11.9955 23.05C12.0873 22.6803 12.2709 22.3107 12.3627 21.941C12.3627 21.941 12.4545 21.941 12.4545 21.8486C12.4545 21.6637 12.5463 21.6637 12.5463 21.4789C12.6381 19.9078 12.6381 19.723 12.8216 19.6306Z" fill="#3B2B15"/>
</svg>