<svg width="21" height="20" viewBox="0 0 21 20" fill="none" xmlns="http://www.w3.org/2000/svg">
    <path d="M8.0815 16.163C6.48313 16.163 4.92066 15.689 3.59166 14.801C2.26267 13.913 1.22684 12.6509 0.615171 11.1742C0.00350156 9.69746 -0.156539 8.07254 0.155287 6.50488C0.467114 4.93722 1.2368 3.49724 2.36702 2.36702C3.49724 1.2368 4.93722 0.467114 6.50488 0.155287C8.07254 -0.156539 9.69746 0.00350156 11.1742 0.615171C12.6509 1.22684 13.913 2.26267 14.801 3.59166C15.689 4.92066 16.163 6.48313 16.163 8.0815C16.163 10.2248 15.3116 12.2804 13.796 13.796C12.2804 15.3116 10.2248 16.163 8.0815 16.163ZM8.0815 1.67204C6.81383 1.67204 5.57463 2.04795 4.52059 2.75223C3.46656 3.45651 2.64505 4.45753 2.15993 5.62871C1.67481 6.79988 1.54788 8.08861 1.79519 9.33192C2.0425 10.5752 2.65295 11.7173 3.54933 12.6137C4.44571 13.5101 5.58776 14.1205 6.83108 14.3678C8.07439 14.6151 9.36312 14.4882 10.5343 14.0031C11.7055 13.518 12.7065 12.6964 13.4108 11.6424C14.1151 10.5884 14.491 9.34917 14.491 8.0815C14.491 6.38161 13.8157 4.75133 12.6137 3.54933C11.4117 2.34732 9.7814 1.67204 8.0815 1.67204Z" fill=""/>
    <path d="M19.7223 19.6077C19.501 19.6205 19.2837 19.545 19.1181 19.3976L12.9317 13.9001C12.775 13.7506 12.6824 13.546 12.6735 13.3296C12.6645 13.1132 12.74 12.9017 12.8839 12.7398C13.0277 12.5779 13.2289 12.4781 13.4449 12.4616C13.6608 12.445 13.8748 12.5129 14.0417 12.651L20.2281 18.1486C20.3515 18.2584 20.4397 18.4024 20.4814 18.5623C20.523 18.7222 20.5164 18.8909 20.4623 19.047C20.4082 19.2031 20.309 19.3397 20.1773 19.4395C20.0456 19.5393 19.8872 19.5978 19.7223 19.6077Z" fill=""/>
</svg>
