<svg width="30" height="30" viewBox="0 0 30 30" fill="none" xmlns="http://www.w3.org/2000/svg">
<path d="M15 4.9C9.41144 4.9 4.9 9.41144 4.9 15C4.9 20.5886 9.41144 25.1 15 25.1C20.5886 25.1 25.1 20.5886 25.1 15C25.1 9.41144 20.5886 4.9 15 4.9ZM15 24.2333C9.9219 24.2333 5.76667 20.0781 5.76667 15C5.76667 9.9219 9.9219 5.76667 15 5.76667C20.0781 5.76667 24.2333 9.9219 24.2333 15C24.2333 20.0781 20.0781 24.2333 15 24.2333Z" fill="#F19000" stroke="#F19000" stroke-width="0.2"/>
<path d="M14.9997 8.2335C11.2778 8.2335 8.23301 11.2783 8.23301 15.0002C8.23301 18.7221 11.2778 21.7668 14.9997 21.7668C18.7216 21.7668 21.7663 18.7221 21.7663 15.0002C21.7663 11.2783 18.7216 8.2335 14.9997 8.2335ZM14.9997 20.9002C11.7216 20.9002 9.09967 18.2783 9.09967 15.0002C9.09967 11.7221 11.7216 9.10016 14.9997 9.10016C18.2778 9.10016 20.8997 11.7221 20.8997 15.0002C20.8997 18.2783 18.2778 20.9002 14.9997 20.9002Z" fill="#F19000" stroke="#F19000" stroke-width="0.2"/>
<path d="M15.0003 11.5665C13.0784 11.5665 11.567 13.0779 11.567 14.9998C11.567 16.9217 13.0784 18.4332 15.0003 18.4332C16.9222 18.4332 18.4337 16.9217 18.4337 14.9998C18.4337 13.0779 16.9222 11.5665 15.0003 11.5665ZM15.0003 17.5665C13.5889 17.5665 12.4337 16.4113 12.4337 14.9998C12.4337 13.5884 13.5889 12.4332 15.0003 12.4332C16.4118 12.4332 17.567 13.5884 17.567 14.9998C17.567 16.4113 16.4118 17.5665 15.0003 17.5665Z" fill="#F19000" stroke="#F19000" stroke-width="0.2"/>
<path d="M15.0007 15.7666C15.4241 15.7666 15.7673 15.4233 15.7673 14.9999C15.7673 14.5765 15.4241 14.2333 15.0007 14.2333C14.5772 14.2333 14.234 14.5765 14.234 14.9999C14.234 15.4233 14.5772 15.7666 15.0007 15.7666Z" fill="#F19000" stroke="#F19000" stroke-width="0.2"/>
<circle cx="15" cy="15" r="14.5" stroke="#F19000"/>
</svg>
