<svg width="27" height="27" viewBox="0 0 27 27" fill="none" xmlns="http://www.w3.org/2000/svg">
    <path d="M8.23444 16.2773C7.56996 16.2773 6.94532 16.5361 6.47538 17.006C5.5056 17.9761 5.5056 19.5541 6.47538 20.5242C6.94532 20.9941 7.56996 21.2529 8.23444 21.2529C8.89906 21.2529 9.52371 20.9941 9.99349 20.5242C10.9634 19.5541 10.9634 17.9761 9.99349 17.006C9.52371 16.5361 8.89906 16.2773 8.23444 16.2773ZM9.55163 20.0823C9.19979 20.4341 8.73199 20.6279 8.23444 20.6279C7.73688 20.6279 7.26908 20.4341 6.91724 20.0823C6.19113 19.356 6.19113 18.1742 6.91724 17.4479C7.26908 17.0961 7.73688 16.9023 8.23444 16.9023C8.73199 16.9023 9.19979 17.0961 9.55163 17.4479C10.2779 18.1742 10.2779 19.356 9.55163 20.0823Z" stroke-width="0.6"/>
    <path d="M22.099 4.90048C20.1568 2.95787 18.1137 1.80866 16.7416 1.18646C15.7237 0.725371 14.5304 1.14709 14.0246 2.14647C12.0954 5.95888 12.7523 8.89528 13.192 10.1094C12.6937 10.0719 12.1831 10.2355 11.803 10.6157L10.6158 11.8027C10.2355 12.1829 10.0719 12.6936 10.1094 13.192C8.89507 12.7522 5.95881 12.0957 2.14653 14.0249C1.14715 14.5311 0.725429 15.7243 1.18636 16.7416C1.8072 18.1118 2.95549 20.1539 4.90115 22.0995C6.8433 24.0421 8.88645 25.1913 10.2586 25.8136C10.5376 25.9399 10.8298 26 11.1176 26C11.8791 26 12.6084 25.5789 12.9755 24.8535C14.9046 21.0414 14.2479 18.1052 13.8082 16.8909C13.853 16.8942 13.8973 16.9037 13.9422 16.9037C14.3968 16.9037 14.8516 16.7307 15.1976 16.3846L16.3847 15.1976C16.7649 14.8174 16.9285 14.3067 16.8911 13.8083C17.4753 14.0198 18.4565 14.2812 19.7432 14.2812C21.1321 14.2812 22.8753 13.9763 24.8536 12.9751C25.853 12.4689 26.2747 11.2757 25.8138 10.2584C25.1929 8.88822 24.0446 6.84614 22.099 4.90048ZM14.5821 2.42843C14.9366 1.72871 15.7719 1.43333 16.4835 1.75587C16.7948 1.89697 17.1429 2.0674 17.516 2.26805C17.5004 2.73864 17.3081 3.18925 16.9729 3.52454C16.621 3.87638 16.1532 4.07016 15.6557 4.07016C15.1581 4.07016 14.6903 3.87638 14.3385 3.52454C14.2765 3.46262 14.2255 3.39153 14.173 3.32184C14.2932 3.02996 14.4284 2.73221 14.5821 2.42843ZM2.42879 14.5827C2.83881 14.3751 3.23785 14.2011 3.62582 14.0536C4.22231 14.7845 4.18844 15.8619 3.50721 16.543C3.11722 16.9328 2.5858 17.1232 2.04083 17.0796C1.93559 16.8698 1.83996 16.6697 1.75563 16.4835C1.43323 15.7722 1.72893 14.937 2.42879 14.5827ZM12.418 24.5716C12.0639 25.2713 11.2287 25.5679 10.5166 25.2441C10.2053 25.103 9.85724 24.9326 9.48409 24.7319C9.49971 24.2614 9.69198 23.8108 10.0273 23.4755C10.3791 23.1236 10.8469 22.9299 11.3445 22.9299C11.842 22.9299 12.3098 23.1236 12.6617 23.4755C12.7236 23.5374 12.7746 23.6085 12.8272 23.6782C12.7069 23.9701 12.5717 24.2678 12.418 24.5716ZM13.078 23.0105C12.6112 22.5559 11.9975 22.3049 11.3445 22.3049C10.68 22.3049 10.0553 22.5637 9.5854 23.0336C9.21291 23.4059 8.97216 23.8848 8.88935 24.3969C7.79949 23.7555 6.55163 22.8664 5.34301 21.6577C3.97956 20.294 3.02329 18.883 2.37125 17.7052C2.96226 17.6634 3.51953 17.4144 3.94907 16.9849C4.80396 16.13 4.90447 14.8033 4.25258 13.8362C7.60807 12.7788 9.96517 13.7852 10.3552 13.9717C10.4281 14.0928 10.5114 14.2092 10.6158 14.3135L10.9785 14.6763L9.8161 15.1735C9.65742 15.2415 9.58372 15.4252 9.65162 15.5839C9.70228 15.7023 9.81778 15.7734 9.93908 15.7734C9.98012 15.7734 10.0218 15.7655 10.0617 15.7484L11.4548 15.1526L11.8476 15.5454L11.2518 16.9385C11.1839 17.0972 11.2576 17.2809 11.4163 17.3489C11.4563 17.366 11.498 17.3739 11.539 17.3739C11.6603 17.3739 11.7758 17.3028 11.8264 17.1844L12.3238 16.0215L12.6868 16.3846C12.791 16.4888 12.9072 16.5721 13.0282 16.6449C13.2199 17.0456 14.274 19.5162 13.078 23.0105ZM15.9428 14.7557L14.7558 15.9428C14.3072 16.3913 13.5773 16.3913 13.1287 15.9428L11.0576 13.8717C10.609 13.4231 10.609 12.6932 11.0576 12.2446L12.2448 11.0576C12.4691 10.8333 12.7637 10.7213 13.0584 10.7213C13.353 10.7213 13.6476 10.8333 13.8719 11.0576L15.9428 13.1286C16.3914 13.5772 16.3914 14.3071 15.9428 14.7557ZM16.6451 13.0284C16.5723 12.9074 16.489 12.7911 16.3847 12.6868L16.0216 12.3237L17.184 11.8265C17.3427 11.7585 17.4164 11.5748 17.3485 11.4161C17.2806 11.2577 17.0964 11.1839 16.9384 11.2516L15.5454 11.8474L15.1526 11.4546L15.7483 10.0615C15.8162 9.90286 15.7425 9.71915 15.5838 9.6511C15.4256 9.58336 15.2413 9.6569 15.1737 9.81558L14.6764 10.9784L14.3138 10.6157C14.2094 10.5114 14.0931 10.4282 13.972 10.3553C13.7806 9.95525 12.7259 7.4844 13.9221 3.98954C14.389 4.44406 15.0026 4.69511 15.6557 4.69511C16.3201 4.69511 16.9448 4.43634 17.4147 3.9664C17.7872 3.59414 18.028 3.11526 18.1108 2.60315C19.2006 3.24447 20.4485 4.13361 21.6571 5.34234C23.0209 6.70638 23.9773 8.11771 24.6294 9.2957C24.0381 9.33758 23.4806 9.58538 23.0511 10.0152C22.1961 10.8701 22.0957 12.1968 22.7476 13.1639C19.3928 14.2213 17.0357 13.2151 16.6451 13.0284ZM24.5713 12.4173C24.1614 12.6249 23.7623 12.799 23.3744 12.9465C22.7778 12.2156 22.8116 11.1381 23.4929 10.457C23.8831 10.0672 24.4139 9.87658 24.9593 9.92038C25.0645 10.1302 25.1602 10.3304 25.2445 10.5165C25.5669 11.2278 25.2712 12.063 24.5713 12.4173Z" stroke-width="0.6"/>
    <path d="M18.7658 5.74707C18.1012 5.74707 17.4765 6.00584 17.0067 6.47578C16.0368 7.44586 16.0368 9.02381 17.0067 9.99389C17.4765 10.4638 18.1012 10.7226 18.7658 10.7226C19.4303 10.7226 20.0549 10.4638 20.5249 9.99389C21.4946 9.02381 21.4946 7.44586 20.5249 6.47578C20.0549 6.00584 19.4303 5.74707 18.7658 5.74707ZM20.083 9.55203C19.7312 9.90387 19.2634 10.0976 18.7658 10.0976C18.2682 10.0976 17.8004 9.90387 17.4486 9.55203C16.7223 8.82576 16.7223 7.6439 17.4486 6.91764C17.8004 6.5658 18.2682 6.37202 18.7658 6.37202C19.2634 6.37202 19.7312 6.5658 20.083 6.91764C20.8091 7.6439 20.8091 8.82576 20.083 9.55203Z" stroke-width="0.6"/>
</svg>