<svg width="18" height="10" viewBox="0 0 18 10" fill="none" xmlns="http://www.w3.org/2000/svg">
<path d="M17.5546 9.02886C17.5329 8.98241 17.5143 8.94525 17.4947 8.91532C17.1902 8.36826 16.6091 7.6963 15.7523 6.89945L15.7338 6.87984L15.7245 6.87158L15.7152 6.86229H15.7069C15.3168 6.4907 15.0701 6.24195 14.9669 6.11395C14.778 5.87139 14.7346 5.62366 14.8389 5.37491C14.9111 5.18602 15.1857 4.78862 15.6605 4.17963C15.9103 3.85759 16.1085 3.59954 16.254 3.40446C17.3058 2.00584 17.762 1.11093 17.6216 0.721797L17.568 0.630964C17.5318 0.576258 17.4369 0.525681 17.2852 0.480265C17.1334 0.434848 16.9383 0.426591 16.702 0.457556L14.074 0.476136C14.0317 0.461685 13.9698 0.461685 13.8923 0.480265C13.8129 0.498844 13.7736 0.508134 13.7736 0.508134L13.7272 0.530842L13.6911 0.558711C13.6611 0.576258 13.6271 0.608256 13.5909 0.653672C13.5548 0.699089 13.5239 0.752763 13.5001 0.813662C13.2142 1.54961 12.888 2.23395 12.5237 2.86565C12.2976 3.24344 12.0912 3.57064 11.9023 3.84623C11.7134 4.12389 11.5555 4.32723 11.4275 4.45832C11.3005 4.58838 11.1849 4.69469 11.0817 4.77211C10.9774 4.85159 10.899 4.88462 10.8443 4.87326C10.7906 4.86088 10.738 4.84849 10.6905 4.8361C10.6048 4.7814 10.5367 4.70708 10.4851 4.61315C10.4324 4.51922 10.3984 4.40052 10.3798 4.25705C10.3612 4.11357 10.3509 3.99074 10.3478 3.88752C10.3457 3.7843 10.3468 3.63773 10.353 3.44987C10.3581 3.26098 10.3623 3.13299 10.3623 3.06693C10.3623 2.83572 10.3664 2.5849 10.3757 2.31447C10.385 2.04403 10.3932 1.82934 10.3984 1.67141C10.4035 1.51349 10.4077 1.34627 10.4077 1.16977C10.4077 0.994295 10.3963 0.855981 10.3757 0.754827C10.355 0.654705 10.322 0.557679 10.2797 0.462717C10.2363 0.368788 10.1734 0.295503 10.0908 0.243893C10.0092 0.192284 9.90809 0.150996 9.78629 0.12003C9.46322 0.0467447 9.05344 0.00752175 8.55489 0.00132861C7.42258 -0.0110577 6.69592 0.0632599 6.37388 0.220153C6.24692 0.288277 6.13028 0.37911 6.02706 0.494715C5.91868 0.6289 5.9032 0.702185 5.98164 0.713539C6.34704 0.768245 6.60509 0.899334 6.75785 1.10577L6.81256 1.21518C6.85488 1.29363 6.89823 1.43401 6.93951 1.63425C6.98287 1.83553 7.0097 2.05745 7.02209 2.30105C7.05202 2.74489 7.05202 3.12473 7.02209 3.44162C6.99216 3.75747 6.96326 4.00416 6.93539 4.17963C6.90855 4.35614 6.86726 4.49961 6.81256 4.60902C6.75785 4.71843 6.72069 4.78553 6.70314 4.8103C6.68456 4.83404 6.66908 4.84952 6.65773 4.85572C6.57825 4.88668 6.49567 4.90113 6.41103 4.90113C6.32639 4.90113 6.22318 4.85881 6.10138 4.77314C5.97958 4.68747 5.85262 4.57083 5.72256 4.4222C5.59148 4.27356 5.44387 4.06506 5.27975 3.79669C5.1146 3.52935 4.94532 3.2135 4.76882 2.84811L4.62225 2.58387C4.53142 2.41356 4.40652 2.16583 4.2486 1.83966C4.09067 1.51452 3.95029 1.1997 3.8285 0.895205C3.78101 0.768245 3.70773 0.67122 3.60967 0.604127L3.56529 0.576258C3.53329 0.552518 3.48478 0.526713 3.41872 0.498844C3.35162 0.472007 3.28247 0.451363 3.20815 0.440009L0.709219 0.457556C0.453236 0.457556 0.279828 0.515359 0.188996 0.629932L0.151837 0.68567C0.13429 0.716636 0.125 0.765149 0.125 0.832241C0.125 0.899333 0.14358 0.981909 0.179706 1.07893C0.545101 1.93668 0.941462 2.76347 1.36982 3.56032C1.79921 4.35717 2.1708 4.99919 2.48665 5.48535C2.80353 5.97254 3.12557 6.43084 3.45381 6.86229C3.78308 7.29375 3.99984 7.5714 4.10615 7.6932C4.2135 7.81603 4.29711 7.90584 4.35801 7.96777L4.58509 8.18556C4.73166 8.33316 4.94636 8.5076 5.22918 8.71094C5.512 8.91428 5.82578 9.11556 6.16847 9.31271C6.51219 9.50986 6.91268 9.67191 7.36891 9.79681C7.82513 9.9217 8.27001 9.97228 8.70146 9.94647H9.7512C9.96486 9.92996 10.1249 9.86183 10.2353 9.74726L10.2704 9.70288C10.2941 9.66469 10.3179 9.60998 10.3385 9.5336C10.3592 9.45722 10.3705 9.37464 10.3705 9.28174C10.3643 9.02163 10.3839 8.78629 10.4304 8.57573C10.4758 8.36619 10.5274 8.20827 10.5842 8.10092C10.643 7.9946 10.707 7.9048 10.7813 7.83152C10.8525 7.75926 10.9052 7.71488 10.9351 7.69836C10.9651 7.68391 10.9898 7.67462 11.0074 7.6674C11.1539 7.61889 11.3253 7.66637 11.5235 7.80984C11.7206 7.95331 11.9054 8.12879 12.0798 8.33935C12.2532 8.54889 12.4617 8.78526 12.7033 9.0464C12.9479 9.30858 13.1595 9.5016 13.3422 9.63062L13.5249 9.739C13.6467 9.81126 13.8046 9.87835 13.9997 9.94028C14.1937 10.0012 14.3651 10.0146 14.5096 9.98466L16.8454 9.94854C17.0777 9.94854 17.2562 9.91035 17.3842 9.83397C17.5122 9.75758 17.5865 9.67501 17.6124 9.58418C17.6361 9.49334 17.6371 9.39012 17.6165 9.27349C17.5969 9.15582 17.5752 9.07531 17.5546 9.02886Z" fill="white"/>
</svg>
