<svg width="26" height="27" viewBox="0 0 26 27" fill="none" xmlns="http://www.w3.org/2000/svg">
    <path d="M24.9132 14.286C23.8689 12.7659 20.3216 7.8056 18.5224 7.8056H16.7729C16.6527 7.8056 16.5385 7.8504 16.4482 7.92668L13.6412 6.20557V5.27101C14.6074 5.04588 15.3296 4.18844 15.3296 3.16542C15.3296 1.97142 14.347 1 13.1392 1C11.9315 1 10.9489 1.97142 10.9489 3.16542C10.9489 3.43932 11.1737 3.66162 11.4508 3.66162C11.7278 3.66162 11.9527 3.43932 11.9527 3.16542C11.9527 2.51866 12.485 1.9924 13.1392 1.9924C13.7935 1.9924 14.3258 2.51866 14.3258 3.16542C14.3258 3.81218 13.7938 4.33844 13.1392 4.33844C12.8622 4.33844 12.6373 4.56073 12.6373 4.83464V6.20642L9.96194 7.84643C9.89999 7.82006 9.83259 7.80589 9.76376 7.80589H7.52748C5.82181 7.80589 2.16984 12.7614 1.09114 14.28C0.939985 14.4933 0.980713 14.7853 1.18464 14.9498L5.22295 18.2045C5.43777 18.3772 5.75384 18.3458 5.92908 18.1334L6.21302 17.7892V25.5038C6.21302 25.778 6.43788 26 6.71495 26H19.3826C19.6596 26 19.8845 25.778 19.8845 25.5038V17.9077L20.0706 18.1337C20.2459 18.3458 20.5622 18.3775 20.7771 18.2045L24.8154 14.9495C25.017 14.7867 25.0594 14.4989 24.9132 14.286ZM13.1398 7.06556L16.2113 8.94913C15.9953 9.81763 15.1963 10.465 14.244 10.465H12.284C11.2853 10.465 10.4561 9.74702 10.2961 8.80906L13.1398 7.06556ZM20.5321 17.1214L19.7721 16.2002C19.6375 16.0374 19.4141 15.9756 19.2148 16.0462C19.0149 16.1165 18.8812 16.3037 18.8812 16.5135V25.007H7.21715V16.395C7.21715 16.1852 7.0835 15.998 6.88359 15.9277C6.68397 15.8574 6.46026 15.9189 6.32631 16.0817L5.46875 17.1214L2.18303 14.4734C2.84212 13.5641 3.55485 12.6474 4.24377 11.8228C4.53976 11.4684 4.83116 11.1313 5.11224 10.8191C6.18951 9.62311 7.11103 8.79772 7.52777 8.79772H8.40972H9.27933C9.30027 8.99138 9.341 9.17909 9.39778 9.3597C9.64588 10.1477 10.2175 10.7958 10.9592 11.1542C11.3596 11.3476 11.8087 11.4574 12.284 11.4574H14.244C14.7204 11.4574 15.171 11.3476 15.5726 11.1542C16.2752 10.816 16.8236 10.2183 17.0927 9.489C17.1735 9.26897 17.2318 9.03817 17.2579 8.79772H17.8694H18.5224C18.9317 8.79772 19.7454 9.4941 20.7005 10.5339C21.0974 10.966 21.5187 11.4574 21.9458 11.9833C22.58 12.7642 23.2261 13.6199 23.8227 14.4691L20.5321 17.1214Z" stroke-width="0.3"/>
</svg>