<svg width="14" height="13" viewBox="0 0 14 13" fill="none" xmlns="http://www.w3.org/2000/svg">
<path d="M5.25297 10.5059C4.21403 10.5059 3.19843 10.1979 2.33458 9.62066C1.47073 9.04345 0.797446 8.22305 0.399861 7.2632C0.00227601 6.30334 -0.10175 5.24715 0.100937 4.22817C0.303624 3.20919 0.803921 2.2732 1.53856 1.53856C2.2732 0.803921 3.20919 0.303624 4.22817 0.100937C5.24715 -0.10175 6.30334 0.00227601 7.2632 0.399861C8.22305 0.797446 9.04345 1.47073 9.62066 2.33458C10.1979 3.19843 10.5059 4.21403 10.5059 5.25297C10.5059 6.64615 9.95251 7.98226 8.96738 8.96738C7.98226 9.95251 6.64615 10.5059 5.25297 10.5059ZM5.25297 1.08682C4.42899 1.08682 3.6235 1.33116 2.93838 1.78895C2.25326 2.24673 1.71928 2.89739 1.40395 3.65866C1.08863 4.41992 1.00612 5.25759 1.16688 6.06575C1.32763 6.8739 1.72441 7.61624 2.30706 8.19888C2.88971 8.78153 3.63204 9.17832 4.4402 9.33907C5.24835 9.49982 6.08602 9.41732 6.84729 9.10199C7.60855 8.78667 8.25922 8.25268 8.717 7.56756C9.17478 6.88244 9.41912 6.07696 9.41912 5.25297C9.41912 4.14804 8.98019 3.08836 8.19888 2.30706C7.41758 1.52576 6.3579 1.08682 5.25297 1.08682Z" fill=""/>
<path d="M12.8203 12.745C12.6764 12.7533 12.5352 12.7042 12.4275 12.6085L8.40641 9.03505C8.30452 8.93786 8.24434 8.80493 8.23853 8.66424C8.23273 8.52356 8.28175 8.38612 8.37528 8.28087C8.46881 8.17562 8.59955 8.11078 8.73994 8.10002C8.88033 8.08925 9.01941 8.1334 9.1279 8.22316L13.149 11.7966C13.2293 11.868 13.2866 11.9616 13.3137 12.0655C13.3407 12.1694 13.3364 12.2791 13.3013 12.3805C13.2661 12.482 13.2016 12.5708 13.116 12.6357C13.0304 12.7005 12.9275 12.7386 12.8203 12.745Z" fill=""/>
</svg>
