<svg width="38" height="40" viewBox="0 0 38 40" fill="none" xmlns="http://www.w3.org/2000/svg">
<path fill-rule="evenodd" clip-rule="evenodd" d="M8.70039 13.3089C8.76268 13.0582 9.01182 12.9329 9.0741 12.6823C9.13639 12.3064 9.19867 11.9931 9.38553 11.6798L9.44781 11.6172C9.5101 11.4292 9.57238 11.2412 9.63467 11.0533C9.63467 11.0533 9.69695 11.0533 9.69695 10.9906C9.69695 10.8653 9.75924 10.8653 9.75924 10.8027C9.75924 10.74 9.75923 10.6147 9.82152 10.552L9.94609 10.4894C10.0084 10.4267 10.0084 10.3014 10.0707 10.2388C10.1952 10.1761 10.3198 10.1134 10.3821 10.0508C10.8181 9.61221 11.2541 9.04831 11.6901 8.67238C11.8146 8.60972 11.8769 8.48441 11.9392 8.42175C12.0015 8.3591 12.0015 8.29645 12.0638 8.29645H12.1883V8.23379C12.2506 8.17113 12.3129 8.23379 12.3752 8.17113L12.4375 8.04582C12.4998 7.98317 12.562 7.98317 12.6243 7.98317C12.6866 7.98317 12.6243 7.92051 12.6866 7.92051L12.8735 7.85786L12.9358 7.73255C13.0603 7.66989 13.1226 7.66989 13.2472 7.60724C13.3095 7.54458 13.3717 7.48193 13.434 7.41927C13.4963 7.35662 13.4963 7.29396 13.5586 7.29396H13.6832C13.7455 7.23131 13.7455 7.16865 13.8077 7.16865H13.9323V7.106C13.9946 7.106 14.1814 7.04334 14.306 7.04334C14.5552 6.98068 14.9911 6.91803 15.3026 6.85537C16.05 6.73006 16.5483 6.60475 17.4203 6.66741C17.4203 6.66741 17.4203 6.73006 17.4825 6.73006C17.5448 6.73006 17.6694 6.73006 17.7317 6.73006C17.8562 6.73006 17.8562 6.66741 17.9808 6.66741C18.1054 6.66741 18.1677 6.73006 18.2922 6.73006C18.4168 6.73006 18.4168 6.66741 18.5414 6.66741C18.7905 6.66741 18.9774 6.66741 19.2265 6.66741C19.6002 6.66741 20.0362 6.79272 20.4099 6.79272C20.9082 6.85537 21.3442 6.79272 21.6556 6.85537C21.6556 6.85537 21.6556 6.91803 21.7179 6.91803C21.7802 6.91803 21.8425 6.91803 21.9047 6.91803C21.967 6.91803 22.0293 6.98068 22.0916 6.98068C22.1539 6.98068 22.3407 7.106 22.4653 7.16865C22.5899 7.23131 22.7145 7.23131 22.839 7.29396C22.9013 7.29396 22.9636 7.41927 22.9636 7.41927H23.0882C23.1504 7.48193 23.1504 7.48193 23.2127 7.48193C23.275 7.48193 23.3373 7.54458 23.3996 7.54458C23.4619 7.54458 23.5242 7.60724 23.6487 7.66989H23.7733C23.8979 7.7952 24.147 7.85786 24.3961 7.92051C24.3961 7.92051 24.3961 7.98317 24.4584 7.98317C24.5207 7.98317 24.583 8.10848 24.6453 8.10848C24.7076 8.10848 24.7076 8.17113 24.7698 8.17113C24.8321 8.23379 24.8944 8.29644 24.9567 8.3591C25.019 8.42176 25.0813 8.3591 25.1436 8.42175C25.2058 8.42175 25.2058 8.54707 25.2058 8.54707C25.2681 8.60972 25.3927 8.60972 25.455 8.67238C25.5173 8.73503 25.5173 8.73503 25.5795 8.79769C25.8287 8.98565 26.2647 9.42424 26.5138 9.73752C26.5761 9.80017 26.6384 9.86283 26.7007 9.92548C26.763 9.98814 26.763 10.1134 26.8252 10.1761C26.8875 10.2388 26.9498 10.3014 27.0121 10.3641C27.4481 10.928 27.6972 11.3039 27.9464 11.9931C28.0086 12.1811 28.0709 12.369 28.1332 12.6197C28.1955 12.6823 28.2578 12.8076 28.2578 12.8703C28.3201 13.0582 28.3824 13.3089 28.4446 13.4968C28.4446 13.5595 28.4446 13.6221 28.4446 13.6848C28.4446 13.7475 28.5069 13.7475 28.5069 13.8101C28.5692 14.186 28.4446 14.6246 28.4446 15.0632C28.3824 15.6271 28.3824 16.0657 28.3201 16.5669V16.6922C28.2578 16.7549 28.2578 16.8802 28.1955 17.0682C28.1332 17.1935 28.0709 17.3188 28.0709 17.3815C28.0086 17.5068 28.0709 17.6321 28.0086 17.7574C28.0086 17.7574 27.9464 17.7574 27.9464 17.82C27.8841 18.008 27.8841 18.1333 27.8218 18.2586V18.3839C27.6972 18.5093 27.6349 18.8852 27.5727 19.0731C27.5727 19.1358 27.4481 19.1358 27.4481 19.1985C27.3858 19.3238 27.3235 19.3864 27.2612 19.5117C27.1989 19.637 27.1367 19.6997 27.0744 19.825C27.0121 19.9503 26.9498 20.013 26.8875 20.1383C26.8875 20.2009 26.8252 20.1383 26.8252 20.2009C26.8252 20.3889 26.4515 20.5769 26.2647 20.7648C26.2024 20.8275 26.2024 20.8901 26.2024 20.9528C26.2024 21.0155 26.0778 21.0155 26.0778 21.0781C25.9533 21.2034 25.891 21.3287 25.7664 21.3914C25.7041 21.3914 25.7041 21.454 25.7041 21.454C25.6418 21.5167 25.5173 21.5794 25.455 21.5794L25.3304 21.642C25.2681 21.642 25.2058 21.7047 25.1436 21.7047C25.0813 21.7673 25.0813 21.8926 25.019 21.8926C24.9567 21.9553 24.8944 21.8926 24.8321 21.9553C24.7698 21.9553 24.8321 22.0179 24.7698 22.0179L24.6453 22.0806C24.583 22.1433 24.583 22.2059 24.5207 22.2059C24.4584 22.2686 24.3339 22.2059 24.2716 22.2686C24.2093 22.2686 24.2093 22.3939 24.147 22.3939C24.0847 22.4565 24.0224 22.4565 23.9601 22.5192C23.8979 22.5192 23.8356 22.6445 23.8356 22.6445C23.7733 22.7071 23.6487 22.6445 23.5864 22.7072C23.5241 22.7072 23.4619 22.8325 23.4619 22.8325C23.3996 22.8325 23.3373 22.8325 23.3373 22.8325C23.275 22.8325 23.2127 22.8951 23.1504 22.8951C23.0882 22.8951 23.0882 22.9578 23.0882 22.9578C22.7144 23.0204 22.2785 23.0204 21.8425 23.0831C21.2819 23.1457 20.8459 23.3337 20.2853 23.2084C20.2853 23.2084 20.2853 23.1457 20.2231 23.1457H20.1608L20.0985 23.0831C19.7871 23.0204 19.4134 22.9578 19.1019 22.8951C19.0397 22.8951 18.8528 22.7698 18.7905 22.7698C18.7282 22.7698 18.6659 22.7698 18.6659 22.7698C18.6037 22.7698 18.5414 22.6445 18.5414 22.6445C18.4791 22.5818 18.4168 22.6445 18.3545 22.5818C18.2922 22.5818 18.2922 22.4565 18.23 22.4565C18.1677 22.3939 18.1054 22.4565 18.0431 22.3939C17.9808 22.3312 17.8562 22.2059 17.794 22.1433C17.7317 22.0806 17.6694 22.0806 17.6071 22.0806C17.5448 22.0806 17.6071 22.0179 17.5448 22.0179H17.4825C17.4203 21.9553 17.2957 21.83 17.2334 21.7673C17.1711 21.7047 17.1711 21.642 17.1088 21.642C17.0465 21.5794 16.9843 21.642 16.922 21.5794C16.8597 21.5167 16.7351 21.3914 16.6728 21.3287C16.486 21.1408 16.4237 21.1408 16.2991 20.8901C16.2991 20.8275 16.2368 20.8902 16.2368 20.8275C16.2368 20.7022 16.1123 20.7022 16.1123 20.5769C16.1123 20.4516 15.9877 20.3889 15.9254 20.3263C15.7386 20.0756 15.4894 19.5117 15.3649 19.1985C15.2403 18.6972 15.178 18.1333 15.2403 17.6321C15.3026 17.3188 15.4894 17.0055 15.6763 16.6296C15.7386 16.5043 15.8008 16.379 15.8631 16.2537C15.9254 16.191 15.9254 16.1284 15.9877 16.0657C16.05 16.003 16.05 15.9404 16.1123 15.8777L16.1746 15.6898C16.2991 15.5645 16.4237 15.3765 16.5483 15.1259L16.6728 15.0632V14.9379C16.7974 14.8126 16.922 14.7499 17.0465 14.6246C17.1088 14.562 17.1711 14.4367 17.2957 14.374L17.4825 14.3113V14.2487H17.6071C17.6071 14.2487 17.794 14.0607 17.9185 14.0607C17.9808 14.0607 18.1677 13.9981 18.2922 13.9354C18.7282 13.8101 19.1019 13.7475 19.4756 13.8101C19.6625 13.8101 19.8494 13.8728 20.0362 13.9354C20.0985 13.9354 20.0362 13.9981 20.0985 13.9981C20.2231 13.9981 20.2853 14.186 20.3476 14.2487C20.4099 14.3113 20.5345 14.3113 20.5345 14.374C20.5968 14.4367 20.5968 14.562 20.5968 14.6246C20.5968 14.6246 20.6591 14.6246 20.6591 14.6873C20.6591 14.6873 20.5968 15.1259 20.6591 15.1259C20.8459 15.3138 20.5345 15.7524 20.4099 15.9404C20.2231 16.1283 19.9739 16.2537 19.7871 16.5043C19.6002 16.6922 19.4756 16.9429 19.3511 17.1935C19.3511 17.2561 19.2888 17.1935 19.2888 17.2561L19.2265 17.3815C19.1642 17.4441 19.1019 17.5068 19.1019 17.6321C19.0397 18.008 18.9774 18.4466 19.2265 18.8225L19.2888 19.0105H19.3511V19.1358H19.4134V19.2611C19.5379 19.3864 19.6002 19.5117 19.7871 19.637C19.8494 19.637 19.8494 19.6997 19.9116 19.6997C20.0362 19.7624 20.2231 20.013 20.4722 20.013C20.7213 20.0756 20.9705 20.013 21.2196 19.9503C21.2819 19.9503 21.2819 19.9503 21.3442 19.9503C21.8425 19.825 22.403 19.6997 22.839 19.3238C22.9013 19.2611 22.9636 19.1358 23.0259 19.0731C23.0882 19.0105 23.1504 18.9478 23.2127 18.8852C23.3373 18.6972 23.4619 18.5093 23.5242 18.3213C23.5864 18.2586 23.711 18.196 23.711 18.1333V18.008H23.7733V17.8827C23.9601 17.7574 24.0224 17.1935 24.147 16.7549C24.2716 16.379 24.3961 16.003 24.4584 15.6898C24.5207 15.3765 24.5207 15.0632 24.5207 14.7499C24.5207 14.4367 24.583 14.1234 24.5207 13.8728C24.4584 13.6221 24.2093 13.1836 23.9601 12.8703C23.8979 12.8076 23.8356 12.8076 23.8356 12.745V12.6197L23.711 12.557C24.147 12.557 24.147 12.4943 24.147 12.4317L24.0224 12.369C23.9601 12.3064 23.9601 12.1811 23.8979 12.1184C23.711 11.9304 23.4619 11.7425 23.275 11.4919C23.2127 11.3666 23.0882 11.3039 23.0259 11.2412C22.839 11.1159 22.403 10.928 22.0916 10.8027C21.9047 10.74 21.7179 10.6773 21.531 10.6147C21.531 10.6147 21.531 10.552 21.4688 10.552C21.3442 10.552 21.2819 10.552 21.1573 10.4894C20.7213 10.3014 19.6625 10.2388 18.9151 10.2388C17.9185 10.2388 16.7974 10.1134 16.1746 10.4894C16.1123 10.4894 16.1746 10.552 16.1123 10.552C15.9877 10.552 15.8631 10.6773 15.8008 10.74C15.4894 10.9906 15.0534 11.3666 14.742 11.7425C14.6174 11.9305 14.306 11.9931 14.1192 12.1811C14.0569 12.2437 14.1192 12.369 14.0569 12.4317C14.0569 12.4943 13.9323 12.557 13.9323 12.557C13.87 12.6197 13.9323 12.6823 13.87 12.745C13.87 12.8076 13.7455 12.8703 13.7455 12.8703C13.6832 12.9329 13.7455 12.9956 13.6832 13.0582C13.6832 13.1209 13.5586 13.1836 13.5586 13.1836C13.4963 13.2462 13.5586 13.3089 13.4963 13.3715C13.4963 13.4342 13.3717 13.4968 13.3717 13.4968C13.3717 13.5595 13.3717 13.8101 13.3095 13.8101H13.2472C13.1849 13.9981 13.1226 14.2487 13.0603 14.4993V14.6246H12.998V14.7499C12.9358 14.8126 12.9358 14.8126 12.9358 14.8752L12.8735 15.0632H12.8112C12.7489 15.1885 12.7489 15.3138 12.7489 15.3765C12.7489 15.4391 12.6243 15.5018 12.6243 15.5018C12.6243 15.5645 12.6243 15.6271 12.6243 15.6898C12.6243 15.6898 12.562 15.6898 12.562 15.7524V15.9404C12.4998 15.9404 12.4998 16.0657 12.4375 16.2537C12.3752 16.5669 12.3752 17.1308 12.3129 17.5694C12.3129 17.6947 12.1883 17.82 12.1883 17.9454C12.1261 18.2586 12.1261 18.5093 12.1883 18.9478C12.1883 19.1358 12.2506 19.2611 12.2506 19.3864C12.2506 19.3864 12.3129 19.3864 12.3129 19.4491C12.3129 19.6997 12.4375 20.013 12.4998 20.2636C12.6243 20.6395 12.8112 21.0155 13.0603 21.3287C13.1226 21.3914 13.1849 21.3914 13.1849 21.454V21.5794H13.2472C13.3095 21.7047 13.3095 21.8926 13.3717 21.9553C13.3717 22.0179 13.4963 22.0806 13.4963 22.0806C13.5586 22.1433 13.5586 22.2059 13.5586 22.2686C13.6832 22.5192 13.7455 22.7698 13.87 22.9578C14.0569 23.271 14.306 23.5843 14.6174 23.8976C14.6797 23.9603 14.8043 24.0229 14.8666 24.0856C14.9289 24.1482 14.9289 24.2735 14.9911 24.3362V24.4615H15.0534V24.5868C15.1157 24.5868 15.178 24.7748 15.2403 24.8374H15.3649L15.4271 24.9627H15.5517L15.614 25.0881H15.7386L15.8008 25.2134C15.8631 25.276 15.9254 25.2134 15.9877 25.276L16.05 25.4013C16.1123 25.4013 16.1746 25.4013 16.1746 25.4013C16.2368 25.4013 16.2991 25.5266 16.2991 25.5266C16.3614 25.5266 16.3614 25.5893 16.4237 25.5893C16.486 25.6519 16.5483 25.6519 16.6106 25.6519C16.6728 25.6519 16.6728 25.7146 16.6728 25.7146C17.1711 25.9652 17.9185 26.0279 18.4791 26.2785C18.6659 26.3412 18.8528 26.4665 19.0397 26.4665C19.2888 26.5291 19.6002 26.4665 19.9116 26.5291C19.9739 26.5291 20.0362 26.5918 20.0985 26.5918C21.0328 26.7171 22.5276 26.6544 23.6487 26.5291C24.0224 26.4665 24.3339 26.4665 24.7076 26.4038C24.7698 26.4038 24.8321 26.4038 24.8944 26.4038C25.019 26.3412 25.3927 26.2785 25.7041 26.2785C25.9533 26.2785 26.2024 26.2785 26.3892 26.2158C26.763 26.0905 27.0744 25.9026 27.3858 25.6519C27.6972 25.464 28.0086 25.2134 28.5069 25.276C28.8183 25.088 28.6315 25.2134 28.7561 25.1507C28.8184 25.088 28.8806 25.0254 28.9429 24.9627H29.0675C29.1921 24.8374 29.4412 24.5868 29.6281 24.3988V24.2735C29.7526 24.2109 29.8149 24.0856 29.9395 23.9603C30.064 23.8349 30.1886 23.647 30.2509 23.5217C30.3132 23.459 30.3755 23.3964 30.4378 23.3337C30.5 23.271 30.5 23.1457 30.5623 23.0831C30.6246 23.0204 30.6869 22.9578 30.7492 22.8951C30.8115 22.8325 30.8115 22.7071 30.8737 22.6445C30.936 22.5818 31.0606 22.5192 31.0606 22.4565V22.3312H31.1229V22.2059H31.1852C31.2475 22.0806 31.372 21.8926 31.4343 21.7673C31.4343 21.7047 31.4966 21.7673 31.4966 21.7047C31.4966 21.5794 31.6212 21.5167 31.6834 21.454V21.3287H31.7457V21.2034C31.8703 21.0781 31.9326 21.0155 31.9949 20.8275C32.1817 20.4516 32.3686 20.1383 32.5554 19.7624C32.6177 19.5744 32.68 19.3238 32.7423 19.1358C32.7423 19.1358 32.8046 19.1358 32.8046 19.0731C32.8046 19.0105 32.8669 18.8225 32.9291 18.7599V18.6346C33.116 18.4466 33.116 17.7574 33.2406 17.3815C33.2406 17.3815 33.3028 17.3815 33.3028 17.3188C33.3028 17.1935 33.3651 17.0682 33.4274 16.9429L33.4897 16.7549C33.552 16.6922 33.552 16.6922 33.552 16.6296C33.6143 16.5043 33.7388 16.2537 33.8011 16.003C33.8634 15.6898 33.8634 15.3765 33.9257 15.0632C33.988 14.7499 33.988 14.2487 33.9257 13.8728C33.8634 13.6848 33.988 13.6221 33.988 13.3089C33.988 13.2462 33.9257 13.1836 33.9257 12.9956C33.9257 12.6823 33.9257 12.2437 33.8634 11.9304C33.8011 11.7425 33.6766 11.4292 33.6143 11.1786C33.552 11.0533 33.552 10.928 33.4897 10.8653C33.4274 10.74 33.4274 10.6147 33.3651 10.552C33.3651 10.4894 33.2406 10.4267 33.2406 10.4267C33.1783 10.3641 33.1783 10.3014 33.1783 10.2388C33.0537 9.98814 32.9291 9.54955 32.8046 9.23627C32.8046 9.17362 32.7423 9.04831 32.7423 9.04831L32.6177 8.98565V8.86034H32.5554V8.73503H32.4931C32.4931 8.67238 32.4931 8.60972 32.4309 8.54707L32.3063 8.48441V8.3591H32.244V8.23379C32.1194 8.17113 31.9326 7.85786 31.8703 7.66989C31.808 7.60724 31.8703 7.54458 31.808 7.48193C31.808 7.41927 31.6834 7.41927 31.6834 7.41927C31.5589 7.23131 31.4966 7.10599 31.372 6.98068C31.3097 6.91803 31.2475 6.85537 31.1852 6.79272C31.0606 6.66741 30.8737 6.47944 30.8115 6.41679C30.6246 6.29148 30.3755 6.16617 30.1263 6.04086C30.064 6.04086 30.064 5.91555 30.0018 5.91555C29.8149 5.79024 29.4412 5.60227 29.1921 5.47696C29.1298 5.4143 29.1298 5.35165 29.0675 5.35165H28.9429C28.8806 5.28899 28.8806 5.16368 28.8183 5.16368C28.7561 5.10103 28.6938 5.16368 28.6315 5.10103C28.5692 5.10103 28.5069 4.97572 28.5069 4.97572H28.3824C28.3201 4.85041 27.9464 4.78775 27.6972 4.7251C27.5727 4.66244 27.3858 4.7251 27.3235 4.66244C27.3235 4.66244 27.3235 4.59979 27.2612 4.59979C27.0744 4.59979 26.9498 4.47448 26.7007 4.41182C26.4515 4.34916 26.2024 4.22385 25.9533 4.1612H25.8287V4.09854C25.455 3.97323 24.9567 3.84792 24.5207 3.78527C24.2716 3.72261 24.0224 3.72261 23.7733 3.65996C23.7733 3.65996 23.7733 3.5973 23.711 3.5973C23.5864 3.5973 23.3996 3.53465 23.1504 3.47199C22.9013 3.40934 22.6522 3.40934 22.403 3.34668C21.967 3.28403 21.4688 3.22137 20.8459 3.15872C20.8459 3.15872 20.8459 3.09606 20.7836 3.09606C20.7213 3.09606 20.5968 3.09606 20.5345 3.09606C20.0362 3.0334 19.3511 2.90809 18.7282 2.84544C17.794 2.72013 16.9843 2.72013 16.2368 2.97075H16.1123C16.05 3.0334 15.9877 3.09606 15.9254 3.09606H15.8008V3.15872C15.614 3.22137 15.4894 3.22137 15.2403 3.28403C15.2403 3.28403 15.2403 3.34668 15.178 3.34668C15.0534 3.34668 14.9289 3.40934 14.8043 3.47199C14.6174 3.53465 14.3683 3.5973 14.1192 3.65996C13.434 3.91058 12.7489 4.09854 12.1261 4.41182C12.0015 4.47448 11.8769 4.59979 11.7523 4.59979C11.6278 4.59979 11.6278 4.7251 11.5032 4.7251L11.3786 4.78775C11.3164 4.85041 11.3164 4.91306 11.2541 4.91306H11.1295C11.0672 4.97572 11.0049 5.03837 10.8804 5.10103C10.8181 5.10103 10.8804 5.16368 10.8181 5.16368L10.6935 5.22634C10.6312 5.22634 10.6312 5.35165 10.5689 5.35165C10.4444 5.4143 10.3198 5.47696 10.2575 5.53961C10.1329 5.60227 10.0707 5.72758 9.94609 5.79024C9.8838 5.85289 9.75923 5.9782 9.69695 6.04086C9.51009 6.22882 9.19867 6.35413 9.01182 6.47944C8.94953 6.5421 8.88725 6.66741 8.82496 6.73006C8.7004 6.85537 8.51354 6.98069 8.38897 7.16865C8.20212 7.35662 8.01526 7.60724 7.76612 7.85786C7.70384 7.92051 7.64155 8.04582 7.57927 8.10848C7.51698 8.17113 7.4547 8.23379 7.39242 8.29645C7.33013 8.3591 7.39242 8.42176 7.33013 8.48441C7.33013 8.54707 7.20556 8.54707 7.20556 8.54707C7.14328 8.60972 7.20556 8.67238 7.14328 8.73503L7.01871 8.79769C6.95642 8.86034 7.01871 8.923 6.95642 8.98565C6.89414 9.04831 6.70728 9.11096 6.645 9.23627C6.58271 9.29893 6.645 9.36158 6.58271 9.42424L6.45815 9.48689C6.39586 9.54955 6.39586 9.67486 6.33358 9.73752C6.27129 9.80017 6.14672 9.80017 6.14672 9.92548C6.14672 9.98814 6.02215 9.98814 6.02215 10.0508V10.1761H5.95987C5.89758 10.2388 5.95987 10.3641 5.89758 10.4267C5.89758 10.4894 5.77301 10.552 5.77301 10.552C5.71073 10.6773 5.71073 10.8653 5.64844 10.928C5.64844 10.928 5.58616 10.928 5.58616 10.9906C5.58616 11.0533 5.52387 11.2412 5.46159 11.3039C5.39931 11.4292 5.3993 11.5545 5.33702 11.6798C5.21245 11.9304 5.15017 12.1811 5.0256 12.4943C4.96331 12.6197 4.96331 12.8076 4.90103 12.8703C4.90103 12.9329 4.77646 12.9956 4.77646 12.9956C4.65189 13.2462 4.65189 13.7475 4.5896 14.1234C4.5896 14.1234 4.52732 14.1234 4.52732 14.186C4.52732 14.374 4.46503 14.4367 4.46503 14.7499C4.46503 14.8752 4.46503 15.0006 4.46503 15.0632C4.46503 15.0632 4.40275 15.0632 4.40275 15.1259C4.40275 15.6898 4.34047 16.379 4.27818 16.9429C4.27818 17.1308 4.2159 17.3815 4.2159 17.6321C4.2159 17.82 4.27818 18.0707 4.27818 18.2586C4.27818 18.4466 4.2159 18.5719 4.15361 18.8225C4.02904 19.5117 4.09133 20.3263 4.15361 21.2661C4.15361 21.3914 4.15361 21.5794 4.15361 21.7047C4.15361 21.83 4.2159 21.83 4.2159 21.8926C4.2159 21.8926 4.15361 21.8926 4.15361 21.9553V22.0179C4.15361 22.1433 4.02904 22.2686 4.02904 22.3312C3.96676 22.8325 4.15361 23.0204 4.27818 23.459C4.34047 23.7096 4.40275 24.0229 4.46503 24.2735C4.46503 24.2735 4.52732 24.2735 4.52732 24.3362C4.5896 24.4615 4.65189 24.5868 4.65189 24.7121C4.71417 24.8374 4.77646 24.9001 4.77646 25.0254C4.83874 25.276 4.90103 25.7146 4.96331 25.9652C4.96331 25.9652 5.0256 25.9652 5.0256 26.0279C5.0256 26.0905 5.0256 26.1532 5.08788 26.2158C5.27474 26.5291 5.46159 27.0304 5.64844 27.4063C5.64844 27.4063 5.71073 27.4063 5.71073 27.4689C5.77301 27.6569 5.8353 27.8449 5.89758 28.0955C5.95987 28.2208 6.08444 28.4088 6.08444 28.4714C6.08444 28.5341 6.20901 28.5967 6.20901 28.6594C6.20901 28.7221 6.33358 28.7847 6.33358 28.8474C6.33358 28.91 6.45815 29.0353 6.52043 29.098L6.645 29.1606C6.70728 29.2233 6.70728 29.3486 6.76957 29.4113C6.83185 29.4739 6.95642 29.4739 6.95642 29.5366C7.01871 29.5992 6.95642 29.6619 7.01871 29.7245C7.14328 29.8498 7.33013 29.9752 7.4547 30.1631C7.51699 30.2258 7.64155 30.3511 7.70384 30.4764C7.76612 30.6017 7.95298 30.7897 8.07755 30.915C8.20212 31.0403 8.45125 31.2283 8.63811 31.3536C8.70039 31.4162 8.70039 31.4789 8.76268 31.4789H8.88725L8.94953 31.6042C9.01182 31.6668 9.0741 31.6042 9.13639 31.6668L9.19867 31.7922C9.26096 31.8548 9.38553 31.8548 9.44781 31.9175C9.57238 31.9801 9.63466 32.1681 9.69695 32.2307H9.82152C10.0084 32.4814 10.3821 32.8573 10.6935 33.0453C10.8804 33.1706 11.0672 33.1706 11.3164 33.2332C11.5032 33.2959 11.6901 33.4212 11.8769 33.4839C11.9392 33.4839 11.8769 33.5465 11.9392 33.5465C12.0015 33.5465 12.0015 33.6718 12.0638 33.6718C12.1261 33.7345 12.2506 33.6718 12.3752 33.7345C12.562 33.7971 12.7489 33.8598 12.998 33.9224C13.3717 34.0478 13.7455 34.2984 14.0569 34.4863C14.742 34.8623 15.4894 35.0502 16.2991 35.3635C16.8597 35.5515 17.4203 35.8647 18.0431 35.9901C18.2922 36.0527 18.5414 35.9901 18.7905 36.0527C18.9774 36.1154 19.2265 36.178 19.4756 36.178C19.6002 36.178 19.7248 36.1154 19.8494 36.178C19.8494 36.178 19.8494 36.2407 19.9116 36.2407C19.9739 36.2407 20.0362 36.366 20.0985 36.366L20.2231 36.4286C20.2853 36.4286 20.3476 36.4913 20.4099 36.4913C20.4722 36.4913 20.5345 36.6166 20.5345 36.6166C20.5968 36.6793 20.6591 36.6166 20.7213 36.6793C20.9705 36.8672 21.095 37.1805 21.095 37.4311C21.095 37.6191 21.1573 37.8071 21.095 38.0577C21.095 38.0577 21.0328 38.0577 21.0328 38.1203L20.9705 38.3083L20.8459 38.371C20.8459 38.4336 20.8459 38.4963 20.8459 38.4963C20.8459 38.5589 20.7213 38.6216 20.6591 38.6842C20.5345 38.8096 20.4099 38.9975 20.2231 39.1228L20.1608 39.1855C19.9739 39.2481 19.7248 39.1855 19.4756 39.2481C19.1642 39.8747 18.9151 40 18.7905 40C18.2922 40 17.6694 39.812 17.0465 39.7494C16.7974 39.6867 16.6105 39.6241 16.3614 39.6241C16.1746 39.6241 15.9877 39.5614 15.8008 39.4988C15.6763 39.3734 15.5517 39.3734 15.4271 39.3108C15.3649 39.2481 15.3026 39.2481 15.2403 39.2481C15.178 39.2481 15.178 39.1855 15.178 39.1855C15.0534 39.1228 14.9289 39.1855 14.8043 39.1228C14.8043 39.1228 14.8043 39.0602 14.742 39.0602C14.6174 38.9975 14.5552 38.9349 14.4306 38.9349C14.306 38.8722 14.2437 38.8095 14.1192 38.8095C13.9946 38.7469 13.9323 38.8095 13.8077 38.7469C13.7455 38.7469 13.6832 38.6216 13.6832 38.6216C13.6209 38.6216 13.5586 38.6216 13.4963 38.6216C13.434 38.6216 13.3717 38.4963 13.3717 38.4963C13.1849 38.4336 13.1849 38.4963 12.998 38.4336C12.998 38.4336 12.998 38.371 12.9358 38.371H12.8735C12.8112 38.371 12.7489 38.2457 12.7489 38.2457C12.4375 38.1203 12.3752 38.1203 12.3129 38.1203C12.1261 38.0577 11.8769 37.9324 11.5655 37.8697C11.5655 37.8697 11.5655 37.8071 11.5032 37.8071C11.3786 37.8071 11.3164 37.8071 11.2541 37.7444C11.1918 37.7444 11.1295 37.6191 11.1295 37.6191C11.0049 37.5564 10.7558 37.4938 10.5689 37.4311C10.5067 37.3685 10.5066 37.3058 10.4444 37.3058H10.3198C10.2575 37.2432 10.1329 37.1805 10.0084 37.1179C9.8838 37.0552 9.75923 37.0552 9.63467 36.9925C9.57238 36.9925 9.5101 36.8672 9.5101 36.8672H9.38553V36.8046C9.26096 36.7419 9.13639 36.7419 9.0741 36.6793C9.01182 36.6793 8.94953 36.554 8.94953 36.554C8.88725 36.554 8.82496 36.554 8.76268 36.554C8.70039 36.554 8.63811 36.4286 8.63811 36.4286C8.51354 36.366 8.38897 36.366 8.2644 36.3033C8.2644 36.3033 8.2644 36.2407 8.20212 36.2407C8.07755 36.2407 8.01526 36.1154 7.89069 36.0527C7.82841 35.9901 7.70384 35.9274 7.64155 35.9274C7.57927 35.9274 7.51699 35.8021 7.4547 35.7394H7.33013L7.26785 35.6141H7.14328C7.08099 35.5515 7.01871 35.4262 6.89414 35.3635C6.76957 35.3009 6.645 35.1129 6.58271 35.0502H6.45815C6.39586 34.9249 6.20901 34.737 6.08444 34.6116H5.95987L5.89758 34.4863H5.77301C5.71073 34.4237 5.64844 34.2984 5.52387 34.2357C5.33702 34.1104 5.21245 33.9224 4.96331 33.7971C4.83874 33.6718 4.5896 33.5465 4.40275 33.3585C4.27818 33.2332 4.09133 33.0453 4.02904 32.92C4.02904 32.8573 3.90447 32.732 3.84219 32.6693C3.71762 32.544 3.59305 32.4187 3.53076 32.3561C3.40619 32.2308 3.34391 32.1054 3.28163 31.9801C3.15706 31.8548 3.03249 31.7922 2.9702 31.6668C2.84563 31.5415 2.78335 31.4162 2.72106 31.2909C2.65878 31.1656 2.53421 31.0403 2.47192 30.9776C2.34736 30.727 2.22279 30.3511 2.03593 30.0378C1.97365 29.9752 1.97365 29.9125 1.97365 29.8498C1.97365 29.7872 1.91136 29.7872 1.91136 29.7872C1.84908 29.6619 1.91136 29.5992 1.84908 29.5366C1.84908 29.4739 1.72451 29.4113 1.72451 29.4113C1.66222 29.2859 1.66222 29.2233 1.66222 29.1606C1.59994 29.0353 1.59994 28.9727 1.53765 28.8474C1.53765 28.7847 1.47537 28.7221 1.41308 28.5967C1.3508 28.4088 1.3508 28.2835 1.28851 28.1582C1.28851 28.0955 1.16395 28.0328 1.16395 28.0328C1.16395 27.9702 1.16395 27.9075 1.16395 27.9075C1.10166 27.6569 0.914807 27.2183 0.852522 26.9051C0.790238 26.7171 0.852522 26.5291 0.790237 26.3412C0.790237 26.3412 0.727953 26.3412 0.727953 26.2785V26.2158C0.727953 26.1532 0.665668 26.0905 0.665668 26.0279C0.603383 25.7773 0.416529 25.3387 0.354244 25.0254C0.291959 24.7748 0.229675 24.5242 0.167391 24.2109C0.105106 24.0229 0.105106 23.459 0.105106 23.0204C0.105106 22.7072 0.0428207 22.3312 0.0428207 22.0179C0.0428207 21.2034 0.16739 20.4516 0.105106 19.5744C0.105106 19.5744 -0.0817487 19.3238 0.0428207 19.2611C0.229675 19.1358 0.0428207 18.6346 0.0428207 18.3839C0.0428207 18.2586 0.167391 18.0707 0.167391 17.9454C0.167391 17.8827 0.167391 17.7574 0.167391 17.6947C0.229675 17.4441 0.291959 16.8802 0.354244 16.5043C0.416529 15.9404 0.416529 15.5018 0.478814 14.9379C0.478814 14.8126 0.541099 14.562 0.541099 14.4993C0.541099 14.4993 0.603384 14.4993 0.603384 14.4367V14.2487C0.665669 14.186 0.665668 14.0607 0.727953 13.9354C0.790237 13.7475 0.852523 13.5595 0.914807 13.3715C0.977092 13.1836 1.03938 12.9329 1.10166 12.745C1.10166 12.745 1.16395 12.745 1.16395 12.6823C1.16395 12.557 1.28851 12.557 1.28851 12.4317C1.28851 12.369 1.47537 12.0558 1.53765 11.8678V11.7425C1.59994 11.6798 1.66222 11.4292 1.72451 11.3039C1.91136 11.0533 1.97365 10.4267 2.09822 10.1134C2.09822 10.0508 2.1605 10.1134 2.1605 10.0508C2.1605 9.98814 2.28507 9.98814 2.28507 9.92548V9.80017H2.34735V9.67486H2.40964V9.54955H2.47192V9.42424H2.53421C2.59649 9.29893 2.65878 9.17362 2.72106 9.04831C2.72106 8.98565 2.78335 9.04831 2.78335 8.98565V8.923C2.84563 8.86034 2.90792 8.79769 2.9702 8.73503C3.03249 8.67238 3.03249 8.54707 3.09477 8.48441C3.15706 8.42176 3.21934 8.3591 3.28163 8.29645C3.34391 8.23379 3.34391 8.10848 3.4062 8.04582C3.46848 7.98317 3.53076 7.92051 3.59305 7.85786C3.65533 7.7952 3.65533 7.66989 3.71762 7.60724C3.7799 7.54458 3.84219 7.48193 3.90447 7.41927V7.29396C4.09133 7.16865 4.27818 6.98068 4.46503 6.73006C4.5896 6.60475 4.65189 6.47944 4.77646 6.35413C4.83874 6.29148 4.90103 6.22882 4.96331 6.16617C5.08788 6.04086 5.15017 5.85289 5.27474 5.72758C5.52388 5.4143 5.77301 5.16368 6.02215 4.91306C6.08444 4.85041 6.14672 4.78775 6.20901 4.7251C6.27129 4.66244 6.39586 4.66244 6.45815 4.59979C6.58271 4.53713 6.70728 4.28651 6.83185 4.22385C6.95642 4.09854 7.14328 3.97323 7.26785 3.91058C7.39242 3.84792 7.4547 3.72261 7.57927 3.65996C7.64155 3.5973 7.82841 3.53465 7.89069 3.47199C7.95298 3.40934 8.01526 3.28403 8.07755 3.28403H8.20212V3.22137H8.32668V3.15872C8.45125 3.09606 8.57583 3.0334 8.70039 2.97075C8.76268 2.97075 8.70039 2.90809 8.76268 2.90809H8.82496C8.88725 2.84544 8.94953 2.78278 9.01182 2.72013H9.13639C9.19867 2.65747 9.19867 2.65747 9.26096 2.59482C9.32324 2.53216 9.38553 2.46951 9.44781 2.40685C9.5101 2.3442 9.63466 2.3442 9.69695 2.28154C9.75923 2.28154 9.69695 2.21889 9.75924 2.21889C9.8838 2.21889 9.94609 2.09358 10.0084 2.03092H10.1329V1.96826H10.2575V1.90561H10.3821V1.84295H10.5066V1.7803H10.6312V1.71764H10.7558V1.65499H10.8804C11.0049 1.52968 11.4409 1.34171 11.6901 1.27906H11.8146V1.2164H11.9392C12.0015 1.15375 12.3129 1.02844 12.562 0.965782C12.7489 0.903126 12.998 0.84047 13.1849 0.777815C13.3095 0.71516 13.4963 0.715161 13.6209 0.652505C13.8077 0.58985 14.306 0.464539 14.6797 0.401883C14.8043 0.401883 14.8666 0.339229 14.9911 0.339229C14.9911 0.339229 14.9911 0.276574 15.0534 0.276574H15.2403C15.3026 0.213918 15.4271 0.276573 15.614 0.213918C15.614 0.213918 15.614 0.151263 15.6763 0.151263C15.7386 0.151263 15.8631 0.151263 15.9254 0.151263C15.9254 0.151263 15.9254 0.0886071 15.9877 0.0886071C16.05 0.0886071 16.1123 0.0886071 16.1746 0.0886071C16.486 0.0259519 17.2334 -0.0367024 17.7317 0.0259529C17.7317 0.0259529 17.7317 0.0886071 17.794 0.0886071C17.9808 0.0886071 18.3545 0.0886074 18.6037 0.151263C18.6659 0.151263 18.7282 0.151263 18.7905 0.151263C18.9774 0.213918 19.5379 0.213918 19.7871 0.276574C19.9116 0.339229 19.9116 0.276574 19.9739 0.339229C20.0985 0.46454 20.9705 0.339229 21.2819 0.339229C21.4688 0.339229 21.7179 0.464539 21.967 0.464539C22.1539 0.527194 22.403 0.464539 22.6522 0.527194C22.6522 0.527194 22.6522 0.58985 22.7145 0.58985C22.7767 0.58985 22.9013 0.58985 22.9636 0.58985C22.9636 0.58985 22.9636 0.652505 23.0259 0.652505H23.2127V0.71516C23.3373 0.71516 23.4619 0.777815 23.5242 0.777815C23.8356 0.84047 24.3339 0.965781 24.7698 1.02844C24.9567 1.09109 25.1436 1.09109 25.455 1.09109C25.5795 1.09109 25.6418 1.15375 25.7041 1.15375C26.0155 1.2164 26.327 1.2164 26.5761 1.27906C26.5761 1.27906 26.5761 1.34171 26.6384 1.34171C26.8252 1.34171 27.1367 1.46702 27.3235 1.52968C27.4481 1.59233 27.5727 1.52968 27.6349 1.59233C27.6349 1.59233 27.6349 1.65499 27.6972 1.65499C27.8841 1.65499 28.0086 1.7803 28.1332 1.84295H28.2578V1.90561H28.3824V1.96826C28.5069 2.03092 28.7561 2.03092 28.8183 2.09358L28.8806 2.21889H29.0052V2.28154H29.1298V2.3442H29.2543V2.40685H29.3789V2.46951H29.5035V2.53216H29.6281C29.6903 2.65747 29.8772 2.65747 30.064 2.72013H30.1886C30.2509 2.78278 30.3755 2.78278 30.5 2.84544C30.5 2.84544 30.5 2.90809 30.5623 2.90809C30.6869 2.90809 30.6869 3.0334 30.8115 3.0334C30.936 3.0334 30.936 3.15872 31.0606 3.15872C31.1229 3.15872 31.1229 3.28403 31.1852 3.28403H31.3097V3.34668H31.4343C31.4966 3.40934 31.4966 3.53465 31.6212 3.53465H31.6834C31.7457 3.5973 31.808 3.65996 31.8703 3.72261C31.9949 3.78527 32.1194 3.84792 32.244 3.91058C32.3063 3.91058 32.244 3.97323 32.3063 3.97323C32.3686 3.97323 32.3686 4.09854 32.4309 4.09854C32.5554 4.1612 32.6177 4.1612 32.7423 4.28651C32.8046 4.34916 32.8669 4.41182 32.9291 4.47447C33.0537 4.59978 33.1783 4.78775 33.3028 4.85041H33.4274C33.4897 4.97572 33.6143 5.03837 33.7388 5.16368C33.9257 5.35165 34.1126 5.47696 34.2994 5.72758C34.3617 5.79023 34.4863 5.85289 34.5485 5.9782C34.6108 6.04086 34.5485 6.10351 34.6108 6.16617C34.6731 6.29148 34.7977 6.35413 34.86 6.41679C34.9222 6.47944 34.9845 6.47944 34.9845 6.5421C35.0468 6.60475 35.1091 6.79272 35.1714 6.91803C35.2337 7.04334 35.296 7.106 35.3582 7.23131C35.4205 7.29396 35.4828 7.35662 35.4828 7.35662C35.6074 7.60724 35.732 7.7952 35.8565 8.04582C35.8565 8.10848 35.9188 8.04582 35.9188 8.10848L35.9811 8.23379C35.9811 8.29644 36.1057 8.29644 36.1057 8.3591C36.1679 8.42176 36.1057 8.48441 36.1679 8.54707C36.1679 8.60972 36.2925 8.67238 36.2925 8.67238C36.4171 8.923 36.4794 9.17362 36.6039 9.42424C36.6039 9.4869 36.6039 9.54955 36.6662 9.61221C36.6662 9.67486 36.7908 9.73752 36.7908 9.73752C36.8531 9.80017 36.7908 9.86283 36.8531 9.92548C36.8531 9.98814 36.9776 10.0508 36.9776 10.0508C36.9776 10.1134 36.9776 10.1761 36.9776 10.1761C36.9776 10.2388 37.0399 10.3014 37.1022 10.4267C37.1022 10.4894 37.1645 10.552 37.1645 10.6147C37.1645 10.6773 37.2891 10.74 37.2891 10.74C37.3514 10.8653 37.3514 11.0533 37.3514 11.1159C37.3514 11.1159 37.4136 11.1159 37.4136 11.1786C37.4759 11.4292 37.6005 11.7425 37.6628 12.1184C37.7873 12.4317 37.8496 12.745 37.9119 13.1836C37.9742 13.5595 38.0365 14.2487 37.9742 14.8752C37.9742 14.9379 37.9742 15.0006 37.9742 15.0632C37.9119 15.4391 37.8496 16.2537 37.7873 16.7549C37.7873 16.8802 37.7873 17.0055 37.7251 17.0682C37.7251 17.1308 37.6628 17.0682 37.6628 17.1308C37.6628 17.2561 37.4759 17.5068 37.4136 17.7574C37.3514 17.9454 37.2891 18.1333 37.2891 18.3213C37.2268 18.5093 37.2891 18.6346 37.2268 18.8852C37.2268 18.9478 37.1645 18.9478 37.1645 19.0105C37.1645 19.1358 37.1645 19.3238 37.1022 19.3864C37.1022 19.3864 37.0399 19.3864 37.0399 19.4491C37.0399 19.637 36.7908 19.9503 36.7285 20.2009C36.6662 20.3263 36.7285 20.3889 36.6662 20.4516C36.6662 20.5142 36.5417 20.5769 36.5417 20.5769C36.4794 20.7648 36.4171 21.0155 36.3548 21.2661C36.3548 21.2661 36.2925 21.2661 36.2925 21.3287C36.2302 21.454 36.2302 21.5167 36.1679 21.642C36.1679 21.7047 36.1057 21.7673 36.1057 21.83C35.9811 22.0806 35.8565 22.3312 35.7319 22.5818C35.6074 22.8325 35.4828 23.1457 35.3582 23.3964C35.3582 23.459 35.296 23.3964 35.296 23.459L35.2337 23.5843C35.2337 23.647 35.1091 23.647 35.1091 23.7096C35.0468 23.8349 34.9845 23.9603 34.9223 24.0229C34.7354 24.2735 34.6108 24.5242 34.4863 24.7748C34.424 24.9001 34.3617 25.0254 34.2994 25.1507C34.2994 25.2134 34.1748 25.2134 34.1748 25.276C34.1748 25.3387 34.1748 25.4013 34.1125 25.464C34.0503 25.5266 33.9257 25.5266 33.9257 25.5893C33.8634 25.6519 33.9257 25.7146 33.8634 25.7773L33.7388 25.8399C33.6766 25.9026 33.6766 26.0279 33.6143 26.0905C33.552 26.1532 33.4274 26.1532 33.4274 26.2158C33.3651 26.2785 33.4274 26.3412 33.3651 26.4038C33.3028 26.4665 33.1783 26.4665 33.1783 26.5291C33.116 26.5918 33.1783 26.6544 33.116 26.7171C32.9291 26.9051 32.7423 27.093 32.4931 27.3436C32.3686 27.4689 32.3063 27.5943 32.244 27.6569C32.1817 27.7196 32.1194 27.6569 32.0572 27.7196C31.9949 27.7822 31.9949 27.8449 31.9326 27.8449C31.6212 28.0955 31.372 28.4088 30.9983 28.7221C30.8737 28.8474 30.7492 28.9727 30.6246 29.0353C30.5623 29.0353 30.5623 29.098 30.5623 29.098C30.5 29.098 30.4378 29.098 30.3755 29.1606L30.3132 29.286C30.2509 29.3486 30.1886 29.3486 30.064 29.4113C30.0018 29.4739 29.9395 29.4739 29.8772 29.5366C29.7526 29.5992 29.6903 29.6619 29.5658 29.7245C29.4412 29.7872 29.3789 29.8498 29.1298 29.9125C29.0052 29.9752 28.8806 29.9125 28.8183 29.9752C28.8183 29.9752 28.8184 30.0378 28.7561 30.0378C28.5692 30.0378 28.4446 30.1631 28.3201 30.2258C27.1989 30.6644 25.8287 30.9776 24.3961 31.103C24.147 31.103 23.8979 31.1656 23.6487 31.1656C23.4619 31.1656 23.3373 31.0403 23.0882 31.103C23.0259 31.103 23.0259 31.1656 22.9636 31.1656C22.839 31.1656 21.9047 31.0403 21.8425 31.1656C21.7802 31.2283 21.7179 31.1656 21.531 31.1656C20.5345 31.103 19.6002 31.0403 18.6659 30.8523C18.4791 30.7897 18.23 30.7897 17.9808 30.727C17.794 30.6644 17.5448 30.6644 17.2957 30.6017C17.2957 30.6017 17.2957 30.5391 17.2334 30.5391C17.1088 30.5391 17.1088 30.4764 17.0465 30.4764C16.922 30.4137 16.7974 30.4137 16.7351 30.4137C16.6105 30.3511 16.486 30.3511 16.4237 30.3511C16.4237 30.3511 16.4237 30.2884 16.3614 30.2884H16.1746V30.2258C15.9254 30.1631 15.7386 30.1631 15.4894 30.1005C15.4894 30.1005 15.4894 30.0378 15.4271 30.0378C15.3026 30.0378 15.1157 29.9125 14.9911 29.8498C14.742 29.7245 14.5552 29.6619 14.306 29.5366C14.2437 29.5366 14.306 29.4739 14.2437 29.4739C14.1192 29.4739 14.1192 29.3486 13.9946 29.3486C13.9323 29.3486 13.9323 29.2233 13.87 29.2233H13.7455V29.1606H13.6209V29.098H13.4963V29.0353H13.3717V28.9727H13.2472V28.91H13.1226C13.0603 28.8474 13.0603 28.8474 12.998 28.7847C12.9358 28.7221 12.8112 28.7221 12.7489 28.6594C12.6866 28.5967 12.6243 28.5341 12.562 28.4714C12.4998 28.4088 12.3752 28.4088 12.3129 28.3461C12.2506 28.2835 12.1883 28.2208 12.1261 28.1582H12.0015C11.9392 28.0328 11.8769 28.0328 11.7523 27.9702C11.6901 27.9702 11.7523 27.9075 11.6901 27.9075H11.6278C11.5655 27.8449 11.5032 27.7822 11.4409 27.7196C11.3786 27.6569 11.3164 27.5943 11.2541 27.5943C11.1918 27.5943 10.8804 27.281 10.8181 27.2183C10.6935 27.093 10.5066 27.0304 10.4444 26.9051C10.3821 26.8424 10.3198 26.7797 10.3198 26.7797V26.6544C10.2575 26.5918 10.1329 26.5918 10.1329 26.4665C10.1329 26.3412 9.94609 26.3412 9.94609 26.2158C9.94609 26.1532 9.82152 26.0279 9.75924 25.9652C9.69695 25.9026 9.75923 25.8399 9.69695 25.7773C9.69695 25.7146 9.57238 25.7146 9.57238 25.7146V25.5893C9.26096 25.3387 9.13639 24.7121 8.88725 24.2735C8.82496 24.2109 8.76268 24.2109 8.76268 24.1482V24.0229H8.70039V23.8976H8.63811V23.7723C8.45125 23.5843 8.2644 23.3337 8.07755 22.9578V22.8325H8.01526V22.7072C7.95298 22.6445 7.89069 22.3312 7.82841 22.1433V22.0179C7.70384 21.8926 7.64155 21.2034 7.64155 20.8901C7.64155 20.7022 7.57927 20.5142 7.57927 20.2636C7.51698 19.6997 7.57927 19.0731 7.64155 18.4466C7.70384 17.7574 7.70384 17.1308 7.89069 16.5669V16.4416C8.01526 16.379 8.07755 15.8777 8.13983 15.6271C8.20212 15.3765 8.32669 15.1259 8.38897 14.8752C8.38897 14.8752 8.45125 14.8752 8.45125 14.8126C8.45125 14.6873 8.51354 14.6873 8.51354 14.562C8.57583 13.4968 8.57583 13.3715 8.70039 13.3089Z" fill="#3B2B15"/>
</svg>
