<svg width="16" height="19" viewBox="0 0 16 19" fill="none" xmlns="http://www.w3.org/2000/svg">
<path d="M8.35262 9.61244C10.7362 9.61244 12.6701 7.67858 12.6701 5.29498C12.6701 2.91138 10.7362 1 8.35262 1C5.96902 1 4.03516 2.93386 4.03516 5.31747C4.03516 7.70107 5.96902 9.61244 8.35262 9.61244ZM8.35262 1.83201C10.264 1.83201 11.8156 3.3836 11.8156 5.29498C11.8156 7.20636 10.264 8.75795 8.35262 8.75795C6.44124 8.75795 4.88965 7.20636 4.88965 5.29498C4.88965 3.3836 6.44124 1.83201 8.35262 1.83201Z" fill="" stroke="" stroke-width="0.4"/>
<path d="M8.35318 10.647C7.88096 10.647 7.40874 10.6919 6.959 10.7819C5.31747 11.0967 3.83334 11.9737 2.75397 13.233C1.62963 14.5597 1 16.2462 1 18.0002H1.83201C1.83201 16.4486 2.39418 14.9644 3.3836 13.7726C4.35053 12.6483 5.65477 11.8837 7.11641 11.5914C7.52117 11.524 7.94842 11.479 8.35318 11.479C11.9511 11.479 14.8744 14.4023 14.8744 18.0002H15.7289C15.7289 13.9525 12.4233 10.647 8.35318 10.647Z" fill="" stroke="" stroke-width="0.4"/>
</svg>
