<svg width="51" height="48" viewBox="0 0 51 48" fill="none" xmlns="http://www.w3.org/2000/svg">
<path d="M50.2504 23.4714C49.6932 10.5458 38.0191 -0.349424 25.1479 0.00857945C23.6755 0.0496321 22.2121 0.300174 20.7837 0.669045C9.75257 0.669045 -0.871628 13.5934 0.132351 24.1017C1.30296 36.3505 15.3152 47.0616 27.1505 47.0652C39.7379 47.0682 50.7932 36.0571 50.2504 23.4714ZM30.5802 43.6741C19.6106 46.1047 7.25016 36.8497 3.77336 26.752C0.759008 17.9969 9.08848 5.64065 18.466 3.88444C18.7866 4.16154 19.2327 4.28832 19.7736 4.11083C20.2627 3.95024 20.7517 3.81742 21.2401 3.69608C22.0961 3.73713 22.9522 3.86391 23.801 4.11083C24.7126 4.37586 25.3647 3.82105 25.5838 3.12013C35.0163 2.93721 43.5444 9.64087 46.435 18.9973C49.9945 30.518 41.7229 41.2049 30.5802 43.6741Z" fill="white"/>
<path d="M36.275 25.349C33.4418 24.3939 25.6055 27.0098 24.8316 23.1092C24.1621 19.7344 24.5291 15.2651 25.2548 11.9114C25.6653 10.0134 22.7554 9.2068 22.3443 11.1091C21.4586 15.2029 20.9853 20.611 22.1004 24.6794C23.6773 30.4341 31.7073 26.9911 35.4727 28.2601C37.3225 28.8831 38.1091 25.9672 36.275 25.349Z" fill="white"/>
</svg>
