<svg width="35" height="32" viewBox="0 0 35 32" fill="none" xmlns="http://www.w3.org/2000/svg">
<path d="M34.1205 15.9584C33.7416 7.1702 25.8044 -0.237576 17.0531 0.00583323C16.052 0.0337453 15.057 0.204091 14.0858 0.454889C6.58569 0.454889 -0.637777 9.24225 0.0448366 16.3869C0.84074 24.715 10.3678 31.9975 18.4146 32C26.973 32.0021 34.4895 24.5155 34.1205 15.9584ZM20.7465 29.6944C13.2883 31.3469 4.88429 25.0544 2.52039 18.1889C0.470905 12.2362 6.13418 3.83512 12.51 2.64106C12.728 2.82946 13.0313 2.91566 13.3991 2.79498C13.7316 2.6858 14.0641 2.5955 14.3961 2.51299C14.9782 2.5409 15.5602 2.6271 16.1374 2.79498C16.7572 2.97518 17.2005 2.59796 17.3495 2.1214C23.7627 1.99703 29.561 6.5549 31.5263 12.9164C33.9465 20.7494 28.3226 28.0156 20.7465 29.6944Z" fill=""/>
<path d="M24.6176 17.2351C22.6913 16.5858 17.3634 18.3643 16.8371 15.7123C16.3819 13.4177 16.6315 10.379 17.1249 8.09886C17.404 6.80834 15.4255 6.25995 15.146 7.55335C14.5438 10.3367 14.222 14.0137 14.9802 16.7799C16.0523 20.6925 21.512 18.3516 24.0721 19.2144C25.3298 19.638 25.8646 17.6554 24.6176 17.2351Z" fill=""/>
</svg>
