<svg viewBox="0 0 28 30" fill="none" xmlns="http://www.w3.org/2000/svg">
    <path fill-rule="evenodd" clip-rule="evenodd" d="M6.41082 9.98165C6.45671 9.79368 6.64029 9.6997 6.68618 9.51174C6.73207 9.22979 6.77797 8.99483 6.91565 8.75987L6.96155 8.71288C7.00744 8.57191 7.05333 8.43093 7.09923 8.28996C7.09923 8.28996 7.14512 8.28996 7.14512 8.24297C7.14512 8.14898 7.19102 8.14898 7.19102 8.10199C7.19102 8.055 7.19101 7.96102 7.23691 7.91403L7.3287 7.86704C7.37459 7.82004 7.37459 7.72606 7.42049 7.67907C7.51227 7.63208 7.60406 7.58509 7.64996 7.53809C7.97121 7.20915 8.29247 6.78623 8.61373 6.50428C8.70552 6.45729 8.75141 6.36331 8.79731 6.31632C8.8432 6.26932 8.8432 6.22233 8.88909 6.22233H8.98088V6.17534C9.02677 6.12835 9.07267 6.17534 9.11856 6.12835L9.16446 6.03437C9.21035 5.98738 9.25624 5.98738 9.30214 5.98738C9.34803 5.98738 9.30214 5.94039 9.34803 5.94039L9.48571 5.89339L9.53161 5.79941C9.6234 5.75242 9.66929 5.75242 9.76108 5.70543C9.80697 5.65844 9.85287 5.61145 9.89876 5.56445C9.94465 5.51746 9.94465 5.47047 9.99055 5.47047H10.0823C10.1282 5.42348 10.1282 5.37649 10.1741 5.37649H10.2659V5.3295C10.3118 5.3295 10.4495 5.28251 10.5413 5.28251C10.7249 5.23551 11.0461 5.18852 11.2756 5.14153C11.8263 5.04755 12.1935 4.95356 12.836 5.00056C12.836 5.00056 12.836 5.04755 12.8819 5.04755C12.9278 5.04755 13.0196 5.04755 13.0654 5.04755C13.1572 5.04755 13.1572 5.00056 13.249 5.00056C13.3408 5.00056 13.3867 5.04755 13.4785 5.04755C13.5703 5.04755 13.5703 5.00056 13.6621 5.00056C13.8456 5.00056 13.9833 5.00056 14.1669 5.00056C14.4423 5.00056 14.7635 5.09454 15.0389 5.09454C15.406 5.14153 15.7273 5.09454 15.9568 5.14153C15.9568 5.14153 15.9568 5.18852 16.0027 5.18852C16.0486 5.18852 16.0944 5.18852 16.1403 5.18852C16.1862 5.18852 16.2321 5.23551 16.278 5.23551C16.3239 5.23551 16.4616 5.3295 16.5534 5.37649C16.6452 5.42348 16.737 5.42348 16.8288 5.47047C16.8746 5.47047 16.9205 5.56445 16.9205 5.56445H17.0123C17.0582 5.61145 17.0582 5.61145 17.1041 5.61145C17.15 5.61145 17.1959 5.65844 17.2418 5.65844C17.2877 5.65844 17.3336 5.70543 17.4254 5.75242H17.5172C17.6089 5.8464 17.7925 5.89339 17.9761 5.94039C17.9761 5.94039 17.9761 5.98738 18.022 5.98738C18.0679 5.98738 18.1138 6.08136 18.1597 6.08136C18.2056 6.08136 18.2056 6.12835 18.2515 6.12835C18.2974 6.17534 18.3433 6.22233 18.3891 6.26933C18.435 6.31632 18.4809 6.26932 18.5268 6.31632C18.5727 6.31632 18.5727 6.4103 18.5727 6.4103C18.6186 6.45729 18.7104 6.45729 18.7563 6.50428C18.8022 6.55127 18.8022 6.55127 18.8481 6.59827C19.0317 6.73924 19.3529 7.06818 19.5365 7.30314C19.5824 7.35013 19.6283 7.39712 19.6742 7.44411C19.7201 7.4911 19.7201 7.58509 19.766 7.63208C19.8119 7.67907 19.8578 7.72606 19.9036 7.77305C20.2249 8.19597 20.4085 8.47792 20.5921 8.99483C20.638 9.1358 20.6838 9.27678 20.7297 9.46474C20.7756 9.51173 20.8215 9.60572 20.8215 9.65271C20.8674 9.79368 20.9133 9.98165 20.9592 10.1226C20.9592 10.1696 20.9592 10.2166 20.9592 10.2636C20.9592 10.3106 21.0051 10.3106 21.0051 10.3576C21.051 10.6395 20.9592 10.9685 20.9592 11.2974C20.9133 11.7203 20.9133 12.0493 20.8674 12.4252V12.5192C20.8215 12.5662 20.8215 12.6602 20.7756 12.8011C20.7297 12.8951 20.6838 12.9891 20.6838 13.0361C20.638 13.1301 20.6838 13.2241 20.638 13.318C20.638 13.318 20.5921 13.318 20.5921 13.365C20.5462 13.506 20.5462 13.6 20.5003 13.694V13.788C20.4085 13.8819 20.3626 14.1639 20.3167 14.3049C20.3167 14.3519 20.2249 14.3519 20.2249 14.3988C20.179 14.4928 20.1331 14.5398 20.0872 14.6338C20.0413 14.7278 19.9954 14.7748 19.9495 14.8688C19.9036 14.9627 19.8578 15.0097 19.8119 15.1037C19.8119 15.1507 19.766 15.1037 19.766 15.1507C19.766 15.2917 19.4906 15.4327 19.3529 15.5736C19.307 15.6206 19.307 15.6676 19.307 15.7146C19.307 15.7616 19.2152 15.7616 19.2152 15.8086C19.1235 15.9026 19.0776 15.9966 18.9858 16.0435C18.9399 16.0435 18.9399 16.0905 18.9399 16.0905C18.894 16.1375 18.8022 16.1845 18.7563 16.1845L18.6645 16.2315C18.6186 16.2315 18.5727 16.2785 18.5268 16.2785C18.4809 16.3255 18.4809 16.4195 18.435 16.4195C18.3891 16.4665 18.3433 16.4195 18.2974 16.4665C18.2515 16.4665 18.2974 16.5135 18.2515 16.5135L18.1597 16.5605C18.1138 16.6074 18.1138 16.6544 18.0679 16.6544C18.022 16.7014 17.9302 16.6544 17.8843 16.7014C17.8384 16.7014 17.8384 16.7954 17.7925 16.7954C17.7466 16.8424 17.7007 16.8424 17.6548 16.8894C17.6089 16.8894 17.5631 16.9834 17.5631 16.9834C17.5172 17.0304 17.4254 16.9834 17.3795 17.0304C17.3336 17.0304 17.2877 17.1243 17.2877 17.1243C17.2418 17.1243 17.1959 17.1243 17.1959 17.1243C17.15 17.1243 17.1041 17.1713 17.0582 17.1713C17.0123 17.1713 17.0123 17.2183 17.0123 17.2183C16.737 17.2653 16.4157 17.2653 16.0944 17.3123C15.6814 17.3593 15.3601 17.5003 14.9471 17.4063C14.9471 17.4063 14.9471 17.3593 14.9012 17.3593H14.8553L14.8094 17.3123C14.5799 17.2653 14.3046 17.2183 14.0751 17.1713C14.0292 17.1713 13.8915 17.0774 13.8456 17.0774C13.7997 17.0774 13.7539 17.0774 13.7539 17.0774C13.708 17.0774 13.6621 16.9834 13.6621 16.9834C13.6162 16.9364 13.5703 16.9834 13.5244 16.9364C13.4785 16.9364 13.4785 16.8424 13.4326 16.8424C13.3867 16.7954 13.3408 16.8424 13.2949 16.7954C13.249 16.7484 13.1572 16.6544 13.1113 16.6074C13.0654 16.5604 13.0196 16.5605 12.9737 16.5605C12.9278 16.5605 12.9737 16.5135 12.9278 16.5135H12.8819C12.836 16.4665 12.7442 16.3725 12.6983 16.3255C12.6524 16.2785 12.6524 16.2315 12.6065 16.2315C12.5606 16.1845 12.5147 16.2315 12.4688 16.1845C12.4229 16.1375 12.3311 16.0435 12.2852 15.9966C12.1476 15.8556 12.1017 15.8556 12.0099 15.6676C12.0099 15.6206 11.964 15.6676 11.964 15.6206C11.964 15.5266 11.8722 15.5266 11.8722 15.4327C11.8722 15.3387 11.7804 15.2917 11.7345 15.2447C11.5968 15.0567 11.4133 14.6338 11.3215 14.3988C11.2297 14.0229 11.1838 13.6 11.2297 13.2241C11.2756 12.9891 11.4133 12.7541 11.5509 12.4722C11.5968 12.3782 11.6427 12.2842 11.6886 12.1902C11.7345 12.1433 11.7345 12.0963 11.7804 12.0493C11.8263 12.0023 11.8263 11.9553 11.8722 11.9083L11.9181 11.7673C12.0099 11.6733 12.1017 11.5324 12.1935 11.3444L12.2852 11.2974V11.2034C12.377 11.1094 12.4688 11.0625 12.5606 10.9685C12.6065 10.9215 12.6524 10.8275 12.7442 10.7805L12.8819 10.7335V10.6865H12.9737C12.9737 10.6865 13.1113 10.5455 13.2031 10.5455C13.249 10.5455 13.3867 10.4986 13.4785 10.4516C13.7997 10.3576 14.0751 10.3106 14.3505 10.3576C14.4882 10.3576 14.6258 10.4046 14.7635 10.4516C14.8094 10.4516 14.7635 10.4986 14.8094 10.4986C14.9012 10.4986 14.9471 10.6395 14.993 10.6865C15.0389 10.7335 15.1307 10.7335 15.1307 10.7805C15.1766 10.8275 15.1766 10.9215 15.1766 10.9685C15.1766 10.9685 15.2225 10.9685 15.2225 11.0155C15.2225 11.0155 15.1766 11.3444 15.2225 11.3444C15.3601 11.4854 15.1307 11.8143 15.0389 11.9553C14.9012 12.0963 14.7176 12.1902 14.5799 12.3782C14.4423 12.5192 14.3505 12.7072 14.2587 12.8951C14.2587 12.9421 14.2128 12.8951 14.2128 12.9421L14.1669 13.0361C14.121 13.0831 14.0751 13.1301 14.0751 13.2241C14.0292 13.506 13.9833 13.8349 14.1669 14.1169L14.2128 14.2579H14.2587V14.3519H14.3046V14.4458C14.3964 14.5398 14.4423 14.6338 14.5799 14.7278C14.6258 14.7278 14.6258 14.7748 14.6717 14.7748C14.7635 14.8218 14.9012 15.0097 15.0848 15.0097C15.2684 15.0567 15.4519 15.0097 15.6355 14.9627C15.6814 14.9627 15.6814 14.9627 15.7273 14.9627C16.0944 14.8688 16.5075 14.7748 16.8288 14.4928C16.8746 14.4458 16.9205 14.3519 16.9664 14.3049C17.0123 14.2579 17.0582 14.2109 17.1041 14.1639C17.1959 14.0229 17.2877 13.8819 17.3336 13.741C17.3795 13.694 17.4713 13.647 17.4713 13.6V13.506H17.5172V13.412C17.6548 13.318 17.7007 12.8951 17.7925 12.5662C17.8843 12.2842 17.9761 12.0023 18.022 11.7673C18.0679 11.5324 18.0679 11.2974 18.0679 11.0625C18.0679 10.8275 18.1138 10.5925 18.0679 10.4046C18.022 10.2166 17.8384 9.88767 17.6548 9.65271C17.6089 9.60572 17.5631 9.60572 17.5631 9.55873V9.46474L17.4713 9.41775C17.7925 9.41775 17.7925 9.37076 17.7925 9.32377L17.7007 9.27678C17.6548 9.22979 17.6548 9.1358 17.6089 9.08881C17.4713 8.94784 17.2877 8.80686 17.15 8.6189C17.1041 8.52491 17.0123 8.47792 16.9664 8.43093C16.8288 8.33695 16.5075 8.19598 16.278 8.10199C16.1403 8.055 16.0027 8.00801 15.865 7.96102C15.865 7.96102 15.865 7.91403 15.8191 7.91403C15.7273 7.91403 15.6814 7.91403 15.5896 7.86704C15.2684 7.72606 14.4882 7.67907 13.9374 7.67907C13.2031 7.67907 12.377 7.58509 11.9181 7.86704C11.8722 7.86704 11.9181 7.91403 11.8722 7.91403C11.7804 7.91403 11.6886 8.00801 11.6427 8.055C11.4133 8.24297 11.092 8.52492 10.8625 8.80686C10.7707 8.94784 10.5413 8.99483 10.4036 9.1358C10.3577 9.18279 10.4036 9.27678 10.3577 9.32377C10.3577 9.37076 10.2659 9.41775 10.2659 9.41775C10.22 9.46474 10.2659 9.51173 10.22 9.55873C10.22 9.60572 10.1282 9.65271 10.1282 9.65271C10.0823 9.6997 10.1282 9.74669 10.0823 9.79368C10.0823 9.84067 9.99055 9.88767 9.99055 9.88767C9.94465 9.93466 9.99055 9.98165 9.94465 10.0286C9.94465 10.0756 9.85287 10.1226 9.85287 10.1226C9.85287 10.1696 9.85287 10.3576 9.80697 10.3576H9.76108C9.71518 10.4986 9.66929 10.6865 9.6234 10.8745V10.9685H9.5775V11.0625C9.53161 11.1094 9.53161 11.1094 9.53161 11.1564L9.48571 11.2974H9.43982C9.39393 11.3914 9.39393 11.4854 9.39393 11.5324C9.39393 11.5794 9.30214 11.6264 9.30214 11.6264C9.30214 11.6733 9.30214 11.7203 9.30214 11.7673C9.30214 11.7673 9.25624 11.7673 9.25624 11.8143V11.9553C9.21035 11.9553 9.21035 12.0493 9.16446 12.1902C9.11856 12.4252 9.11856 12.8481 9.07267 13.1771C9.07267 13.2711 8.98088 13.365 8.98088 13.459C8.93499 13.694 8.93499 13.8819 8.98088 14.2109C8.98088 14.3519 9.02677 14.4458 9.02677 14.5398C9.02677 14.5398 9.07267 14.5398 9.07267 14.5868C9.07267 14.7748 9.16446 15.0097 9.21035 15.1977C9.30214 15.4796 9.43982 15.7616 9.6234 15.9966C9.66929 16.0435 9.71518 16.0435 9.71518 16.0905V16.1845H9.76108C9.80697 16.2785 9.80697 16.4195 9.85287 16.4665C9.85287 16.5135 9.94465 16.5605 9.94465 16.5605C9.99055 16.6074 9.99055 16.6544 9.99055 16.7014C10.0823 16.8894 10.1282 17.0774 10.22 17.2183C10.3577 17.4533 10.5413 17.6882 10.7707 17.9232C10.8166 17.9702 10.9084 18.0172 10.9543 18.0642C11.0002 18.1112 11.0002 18.2051 11.0461 18.2521V18.3461H11.092V18.4401C11.1379 18.4401 11.1838 18.5811 11.2297 18.6281H11.3215L11.3674 18.7221H11.4592L11.505 18.816H11.5968L11.6427 18.91C11.6886 18.957 11.7345 18.91 11.7804 18.957L11.8263 19.051C11.8722 19.051 11.9181 19.051 11.9181 19.051C11.964 19.051 12.0099 19.145 12.0099 19.145C12.0558 19.145 12.0558 19.192 12.1017 19.192C12.1476 19.239 12.1935 19.239 12.2394 19.239C12.2852 19.239 12.2852 19.286 12.2852 19.286C12.6524 19.4739 13.2031 19.5209 13.6162 19.7089C13.7539 19.7559 13.8915 19.8499 14.0292 19.8499C14.2128 19.8968 14.4423 19.8499 14.6717 19.8968C14.7176 19.8968 14.7635 19.9438 14.8094 19.9438C15.4978 20.0378 16.5993 19.9908 17.4254 19.8968C17.7007 19.8499 17.9302 19.8498 18.2056 19.8029C18.2515 19.8029 18.2974 19.8029 18.3433 19.8029C18.435 19.7559 18.7104 19.7089 18.9399 19.7089C19.1235 19.7089 19.307 19.7089 19.4447 19.6619C19.7201 19.5679 19.9495 19.4269 20.179 19.239C20.4085 19.098 20.638 18.91 21.0051 18.957C21.2346 18.816 21.0969 18.91 21.1887 18.863C21.2346 18.816 21.2805 18.769 21.3264 18.7221H21.4182C21.5099 18.6281 21.6935 18.4401 21.8312 18.2991V18.2052C21.923 18.1582 21.9689 18.0642 22.0607 17.9702C22.1525 17.8762 22.2442 17.7352 22.2901 17.6413C22.336 17.5943 22.3819 17.5473 22.4278 17.5003C22.4737 17.4533 22.4737 17.3593 22.5196 17.3123C22.5655 17.2653 22.6114 17.2183 22.6573 17.1713C22.7032 17.1243 22.7032 17.0304 22.7491 16.9834C22.795 16.9364 22.8868 16.8894 22.8868 16.8424V16.7484H22.9327V16.6544H22.9785C23.0244 16.5604 23.1162 16.4195 23.1621 16.3255C23.1621 16.2785 23.208 16.3255 23.208 16.2785C23.208 16.1845 23.2998 16.1375 23.3457 16.0905V15.9966H23.3916V15.9026C23.4834 15.8086 23.5293 15.7616 23.5752 15.6206C23.7128 15.3387 23.8505 15.1037 23.9882 14.8218C24.0341 14.6808 24.08 14.4928 24.1259 14.3519C24.1259 14.3519 24.1718 14.3519 24.1718 14.3049C24.1718 14.2579 24.2177 14.1169 24.2636 14.0699V13.9759C24.4013 13.8349 24.4013 13.318 24.493 13.0361C24.493 13.0361 24.5389 13.0361 24.5389 12.9891C24.5389 12.8951 24.5848 12.8011 24.6307 12.7072L24.6766 12.5662C24.7225 12.5192 24.7225 12.5192 24.7225 12.4722C24.7684 12.3782 24.8602 12.1902 24.9061 12.0023C24.952 11.7673 24.952 11.5324 24.9979 11.2974C25.0438 11.0625 25.0438 10.6865 24.9979 10.4046C24.952 10.2636 25.0438 10.2166 25.0438 9.98165C25.0438 9.93466 24.9979 9.88767 24.9979 9.74669C24.9979 9.51174 24.9979 9.1828 24.952 8.94784C24.9061 8.80686 24.8143 8.57191 24.7684 8.38394C24.7225 8.28996 24.7225 8.19597 24.6766 8.14898C24.6307 8.055 24.6307 7.96102 24.5848 7.91403C24.5848 7.86703 24.493 7.82004 24.493 7.82004C24.4472 7.77305 24.4472 7.72606 24.4472 7.67907C24.3554 7.4911 24.2636 7.16216 24.1718 6.92721C24.1718 6.88021 24.1259 6.78623 24.1259 6.78623L24.0341 6.73924V6.64526H23.9882V6.55127H23.9423C23.9423 6.50428 23.9423 6.45729 23.8964 6.4103L23.8046 6.36331V6.26933H23.7587V6.17534C23.667 6.12835 23.5293 5.89339 23.4834 5.75242C23.4375 5.70543 23.4834 5.65844 23.4375 5.61145C23.4375 5.56445 23.3457 5.56445 23.3457 5.56445C23.2539 5.42348 23.208 5.3295 23.1162 5.23551C23.0703 5.18852 23.0244 5.14153 22.9785 5.09454C22.8868 5.00056 22.7491 4.85958 22.7032 4.81259C22.5655 4.71861 22.3819 4.62462 22.1983 4.53064C22.1525 4.53064 22.1525 4.43666 22.1066 4.43666C21.9689 4.34268 21.6935 4.2017 21.5099 4.10772C21.464 4.06073 21.464 4.01374 21.4182 4.01374H21.3264C21.2805 3.96675 21.2805 3.87276 21.2346 3.87276C21.1887 3.82577 21.1428 3.87276 21.0969 3.82577C21.051 3.82577 21.0051 3.73179 21.0051 3.73179H20.9133C20.8674 3.63781 20.5921 3.59081 20.4085 3.54382C20.3167 3.49683 20.179 3.54382 20.1331 3.49683C20.1331 3.49683 20.1331 3.44984 20.0872 3.44984C19.9495 3.44984 19.8578 3.35586 19.6742 3.30887C19.4906 3.26187 19.307 3.16789 19.1235 3.1209H19.0317V3.07391C18.7563 2.97993 18.3891 2.88594 18.0679 2.83895C17.8843 2.79196 17.7007 2.79196 17.5172 2.74497C17.5172 2.74497 17.5172 2.69798 17.4713 2.69798C17.3795 2.69798 17.2418 2.65099 17.0582 2.60399C16.8746 2.557 16.6911 2.557 16.5075 2.51001C16.1862 2.46302 15.8191 2.41603 15.3601 2.36904C15.3601 2.36904 15.3601 2.32205 15.3142 2.32205C15.2684 2.32205 15.1766 2.32205 15.1307 2.32205C14.7635 2.27505 14.2587 2.18107 13.7997 2.13408C13.1113 2.0401 12.5147 2.0401 11.964 2.22806H11.8722C11.8263 2.27505 11.7804 2.32205 11.7345 2.32205H11.6427V2.36904C11.505 2.41603 11.4133 2.41603 11.2297 2.46302C11.2297 2.46302 11.2297 2.51001 11.1838 2.51001C11.092 2.51001 11.0002 2.557 10.9084 2.60399C10.7707 2.65099 10.5872 2.69798 10.4036 2.74497C9.89876 2.93293 9.39393 3.07391 8.93499 3.30887C8.8432 3.35586 8.75141 3.44984 8.65962 3.44984C8.56783 3.44984 8.56783 3.54382 8.47605 3.54382L8.38426 3.59081C8.33836 3.6378 8.33836 3.6848 8.29247 3.6848H8.20068C8.15479 3.73179 8.10889 3.77878 8.01711 3.82577C7.97121 3.82577 8.01711 3.87276 7.97121 3.87276L7.87943 3.91975C7.83353 3.91975 7.83353 4.01374 7.78764 4.01374C7.69585 4.06073 7.60406 4.10772 7.55817 4.15471C7.46638 4.2017 7.42049 4.29569 7.3287 4.34268C7.2828 4.38967 7.19101 4.48365 7.14512 4.53064C7.00744 4.67162 6.77797 4.7656 6.64029 4.85958C6.59439 4.90657 6.5485 5.00056 6.50261 5.04755C6.41082 5.14153 6.27314 5.23551 6.18135 5.37649C6.04367 5.51746 5.90598 5.70543 5.72241 5.89339C5.67651 5.94039 5.63062 6.03437 5.58473 6.08136C5.53883 6.12835 5.49294 6.17534 5.44704 6.22233C5.40115 6.26933 5.44704 6.31632 5.40115 6.36331C5.40115 6.4103 5.30936 6.4103 5.30936 6.4103C5.26347 6.45729 5.30936 6.50428 5.26347 6.55127L5.17168 6.59827C5.12579 6.64526 5.17168 6.69225 5.12579 6.73924C5.07989 6.78623 4.94221 6.83322 4.89632 6.92721C4.85042 6.9742 4.89632 7.02119 4.85042 7.06818L4.75863 7.11517C4.71274 7.16216 4.71274 7.25615 4.66685 7.30314C4.62095 7.35013 4.52916 7.35013 4.52916 7.44411C4.52916 7.4911 4.43738 7.4911 4.43738 7.53809V7.63208H4.39148C4.34559 7.67907 4.39148 7.77305 4.34559 7.82004C4.34559 7.86703 4.2538 7.91403 4.2538 7.91403C4.20791 8.00801 4.20791 8.14898 4.16201 8.19597C4.16201 8.19597 4.11612 8.19597 4.11612 8.24297C4.11612 8.28996 4.07022 8.43093 4.02433 8.47792C3.97844 8.57191 3.97844 8.66589 3.93254 8.75987C3.84075 8.94784 3.79486 9.1358 3.70307 9.37076C3.65718 9.46474 3.65718 9.60572 3.61128 9.65271C3.61128 9.6997 3.5195 9.74669 3.5195 9.74669C3.42771 9.93466 3.42771 10.3106 3.38181 10.5925C3.38181 10.5925 3.33592 10.5925 3.33592 10.6395C3.33592 10.7805 3.29003 10.8275 3.29003 11.0625C3.29003 11.1564 3.29003 11.2504 3.29003 11.2974C3.29003 11.2974 3.24413 11.2974 3.24413 11.3444C3.24413 11.7673 3.19824 12.2842 3.15234 12.7072C3.15234 12.8481 3.10645 13.0361 3.10645 13.2241C3.10645 13.365 3.15234 13.553 3.15234 13.694C3.15234 13.8349 3.10645 13.9289 3.06056 14.1169C2.96877 14.6338 3.01466 15.2447 3.06056 15.9496C3.06056 16.0435 3.06056 16.1845 3.06056 16.2785C3.06056 16.3725 3.10645 16.3725 3.10645 16.4195C3.10645 16.4195 3.06056 16.4195 3.06056 16.4665V16.5135C3.06056 16.6074 2.96877 16.7014 2.96877 16.7484C2.92287 17.1243 3.06056 17.2653 3.15234 17.5943C3.19824 17.7822 3.24413 18.0172 3.29003 18.2052C3.29003 18.2052 3.33592 18.2051 3.33592 18.2521C3.38181 18.3461 3.42771 18.4401 3.42771 18.5341C3.4736 18.6281 3.5195 18.6751 3.5195 18.769C3.56539 18.957 3.61128 19.286 3.65718 19.4739C3.65718 19.4739 3.70307 19.4739 3.70307 19.5209C3.70307 19.5679 3.70307 19.6149 3.74897 19.6619C3.88665 19.8968 4.02433 20.2728 4.16201 20.5547C4.16201 20.5547 4.20791 20.5547 4.20791 20.6017C4.2538 20.7427 4.29969 20.8837 4.34559 21.0716C4.39148 21.1656 4.48327 21.3066 4.48327 21.3536C4.48327 21.4006 4.57506 21.4476 4.57506 21.4946C4.57506 21.5415 4.66685 21.5885 4.66685 21.6355C4.66685 21.6825 4.75863 21.7765 4.80453 21.8235L4.89632 21.8705C4.94221 21.9175 4.94221 22.0115 4.9881 22.0584C5.034 22.1054 5.12579 22.1054 5.12579 22.1524C5.17168 22.1994 5.12579 22.2464 5.17168 22.2934C5.26347 22.3874 5.40115 22.4814 5.49294 22.6223C5.53883 22.6693 5.63062 22.7633 5.67651 22.8573C5.72241 22.9513 5.86009 23.0923 5.95188 23.1862C6.04367 23.2802 6.22724 23.4212 6.36492 23.5152C6.41082 23.5622 6.41082 23.6092 6.45671 23.6092H6.5485L6.59439 23.7031C6.64029 23.7501 6.68618 23.7031 6.73208 23.7501L6.77797 23.8441C6.82386 23.8911 6.91565 23.8911 6.96155 23.9381C7.05333 23.9851 7.09923 24.1261 7.14512 24.1731H7.23691C7.37459 24.361 7.64996 24.643 7.87943 24.784C8.01711 24.8779 8.15479 24.8779 8.33837 24.9249C8.47605 24.9719 8.61373 25.0659 8.75141 25.1129C8.7973 25.1129 8.75141 25.1599 8.79731 25.1599C8.8432 25.1599 8.8432 25.2539 8.88909 25.2539C8.93499 25.3009 9.02677 25.2539 9.11856 25.3009C9.25624 25.3478 9.39393 25.3948 9.5775 25.4418C9.85287 25.5358 10.1282 25.7238 10.3577 25.8648C10.8625 26.1467 11.4133 26.2877 12.0099 26.5226C12.4229 26.6636 12.836 26.8986 13.2949 26.9925C13.4785 27.0395 13.6621 26.9925 13.8456 27.0395C13.9833 27.0865 14.1669 27.1335 14.3505 27.1335C14.4423 27.1335 14.5341 27.0865 14.6258 27.1335C14.6258 27.1335 14.6258 27.1805 14.6717 27.1805C14.7176 27.1805 14.7635 27.2745 14.8094 27.2745L14.9012 27.3215C14.9471 27.3215 14.993 27.3685 15.0389 27.3685C15.0848 27.3685 15.1307 27.4625 15.1307 27.4625C15.1766 27.5095 15.2225 27.4625 15.2684 27.5095C15.4519 27.6504 15.5437 27.8854 15.5437 28.0734C15.5437 28.2143 15.5896 28.3553 15.5437 28.5433C15.5437 28.5433 15.4978 28.5433 15.4978 28.5903L15.4519 28.7312L15.3601 28.7782C15.3601 28.8252 15.3601 28.8722 15.3601 28.8722C15.3601 28.9192 15.2684 28.9662 15.2225 29.0132C15.1307 29.1072 15.0389 29.2481 14.9012 29.3421L14.8553 29.3891C14.7176 29.4361 14.5341 29.3891 14.3505 29.4361C14.121 29.906 13.9374 30 13.8456 30C13.4785 30 13.0196 29.859 12.5606 29.812C12.377 29.765 12.2394 29.7181 12.0558 29.7181C11.9181 29.7181 11.7804 29.6711 11.6427 29.6241C11.5509 29.5301 11.4592 29.5301 11.3674 29.4831C11.3215 29.4361 11.2756 29.4361 11.2297 29.4361C11.1838 29.4361 11.1838 29.3891 11.1838 29.3891C11.092 29.3421 11.0002 29.3891 10.9084 29.3421C10.9084 29.3421 10.9084 29.2951 10.8625 29.2951C10.7707 29.2481 10.7249 29.2011 10.6331 29.2011C10.5413 29.1542 10.4954 29.1072 10.4036 29.1072C10.3118 29.0602 10.2659 29.1072 10.1741 29.0602C10.1282 29.0602 10.0823 28.9662 10.0823 28.9662C10.0364 28.9662 9.99055 28.9662 9.94465 28.9662C9.89876 28.9662 9.85287 28.8722 9.85287 28.8722C9.71518 28.8252 9.71518 28.8722 9.5775 28.8252C9.5775 28.8252 9.5775 28.7782 9.53161 28.7782H9.48571C9.43982 28.7782 9.39393 28.6842 9.39393 28.6842C9.16446 28.5903 9.11856 28.5903 9.07267 28.5903C8.93499 28.5433 8.75141 28.4493 8.52194 28.4023C8.52194 28.4023 8.52194 28.3553 8.47605 28.3553C8.38426 28.3553 8.33836 28.3553 8.29247 28.3083C8.24658 28.3083 8.20068 28.2143 8.20068 28.2143C8.10889 28.1673 7.92532 28.1203 7.78764 28.0734C7.74174 28.0264 7.74174 27.9794 7.69585 27.9794H7.60406C7.55817 27.9324 7.46638 27.8854 7.37459 27.8384C7.2828 27.7914 7.19102 27.7914 7.09923 27.7444C7.05333 27.7444 7.00744 27.6504 7.00744 27.6504H6.91565V27.6034C6.82386 27.5564 6.73207 27.5564 6.68618 27.5095C6.64029 27.5095 6.59439 27.4155 6.59439 27.4155C6.5485 27.4155 6.5026 27.4155 6.45671 27.4155C6.41082 27.4155 6.36492 27.3215 6.36492 27.3215C6.27313 27.2745 6.18135 27.2745 6.08956 27.2275C6.08956 27.2275 6.08956 27.1805 6.04367 27.1805C5.95188 27.1805 5.90598 27.0865 5.81419 27.0395C5.7683 26.9925 5.67651 26.9456 5.63062 26.9456C5.58473 26.9456 5.53883 26.8516 5.49294 26.8046H5.40115L5.35526 26.7106H5.26347C5.21757 26.6636 5.17168 26.5696 5.07989 26.5226C4.9881 26.4756 4.89632 26.3347 4.85042 26.2877H4.75863C4.71274 26.1937 4.57506 26.0527 4.48327 25.9587H4.39148L4.34559 25.8648H4.2538C4.20791 25.8178 4.16201 25.7238 4.07022 25.6768C3.93254 25.5828 3.84075 25.4418 3.65718 25.3478C3.56539 25.2539 3.38181 25.1599 3.24413 25.0189C3.15234 24.9249 3.01466 24.7839 2.96877 24.69C2.96877 24.643 2.87698 24.549 2.83109 24.502C2.7393 24.408 2.64751 24.314 2.60162 24.267C2.50983 24.1731 2.46393 24.0791 2.41804 23.9851C2.32625 23.8911 2.23446 23.8441 2.18857 23.7501C2.09678 23.6562 2.05089 23.5622 2.00499 23.4682C1.9591 23.3742 1.86731 23.2802 1.82142 23.2332C1.72963 23.0453 1.63784 22.7633 1.50016 22.5284C1.45427 22.4814 1.45427 22.4344 1.45427 22.3874C1.45427 22.3404 1.40837 22.3404 1.40837 22.3404C1.36248 22.2464 1.40837 22.1994 1.36248 22.1524C1.36248 22.1054 1.27069 22.0584 1.27069 22.0584C1.2248 21.9645 1.2248 21.9175 1.2248 21.8705C1.1789 21.7765 1.1789 21.7295 1.13301 21.6355C1.13301 21.5885 1.08711 21.5415 1.04122 21.4476C0.995326 21.3066 0.995326 21.2126 0.949432 21.1186C0.949432 21.0716 0.857644 21.0246 0.857644 21.0246C0.857644 20.9776 0.857644 20.9307 0.857644 20.9307C0.81175 20.7427 0.674068 20.4137 0.628174 20.1788C0.58228 20.0378 0.628174 19.8968 0.58228 19.7559C0.58228 19.7559 0.536386 19.7559 0.536386 19.7089V19.6619C0.536386 19.6149 0.490492 19.5679 0.490492 19.5209C0.444598 19.3329 0.306916 19.004 0.261022 18.769C0.215128 18.5811 0.169234 18.3931 0.12334 18.1582C0.0774464 18.0172 0.0774462 17.5943 0.0774462 17.2653C0.0774462 17.0304 0.0315521 16.7484 0.0315521 16.5135C0.0315521 15.9026 0.12334 15.3387 0.0774462 14.6808C0.0774462 14.6808 -0.0602359 14.4928 0.0315521 14.4458C0.169234 14.3519 0.0315521 13.9759 0.0315521 13.788C0.0315521 13.694 0.12334 13.553 0.12334 13.459C0.12334 13.412 0.12334 13.318 0.12334 13.2711C0.169234 13.0831 0.215128 12.6602 0.261022 12.3782C0.306916 11.9553 0.306916 11.6263 0.35281 11.2034C0.35281 11.1094 0.398705 10.9215 0.398705 10.8745C0.398705 10.8745 0.444599 10.8745 0.444599 10.8275V10.6865C0.490493 10.6395 0.490492 10.5455 0.536386 10.4516C0.58228 10.3106 0.628175 10.1696 0.674069 10.0286C0.719963 9.88767 0.765856 9.6997 0.81175 9.55873C0.81175 9.55873 0.857644 9.55873 0.857644 9.51174C0.857644 9.41775 0.949432 9.41775 0.949432 9.32377C0.949432 9.27678 1.08711 9.04182 1.13301 8.90085V8.80686C1.1789 8.75987 1.2248 8.57191 1.27069 8.47792C1.40837 8.28996 1.45427 7.82004 1.54605 7.58509C1.54605 7.53809 1.59195 7.58509 1.59195 7.53809C1.59195 7.4911 1.68374 7.4911 1.68374 7.44411V7.35013H1.72963V7.25615H1.77552V7.16216H1.82142V7.06818H1.86731C1.91321 6.9742 1.9591 6.88021 2.00499 6.78623C2.00499 6.73924 2.05089 6.78623 2.05089 6.73924V6.69225C2.09678 6.64526 2.14268 6.59826 2.18857 6.55127C2.23446 6.50428 2.23446 6.4103 2.28036 6.36331C2.32625 6.31632 2.37215 6.26933 2.41804 6.22233C2.46393 6.17534 2.46393 6.08136 2.50983 6.03437C2.55572 5.98738 2.60162 5.94039 2.64751 5.89339C2.6934 5.8464 2.6934 5.75242 2.7393 5.70543C2.78519 5.65844 2.83109 5.61145 2.87698 5.56445V5.47047C3.01466 5.37649 3.15234 5.23551 3.29003 5.04755C3.38181 4.95357 3.42771 4.85958 3.5195 4.7656C3.56539 4.71861 3.61128 4.67162 3.65718 4.62463C3.74897 4.53064 3.79486 4.38967 3.88665 4.29568C4.07022 4.06073 4.2538 3.87276 4.43738 3.6848C4.48327 3.63781 4.52916 3.59081 4.57506 3.54382C4.62095 3.49683 4.71274 3.49683 4.75863 3.44984C4.85042 3.40285 4.94221 3.21488 5.034 3.16789C5.12579 3.07391 5.26347 2.97992 5.35526 2.93293C5.44704 2.88594 5.49294 2.79196 5.58473 2.74497C5.63062 2.69798 5.7683 2.65099 5.81419 2.60399C5.86009 2.557 5.90598 2.46302 5.95188 2.46302H6.04367V2.41603H6.13545V2.36904C6.22724 2.32205 6.31903 2.27505 6.41082 2.22806C6.45671 2.22806 6.41082 2.18107 6.45671 2.18107H6.50261C6.5485 2.13408 6.59439 2.08709 6.64029 2.0401H6.73208C6.77797 1.9931 6.77797 1.9931 6.82386 1.94611C6.86976 1.89912 6.91565 1.85213 6.96155 1.80514C7.00744 1.75815 7.09923 1.75815 7.14512 1.71116C7.19101 1.71116 7.14512 1.66416 7.19102 1.66416C7.2828 1.66416 7.3287 1.57018 7.37459 1.52319H7.46638V1.4762H7.55817V1.42921H7.64996V1.38222H7.74174V1.33522H7.83353V1.28823H7.92532V1.24124H8.01711C8.10889 1.14726 8.43015 1.00628 8.61373 0.959293H8.70552V0.912302H8.79731C8.8432 0.86531 9.07267 0.771328 9.25624 0.724336C9.39393 0.677345 9.5775 0.630353 9.71518 0.583361C9.80697 0.53637 9.94465 0.53637 10.0364 0.489379C10.1741 0.442388 10.5413 0.348404 10.8166 0.301413C10.9084 0.301413 10.9543 0.254422 11.0461 0.254422C11.0461 0.254422 11.0461 0.20743 11.092 0.20743H11.2297C11.2756 0.160439 11.3674 0.20743 11.505 0.160439C11.505 0.160439 11.5051 0.113447 11.5509 0.113447C11.5968 0.113447 11.6886 0.113447 11.7345 0.113447C11.7345 0.113447 11.7345 0.0664554 11.7804 0.0664554C11.8263 0.0664554 11.8722 0.0664554 11.9181 0.0664554C12.1476 0.0194639 12.6983 -0.0275268 13.0654 0.0194646C13.0654 0.0194646 13.0654 0.0664554 13.1113 0.0664554C13.249 0.0664554 13.5244 0.0664555 13.708 0.113447C13.7539 0.113447 13.7997 0.113447 13.8456 0.113447C13.9833 0.160438 14.3964 0.160439 14.5799 0.20743C14.6717 0.254422 14.6717 0.20743 14.7176 0.254422C14.8094 0.348405 15.4519 0.254422 15.6814 0.254422C15.8191 0.254422 16.0027 0.348404 16.1862 0.348404C16.3239 0.395396 16.5075 0.348404 16.6911 0.395396C16.6911 0.395396 16.6911 0.442387 16.737 0.442387C16.7829 0.442387 16.8746 0.442387 16.9205 0.442387C16.9205 0.442387 16.9205 0.489379 16.9664 0.489379H17.1041V0.53637C17.1959 0.53637 17.2877 0.583361 17.3336 0.583361C17.5631 0.630353 17.9302 0.724335 18.2515 0.771327C18.3891 0.818318 18.5268 0.818319 18.7563 0.818319C18.8481 0.818319 18.894 0.86531 18.9399 0.86531C19.1693 0.912302 19.3988 0.912302 19.5824 0.959293C19.5824 0.959293 19.5824 1.00628 19.6283 1.00628C19.766 1.00628 19.9954 1.10027 20.1331 1.14726C20.2249 1.19425 20.3167 1.14726 20.3626 1.19425C20.3626 1.19425 20.3626 1.24124 20.4085 1.24124C20.5462 1.24124 20.638 1.33522 20.7297 1.38222H20.8215V1.42921H20.9133V1.4762C21.0051 1.52319 21.1887 1.52319 21.2346 1.57018L21.2805 1.66416H21.3723V1.71116H21.464V1.75815H21.5558V1.80514H21.6476V1.85213H21.7394V1.89912H21.8312C21.8771 1.99311 22.0148 1.9931 22.1525 2.0401H22.2442C22.2901 2.08709 22.3819 2.08709 22.4737 2.13408C22.4737 2.13408 22.4737 2.18107 22.5196 2.18107C22.6114 2.18107 22.6114 2.27505 22.7032 2.27505C22.795 2.27505 22.795 2.36904 22.8868 2.36904C22.9327 2.36904 22.9327 2.46302 22.9785 2.46302H23.0703V2.51001H23.1621C23.208 2.557 23.208 2.65098 23.2998 2.65098H23.3457C23.3916 2.69798 23.4375 2.74497 23.4834 2.79196C23.5752 2.83895 23.667 2.88594 23.7587 2.93293C23.8046 2.93293 23.7587 2.97992 23.8046 2.97992C23.8505 2.97992 23.8505 3.07391 23.8964 3.07391C23.9882 3.1209 24.0341 3.1209 24.1259 3.21488C24.1718 3.26187 24.2177 3.30886 24.2636 3.35586C24.3554 3.44984 24.4472 3.59081 24.5389 3.6378H24.6307C24.6766 3.73179 24.7684 3.77878 24.8602 3.87276C24.9979 4.01374 25.1356 4.10772 25.2732 4.29568C25.3191 4.34268 25.4109 4.38967 25.4568 4.48365C25.5027 4.53064 25.4568 4.57763 25.5027 4.62463C25.5486 4.71861 25.6404 4.7656 25.6863 4.81259C25.7322 4.85958 25.7781 4.85958 25.7781 4.90657C25.824 4.95357 25.8699 5.09454 25.9158 5.18852C25.9617 5.28251 26.0075 5.3295 26.0534 5.42348C26.0993 5.47047 26.1452 5.51746 26.1452 5.51746C26.237 5.70543 26.3288 5.8464 26.4206 6.03437C26.4206 6.08136 26.4665 6.03437 26.4665 6.08136L26.5124 6.17534C26.5124 6.22233 26.6042 6.22233 26.6042 6.26933C26.6501 6.31632 26.6042 6.36331 26.6501 6.4103C26.6501 6.45729 26.7419 6.50428 26.7419 6.50428C26.8336 6.69225 26.8795 6.88021 26.9713 7.06818C26.9713 7.11517 26.9713 7.16216 27.0172 7.20915C27.0172 7.25615 27.109 7.30314 27.109 7.30314C27.1549 7.35013 27.109 7.39712 27.1549 7.44411C27.1549 7.4911 27.2467 7.53809 27.2467 7.53809C27.2467 7.58509 27.2467 7.63208 27.2467 7.63208C27.2467 7.67907 27.2926 7.72606 27.3385 7.82004C27.3385 7.86703 27.3844 7.91403 27.3844 7.96102C27.3844 8.00801 27.4762 8.055 27.4762 8.055C27.522 8.14898 27.522 8.28996 27.522 8.33695C27.522 8.33695 27.5679 8.33695 27.5679 8.38394C27.6138 8.57191 27.7056 8.80686 27.7515 9.08881C27.8433 9.32377 27.8892 9.55873 27.9351 9.88767C27.981 10.1696 28.0269 10.6865 27.981 11.1564C27.981 11.2034 27.981 11.2504 27.981 11.2974C27.9351 11.5794 27.8892 12.1902 27.8433 12.5662C27.8433 12.6602 27.8433 12.7541 27.7974 12.8011C27.7974 12.8481 27.7515 12.8011 27.7515 12.8481C27.7515 12.9421 27.6138 13.1301 27.5679 13.318C27.5221 13.459 27.4762 13.6 27.4762 13.741C27.4303 13.8819 27.4762 13.9759 27.4303 14.1639C27.4303 14.2109 27.3844 14.2109 27.3844 14.2579C27.3844 14.3519 27.3844 14.4928 27.3385 14.5398C27.3385 14.5398 27.2926 14.5398 27.2926 14.5868C27.2926 14.7278 27.109 14.9627 27.0631 15.1507C27.0172 15.2447 27.0631 15.2917 27.0172 15.3387C27.0172 15.3857 26.9254 15.4327 26.9254 15.4327C26.8795 15.5736 26.8336 15.7616 26.7877 15.9496C26.7877 15.9496 26.7419 15.9496 26.7419 15.9966C26.696 16.0905 26.696 16.1375 26.6501 16.2315C26.6501 16.2785 26.6042 16.3255 26.6042 16.3725C26.5124 16.5604 26.4206 16.7484 26.3288 16.9364C26.237 17.1243 26.1452 17.3593 26.0534 17.5473C26.0534 17.5943 26.0075 17.5473 26.0075 17.5943L25.9617 17.6882C25.9617 17.7352 25.8699 17.7352 25.8699 17.7822C25.824 17.8762 25.7781 17.9702 25.7322 18.0172C25.5945 18.2051 25.5027 18.3931 25.4109 18.5811C25.365 18.6751 25.3191 18.769 25.2732 18.863C25.2732 18.91 25.1815 18.91 25.1815 18.957C25.1815 19.004 25.1815 19.051 25.1356 19.098C25.0897 19.145 24.9979 19.145 24.9979 19.192C24.952 19.239 24.9979 19.286 24.952 19.3329L24.8602 19.3799C24.8143 19.4269 24.8143 19.5209 24.7684 19.5679C24.7225 19.6149 24.6307 19.6149 24.6307 19.6619C24.5848 19.7089 24.6307 19.7559 24.5848 19.8029C24.5389 19.8498 24.4472 19.8499 24.4472 19.8968C24.4013 19.9438 24.4472 19.9908 24.4013 20.0378C24.2636 20.1788 24.1259 20.3198 23.9423 20.5077C23.8505 20.6017 23.8046 20.6957 23.7587 20.7427C23.7128 20.7897 23.667 20.7427 23.6211 20.7897C23.5752 20.8367 23.5752 20.8837 23.5293 20.8837C23.2998 21.0716 23.1162 21.3066 22.8409 21.5415C22.7491 21.6355 22.6573 21.7295 22.5655 21.7765C22.5196 21.7765 22.5196 21.8235 22.5196 21.8235C22.4737 21.8235 22.4278 21.8235 22.3819 21.8705L22.336 21.9645C22.2901 22.0115 22.2442 22.0115 22.1525 22.0584C22.1066 22.1054 22.0607 22.1054 22.0148 22.1524C21.923 22.1994 21.8771 22.2464 21.7853 22.2934C21.6935 22.3404 21.6476 22.3874 21.464 22.4344C21.3723 22.4814 21.2805 22.4344 21.2346 22.4814C21.2346 22.4814 21.2346 22.5284 21.1887 22.5284C21.051 22.5284 20.9592 22.6223 20.8674 22.6693C20.0413 22.9983 19.0317 23.2332 17.9761 23.3272C17.7925 23.3272 17.6089 23.3742 17.4254 23.3742C17.2877 23.3742 17.1959 23.2802 17.0123 23.3272C16.9664 23.3272 16.9664 23.3742 16.9205 23.3742C16.8288 23.3742 16.1403 23.2802 16.0944 23.3742C16.0486 23.4212 16.0027 23.3742 15.865 23.3742C15.1307 23.3272 14.4423 23.2802 13.7539 23.1393C13.6162 23.0923 13.4326 23.0923 13.249 23.0453C13.1113 22.9983 12.9278 22.9983 12.7442 22.9513C12.7442 22.9513 12.7442 22.9043 12.6983 22.9043C12.6065 22.9043 12.6065 22.8573 12.5606 22.8573C12.4688 22.8103 12.377 22.8103 12.3311 22.8103C12.2394 22.7633 12.1476 22.7633 12.1017 22.7633C12.1017 22.7633 12.1017 22.7163 12.0558 22.7163H11.9181V22.6693C11.7345 22.6223 11.5968 22.6223 11.4133 22.5754C11.4133 22.5754 11.4133 22.5284 11.3674 22.5284C11.2756 22.5284 11.1379 22.4344 11.0461 22.3874C10.8625 22.2934 10.7249 22.2464 10.5413 22.1524C10.4954 22.1524 10.5413 22.1054 10.4954 22.1054C10.4036 22.1054 10.4036 22.0115 10.3118 22.0115C10.2659 22.0115 10.2659 21.9175 10.22 21.9175H10.1282V21.8705H10.0364V21.8235H9.94465V21.7765H9.85287V21.7295H9.76108V21.6825H9.66929C9.6234 21.6355 9.6234 21.6355 9.5775 21.5885C9.53161 21.5415 9.43982 21.5415 9.39393 21.4946C9.34803 21.4476 9.30214 21.4006 9.25624 21.3536C9.21035 21.3066 9.11856 21.3066 9.07267 21.2596C9.02677 21.2126 8.98088 21.1656 8.93499 21.1186H8.8432C8.7973 21.0246 8.75141 21.0246 8.65962 20.9776C8.61373 20.9776 8.65962 20.9307 8.61373 20.9307H8.56784C8.52194 20.8837 8.47605 20.8367 8.43015 20.7897C8.38426 20.7427 8.33836 20.6957 8.29247 20.6957C8.24658 20.6957 8.01711 20.4607 7.97121 20.4137C7.87942 20.3198 7.74174 20.2728 7.69585 20.1788C7.64995 20.1318 7.60406 20.0848 7.60406 20.0848V19.9908C7.55817 19.9438 7.46638 19.9438 7.46638 19.8499C7.46638 19.7559 7.3287 19.7559 7.3287 19.6619C7.3287 19.6149 7.23691 19.5209 7.19102 19.4739C7.14512 19.4269 7.19101 19.3799 7.14512 19.3329C7.14512 19.286 7.05333 19.286 7.05333 19.286V19.192C6.82386 19.004 6.73207 18.5341 6.5485 18.2052C6.5026 18.1582 6.45671 18.1582 6.45671 18.1112V18.0172H6.41082V17.9232H6.36492V17.8292C6.22724 17.6882 6.08956 17.5003 5.95188 17.2183V17.1243H5.90598V17.0304C5.86009 16.9834 5.81419 16.7484 5.7683 16.6074V16.5135C5.67651 16.4195 5.63062 15.9026 5.63062 15.6676C5.63062 15.5266 5.58473 15.3857 5.58473 15.1977C5.53883 14.7748 5.58473 14.3049 5.63062 13.8349C5.67651 13.318 5.67651 12.8481 5.81419 12.4252V12.3312C5.90598 12.2842 5.95188 11.9083 5.99777 11.7203C6.04366 11.5324 6.13545 11.3444 6.18135 11.1564C6.18135 11.1564 6.22724 11.1564 6.22724 11.1094C6.22724 11.0155 6.27314 11.0155 6.27314 10.9215C6.31903 10.1226 6.31903 10.0286 6.41082 9.98165Z" fill="white"/>
</svg>