<svg width="136" height="136" viewBox="0 0 136 136" fill="none" xmlns="http://www.w3.org/2000/svg">
<path fill-rule="evenodd" clip-rule="evenodd" d="M97.0365 60.0333C97.3885 60.5617 97.2033 61.2219 97.5553 61.7504C98.135 62.4864 98.6008 63.1187 98.8602 63.9772L98.8708 64.1942C99.1091 64.6188 99.3473 65.0434 99.5855 65.4681C99.5855 65.4681 99.4823 65.5812 99.5961 65.685C99.8237 65.8927 99.7205 66.0058 99.8343 66.1096C99.9481 66.2135 100.176 66.4211 100.186 66.6381L100.094 66.9682C100.104 67.1851 100.332 67.3928 100.343 67.6097C100.25 67.9399 100.157 68.27 100.168 68.4869C100.242 70.0057 100.544 71.7321 100.504 73.147C100.412 73.4771 100.536 73.7979 100.547 74.0148C100.557 74.2318 100.671 74.3356 100.568 74.4487L100.362 74.675L100.475 74.7789C100.486 74.9958 100.269 75.0051 100.28 75.2221L100.404 75.5429C100.415 75.7598 100.311 75.873 100.208 75.9861C100.105 76.0993 100.322 76.0899 100.219 76.2031L100.023 76.6463L100.147 76.9671C100.055 77.2972 99.9515 77.4104 99.8589 77.7405C99.8695 77.9574 99.8801 78.1744 99.8907 78.3913C99.9013 78.6083 100.015 78.7121 99.9119 78.8253L99.7055 79.0516C99.7161 79.2685 99.8299 79.3723 99.7267 79.4855L99.5202 79.7117L99.634 79.8156C99.5308 79.9287 99.335 80.372 99.1286 80.5982C98.8296 81.1546 98.2209 82.0504 97.8187 82.7199C96.8077 84.2852 96.2097 85.398 94.6509 86.8781C94.6509 86.8781 94.5371 86.7743 94.4339 86.8874C94.3307 87.0005 94.1243 87.2268 94.021 87.34C93.8146 87.5662 93.9284 87.6701 93.722 87.8963C93.5156 88.1226 93.2986 88.1319 93.0921 88.3582C92.8857 88.5845 92.9995 88.6883 92.7931 88.9146C92.3803 89.3671 92.0706 89.7065 91.6578 90.1591C91.0385 90.8379 90.0884 91.4222 89.4692 92.1011C88.5297 92.9024 87.921 93.7982 87.2911 94.26C87.2911 94.26 87.1773 94.1562 87.0741 94.2693C86.9709 94.3825 86.8677 94.4956 86.7645 94.6087C86.6613 94.7219 86.4442 94.7312 86.341 94.8443C86.2378 94.9575 85.7006 95.0892 85.3803 95.2117C85.0601 95.3341 84.8537 95.5604 84.5334 95.6829C84.4302 95.796 84.0994 95.7015 84.0994 95.7015L83.893 95.9278C83.6759 95.9371 83.6759 95.9371 83.5727 96.0502C83.4695 96.1634 83.2525 96.1727 83.1493 96.2858C83.0461 96.399 82.829 96.4083 82.5088 96.5307L82.3024 96.757C81.8683 96.7756 81.3417 97.1244 80.815 97.4731C80.815 97.4731 80.7012 97.3693 80.598 97.4824C80.4948 97.5955 80.164 97.501 80.0608 97.6142C79.9576 97.7273 79.8437 97.6235 79.7405 97.7366C79.5235 97.7459 79.3065 97.7552 79.0895 97.7645C78.8724 97.7739 78.883 97.9908 78.666 98.0001C78.5628 98.1133 78.3352 97.9056 78.3352 97.9056C78.1182 97.9149 77.9117 98.1412 77.6947 98.1505C77.4777 98.1598 77.4777 98.1598 77.2607 98.1692C76.5064 98.3102 74.9872 98.3754 74.0053 98.3088C73.7883 98.3182 73.5713 98.3275 73.3543 98.3368C73.1372 98.3461 72.9096 98.1384 72.6926 98.1478C72.4756 98.1571 72.2586 98.1664 72.0415 98.1757C70.2948 98.0332 69.199 97.8628 67.5343 97.1733C67.0896 96.975 66.645 96.7767 66.0865 96.4745C65.8695 96.4838 65.5387 96.3893 65.4249 96.2855C64.9802 96.0871 64.4218 95.785 63.9771 95.5866C63.8633 95.4828 63.7495 95.379 63.6357 95.2752C63.5219 95.1713 63.4187 95.2845 63.3048 95.1806C62.5188 94.6708 61.9285 93.7178 61.1318 92.991C60.2107 91.9434 59.4141 91.2167 58.6068 90.2729L58.3792 90.0653C58.3686 89.8483 58.1409 89.6407 57.9027 89.216C57.7783 88.8953 57.6539 88.5745 57.5401 88.4706C57.4157 88.1499 57.0848 88.0553 56.9604 87.7345C56.9604 87.7345 57.0636 87.6214 56.9498 87.5176C56.7116 87.093 56.484 86.8853 56.3596 86.5645L56.1319 86.3569C56.1107 85.923 55.5311 85.1869 55.2929 84.7623C55.179 84.6584 55.3855 84.4322 55.2717 84.3283C55.1472 84.0075 55.1366 83.7906 55.0122 83.4698C54.8878 83.149 54.8772 82.932 54.7528 82.6113C54.6284 82.2905 54.6178 82.0735 54.4934 81.7527C54.3796 81.6489 54.5966 81.6396 54.4828 81.5357C54.1413 81.2243 54.4192 80.234 54.3874 79.5831C54.3768 79.3661 54.263 79.2623 54.1492 79.1585C54.0353 79.0546 54.2418 78.8284 54.128 78.7245C54.1068 78.2906 53.9823 77.9698 54.075 77.6397C54.1782 77.5266 54.0644 77.4228 54.0644 77.4228C54.0538 77.2058 54.1464 76.8757 54.2496 76.7626L54.3422 76.4325C54.4454 76.3193 54.4348 76.1023 54.538 75.9892C54.5274 75.7722 54.2998 75.5646 54.403 75.4515C54.3924 75.2345 54.6094 75.2252 54.5988 75.0082C54.702 74.8951 54.485 74.9044 54.5882 74.7913L54.6808 74.4612C54.6702 74.2442 54.5564 74.1404 54.6596 74.0272C54.649 73.8103 54.9693 73.6878 54.9587 73.4708C55.0619 73.3577 54.8343 73.1501 54.9375 73.0369C54.9269 72.82 55.0301 72.7068 55.0195 72.4899C55.1227 72.3767 54.9983 72.0559 54.9983 72.0559C54.9877 71.839 55.3079 71.7165 55.2973 71.4995C55.4005 71.3864 55.2761 71.0656 55.2761 71.0656C55.3793 70.9525 55.4825 70.8394 55.4825 70.8394C55.5857 70.7262 55.5751 70.5092 55.6783 70.3961C55.7816 70.283 55.6678 70.1791 55.6678 70.1791C56.1732 69.3965 56.8957 68.6045 57.5043 67.7087C58.3194 66.5867 58.7005 65.4832 59.857 64.6726C59.857 64.6726 59.9708 64.7765 60.074 64.6633L60.1772 64.5502L60.3943 64.5409C61.0241 64.079 61.7572 63.504 62.3871 63.0421C62.4903 62.929 63.0275 62.7972 63.1307 62.6841C63.234 62.5709 63.3372 62.4578 63.3372 62.4578C63.4404 62.3447 63.7712 62.4392 63.7712 62.4392C63.9882 62.4299 63.9776 62.2129 64.1947 62.2036C64.2979 62.0905 64.5255 62.2981 64.6287 62.185C64.8457 62.1756 64.8351 61.9587 65.0521 61.9494C65.2692 61.9401 65.7032 61.9214 65.9202 61.9121C66.1373 61.9028 66.2405 61.7897 66.3437 61.6765C66.4469 61.5634 66.4575 61.7804 66.5607 61.6672L66.6639 61.5541C66.8809 61.5448 67.315 61.5261 67.532 61.5168C67.749 61.5075 67.8628 61.6113 67.9661 61.4982C68.1831 61.4889 68.1725 61.2719 68.3895 61.2626C68.6065 61.2533 69.0406 61.2347 69.2576 61.2254C69.9087 61.1974 70.0119 61.0843 70.6735 61.2733C70.7873 61.3771 70.7767 61.1602 70.8906 61.264C71.1182 61.4716 71.3246 61.2454 71.5522 61.453C71.7798 61.6607 72.1001 61.5382 72.3171 61.5289C73.082 61.6048 74.5191 62.0867 75.2946 62.3795C76.4115 62.9838 77.539 63.8051 78.3463 64.7489C78.8122 65.3811 79.0716 66.2397 79.4448 67.202C79.5692 67.5228 79.6936 67.8436 79.818 68.1644C79.8286 68.3814 79.9425 68.4852 79.9531 68.7021C79.9637 68.9191 80.0775 69.0229 80.0881 69.2399L80.3263 69.6645C80.3475 70.0984 80.4825 70.6362 80.7313 71.2778L80.6387 71.6079L80.8663 71.8155C80.8875 72.2494 80.7949 72.5795 80.8161 73.0135C80.8267 73.2304 80.9511 73.5512 80.8585 73.8813L80.6627 74.3246L80.7765 74.4284L80.5701 74.6547C80.5701 74.6547 80.6019 75.3056 80.3955 75.5318C80.2923 75.645 80.0964 76.0882 80.0038 76.4183C79.509 77.4179 79.0035 78.2006 78.2704 78.7756C77.9608 79.115 77.5374 79.3506 77.1139 79.5862C77.0107 79.6993 77.0001 79.4824 76.8969 79.5955C76.6905 79.8218 76.2458 79.6234 76.0288 79.6328C75.8118 79.6421 75.6054 79.8683 75.4916 79.7645C75.2745 79.7738 75.0469 79.5662 74.9331 79.4624C74.9331 79.4624 74.8299 79.5755 74.7161 79.4717C74.7161 79.4717 74.0226 78.6318 73.9194 78.7449C73.2683 78.7728 72.9877 77.4804 72.8527 76.9426C72.8209 76.2917 73.0061 75.6315 72.8605 74.8768C72.8287 74.2259 72.5799 73.5843 72.3311 72.9428C72.2172 72.8389 72.4343 72.8296 72.3205 72.7258L72.196 72.405C72.1854 72.188 72.1748 71.9711 71.9472 71.7634C71.3676 71.0273 70.6741 70.1874 69.5784 70.017L69.1337 69.8187L69.0305 69.9318L68.8029 69.7242L68.6997 69.8373L68.4721 69.6297C68.038 69.6483 67.7072 69.5538 67.1699 69.6855C67.0667 69.7987 66.9529 69.6949 66.8497 69.808C66.5295 69.9305 65.7646 69.8546 65.3518 70.3071C64.8251 70.6558 64.5261 71.2122 64.227 71.7686C64.1238 71.8817 64.1238 71.8817 64.0206 71.9949C63.4225 73.1076 62.7213 74.3335 62.6816 75.7484C62.6922 75.9654 62.8167 76.2862 62.8273 76.5032C62.8379 76.7201 62.8485 76.9371 62.8591 77.1541C62.9941 77.6918 63.1291 78.2296 63.3673 78.6542C63.3779 78.8711 63.2853 79.2012 63.3991 79.3051L63.6267 79.5127L63.5235 79.6258L63.7511 79.8335C63.6691 80.3806 64.5902 81.4281 65.1805 82.3812C65.6569 83.2304 66.1334 84.0796 66.5992 84.7119C67.0651 85.3442 67.6341 85.8633 68.2032 86.3824C68.7722 86.9015 69.2381 87.5338 69.7965 87.836C70.355 88.1381 71.5645 88.4124 72.5464 88.4789C72.7634 88.4696 72.8667 88.3565 72.9805 88.4603L73.2081 88.6679L73.5283 88.5455C72.8058 89.3375 72.9197 89.4413 73.0335 89.5451L73.3537 89.4227C73.5707 89.4133 73.7983 89.621 74.0154 89.6117C74.6664 89.5837 75.4207 89.4427 76.1856 89.5186C76.5164 89.6131 76.8367 89.4906 77.0537 89.4813C77.5909 89.3495 78.6548 88.869 79.3985 88.511C79.822 88.2754 80.2454 88.0398 80.6689 87.8042C80.6689 87.8042 80.7827 87.9081 80.8859 87.7949C81.0923 87.5686 81.1955 87.4555 81.5157 87.3331C82.5797 86.8526 84.4481 85.033 85.6866 83.6754C87.338 81.8652 89.4234 80.0363 89.7726 78.282C89.8758 78.1689 89.6588 78.1782 89.762 78.065C89.9685 77.8388 89.9473 77.4048 89.9367 77.1879C89.9975 76.2069 90.0371 74.792 89.8703 73.6033C89.7352 73.0656 90.1375 72.3961 90.1057 71.7452C90.0951 71.5282 89.7643 71.4337 89.7537 71.2167C89.6399 71.1129 89.7325 70.7828 89.7325 70.7828C89.7219 70.5658 89.5048 70.5751 89.4942 70.3582C89.3804 70.2544 89.473 69.9242 89.473 69.9242C89.4624 69.7073 89.2454 69.7166 89.2348 69.4996C89.121 69.3958 89.2136 69.0657 89.2136 69.0657C89.203 68.8487 88.986 68.8581 88.9754 68.6411C88.8616 68.5373 88.9542 68.2072 88.9542 68.2072C88.8404 68.1033 88.3851 67.688 88.4883 67.5749L88.5916 67.4618C88.3533 67.0372 88.0013 66.5087 87.6493 65.9803L87.4216 65.7726L87.5249 65.6595L87.2972 65.4518C87.2866 65.2349 87.2866 65.2349 87.1728 65.131L86.9346 64.7064L87.0378 64.5933C86.9134 64.2725 86.6858 64.0649 86.572 63.961C86.4581 63.8572 86.5508 63.5271 86.5508 63.5271C86.4369 63.4233 86.3231 63.3195 86.2093 63.2156C86.2093 63.2156 86.3125 63.1025 86.1987 62.9987L85.8573 62.6872C85.9605 62.5741 85.7329 62.3664 85.4947 61.9418C85.0288 61.3095 84.0045 60.3751 83.311 59.5352C83.0834 59.3275 83.0622 58.8936 82.8346 58.686C82.3688 58.0537 81.9135 57.6384 81.0136 57.0248C80.6722 56.7133 80.3413 56.6188 80.1137 56.4111C80.1137 56.4111 80.0105 56.5243 79.8967 56.4204C79.4415 56.0051 78.666 55.7123 78.1075 55.4101C77.2182 55.0134 76.2257 54.7299 75.2438 54.6633C75.0268 54.6727 74.9236 54.7858 74.8098 54.682L74.5822 54.4743L74.479 54.5875C74.1481 54.4929 73.8067 54.1815 73.5897 54.1908C73.4758 54.087 73.1556 54.2094 73.1556 54.2094C72.9386 54.2187 72.8248 54.1149 72.711 54.0111C72.0493 53.822 71.4908 53.5199 70.943 53.4347C70.0643 53.255 69.0824 53.1884 67.9973 53.235C67.7803 53.2443 67.46 53.3667 67.243 53.376C67.026 53.3854 66.7984 53.1777 66.5813 53.187L66.3537 52.9794L66.2505 53.0925L66.0229 52.8849C65.9197 52.998 65.475 52.7997 65.258 52.809L65.0516 53.0353L64.7207 52.9407L64.5143 53.167L64.1835 53.0725L63.9771 53.2988L63.6462 53.2043C63.4292 53.2136 63.4398 53.4305 63.2228 53.4399L62.892 53.3453C62.7887 53.4585 62.6855 53.5716 62.6855 53.5716C62.5823 53.6848 62.2515 53.5902 62.2515 53.5902C62.1483 53.7034 62.0345 53.5996 61.9313 53.7127C61.7142 53.722 61.611 53.8352 61.5078 53.9483C61.4046 54.0614 61.2908 53.9576 61.2908 53.9576C60.0099 54.4474 58.6575 55.7012 57.2734 56.3042C56.8499 56.5398 56.3127 56.6715 56.003 57.0109C55.4764 57.3597 55.0741 58.0292 54.4443 58.4911C54.3411 58.6042 54.124 58.6135 54.0208 58.7267C52.245 60.2161 49.8818 63.0352 48.2516 65.2794C47.7461 66.062 47.2301 66.6277 46.7246 67.4104C46.6214 67.5235 46.5182 67.6366 46.415 67.7498C46.3224 68.0799 45.8169 68.8625 45.3009 69.4282C44.888 69.8808 44.4752 70.3333 44.2794 70.7766C43.8877 71.663 43.7131 72.5402 43.6523 73.5212C43.4777 74.3984 43.4169 75.3794 42.4774 76.1806C42.3027 77.0578 42.3848 76.5107 42.2921 76.8409C42.3027 77.0578 42.3133 77.2748 42.3239 77.4917L42.1175 77.718C42.1387 78.1519 42.1811 79.0198 42.2129 79.6707L42.4405 79.8783C42.3479 80.2084 42.4723 80.5292 42.4935 80.9632C42.5147 81.3971 42.6498 81.9348 42.7742 82.2556C42.7848 82.4726 42.7954 82.6895 42.806 82.9065C42.8166 83.1235 43.0442 83.3311 43.0548 83.5481C43.0654 83.7651 43.076 83.982 43.0866 84.199C43.0972 84.4159 43.3248 84.6236 43.3354 84.8406C43.346 85.0575 43.2534 85.3876 43.3672 85.4914L43.5948 85.6991L43.4916 85.8122L43.7193 86.0199L43.616 86.133C43.7405 86.4538 43.8755 86.9916 43.9999 87.3123C44.1137 87.4162 43.8967 87.4255 44.0105 87.5293C44.2381 87.737 44.1455 88.0671 44.1561 88.284L44.3837 88.4917L44.2805 88.6048L44.5081 88.8125C44.5293 89.2464 44.5399 89.4634 44.7781 89.888C45.1514 90.8503 45.4108 91.7089 45.784 92.6712C46.0223 93.0959 46.3743 93.6243 46.6125 94.0489C46.6125 94.0489 46.5093 94.162 46.6231 94.2659C46.7369 94.3697 46.9752 94.7943 46.9858 95.0113L47.2134 95.2189C47.2452 95.8698 48.4971 97.0119 48.9736 97.8611C48.9736 97.8611 48.8703 97.9743 48.9842 98.0781C49.2118 98.2857 49.3362 98.6065 49.4606 98.9273L49.6988 99.3519C49.7094 99.5689 49.7094 99.5689 49.8232 99.6727C49.9476 99.9935 50.1965 100.635 50.5485 101.164C51.0143 101.796 51.5834 102.315 52.0492 102.947C52.5151 103.579 53.4256 104.41 54.2117 104.92C54.6563 105.118 54.5637 105.448 55.1327 105.967C55.2466 106.071 55.4636 106.062 55.805 106.373C56.3741 106.893 57.1708 107.619 57.843 108.025C58.2877 108.224 59.0631 108.516 59.6216 108.819C59.9524 108.913 60.1801 109.121 60.3971 109.111C60.7279 109.206 60.9555 109.414 61.1726 109.404C61.2864 109.508 61.6066 109.386 61.6066 109.386C61.8236 109.376 61.9374 109.48 62.0513 109.584C62.7129 109.773 63.716 110.274 64.4915 110.566C64.6053 110.67 64.9361 110.765 64.9361 110.765L65.2564 110.642L65.484 110.85L65.5872 110.737L65.8148 110.944L65.918 110.831C66.0319 110.935 66.1457 111.039 66.3627 111.03L66.6829 110.907L66.9106 111.115L67.0138 111.002L67.2414 111.209C67.5616 111.087 68.4403 111.267 68.885 111.465C69.102 111.456 69.1126 111.673 69.3296 111.663C69.4434 111.767 69.6498 111.541 69.6498 111.541C70.1977 111.626 70.5285 111.721 70.9626 111.702C71.1796 111.693 71.3966 111.683 71.6136 111.674C72.0477 111.655 72.6987 111.627 72.9158 111.618C73.453 111.486 74.0935 111.241 74.734 110.997C74.8372 110.883 75.0648 111.091 75.168 110.978C75.7053 110.846 76.666 110.479 77.3064 110.234C77.5235 110.225 77.6373 110.328 77.7405 110.215L77.9469 109.989C78.1639 109.98 78.3915 110.187 78.4948 110.074C78.7118 110.065 78.7012 109.848 78.9182 109.839C79.0214 109.725 79.3522 109.82 79.3522 109.82L79.5587 109.594C79.8895 109.688 80.6226 109.113 81.1492 108.764C81.4695 108.642 81.6653 108.199 81.8823 108.189C81.8823 108.189 81.9961 108.293 82.0993 108.18C82.409 107.841 82.843 107.822 83.3697 107.473C83.8963 107.125 84.5368 106.88 85.0634 106.531L85.2699 106.305L85.3837 106.409C86.2306 105.937 87.2839 105.24 88.1202 104.552C88.6468 104.203 89.0597 103.751 89.5863 103.402C89.5863 103.402 89.7001 103.506 89.8033 103.392C90.0098 103.166 90.4332 102.931 90.9599 102.582C91.4865 102.233 91.8994 101.781 92.426 101.432C93.2623 100.744 94.2018 99.9425 95.3477 98.9149C95.3477 98.9149 95.4615 99.0187 95.5648 98.9056C95.668 98.7925 95.8744 98.5662 95.9776 98.453C96.9171 97.6518 98.28 96.6149 99.426 95.5873C101.202 94.0979 102.543 92.6271 103.327 90.8541L103.533 90.6279C103.523 90.4109 103.512 90.1939 103.615 90.0808L103.822 89.8545L103.708 89.7507C103.904 89.3075 104.11 89.0812 104.409 88.5248C104.409 88.5248 104.295 88.421 104.399 88.3078C104.605 88.0816 104.698 87.7515 104.79 87.4214C104.986 86.9781 105.285 86.4218 105.584 85.8654C106.264 84.2056 107.058 82.6496 107.521 80.999C107.614 80.6689 107.592 80.235 107.799 80.0087C108.005 79.7825 107.778 79.5748 107.984 79.3485L108.077 79.0184C108.066 78.8015 107.952 78.6976 108.056 78.5845L108.262 78.3582C108.251 78.1413 108.241 77.9243 108.333 77.5942C108.437 77.4811 108.22 77.4904 108.323 77.3772L108.415 77.0471C108.519 76.934 108.291 76.7264 108.394 76.6132C108.487 76.2831 108.579 75.953 108.569 75.736C108.661 75.4059 108.537 75.0852 108.63 74.7551C108.619 74.5381 108.598 74.1042 108.587 73.8872C108.555 73.2363 108.844 72.463 108.926 71.9159C108.915 71.6989 108.791 71.3782 108.78 71.1612C108.759 70.7273 108.841 70.1802 108.706 69.6424C108.674 68.9916 108.529 68.2368 108.486 67.369C108.476 67.152 108.351 66.8312 108.341 66.6143C108.33 66.3973 108.319 66.1803 108.309 65.9634C108.298 65.7464 108.081 65.7557 108.071 65.5388C107.957 65.4349 108.163 65.2087 108.163 65.2087C108.153 64.9917 107.936 65.001 107.925 64.7841L108.018 64.454C108.007 64.237 107.79 64.2463 107.779 64.0293C107.769 63.8124 107.965 63.3691 107.84 63.0483C107.83 62.8314 107.613 62.8407 107.602 62.6237L107.695 62.2936C107.684 62.0767 107.456 61.869 107.446 61.6521C107.435 61.4351 107.642 61.2088 107.414 61.0012C107.3 60.8973 107.507 60.6711 107.393 60.5672L107.165 60.3596L107.268 60.2464C107.258 60.0295 106.927 59.935 106.916 59.718C106.802 59.6142 106.895 59.2841 106.895 59.2841C106.771 58.9633 106.429 58.6518 106.419 58.4349C106.419 58.4349 106.522 58.3217 106.408 58.2179C106.294 58.1141 106.056 57.6895 106.045 57.4725C105.921 57.1517 105.693 56.9441 105.569 56.6233C105.32 55.9817 104.968 55.4532 104.605 54.7078C104.481 54.3871 104.14 54.0756 104.129 53.8586C104.015 53.7548 104.108 53.4247 104.108 53.4247C103.859 52.7831 102.948 51.9525 102.369 51.2164C102.369 51.2164 102.472 51.1033 102.358 50.9995C102.017 50.688 102.006 50.471 101.437 49.9519C101.21 49.7442 100.982 49.5366 100.868 49.4328C100.868 49.4328 100.971 49.3196 100.857 49.2158C99.8332 48.2814 98.6845 47.0262 97.7634 45.9786C97.422 45.6671 97.0699 45.1387 96.6147 44.7234C96.2732 44.4119 95.7148 44.1097 95.3733 43.7983C95.0319 43.4868 94.9075 43.166 94.5555 42.6376C93.51 41.2692 91.9272 40.0326 90.1168 38.5884C89.8892 38.3807 89.5478 38.0693 89.3202 37.8616C89.0925 37.654 88.9893 37.7671 88.8755 37.6633C88.8755 37.6633 88.9787 37.5501 88.8649 37.4463L88.7511 37.3425C88.5235 37.1348 88.5023 36.7009 88.3885 36.5971C87.5812 35.6534 86.9301 35.6813 85.927 35.1808C85.3686 34.8786 84.6963 34.4726 84.1378 34.1705C84.1378 34.1705 84.0346 34.2836 83.9208 34.1798C83.59 34.0853 83.2591 33.9908 83.0315 33.7831C82.7007 33.6886 82.4837 33.6979 82.256 33.4903C81.6976 33.1881 80.7977 32.5745 80.2392 32.2723C80.2392 32.2723 80.136 32.3854 80.0222 32.2816C79.9084 32.1778 79.7946 32.074 79.5776 32.0833C78.6989 31.9036 77.4788 31.4124 76.4862 31.1288C76.4862 31.1288 76.383 31.242 76.2692 31.1382C75.8246 30.9398 75.3799 30.7415 74.8215 30.4393C74.4906 30.3448 73.9428 30.2596 73.829 30.1558C73.7152 30.052 73.3949 30.1744 73.2811 30.0706C73.1673 29.9668 72.8471 30.0892 72.7333 29.9854C72.6195 29.8816 72.1854 29.9002 71.9684 29.9095L71.6482 30.032C71.4311 30.0413 71.2035 29.8336 70.9865 29.8429C70.7695 29.8522 70.563 30.0785 70.4492 29.9747C70.2322 29.984 70.2216 29.7671 70.0046 29.7764C69.5705 29.795 69.0333 29.9268 68.4854 29.8416C68.2684 29.8509 67.8344 29.8695 67.5035 29.775C67.1727 29.6805 66.5216 29.7084 66.0876 29.727C65.6535 29.7457 64.8993 29.8867 64.362 30.0185C64.145 30.0278 64.0312 29.924 63.928 30.0371L63.7215 30.2634L63.3907 30.1689C63.1737 30.1782 63.1843 30.3952 62.9673 30.4045L62.6364 30.31C62.4194 30.3193 62.213 30.5456 61.996 30.5549C61.6757 30.6773 61.2311 30.479 61.0141 30.4883L60.8076 30.7146C60.0428 30.6387 58.7406 30.6946 57.8831 30.9488C57.3459 31.0806 57.0362 31.42 56.5096 31.7687C56.0861 32.0043 55.5489 32.1361 55.1254 32.3716C55.0222 32.4848 55.0116 32.2678 54.9084 32.381C54.8052 32.4941 54.5776 32.2864 54.4744 32.3996C54.2573 32.4089 54.1647 32.739 53.8445 32.8614C53.4211 33.097 52.9976 33.3326 52.471 33.6813C51.6241 34.1525 50.5496 34.4161 49.6921 34.6703C47.8739 35.2918 46.2939 36.338 44.3831 37.2897C43.1128 37.9965 41.6148 38.4956 40.3551 39.4193C39.8284 39.7681 39.5294 40.3244 39.0027 40.6732C38.5793 40.9088 38.0526 41.2575 37.6398 41.71C37.4334 41.9363 37.3408 42.2664 37.0205 42.3889C37.0205 42.3889 36.9067 42.285 36.8035 42.3982C36.7003 42.5113 36.3695 42.4168 36.2663 42.5299L35.946 42.6524C35.8428 42.7655 35.6258 42.7748 35.5226 42.888C35.4194 43.0011 35.0885 42.9066 35.0885 42.9066C34.8715 42.9159 34.8821 43.1329 34.6651 43.1422C33.9108 43.2833 33.1353 42.9904 32.6801 42.5751C32.3387 42.2636 31.894 42.0653 31.542 41.5369C31.542 41.5369 31.6452 41.4237 31.5314 41.3199L31.2931 40.8953L31.3858 40.5652C31.2719 40.4614 31.1581 40.3575 31.1581 40.3575C31.0443 40.2537 31.1369 39.9236 31.1263 39.7066C31.1051 39.2727 30.9701 38.735 31.0521 38.1879L31.0415 37.9709C31.2374 37.5277 31.764 37.179 32.063 36.6226C31.441 35.0187 31.6262 34.3585 31.8326 34.1322C32.6583 33.2271 34.0319 32.4072 35.1778 31.3796C35.7044 31.0309 36.1279 30.7953 36.5407 30.3427C36.8504 30.0033 37.2738 29.7677 37.6973 29.5321C38.1313 29.5135 38.3377 29.2872 38.6579 29.1648C38.875 29.1555 38.9782 29.0423 39.0814 28.9292C39.1846 28.8161 39.2984 28.9199 39.2984 28.9199C39.6187 28.7974 39.7113 28.4673 40.0315 28.3449C40.0315 28.3449 40.1453 28.4487 40.2485 28.3356C40.5688 28.2131 40.7858 28.2038 40.9922 27.9775C41.3124 27.8551 41.5295 27.8458 41.7359 27.6195C42.0561 27.497 42.0455 27.2801 42.3657 27.1576C42.469 27.0445 42.7998 27.139 42.7998 27.139C42.903 27.0258 43.0062 26.9127 43.1094 26.7996C43.2126 26.6864 43.5435 26.781 43.5435 26.781C43.9669 26.5454 43.8531 26.4415 44.2765 26.2059C44.2765 26.2059 44.3903 26.3098 44.4936 26.1966L44.5968 26.0835C44.7 25.9704 45.0308 26.0649 45.0308 26.0649C45.7745 25.7068 45.8777 25.5937 45.9809 25.4805C46.4044 25.245 47.0448 25.0001 47.6747 24.5382C47.6747 24.5382 47.7885 24.642 47.8917 24.5289C48.0981 24.3026 48.2014 24.1895 48.4184 24.1801C48.5216 24.067 48.8524 24.1615 48.8524 24.1615C49.1727 24.0391 49.6993 23.6903 50.1228 23.4548C50.3398 23.4454 50.4536 23.5493 50.5568 23.4361L50.7632 23.2099C50.9803 23.2005 51.3005 23.0781 51.6207 22.9556C51.9409 22.8332 52.1474 22.6069 52.4676 22.4845C52.5708 22.3713 52.9016 22.4658 52.9016 22.4658L53.1081 22.2396L53.2219 22.3434C53.5421 22.2209 53.7485 21.9947 53.9656 21.9853C54.0688 21.8722 54.3996 21.9667 54.3996 21.9667C54.5028 21.8536 54.606 21.7404 54.7092 21.6273C54.8124 21.5142 55.1433 21.6087 55.1433 21.6087C55.4635 21.4862 55.6699 21.2599 55.9902 21.1375C55.9902 21.1375 56.104 21.2413 56.2072 21.1282C56.4136 20.9019 56.7445 20.9964 57.0647 20.874C57.2817 20.8646 57.6019 20.7422 57.7052 20.6291C57.8084 20.5159 58.1392 20.6104 58.3562 20.6011L58.5626 20.3748L58.8935 20.4694L59.0999 20.2431C59.3169 20.2338 59.6478 20.3283 59.968 20.2058C60.2882 20.0834 60.8361 20.1686 61.0531 20.1593L61.2595 19.933C61.5904 20.0275 62.2414 19.9996 62.6755 19.9809L62.8819 19.7546L63.2127 19.8492L63.4191 19.6229C63.6362 19.6136 63.967 19.7081 64.2872 19.5856C64.8245 19.4539 65.3723 19.5391 66.0128 19.2942C66.4469 19.2755 67.0873 19.0306 67.7384 19.0027C68.1724 18.9841 68.8235 18.9561 69.1543 19.0506C69.2682 19.1545 69.7022 19.1358 69.9192 19.1265C70.3533 19.1079 70.7873 19.0893 71.0043 19.08C71.4384 19.0613 71.7692 19.1559 72.1 19.2504C72.5341 19.2317 72.8543 19.1093 73.1852 19.2038C73.6192 19.1852 73.95 19.2797 74.2809 19.3742C74.6117 19.4687 75.0457 19.4501 75.2628 19.4408C75.9244 19.6298 76.8137 20.0265 77.6924 20.2062C77.9094 20.1969 78.0232 20.3007 78.1371 20.4045C78.2509 20.5083 78.3541 20.3952 78.3541 20.3952C78.6849 20.4897 78.6955 20.7067 78.9125 20.6974C79.0263 20.8012 79.3466 20.6787 79.3466 20.6787C79.6774 20.7732 79.7912 20.8771 79.905 20.9809C80.2359 21.0754 80.3497 21.1792 80.6805 21.2737C80.7943 21.3776 81.0113 21.3683 81.3422 21.4628C81.7868 21.6611 82.0145 21.8688 82.3453 21.9633C82.4591 22.0671 82.7793 21.9446 82.7793 21.9446C82.8931 22.0485 83.007 22.1523 83.007 22.1523C83.5654 22.4545 84.6717 22.8418 85.344 23.2478C85.7886 23.4461 86.0269 23.8708 86.4715 24.0691C86.4715 24.0691 86.5747 23.956 86.6885 24.0598L86.8023 24.1636C86.9162 24.2674 87.1332 24.2581 87.247 24.3619C87.8054 24.6641 88.9118 25.0515 89.584 25.4575C90.1425 25.7596 90.7009 26.0618 91.3732 26.4678C91.8179 26.6661 92.8422 27.6005 93.6388 28.3273C94.2079 28.8464 94.994 29.3562 95.563 29.8754C97.0426 31.2251 98.2019 32.6973 99.8985 34.0377C99.8985 34.0377 100.663 34.1136 100.571 34.4437C100.489 34.9907 101.709 35.4819 102.164 35.8972C102.392 36.1049 102.527 36.6426 102.754 36.8503C102.868 36.9541 103.096 37.1617 103.21 37.2656C103.562 37.794 104.483 38.8416 105.062 39.5777C105.983 40.6252 106.78 41.352 107.701 42.3996C107.929 42.6072 108.281 43.1357 108.395 43.2395C108.395 43.2395 108.291 43.3526 108.405 43.4564L108.747 43.7679C108.757 43.9849 108.985 44.1925 109.109 44.5133C109.348 44.9379 109.586 45.3626 109.824 45.7872C110.062 46.2118 110.414 46.7402 110.653 47.1648C110.653 47.1648 110.549 47.278 110.663 47.3818C110.891 47.5894 110.684 47.8157 110.912 48.0234C111.026 48.1272 111.285 48.9857 111.523 49.4104L111.751 49.618C111.762 49.835 112.114 50.3634 112.238 50.6842C112.384 51.4389 113.419 52.5903 113.781 53.3357C113.895 53.4395 113.678 53.4488 113.792 53.5527C113.906 53.6565 113.699 53.8828 113.813 53.9866L114.041 54.1942L113.937 54.3074L114.165 54.515L114.062 54.6282L114.289 54.8358L114.186 54.949L114.414 55.1566L114.311 55.2697C114.435 55.5905 114.559 55.9113 114.684 56.2321C114.798 56.3359 114.581 56.3452 114.694 56.4491L114.808 56.5529C114.819 56.7699 114.83 56.9868 114.84 57.2038C114.851 57.4208 115.078 57.6284 115.089 57.8454C115.1 58.0623 115.11 58.2793 115.121 58.4963C115.131 58.7132 115.359 58.9209 115.37 59.1378C115.38 59.3548 115.391 59.5718 115.401 59.7887C115.412 60.0057 115.64 60.2133 115.65 60.4303C115.661 60.6473 115.671 60.8642 115.682 61.0812L115.91 61.2888C115.828 61.8359 115.859 62.4868 116.005 63.2415C116.026 63.6754 116.151 63.9962 116.172 64.4302C116.182 64.6471 116.193 64.8641 116.204 65.081C116.225 65.515 116.463 65.9396 116.484 66.3735C116.64 67.3452 116.683 68.213 116.725 69.0809C116.736 69.2979 116.746 69.5148 116.757 69.7318C116.768 69.9487 116.561 70.175 116.572 70.392C116.479 70.7221 116.728 71.3637 116.635 71.6938C116.657 72.1277 116.575 72.6748 116.482 73.0049C116.389 73.335 116.514 73.6558 116.421 73.9859C116.432 74.2028 116.236 74.6461 116.247 74.863C116.257 75.08 116.382 75.4008 116.278 75.5139L116.072 75.7402L116.186 75.844L115.979 76.0703L116.093 76.1741C116.001 76.5042 115.908 76.8343 115.815 77.1644C115.712 77.2776 115.929 77.2682 115.826 77.3814L115.723 77.4945C115.733 77.7115 115.744 77.9284 115.755 78.1454L115.548 78.3717C115.559 78.5887 115.559 78.5887 115.569 78.8056C115.58 79.0226 115.59 79.2395 115.601 79.4565C115.612 79.6735 115.405 79.8997 115.416 80.1167C115.313 80.2298 115.53 80.2205 115.426 80.3337C115.22 80.5599 115.344 80.8807 115.355 81.0977L115.149 81.324L115.262 81.4278L115.056 81.6541L115.17 81.7579L114.963 81.9842L115.077 82.088L114.871 82.3143L114.985 82.4181L114.778 82.6444L114.892 82.7482L114.686 82.9745L114.799 83.0783L114.593 83.3046C114.614 83.7385 114.233 84.842 113.934 85.3983L113.728 85.6246L113.841 85.7284L113.635 85.9547C113.646 86.1717 113.357 86.945 113.058 87.5014C112.862 87.9446 112.563 88.501 112.368 88.9443C112.275 89.2744 111.965 89.6138 111.873 89.9439C111.677 90.3871 111.079 91.4999 110.573 92.2825C110.367 92.5088 110.378 92.7258 110.171 92.952C110.171 92.952 110.285 93.0559 110.182 93.169L109.872 93.5084C109.883 93.7254 109.562 93.8478 109.367 94.2911C109.367 94.2911 109.48 94.3949 109.377 94.508C109.274 94.6212 109.068 94.8475 108.964 94.9606C108.964 94.9606 109.078 95.0644 108.975 95.1776C108.872 95.2907 108.769 95.4038 108.665 95.517C108.263 96.1865 107.138 97.648 106.199 98.4493C106.199 98.4493 106.085 98.3454 105.982 98.4586C105.672 98.798 105.053 99.4768 104.526 99.8255C104.423 99.9387 104.32 100.052 104.217 100.165C103.793 100.401 102.864 101.419 102.338 101.768C102.017 101.89 102.131 101.994 101.914 102.003C101.48 102.022 100.263 103.813 99.7468 104.379C99.4371 104.718 98.7967 104.963 98.3838 105.416C97.9604 105.651 97.6613 106.208 97.1347 106.557C97.1347 106.557 97.0209 106.453 96.9177 106.566C96.8145 106.679 96.608 106.905 96.5048 107.018C96.5048 107.018 96.391 106.915 96.2878 107.028L95.9782 107.367L95.8644 107.263C95.6579 107.49 95.3377 107.612 95.2345 107.725C94.6046 108.187 93.5513 108.885 92.715 109.573C92.2916 109.808 91.9819 110.148 91.4659 110.713C91.2595 110.94 91.0424 110.949 90.9392 111.062C90.3094 111.524 89.7933 112.09 89.2667 112.438C89.2667 112.438 89.1528 112.335 89.0496 112.448C88.74 112.787 87.9963 113.145 87.5729 113.381C87.2526 113.503 87.16 113.833 86.943 113.843C86.943 113.843 86.8292 113.739 86.726 113.852C86.4164 114.191 85.9823 114.21 85.6621 114.332L85.4557 114.559L85.3418 114.455L85.1354 114.681L85.0216 114.577C84.7014 114.7 84.2885 115.152 84.0715 115.162L83.7407 115.067L83.5342 115.293L83.4204 115.19L83.214 115.416L83.1002 115.312L82.8938 115.538L82.78 115.434L82.5735 115.661L82.4597 115.557L82.2533 115.783L82.1395 115.679L81.9331 115.906C81.6022 115.811 81.2926 116.151 80.8692 116.386L80.6627 116.612C80.4457 116.622 80.2393 116.848 79.9191 116.97C79.9191 116.97 79.8053 116.867 79.702 116.98C79.4956 117.206 79.268 116.998 79.0616 117.225C78.8552 117.451 78.6275 117.243 78.4211 117.47C78.3179 117.583 78.0903 117.375 77.9871 117.488L77.7806 117.714L77.6668 117.611L77.4604 117.837C77.2434 117.846 77.0158 117.639 76.8093 117.865L76.7061 117.978C76.4891 117.987 76.2721 117.997 76.0551 118.006C75.7348 118.128 75.4146 118.251 75.0944 118.373C74.9912 118.486 74.9806 118.269 74.8773 118.383C74.7741 118.496 74.5465 118.288 74.4433 118.401C74.1231 118.524 74.0199 118.637 73.5858 118.655C73.3688 118.665 73.1518 118.674 72.9347 118.683C72.5007 118.702 71.9528 118.617 71.6326 118.739L71.4262 118.966C71.0954 118.871 70.7751 118.993 70.3411 119.012C69.69 119.04 69.1527 119.172 68.3879 119.096C68.1708 119.105 67.8506 119.228 67.5198 119.133C67.3028 119.143 67.2922 118.926 67.0751 118.935C66.7443 118.84 66.4241 118.963 66.2071 118.972C65.99 118.981 65.8868 119.095 65.773 118.991C65.556 119 65.1113 118.802 64.7805 118.707C64.4497 118.613 64.2326 118.622 63.9018 118.527C63.6848 118.537 63.4678 118.546 63.4678 118.546C62.8061 118.357 62.2582 118.272 61.5966 118.083C61.4828 117.979 61.4934 118.196 61.3796 118.092L61.0487 117.998C60.9349 117.894 60.7285 118.12 60.6147 118.016C60.3977 118.026 60.387 117.809 60.17 117.818C60.0562 117.714 59.736 117.837 59.736 117.837C59.0743 117.648 58.5159 117.345 57.8542 117.156C57.7404 117.053 57.6266 116.949 57.4095 116.958C57.2957 116.854 56.9755 116.977 56.9755 116.977C56.7585 116.986 56.7479 116.769 56.5309 116.778C56.417 116.675 56.0968 116.797 56.0968 116.797C55.983 116.693 55.8692 116.589 55.8692 116.589C55.7554 116.485 55.5384 116.495 55.2075 116.4C55.0937 116.296 54.8767 116.306 54.7629 116.202C54.6491 116.098 54.3288 116.221 54.3288 116.221C53.998 116.126 53.6566 115.815 53.5428 115.711C53.5428 115.711 53.4395 115.824 53.3257 115.72C52.7673 115.418 51.9918 115.125 51.2057 114.615C50.4302 114.322 49.758 113.916 48.8581 113.303C48.072 112.793 46.7169 111.764 45.682 110.613C45.5682 110.509 45.4543 110.405 45.3405 110.301C44.7609 109.565 43.3845 108.102 42.5772 107.158C42.3496 106.951 42.122 106.743 42.1114 106.526C41.9976 106.422 42.2146 106.413 42.1008 106.309C41.8732 106.102 41.7276 105.347 41.3755 104.818C41.1373 104.394 40.8991 103.969 40.5577 103.658C40.3194 103.233 39.9886 103.139 39.6366 102.61C39.5228 102.506 39.626 102.393 39.5122 102.289C39.2845 102.082 38.9431 101.77 38.9325 101.553C38.9325 101.553 39.0357 101.44 38.9219 101.336C38.5805 101.025 38.4243 100.053 38.0722 99.5247C37.9478 99.2039 37.7308 99.2133 37.7202 98.9963C37.6064 98.8925 37.699 98.5624 37.699 98.5624C37.4608 98.1378 37.1087 97.6093 36.7567 97.0809C36.7567 97.0809 36.8599 96.9677 36.7461 96.8639C36.6217 96.5431 36.5079 96.4393 36.3835 96.1185C36.2696 96.0147 36.2591 95.7977 36.1452 95.6939C35.8964 95.0523 35.6476 94.4107 35.3988 93.7692C35.1499 93.1276 34.7873 92.3822 34.5385 91.7406C34.4247 91.6368 34.6417 91.6275 34.5279 91.5236L34.4035 91.2029C34.2897 91.099 34.4961 90.8727 34.3823 90.7689C34.2579 90.4481 34.1334 90.1274 34.1228 89.9104C33.9772 89.1557 33.7284 88.5141 33.4796 87.8725C33.3552 87.5517 33.2308 87.2309 33.1064 86.9102C32.9925 86.8063 33.199 86.5801 33.0852 86.4762C32.9713 86.3724 32.8575 86.2686 32.8469 86.0516C32.8363 85.8347 33.0428 85.6084 32.9289 85.5045C32.9183 85.2876 32.7013 85.2969 32.6907 85.0799L32.7833 84.7498C32.7727 84.5329 32.5451 84.3252 32.5345 84.1083C32.5239 83.8913 32.7303 83.665 32.6165 83.5612C32.6059 83.3442 32.3889 83.3535 32.3783 83.1366C32.3677 82.9196 32.5741 82.6933 32.4603 82.5895C32.4497 82.3725 32.2327 82.3819 32.2221 82.1649C32.1903 81.514 32.1585 80.8631 32.1161 79.9953C32.0949 79.5613 31.9705 79.2406 31.9599 79.0236C31.9493 78.8066 32.1663 78.7973 32.1557 78.5803C32.1451 78.3634 32.0313 78.2596 32.1345 78.1464C32.1953 77.1654 32.0391 76.1938 32.0893 74.9958C32.0681 74.5619 32.0469 74.1279 32.1395 73.7978C32.2427 73.6847 32.1289 73.5809 32.1289 73.5809C32.2321 73.4677 32.3353 73.3546 32.3247 73.1376L32.2003 72.8168C32.1897 72.5999 32.2929 72.4867 32.3855 72.1566C32.3749 71.9397 32.4781 71.8265 32.4675 71.6096C32.5602 71.2795 32.5496 71.0625 32.6422 70.7324C32.7348 70.4023 32.7242 70.1853 33.0232 69.629C33.1158 69.2989 33.4361 69.1764 33.4255 68.9594C33.4255 68.9594 33.3116 68.8556 33.4149 68.7425C33.7245 68.4031 33.7033 67.9691 33.7959 67.639C34.857 64.8758 36.5586 61.8676 38.7048 59.0578C39.1177 58.6052 39.4167 58.0489 39.8296 57.5963C40.1392 57.2569 40.5732 57.2383 40.8723 56.6819C40.9755 56.5687 40.8617 56.4649 40.9649 56.3518C41.1713 56.1255 42.9471 54.6361 42.8227 54.3153C42.8121 54.0983 43.0291 54.089 43.3387 53.7496C45.1039 52.0432 46.7659 50.45 48.6555 49.0644C49.0789 48.8288 49.4918 48.3762 50.0185 48.0275C50.4419 47.7919 50.8547 47.3394 51.3814 46.9906C51.3814 46.9906 51.4952 47.0944 51.5984 46.9813C51.8048 46.755 51.9186 46.8589 52.0219 46.7457C52.3421 46.6233 52.5485 46.397 52.6517 46.2839C52.972 46.1614 53.1784 45.9351 53.2816 45.822C53.2816 45.822 53.3954 45.9258 53.4986 45.8127L53.8083 45.4733L53.9221 45.5771C54.4487 45.2284 54.7584 44.8889 55.285 44.5402C55.285 44.5402 55.3988 44.644 55.502 44.5309C55.7085 44.3046 56.2457 44.1729 56.5659 44.0504C57.2064 43.8055 57.6299 43.5699 58.2703 43.325C58.3735 43.2119 58.3841 43.4288 58.4874 43.3157C58.6938 43.0894 58.9214 43.2971 59.1278 43.0708C59.231 42.9577 59.4586 43.1653 59.5619 43.0522L59.7683 42.8259L59.8821 42.9297L60.0885 42.7034L60.2023 42.8073L60.4087 42.581L60.5226 42.6848L60.729 42.4585L60.8428 42.5624L61.0492 42.3361L61.163 42.4399L61.3694 42.2136C61.5865 42.2043 61.5865 42.2043 61.8035 42.195C62.0205 42.1857 62.2269 41.9594 62.444 41.9501C62.661 41.9408 62.878 41.9315 63.095 41.9222C63.312 41.9129 63.5185 41.6866 63.7355 41.6773C63.9525 41.668 64.1695 41.6586 64.3866 41.6493L64.593 41.4231C64.9238 41.5176 65.027 41.4044 65.3473 41.282C65.4505 41.1688 65.4611 41.3858 65.5643 41.2727L65.6675 41.1595C65.8845 41.1502 66.1015 41.1409 66.3186 41.1316C66.5356 41.1223 66.7526 41.113 66.8558 40.9998C66.959 40.8867 68.0441 40.8401 68.2612 40.8308C68.6952 40.8122 69.1187 40.5766 69.4495 40.6711C69.6665 40.6618 69.8835 40.6525 69.8835 40.6525L70.1112 40.8601C70.3282 40.8508 70.5346 40.6245 70.7622 40.8322C70.9898 41.0398 71.2995 40.7004 71.5271 40.9081C71.6409 41.0119 72.075 40.9933 72.292 40.984C72.509 40.9746 72.5196 41.1916 72.7366 41.1823C72.8504 41.2861 73.0569 41.0598 73.0569 41.0598L73.2845 41.2675C74.2558 41.1171 75.6003 41.9291 76.8098 42.2033C77.0269 42.194 77.1301 42.0808 77.2439 42.1847L77.4715 42.3923L77.5747 42.2792L77.8023 42.4868L77.9056 42.3737L78.1332 42.5813C78.7842 42.5534 79.5491 42.6293 80.5416 42.9128L80.7692 43.1205L80.8725 43.0073L81.1001 43.215C81.3171 43.2057 81.9894 43.6117 82.434 43.81L82.6616 44.0176C83.0957 43.999 84.4508 45.028 85.0199 45.5471C85.3613 45.8586 85.806 46.0569 86.2612 46.4722C87.3887 47.2935 88.4236 48.4449 89.4585 49.5963C90.6072 50.8515 91.7453 51.8897 92.46 53.1636L92.6876 53.3712C92.595 53.7013 93.4023 54.6451 93.7543 55.1735C94.1064 55.7019 94.3552 56.3435 94.7072 56.872C94.7072 56.872 94.604 56.9851 94.7178 57.0889C94.9455 57.2966 94.8422 57.4097 95.0699 57.6174C96.9014 59.4955 97.1291 59.7032 97.0365 60.0333Z" fill="white"/>
</svg>
