<svg width="97" height="104" viewBox="0 0 97 104" fill="none" xmlns="http://www.w3.org/2000/svg">
<path d="M64.9213 71.6692C63.6324 76.4815 70.5219 78.2852 71.5477 73.3692C73.9744 62.3928 75.6116 51.1052 75.634 39.8651C75.652 30.3714 74.1632 18.9157 66.5929 12.2832C58.297 4.98476 51.0896 15.7488 48.8672 22.9294C46.8003 29.7152 46.5077 36.8205 46.7534 43.9099C41.364 37.5291 35.6874 31.4911 28.7825 26.6411C21.9295 21.6596 10.5546 18.3158 5.81159 28.2271C1.01672 38.2699 9.28424 47.7614 15.9096 54.4774C23.1289 61.8076 31.2895 68.2926 40.2438 73.3424C50.2904 78.8989 60.9994 82.9682 72.0953 85.67C73.8177 86.1209 74.237 83.322 72.4229 82.9109C51.2158 77.5155 31.2583 64.7081 16.7323 48.3412C13.1008 44.2495 8.59637 38.9016 9.72206 32.9608C11.0514 25.7322 18.0409 26.5112 23.124 29.427C33.1985 35.2984 40.7323 45.1087 48.051 53.9222C49.9006 56.1714 53.1746 54.4217 53.0037 51.7701C52.5309 43.9071 52.1897 36.096 53.5949 28.2893C54.2336 24.7408 55.2633 20.5863 57.5725 17.6202C61.2777 12.8483 64.7258 17.0197 66.7545 20.9356C70.6404 28.6239 70.2397 37.7387 69.572 45.9882C68.6969 54.764 67.2038 63.3722 64.9213 71.6692Z" fill="#3C2C16"/>
</svg>
