<svg width="19" height="18" viewBox="0 0 19 18" fill="none" xmlns="http://www.w3.org/2000/svg">
<path d="M13.3361 2.05798C13.2586 2.05744 13.183 2.08248 13.1211 2.12925C13.0584 2.17665 13.0134 2.24365 12.9932 2.31958L13.1381 2.35823L12.9932 2.31959C12.9729 2.39552 12.9786 2.47605 13.0094 2.54836C13.0396 2.61937 13.0923 2.67846 13.1593 2.71661C14.3014 3.4259 15.2468 4.41668 15.8606 5.60005C15.8764 5.64365 15.9007 5.68376 15.9321 5.71803L16.0427 5.61672L15.9321 5.71803C15.9668 5.75592 16.0093 5.78576 16.0568 5.80546C16.1043 5.82518 16.1554 5.83424 16.2067 5.83208C16.2581 5.82991 16.3083 5.81657 16.3539 5.79292L16.285 5.65973L16.3539 5.79292C16.3996 5.76929 16.4395 5.73598 16.4709 5.6953L16.3521 5.60366L16.4709 5.6953C16.5022 5.65461 16.5244 5.60755 16.5356 5.55745C16.5469 5.50733 16.5471 5.45536 16.5362 5.40515C16.5264 5.35974 16.5076 5.31677 16.4811 5.27871C15.8056 3.97587 14.7764 2.88592 13.5305 2.11263M13.5305 2.11263C13.5307 2.11279 13.531 2.11295 13.5312 2.11311L13.4506 2.23962L13.5297 2.11216C13.53 2.11232 13.5302 2.11248 13.5305 2.11263ZM18.134 14.2495L18.1339 14.2492L17.1228 11.013C17.1227 11.0126 17.1226 11.0123 17.1225 11.012C17.0966 10.9263 17.0392 10.8536 16.9617 10.8087C16.8839 10.7637 16.7919 10.7501 16.7044 10.7707L16.7044 10.7706L16.6987 10.7721C16.6888 10.7749 16.6791 10.7781 16.6695 10.7816L13.0308 11.9947C13.0307 11.9948 13.0306 11.9948 13.0305 11.9948C12.9866 12.0093 12.9459 12.0322 12.9108 12.0624C12.8756 12.0926 12.8468 12.1294 12.8259 12.1708C12.8049 12.2121 12.7923 12.2572 12.7888 12.3034C12.7853 12.3496 12.7909 12.3961 12.8054 12.4401C12.8198 12.4842 12.8428 12.525 12.873 12.5601L12.9868 12.4624L12.873 12.5601C12.9032 12.5953 12.94 12.6242 12.9814 12.6451C13.0227 12.666 13.0678 12.6786 13.114 12.6822C13.1603 12.6857 13.2067 12.68 13.2508 12.6656L13.2515 12.6653L16.1458 11.6985C15.1 14.5977 12.3584 16.6357 9.09385 16.6357C4.93062 16.6357 1.55469 13.262 1.55469 9.09524C1.55469 4.92847 4.93062 1.55476 9.09385 1.55476C9.97386 1.55476 10.8338 1.67252 11.6126 1.93881L11.6126 1.93882L11.6145 1.93943C11.7034 1.96855 11.8003 1.96114 11.8838 1.91885C11.9672 1.87656 12.0305 1.80284 12.0597 1.71391L11.9171 1.66719L12.0597 1.71391C12.0888 1.62498 12.0815 1.52812 12.0392 1.44461C11.9973 1.36164 11.9243 1.29861 11.8361 1.26915C10.9688 0.972572 10.0358 0.85 9.09385 0.85H8.93994L8.93998 0.851449C4.46302 0.933646 0.85 4.59531 0.85 9.09528C0.85 13.6467 4.5461 17.3405 9.09386 17.3405C12.5771 17.3405 15.5346 15.2047 16.7346 12.1461L17.4551 14.4575C17.4552 14.4577 17.4553 14.458 17.4554 14.4582C17.4689 14.5027 17.491 14.5441 17.5205 14.58C17.5502 14.6162 17.5867 14.6461 17.6279 14.668C17.6691 14.69 17.7143 14.7037 17.7608 14.7082C17.8074 14.7127 17.8543 14.7079 17.899 14.6942C17.9437 14.6805 17.9852 14.6581 18.0212 14.6284C18.0573 14.5986 18.087 14.562 18.1089 14.5206C18.1307 14.4793 18.1442 14.4341 18.1485 14.3876C18.1528 14.341 18.1479 14.2941 18.134 14.2495Z" fill="" stroke="" stroke-width="0.3"/>
</svg>
