<svg width="70" height="83" viewBox="0 0 70 83" fill="none" xmlns="http://www.w3.org/2000/svg">
<path d="M41.9768 66.2992C38.8768 70.1992 44.4768 74.5992 47.3768 70.4992C53.9768 61.3992 59.9768 51.6992 64.4768 41.3992C68.2768 32.6992 71.4768 21.5992 67.1768 12.4992C62.4768 2.49917 51.5768 9.49917 46.6768 15.1992C42.0768 20.5992 38.9768 26.9992 36.3768 33.5992C33.9768 25.5992 31.1768 17.7992 26.7768 10.5992C22.4768 3.29917 13.3768 -4.30083 5.07677 2.89917C-3.32323 10.1992 0.476768 22.1992 3.87677 30.9992C7.57677 40.5992 12.4768 49.7992 18.6768 57.9992C25.6768 67.0992 33.8768 75.0992 42.9768 81.9992C44.3768 83.0992 45.8768 80.6992 44.3768 79.5992C27.0768 66.1992 13.8768 46.4992 7.07677 25.6992C5.37677 20.4992 3.37677 13.7992 6.77677 8.79917C10.8768 2.69917 16.9768 6.19917 20.4768 10.8992C27.3768 20.2992 30.3768 32.2992 33.5768 43.2992C34.3768 46.0992 38.0768 45.7992 38.9768 43.2992C41.6768 35.8992 44.4768 28.5992 48.8768 21.9992C50.8768 18.9992 53.4768 15.5992 56.7768 13.7992C62.0768 10.8992 63.5768 16.0992 63.8768 20.4992C64.3768 29.0992 60.3768 37.2992 56.4768 44.5992C52.1768 52.2992 47.3768 59.5992 41.9768 66.2992Z" fill="#F8A326"/>
</svg>
