<svg width="68" height="67" viewBox="0 0 68 67" fill="none" xmlns="http://www.w3.org/2000/svg">
<path d="M67.279 31.401L67.265 31.364C66.688 29.919 64.965 29.633 63.707 29.423C63.4 29.372 63.114 29.325 62.898 29.272C61.306 28.783 59.808 28.584 58.222 28.375C57.815 28.321 57.4 28.267 56.993 28.209C56.008 28.024 55.062 27.766 54.062 27.493C52.693 27.119 51.278 26.733 49.736 26.552C47.755 26.41 46.466 25.999 44.674 25.253C44.443 25.137 44.153 25.015 43.811 24.889C43.813 24.711 43.781 24.532 43.676 24.383C43.548 24.113 43.426 23.745 43.401 23.682C42.67 22.169 42.008 20.5 41.278 18.34C41.111 17.402 40.882 16.168 40.587 14.929C40.342 13.95 40.049 12.998 39.765 12.077C39.165 10.133 38.6 8.296 38.498 6.301C38.348 4.79 37.737 2.565 36.768 1.273C36.542 0.935001 36.248 0.618999 35.94 0.382999L35.953 0.343C35.914 0.326 35.877 0.312 35.816 0.291C35.633 0.165 35.471 0.0799991 35.31 0.0259991L34.402 0L34.393 0.0799999C32.987 0.252 32.189 1.599 31.477 2.839C30.904 3.351 30.516 4.15 30.195 4.877C29.875 5.406 29.572 5.946 29.265 6.492C28.948 7.058 28.626 7.631 28.294 8.179C27.876 8.773 27.523 9.338 27.235 9.868C26.981 10.253 26.722 10.63 26.465 11.004C25.503 12.402 24.509 13.848 23.872 15.656C23.361 17.355 22.766 19.09 22.214 20.485C22.072 21.049 21.939 21.583 21.503 22.176C21.435 22.313 21.261 22.57 21.107 22.784C20.753 22.755 20.403 22.73 20.079 22.717C19.627 22.668 19.175 22.602 18.724 22.536C18.268 22.47 17.812 22.404 17.331 22.351C16.099 22.274 14.985 22.313 13.906 22.351C12.838 22.388 11.828 22.424 10.7 22.35C10.064 22.35 9.391 22.244 8.679 22.131C7.96 22.017 7.241 21.877 6.55 21.902L6.326 21.879C4.705 21.712 1.326 21.361 0.467999 23.768C0.429999 23.908 0.413998 24.036 0.405998 24.154C0.196998 24.437 0.061 24.79 0 25.25C0 25.944 0.43 26.579 0.743 27.043L1.092 27.637C1.605 28.554 2.187 29.593 2.987 30.392C4.645 32.154 6.527 33.39 8.519 34.699C9.437 35.303 10.386 35.926 11.319 36.613C11.638 36.832 11.969 37.046 12.301 37.26C14.523 38.696 16.442 39.936 15.442 42.57C14.973 43.804 14.573 45.112 14.184 46.376C13.699 47.958 13.197 49.593 12.563 51.082C11.095 54.531 9.432 58.44 9.807 62.523C9.903 63.566 10.295 64.248 10.972 64.547C12.627 65.282 15.373 63.214 16.691 62.22L16.904 62.053C17.464 61.493 18.332 60.743 18.617 60.549L18.801 60.449C19.109 60.218 19.456 59.948 19.802 59.679C20.131 59.423 20.459 59.168 20.805 58.902C21.68 58.028 23.603 56.399 23.601 56.399C24.186 55.961 24.826 55.547 25.444 55.147C26.08 54.736 26.737 54.311 27.351 53.85C27.663 53.616 27.941 53.417 28.218 53.218L28.37 53.108C28.947 53.63 29.522 54.153 30.091 54.684C30.754 55.632 31.869 56.437 32.496 56.885L32.978 57.331C33.338 57.666 33.7 58.002 34.101 58.351C34.645 58.759 35.446 59.29 36.211 59.536C36.611 59.785 37.016 60.03 37.431 60.282L38.502 60.935C38.958 61.196 39.833 61.806 40.759 62.451C41.933 63.269 43.148 64.116 43.927 64.548C44.175 64.672 44.477 64.864 44.813 65.077C45.833 65.723 47.126 66.543 48.364 66.543C48.815 66.543 49.259 66.434 49.678 66.167C51.061 65.245 51.004 63.382 50.963 62.022C50.957 61.803 50.95 61.594 50.949 61.429C51.136 58.092 51.038 55.435 50.636 53.03C50.484 52.421 50.293 51.811 50.103 51.202C49.924 50.63 49.746 50.058 49.6 49.486C49.582 48.727 49.284 45.801 48.601 44.452C48.185 43.898 47.907 43.345 47.615 42.761C49.642 42.462 51.483 41.787 53.268 41.134C53.929 40.892 54.589 40.65 55.283 40.418C58 39.361 60.369 38.177 63.159 36.781L63.647 36.496C65.303 35.539 68.073 33.942 67.279 31.401ZM51.391 37.535C50.476 37.901 49.53 38.28 48.703 38.559C47.724 38.754 46.972 38.85 46.464 38.853L46.205 38.819C45.1 38.672 43.432 38.449 43.07 40.261C42.607 41.88 43.447 43.374 44.187 44.692C44.526 45.296 44.846 45.867 45.026 46.406C45.275 47.151 45.38 48.076 45.484 48.97C45.56 49.641 45.633 50.274 45.776 50.906C45.868 51.179 45.971 51.453 46.078 51.73C46.314 52.347 46.558 52.985 46.661 53.696C46.85 54.644 46.917 55.868 46.982 57.051C47.016 57.69 47.05 58.318 47.103 58.893C47.16 59.513 47.05 59.794 46.94 59.848C46.624 59.997 45.551 59.484 44.597 58.563C44.275 58.251 43.214 57.124 42.997 56.789L42.992 56.665L42.829 56.522C42.233 56.001 41.675 55.48 41.116 54.958C40.55 54.429 39.983 53.901 39.403 53.396C39.033 53.025 37.833 52.209 37.482 52.209C37.48 52.209 37.479 52.209 37.477 52.209C37.105 52.075 35.651 50.601 34.953 49.893C34.443 49.376 34.04 48.968 33.824 48.792C33.525 48.549 33.218 48.241 32.893 47.915C32.04 47.059 31.074 46.087 29.837 45.942C28.038 45.733 26.009 47.7 24.372 49.281C23.907 49.73 23.469 50.155 23.126 50.434C22.903 50.615 22.531 50.963 22.071 51.395C18.339 54.897 17.178 55.405 16.855 55.215C16.336 54.906 16.975 53.487 17.398 52.548C17.655 51.978 17.877 51.485 17.939 51.104C18.198 49.514 18.584 47.905 18.957 46.351C19.228 45.223 19.508 44.057 19.737 42.907C19.803 42.608 19.914 42.24 20.033 41.844C20.409 40.587 20.836 39.162 20.459 38.29C20.076 37.409 19.201 36.956 18.429 36.556C18.063 36.366 17.717 36.186 17.477 35.989L17.274 35.82C17.093 35.67 16.908 35.516 16.682 35.337C16.239 35.033 15.798 34.743 15.357 34.452L14.743 34.047C14.053 33.545 13.321 33.029 12.591 32.514C11.574 31.797 10.558 31.08 9.704 30.446C9.114 29.857 8.351 28.998 7.371 27.823C7.27 27.625 7.149 27.408 7.013 27.178L7.22 27.171C8.181 27.135 9.142 27.1 10.147 27.098C11.098 27.012 12.04 27.079 13.036 27.153C13.681 27.2 14.347 27.248 15.054 27.248C15.068 27.248 15.082 27.248 15.097 27.248C15.667 27.196 16.22 27.11 16.768 27.025C17.771 26.869 18.715 26.719 19.681 26.794C20.238 26.874 20.708 26.929 21.153 26.909C22.849 27.101 25.178 27.363 26.356 26.053C27.16 25.25 27.979 22.354 28.115 21.84C28.697 20.428 28.924 18.895 29.142 17.412C29.335 16.102 29.518 14.866 29.923 13.718C30.649 11.686 31.794 10.111 33.007 8.444L33.077 8.308C33.094 8.256 33.113 8.201 33.134 8.143C34.72 11.182 35.766 14.476 36.781 17.672C37.021 18.429 37.261 19.185 37.493 19.88L37.56 20.198C37.596 20.359 37.631 20.519 37.655 20.65C37.676 20.863 37.694 21.122 37.715 21.412C37.843 23.239 38.057 26.296 39.632 27.584C40.351 28.182 41.199 28.36 41.948 28.516C42.246 28.578 42.533 28.637 42.749 28.707C43.047 28.839 43.345 28.979 43.645 29.12C44.719 29.624 45.83 30.145 47.066 30.392C47.901 30.539 48.721 30.655 49.535 30.77C51.228 31.009 52.827 31.234 54.532 31.735C55.36 31.942 56.211 32.027 57.032 32.109C58.053 32.211 59.018 32.306 59.955 32.641C60.647 32.78 61.211 32.918 61.766 33.057C59.526 34.459 56.902 35.479 54.188 36.479C53.274 36.782 52.317 37.165 51.391 37.535Z" fill="white"/>
</svg>
