<svg width="80" height="62" viewBox="0 0 80 62" fill="none" xmlns="http://www.w3.org/2000/svg">
<path d="M6.03605 53.8389C6.26666 53.391 6.62317 53.0596 7.10691 52.8409C7.61451 52.613 8.13008 52.5812 8.65358 52.7429C9.17709 52.9046 9.66349 53.216 10.1141 53.6772C10.5634 54.1398 10.9345 54.6977 11.2287 55.3498C11.4805 55.9144 11.6581 56.5148 11.7562 57.1536C11.8529 57.7924 11.8542 58.4246 11.7575 59.0488L10.3805 59.0567C10.464 58.5743 10.4706 58.0786 10.4017 57.5671C10.3301 57.0555 10.1976 56.5797 9.99746 56.1344C9.71119 55.4996 9.34806 55.0238 8.90805 54.715C8.46936 54.4048 8.03067 54.3465 7.59596 54.54C7.2262 54.7083 7.0115 54.9893 6.95716 55.3816C6.9015 55.7752 6.99428 56.2404 7.23814 56.7825L8.12346 58.7519L6.88958 59.3059L6.05858 57.4557C5.84785 56.9892 5.58678 56.6658 5.27267 56.4882C4.95857 56.3107 4.63783 56.2947 4.30782 56.4419C3.91287 56.6208 3.68758 56.9375 3.63059 57.3948C3.5736 57.8507 3.67034 58.3583 3.92083 58.9123C4.0918 59.2926 4.3224 59.6584 4.61132 60.0123C4.90025 60.3675 5.23025 60.6723 5.59869 60.9334L4.55302 62.0003C4.12361 61.6703 3.74059 61.2873 3.40395 60.8539C3.06865 60.4178 2.79164 59.958 2.57429 59.4742C2.29199 58.8473 2.12899 58.2244 2.08526 57.6108C2.04152 56.9945 2.12767 56.4498 2.34502 55.9753C2.56105 55.4996 2.91359 55.155 3.39601 54.9363C3.81481 54.7481 4.2336 54.6964 4.64843 54.7799C5.06326 54.8647 5.44496 55.0675 5.79087 55.3856C5.72327 54.7998 5.80677 54.2869 6.03605 53.8389Z" fill="#3C2C16"/>
<path d="M6.53339 43.3515L9.47562 42.8678L9.72744 44.3972L8.17017 44.6517L9.05683 50.0392L10.6128 49.7847L10.8619 51.3009L7.91969 51.7859L7.86669 51.4586C7.77524 51.0186 7.43992 50.7615 6.85943 50.6899C6.27893 50.621 5.47977 50.6435 4.45927 50.7575L2.05114 51.0597L1.10352 45.3051L6.70171 44.3853L6.53339 43.3515ZM6.32665 49.1207C6.84883 49.1326 7.2504 49.2466 7.53667 49.4573L6.97075 46.0181L2.75886 46.7099L3.20019 49.3897L4.33202 49.2466C5.14048 49.1499 5.8058 49.1088 6.32665 49.1207Z" fill="#3C2C16"/>
<path d="M1.91676 35.7231C2.27327 35.2142 2.73979 34.8338 3.31631 34.5833C3.89415 34.3329 4.53828 34.2454 5.24998 34.3196C5.96169 34.3938 6.57663 34.6152 7.09351 34.9796C7.61171 35.3441 7.99077 35.8146 8.23198 36.3858C8.47451 36.957 8.55799 37.5865 8.48642 38.2717C8.38702 39.222 7.99209 39.939 7.30027 40.4267L10.7143 40.7859L10.5407 42.4333L0.945312 41.4247L1.10964 39.8555L2.03207 39.9536C1.72857 39.6474 1.51122 39.2843 1.38664 38.8668C1.26206 38.4493 1.22495 37.9987 1.27531 37.515C1.34953 36.8285 1.5629 36.2321 1.91676 35.7231ZM6.6071 36.7476C6.24396 36.3142 5.73372 36.0637 5.0737 35.9948C4.41501 35.9246 3.86368 36.0664 3.41837 36.4136C2.97174 36.7635 2.71859 37.2393 2.65498 37.845C2.61389 38.2426 2.66691 38.6071 2.8127 38.941C2.95848 39.2777 3.19042 39.5547 3.50452 39.7747C3.81863 39.9933 4.19502 40.1272 4.63503 40.1736C5.07636 40.22 5.47131 40.167 5.82385 40.0185C6.17771 39.8688 6.46133 39.6448 6.67471 39.3479C6.88809 39.0497 7.01531 38.7038 7.0564 38.3075C7.12001 37.7005 6.97157 37.181 6.6071 36.7476Z" fill="#3C2C16"/>
<path d="M4.85523 26.7663C5.51259 26.4191 6.31575 26.4191 7.26071 26.765L11.1558 28.1871L10.6204 29.6569L9.81195 29.36C10.0333 29.6582 10.1552 30.0107 10.1804 30.4203C10.2056 30.8298 10.1261 31.2804 9.94449 31.7787C9.76159 32.277 9.51774 32.6826 9.21159 32.9941C8.90544 33.3055 8.5635 33.5083 8.18578 33.5997C7.80806 33.6925 7.42901 33.6687 7.04731 33.5308C6.44959 33.3108 6.05199 32.9159 5.85319 32.3393C5.65572 31.7642 5.72995 30.9981 6.07851 30.0452L6.70538 28.3276L6.6073 28.2918C6.14211 28.1221 5.73392 28.1301 5.38404 28.317C5.03283 28.5052 4.75715 28.8723 4.55702 29.4196C4.42184 29.7934 4.34498 30.1817 4.3304 30.5846C4.31317 30.9888 4.36486 31.352 4.48149 31.678L3.12566 31.8742C2.98783 31.4288 2.93615 30.9345 2.97591 30.3938C3.0117 29.853 3.13097 29.3083 3.33242 28.7609C3.68761 27.7776 4.19654 27.1136 4.85523 26.7663ZM9.04194 29.9034C8.97302 29.5363 8.79676 29.2288 8.51182 28.9836L7.73914 28.7026L7.15334 30.3089C6.82599 31.2049 6.95719 31.7602 7.54696 31.9762C7.82926 32.0796 8.093 32.0491 8.34217 31.8861C8.59133 31.7217 8.78615 31.4408 8.93061 31.0432C9.07375 30.6509 9.10953 30.2732 9.04194 29.9034Z" fill="#3C2C16"/>
<path d="M13.7906 20.3226C14.3194 20.6738 14.5951 21.1456 14.6176 21.7341C14.6401 22.3225 14.3909 23.0051 13.8714 23.7844L11.8728 26.7836L5.98438 22.8593L7.90214 19.9807C8.3819 19.261 8.8895 18.7852 9.42361 18.5573C9.95772 18.3293 10.468 18.377 10.953 18.7004C11.2539 18.9019 11.462 19.1537 11.5773 19.4598C11.6926 19.7633 11.7164 20.1013 11.6515 20.471C12.3579 19.8932 13.0696 19.8428 13.7906 20.3226ZM9.31758 23.1867L10.2798 21.7434C10.7556 21.0303 10.7476 20.5082 10.2546 20.1795C9.77747 19.8614 9.29903 20.0589 8.82456 20.7719L7.86104 22.2165L9.31758 23.1867ZM12.8138 21.5989C12.5567 21.4253 12.3035 21.3855 12.057 21.4783C11.8105 21.5684 11.564 21.8004 11.3135 22.1754L10.2334 23.7976L11.7443 24.8049L12.7966 23.2277C13.2989 22.4696 13.3055 21.9263 12.8138 21.5989Z" fill="#3C2C16"/>
<path d="M17.0225 19.3577C16.385 19.5273 15.7581 19.522 15.1432 19.3391C14.5269 19.1576 13.9822 18.8116 13.5077 18.3001C13.0332 17.7885 12.7284 17.2226 12.5945 16.597C12.4607 15.9728 12.5018 15.3512 12.7152 14.7296C12.9285 14.108 13.3062 13.5461 13.851 13.0412C14.3625 12.5667 14.9073 12.2526 15.4838 12.1028C16.0603 11.9531 16.6262 11.9809 17.1815 12.189L16.7548 13.5978C16.3837 13.4971 16.0311 13.4891 15.6958 13.5779C15.3618 13.6654 15.061 13.8324 14.7959 14.0789C14.3426 14.5003 14.1054 14.9973 14.0802 15.5686C14.0551 16.1398 14.2737 16.6699 14.7297 17.1616C15.1869 17.6546 15.6985 17.9104 16.267 17.9316C16.8356 17.9528 17.3485 17.7487 17.8084 17.322C18.0735 17.0755 18.263 16.7879 18.3743 16.4618C18.487 16.1345 18.5068 15.7819 18.4326 15.4042L19.8693 15.0822C20.0296 15.6573 20.0151 16.2286 19.8255 16.7958C19.636 17.3657 19.2888 17.8826 18.7852 18.3517C18.2471 18.8527 17.66 19.188 17.0225 19.3577Z" fill="#3C2C16"/>
<path d="M23.6534 8.021L21.5275 9.29464L24.4433 14.1599L23.0225 15.0121L20.1068 10.1468L17.9703 11.4271L17.248 10.221L22.9324 6.81494L23.6534 8.021Z" fill="#3C2C16"/>
<path d="M32.7993 8.67691C32.9981 9.28126 32.9266 9.82199 32.5807 10.2978C32.2348 10.7762 31.6185 11.1606 30.7305 11.4548L27.3072 12.5853L25.0859 5.86589L28.3714 4.78045C29.1931 4.50875 29.8849 4.44911 30.4456 4.59755C31.0062 4.74599 31.3786 5.09852 31.5615 5.65251C31.6755 5.99577 31.6848 6.32312 31.5867 6.63457C31.4899 6.94603 31.3017 7.227 31.0208 7.47881C31.9352 7.45495 32.5277 7.85653 32.7993 8.67691ZM27.5113 8.17726L29.16 7.63256C29.9724 7.36351 30.2879 6.94868 30.1023 6.38674C29.9207 5.84071 29.4237 5.70154 28.6113 5.97191L26.9626 6.51795L27.5113 8.17726ZM31.2434 9.07981C31.1467 8.78559 30.9731 8.60004 30.7212 8.5192C30.4721 8.43968 30.1328 8.46884 29.7047 8.61065L27.8546 9.22295L28.4231 10.9459L30.2229 10.3508C31.0897 10.0659 31.429 9.64175 31.2434 9.07981Z" fill="#3C2C16"/>
<path d="M40.7467 2.78052L38.0801 10.6755C37.8349 11.4681 37.5049 12.0366 37.0914 12.3865C36.6779 12.7364 36.1584 12.9378 35.5328 12.9895C35.179 13.0187 34.8278 12.9909 34.4739 12.9047C34.1214 12.8199 33.8271 12.6847 33.5899 12.4992L34.1492 11.2295C34.3202 11.366 34.5163 11.4707 34.739 11.5396C34.9616 11.6085 35.1843 11.635 35.4043 11.6165C35.6945 11.5913 35.9291 11.4972 36.1054 11.3329C36.2817 11.1672 36.4354 10.9008 36.5639 10.5363L36.6594 10.2488L32.9922 3.42728L34.7085 3.28414L37.3631 8.31642L39.1589 2.91305L40.7467 2.78052Z" fill="#3C2C16"/>
<path d="M43.0216 2.95417L44.6584 3.2073L43.9466 7.81813L48.5217 3.8037L50.0153 4.03431L48.9365 11.0267L47.2997 10.7749L48.0114 6.16411L43.4483 10.1799L41.9414 9.9466L43.0216 2.95417ZM45.0003 1.91245C44.6782 1.52811 44.5629 1.02051 44.6504 0.389648L45.7385 0.557964C45.6987 0.874718 45.7584 1.13846 45.9174 1.35051C46.0764 1.56256 46.3269 1.6951 46.6675 1.74811C46.9976 1.7998 47.2759 1.74812 47.5025 1.5957C47.7265 1.44197 47.867 1.20871 47.9253 0.897254L49.0386 1.06822C48.9325 1.69642 48.6661 2.14438 48.2394 2.41475C47.8126 2.68379 47.2467 2.76331 46.539 2.65331C45.8353 2.54331 45.3197 2.2968 45.0003 1.91245Z" fill="#3C2C16"/>
<path d="M52.5087 10.5723C52.6307 10.8334 52.6346 11.117 52.5233 11.4245C52.4743 11.557 52.4053 11.6895 52.3152 11.8207C52.2251 11.9519 52.0674 12.1428 51.8461 12.3906L50.5711 13.9134L49.5625 13.5463L50.754 11.8234C50.5989 11.6816 50.4995 11.5106 50.4531 11.3118C50.4094 11.113 50.4266 10.9036 50.5048 10.6889C50.6161 10.3814 50.803 10.1667 51.0641 10.0475C51.3252 9.92552 51.6009 9.91757 51.8911 10.0249C52.1827 10.1283 52.3868 10.3125 52.5087 10.5723Z" fill="#3C2C16"/>
<path d="M63.3885 17.7024L61.6086 20.0959L60.3654 19.1695L61.3064 17.9038L56.9262 14.6435L55.9839 15.9092L54.75 14.9921L56.5312 12.5998L56.7963 12.7973C57.1687 13.0531 57.5875 13.0027 58.0541 12.6515C58.5206 12.299 59.0799 11.7265 59.7346 10.9366L61.256 9.04663L65.9345 12.5283L62.5482 17.0795L63.3885 17.7024ZM59.5291 13.411C59.1461 13.7648 58.7777 13.9636 58.4238 14.0087L61.2202 16.0908L63.7676 12.6661L61.5887 11.0439L60.8757 11.9345C60.3628 12.5654 59.9135 13.0571 59.5291 13.411Z" fill="#3C2C16"/>
<path d="M72.0011 19.9594C72.0991 20.573 72.0289 21.1708 71.789 21.7526C71.5491 22.3331 71.1489 22.8447 70.5856 23.286C70.021 23.7273 69.4273 23.9977 68.8004 24.0944C68.1762 24.1912 67.5771 24.1196 67.0059 23.8758C66.4334 23.6332 65.935 23.2423 65.5096 22.6989C64.9212 21.9487 64.7051 21.1575 64.8628 20.3279L62.1618 22.4457L61.1387 21.1429L68.7315 15.1882L69.7043 16.4287L68.9753 17.0013C69.4087 17.0092 69.8143 17.1192 70.1947 17.3326C70.5737 17.5447 70.9156 17.8415 71.2165 18.2246C71.6406 18.7693 71.903 19.3471 72.0011 19.9594ZM67.9204 22.4868C68.4823 22.5465 69.0244 22.3715 69.5466 21.962C70.0687 21.5538 70.3669 21.0687 70.4438 20.5081C70.522 19.9475 70.3709 19.428 69.9958 18.9482C69.7506 18.6354 69.4578 18.4101 69.1198 18.271C68.7805 18.1331 68.4213 18.0947 68.0436 18.1556C67.6659 18.2166 67.3015 18.3849 66.9556 18.6566C66.607 18.9296 66.3591 19.2424 66.2094 19.5963C66.0609 19.9488 66.0132 20.3067 66.0662 20.6685C66.1192 21.0303 66.269 21.3682 66.5155 21.681C66.888 22.1595 67.3571 22.4285 67.9204 22.4868Z" fill="#3C2C16"/>
<path d="M77.3629 29.5441L69.0306 29.6647C68.2022 29.6978 67.5542 29.5772 67.0863 29.3042C66.6198 29.0299 66.2567 28.6071 65.9996 28.0346C65.8538 27.7112 65.7637 27.3706 65.7266 27.0087C65.6894 26.6469 65.7186 26.3236 65.8127 26.0399L67.1963 26.1433C67.1247 26.3501 67.093 26.5701 67.1022 26.8046C67.1102 27.0379 67.1592 27.2553 67.2493 27.4567C67.3699 27.7231 67.5369 27.9113 67.753 28.0239C67.9677 28.1353 68.2699 28.191 68.6569 28.191L68.959 28.1856L74.1689 22.4523L74.8766 24.0228L71.0186 28.2029L76.7109 28.0955L77.3629 29.5441Z" fill="#3C2C16"/>
<path d="M74.8849 38.8852L74.71 37.7043L71.9029 38.1218L71.6617 36.4956L74.4661 36.0794L74.2898 34.8986L71.231 33.613L70.9434 31.6727L74.9021 33.4275L77.9676 30.8007L78.2261 32.5435L75.6483 34.6693L75.8285 35.8753L78.6595 35.4539L78.902 37.0814L76.0697 37.5002L76.2473 38.693L79.3341 39.9905L79.5925 41.7346L75.8961 40.1111L72.6199 42.9579L72.3297 41.0031L74.8849 38.8852Z" fill="#3C2C16"/>
<path d="M72.4462 44.6716C72.8345 44.1468 73.3235 43.7651 73.9159 43.5239C74.5084 43.2827 75.1512 43.2124 75.8417 43.3118C76.5322 43.4112 77.1259 43.6591 77.6229 44.0567C78.1199 44.4543 78.4791 44.9579 78.7044 45.5715C78.9297 46.1838 78.9893 46.8438 78.8886 47.5516C78.7852 48.2699 78.5387 48.8915 78.1531 49.415C77.7647 49.9398 77.277 50.3242 76.6899 50.564C76.1014 50.8053 75.4613 50.8755 74.7708 50.7761C74.0803 50.678 73.4839 50.4289 72.9829 50.0313C72.482 49.635 72.1201 49.1287 71.8962 48.5164C71.6709 47.9041 71.6099 47.2388 71.7119 46.5218C71.8153 45.8127 72.0592 45.1978 72.4462 44.6716ZM73.5064 48.3057C73.8523 48.7563 74.3533 49.0293 75.0094 49.1221C75.6641 49.2162 76.222 49.0956 76.6806 48.7603C77.1405 48.425 77.4135 47.9558 77.4983 47.3514C77.5858 46.7497 77.4559 46.2223 77.1087 45.7769C76.7628 45.3303 76.2605 45.0599 75.6044 44.9658C74.9497 44.8731 74.3931 44.991 73.9332 45.3224C73.4746 45.6537 73.2029 46.1229 73.1168 46.7272C73.0306 47.3249 73.1592 47.8524 73.5064 48.3057Z" fill="#3C2C16"/>
<path d="M72.4077 55.127L72.8914 53.9368L70.2646 52.8686L70.8889 51.3339L77.444 54.0004L76.8197 55.5338L74.1691 54.4563L73.6694 55.6849L75.5315 58.7027L74.8635 60.3474L72.6768 56.6829L68.2422 57.8399L68.9764 56.0361L72.4077 55.127Z" fill="#3C2C16"/>
</svg>
