<svg width="24" height="30" viewBox="0 0 24 30" fill="none" xmlns="http://www.w3.org/2000/svg">
<path d="M12 2.8656V0.999878" stroke="" stroke-width="1.5" stroke-miterlimit="10" stroke-linecap="round" stroke-linejoin="round"/>
<path d="M5.54192 5.54107L4.22266 4.2218" stroke="" stroke-width="1.5" stroke-miterlimit="10" stroke-linecap="round" stroke-linejoin="round"/>
<path d="M2.86572 12H1" stroke="" stroke-width="1.5" stroke-miterlimit="10" stroke-linecap="round" stroke-linejoin="round"/>
<path d="M5.54192 18.4587L4.22266 19.778" stroke="" stroke-width="1.5" stroke-miterlimit="10" stroke-linecap="round" stroke-linejoin="round"/>
<path d="M18.459 18.4587L19.7782 19.778" stroke="" stroke-width="1.5" stroke-miterlimit="10" stroke-linecap="round" stroke-linejoin="round"/>
<path d="M21.1348 12H23.0005" stroke="" stroke-width="1.5" stroke-miterlimit="10" stroke-linecap="round" stroke-linejoin="round"/>
<path d="M18.459 5.54107L19.7782 4.2218" stroke="" stroke-width="1.5" stroke-miterlimit="10" stroke-linecap="round" stroke-linejoin="round"/>
<path d="M14.29 22.9114C14.29 20.6329 15.2409 18.483 16.8557 16.8754C18.3001 15.4374 19.1084 13.3596 18.8226 11.1023C18.4303 8.00249 15.8943 5.50601 12.7889 5.1607C8.63616 4.69898 5.12305 7.9421 5.12305 12.0014C5.12305 13.8749 5.87128 15.571 7.08382 16.8104C8.69739 18.4598 9.70651 20.604 9.70651 22.9114H14.29V22.9114Z" stroke="" stroke-width="1.5" stroke-miterlimit="10" stroke-linecap="round" stroke-linejoin="round"/>
<path d="M9.78516 26.2888L14.2909 25.2523" stroke="" stroke-width="1.5" stroke-miterlimit="10" stroke-linecap="round" stroke-linejoin="round"/>
<path d="M9.78516 28.4136L14.2909 27.3771" stroke="" stroke-width="1.5" stroke-miterlimit="10" stroke-linecap="round" stroke-linejoin="round"/>
</svg>
