<svg width="120" height="128" viewBox="0 0 120 128" fill="none" xmlns="http://www.w3.org/2000/svg">
<path d="M80.7461 88.8009C79.1623 94.714 87.6278 96.9303 88.8882 90.8898C91.87 77.4026 93.8817 63.5331 93.9092 49.7219C93.9313 38.0567 92.102 23.9806 82.8 15.831C72.6065 6.86303 63.7506 20.0892 61.0197 28.9123C58.4801 37.2504 58.1205 45.9809 58.4224 54.6919C51.8002 46.8516 44.8252 39.4325 36.3409 33.4731C27.9203 27.352 13.9435 23.2434 8.11555 35.4218C2.2239 47.7619 12.3825 59.4245 20.5234 67.6767C29.3941 76.6835 39.4213 84.652 50.4238 90.8569C62.7685 97.6843 75.927 102.684 89.5611 106.004C91.6775 106.558 92.1926 103.119 89.9636 102.614C63.9056 95.9845 39.383 80.2475 21.5343 60.1369C17.0721 55.1092 11.5373 48.538 12.9205 41.2383C14.5539 32.3562 23.1422 33.3135 29.388 36.8962C41.767 44.1107 51.0241 56.165 60.0169 66.9944C62.2896 69.7581 66.3124 67.6082 66.1024 64.3501C65.5215 54.6886 65.1022 45.0907 66.8289 35.4982C67.6137 31.138 68.8788 26.0332 71.7163 22.3888C76.2691 16.5253 80.5059 21.6509 82.9986 26.4625C87.7733 35.9094 87.281 47.1092 86.4606 57.2457C85.3853 68.0288 83.5507 78.606 80.7461 88.8009Z" fill="#3C2C16"/>
</svg>
