<svg width="19" height="19" viewBox="0 0 19 19" fill="none" xmlns="http://www.w3.org/2000/svg">
<path fill-rule="evenodd" clip-rule="evenodd" d="M5.37213 8.20446C5.14902 7.088 6.41335 6.49255 7.23144 5.97153C7.67767 5.67381 7.75205 5.22722 7.6033 4.78064C7.15707 3.51531 6.33897 2.39885 5.81837 1.13352C5.74399 0.910227 5.52088 0.761365 5.29776 0.686934C3.14096 0.463641 1.57914 2.10112 1.13291 4.11076C-0.205793 10.0652 8.86763 19.1458 14.8918 17.8805C16.8998 17.4339 18.536 15.8709 18.3129 13.7124C18.2385 13.4891 18.0898 13.2658 17.8667 13.1913C16.6024 12.6703 15.4868 11.8516 14.2224 11.405C13.7762 11.2561 13.33 11.3306 13.0325 11.7772C12.5119 12.5959 11.9169 13.8612 10.8013 13.6379C8.86763 13.2658 5.66962 10.0652 5.37213 8.20446Z" stroke="#F19000" stroke-width="1.2"/>
</svg>
