<svg width="14" height="19" viewBox="0 0 14 19" fill="none" xmlns="http://www.w3.org/2000/svg">
<path d="M11.8536 2.85869C9.37539 0.380438 5.34146 0.380438 2.86321 2.85869C1.83212 3.88978 1.1809 5.25734 1.03256 6.71173C0.884231 8.1625 1.24602 9.63497 2.04919 10.8542C2.05281 10.8614 2.05642 10.8651 2.06004 10.8723L7.00568 17.6558C7.08889 17.768 7.21914 17.8331 7.35662 17.8331C7.4941 17.8331 7.62434 17.768 7.70755 17.6558L12.6532 10.8723C12.6568 10.8651 12.6604 10.8614 12.664 10.8542C13.4672 9.63497 13.829 8.16611 13.6807 6.71173C13.536 5.26096 12.8847 3.88978 11.8536 2.85869ZM11.9477 10.3694L7.35662 16.6609L2.76553 10.3694C2.07451 9.32022 1.76699 8.05034 1.89362 6.80217C2.02024 5.54677 2.58102 4.36734 3.47463 3.47734C5.61642 1.33556 9.09682 1.33556 11.2386 3.47734C12.1286 4.36734 12.6894 5.55039 12.8196 6.80217C12.9462 8.05034 12.6351 9.3166 11.9477 10.3694Z" fill="" stroke="" stroke-width="0.5"/>
<path d="M7.3559 4.26611C5.89789 4.26611 4.71484 5.45278 4.71484 6.90717C4.71484 8.36155 5.90151 9.54822 7.3559 9.54822C8.81028 9.54822 9.99695 8.36155 9.99695 6.90717C9.99695 5.45278 8.8139 4.26611 7.3559 4.26611ZM7.3559 8.67993C6.37907 8.67993 5.58313 7.88399 5.58313 6.90717C5.58313 5.93034 6.37907 5.1344 7.3559 5.1344C8.33272 5.1344 9.12866 5.93034 9.12866 6.90717C9.12866 7.88399 8.33272 8.67993 7.3559 8.67993Z" fill="" stroke="" stroke-width="0.5"/>
</svg>
