<svg width="48" height="47" viewBox="0 0 48 47" fill="none" xmlns="http://www.w3.org/2000/svg">
<path d="M47.5198 22.1788L47.51 22.1527C47.1024 21.1321 45.8854 20.9301 44.9969 20.7818C44.7801 20.7457 44.5781 20.7125 44.4255 20.6751C43.3011 20.3297 42.243 20.1892 41.1228 20.0416C40.8353 20.0034 40.5422 19.9653 40.2547 19.9243C39.559 19.7936 38.8909 19.6114 38.1845 19.4186C37.2176 19.1544 36.2182 18.8818 35.129 18.7539C33.7298 18.6537 32.8194 18.3634 31.5537 17.8365C31.3905 17.7545 31.1857 17.6684 30.9442 17.5794C30.9456 17.4536 30.923 17.3272 30.8488 17.222C30.7584 17.0313 30.6722 16.7713 30.6546 16.7268C30.1383 15.6582 29.6707 14.4794 29.1551 12.9537C29.0371 12.2912 28.8754 11.4196 28.667 10.5445C28.494 9.85303 28.287 9.18062 28.0864 8.53011C27.6626 7.15704 27.2636 5.85955 27.1915 4.45046C27.0856 3.38323 26.654 1.81169 25.9696 0.899133C25.81 0.660401 25.6023 0.437206 25.3848 0.270516L25.394 0.242265C25.3664 0.230257 25.3403 0.220369 25.2972 0.205537C25.1679 0.116541 25.0535 0.0565042 24.9398 0.0183634L24.2985 0L24.2921 0.0565048C23.2991 0.17799 22.7354 1.12939 22.2325 2.00522C21.8278 2.36685 21.5538 2.93119 21.327 3.44468C21.101 3.81831 20.887 4.19972 20.6702 4.58537C20.4463 4.98514 20.2188 5.38985 19.9843 5.77691C19.6891 6.19646 19.4398 6.59552 19.2364 6.96987C19.057 7.2418 18.874 7.50808 18.6925 7.77224C18.013 8.75966 17.311 9.78098 16.861 11.058C16.5001 12.258 16.0799 13.4835 15.69 14.4688C15.5897 14.8671 15.4957 15.2443 15.1878 15.6631C15.1398 15.7599 15.0169 15.9414 14.9081 16.0926C14.6581 16.0721 14.4108 16.0544 14.182 16.0452C13.8627 16.0106 13.5435 15.964 13.225 15.9174C12.9029 15.8708 12.5808 15.8242 12.2411 15.7867C11.3709 15.7324 10.5841 15.7599 9.82195 15.7867C9.06761 15.8129 8.35424 15.8383 7.55752 15.786C7.1083 15.786 6.63296 15.7112 6.13007 15.6314C5.62223 15.5508 5.11439 15.4519 4.62633 15.4696L4.46812 15.4534C3.32319 15.3354 0.936566 15.0875 0.330552 16.7876C0.303712 16.8865 0.292411 16.9769 0.286761 17.0602C0.139142 17.2601 0.0430849 17.5094 0 17.8343C0 18.3245 0.303713 18.773 0.524788 19.1007L0.77129 19.5203C1.13363 20.168 1.5447 20.9018 2.10975 21.4662C3.28081 22.7107 4.61009 23.5837 6.01706 24.5083C6.66545 24.9349 7.33574 25.3749 7.99472 25.8601C8.22004 26.0148 8.45383 26.166 8.68832 26.3171C10.2577 27.3314 11.6132 28.2072 10.9068 30.0676C10.5756 30.9392 10.2931 31.8631 10.0183 32.7558C9.67574 33.8732 9.32118 35.028 8.87337 36.0797C7.83651 38.5158 6.66192 41.2768 6.92678 44.1606C6.99459 44.8973 7.27146 45.379 7.74963 45.5902C8.91858 46.1093 10.8581 44.6487 11.789 43.9466L11.9395 43.8287C12.335 43.4331 12.9481 42.9034 13.1494 42.7664L13.2793 42.6957C13.4969 42.5326 13.742 42.3419 13.9864 42.1519C14.2187 41.9711 14.4504 41.791 14.6948 41.6031C15.3128 40.9858 16.671 39.8352 16.6696 39.8352C17.0828 39.5258 17.5349 39.2334 17.9714 38.9509C18.4206 38.6606 18.8846 38.3604 19.3183 38.0348C19.5387 37.8695 19.735 37.729 19.9307 37.5884L20.038 37.5107C20.4456 37.8794 20.8517 38.2488 21.2536 38.6239C21.7219 39.2934 22.5094 39.862 22.9523 40.1785L23.2927 40.4935C23.547 40.7301 23.8027 40.9674 24.0859 41.2139C24.4701 41.5021 25.0359 41.8771 25.5762 42.0509C25.8587 42.2268 26.1448 42.3998 26.4379 42.5778L27.1944 43.039C27.5164 43.2234 28.1345 43.6542 28.7885 44.1098C29.6177 44.6875 30.4759 45.2858 31.0261 45.5909C31.2013 45.6785 31.4146 45.8141 31.6519 45.9645C32.3723 46.4208 33.2856 47 34.16 47C34.4785 47 34.7921 46.923 35.0881 46.7344C36.0649 46.0832 36.0246 44.7674 35.9957 43.8068C35.9914 43.6521 35.9865 43.5045 35.9858 43.3879C36.1179 41.031 36.0487 39.1543 35.7647 37.4556C35.6574 37.0255 35.5225 36.5946 35.3883 36.1645C35.2618 35.7605 35.1361 35.3565 35.033 34.9525C35.0203 34.4164 34.8098 32.3497 34.3274 31.3969C34.0336 31.0056 33.8372 30.615 33.631 30.2025C35.0626 29.9913 36.363 29.5146 37.6237 29.0534C38.0906 28.8824 38.5568 28.7115 39.0469 28.5476C40.966 27.8011 42.6392 26.9648 44.6098 25.9788L44.9545 25.7775C46.1242 25.1016 48.0807 23.9736 47.5198 22.1788ZM36.298 26.5114C35.6517 26.7699 34.9835 27.0376 34.3994 27.2346C33.7079 27.3723 33.1768 27.4402 32.818 27.4423L32.6351 27.4183C31.8546 27.3144 30.6765 27.1569 30.4208 28.4368C30.0938 29.5803 30.6871 30.6355 31.2097 31.5664C31.4492 31.993 31.6752 32.3963 31.8023 32.777C31.9782 33.3032 32.0524 33.9566 32.1258 34.588C32.1795 35.0619 32.2311 35.509 32.3321 35.9554C32.397 36.1483 32.4698 36.3418 32.5454 36.5374C32.7121 36.9732 32.8844 37.4238 32.9571 37.926C33.0906 38.5956 33.138 39.4601 33.1839 40.2957C33.2079 40.747 33.2319 41.1906 33.2693 41.5967C33.3096 42.0346 33.2319 42.2331 33.1542 42.2713C32.931 42.3765 32.1731 42.0142 31.4993 41.3636C31.2719 41.1433 30.5225 40.3473 30.3692 40.1106L30.3657 40.0231L30.2506 39.9221C29.8296 39.5541 29.4355 39.1861 29.0406 38.8174C28.6409 38.4438 28.2404 38.0708 27.8307 37.7141C27.5694 37.4521 26.7218 36.8758 26.4739 36.8758C26.4725 36.8758 26.4718 36.8758 26.4704 36.8758C26.2076 36.7811 25.1807 35.74 24.6877 35.2399C24.3274 34.8748 24.0428 34.5866 23.8902 34.4623C23.679 34.2907 23.4622 34.0731 23.2327 33.8429C22.6302 33.2383 21.9479 32.5517 21.0742 32.4493C19.8035 32.3017 18.3704 33.691 17.2142 34.8077C16.8858 35.1248 16.5764 35.425 16.3341 35.6221C16.1766 35.7499 15.9139 35.9957 15.589 36.3008C12.953 38.7743 12.133 39.1331 11.9049 38.9989C11.5383 38.7807 11.9896 37.7784 12.2884 37.1152C12.4699 36.7126 12.6267 36.3644 12.6705 36.0953C12.8534 34.9722 13.1261 33.8358 13.3895 32.7382C13.5809 31.9415 13.7787 31.1179 13.9404 30.3057C13.9871 30.0945 14.0655 29.8345 14.1495 29.5548C14.4151 28.667 14.7167 27.6605 14.4504 27.0446C14.1799 26.4224 13.5619 26.1024 13.0166 25.8199C12.7581 25.6857 12.5137 25.5585 12.3442 25.4194L12.2008 25.3C12.073 25.1941 11.9423 25.0853 11.7827 24.9589C11.4698 24.7442 11.1583 24.5393 10.8468 24.3338L10.4131 24.0477C9.92578 23.6932 9.40876 23.3287 8.89315 22.965C8.17483 22.4585 7.45722 21.9521 6.85403 21.5043C6.43731 21.0883 5.8984 20.4816 5.20621 19.6517C5.13487 19.5118 5.04941 19.3586 4.95335 19.1961L5.09956 19.1912C5.77832 19.1657 6.45709 19.141 7.16693 19.1396C7.83863 19.0789 8.50397 19.1262 9.20746 19.1784C9.66303 19.2116 10.1334 19.2455 10.6328 19.2455C10.6427 19.2455 10.6526 19.2455 10.6632 19.2455C11.0658 19.2088 11.4564 19.1481 11.8434 19.088C12.5518 18.9778 13.2186 18.8719 13.9009 18.9249C14.2943 18.9814 14.6263 19.0202 14.9406 19.0061C16.1385 19.1417 17.7835 19.3268 18.6155 18.4015C19.1834 17.8343 19.7619 15.7889 19.8579 15.4258C20.269 14.4285 20.4293 13.3457 20.5833 12.2983C20.7196 11.373 20.8489 10.5 21.1349 9.68916C21.6477 8.25394 22.4564 7.1415 23.3132 5.96408L23.3626 5.86803C23.3746 5.8313 23.3881 5.79245 23.4029 5.75148C24.5231 7.89796 25.2619 10.2245 25.9788 12.4819C26.1483 13.0166 26.3178 13.5506 26.4817 14.0414L26.529 14.2661C26.5544 14.3798 26.5792 14.4928 26.5961 14.5853C26.6109 14.7358 26.6237 14.9187 26.6385 15.1235C26.7289 16.4139 26.88 18.5731 27.9925 19.4829C28.5003 19.9052 29.0993 20.031 29.6283 20.1411C29.8388 20.1849 30.0415 20.2266 30.1941 20.276C30.4045 20.3693 30.615 20.4682 30.8269 20.5678C31.5855 20.9237 32.3702 21.2917 33.2432 21.4662C33.833 21.57 34.4121 21.6519 34.9871 21.7332C36.1829 21.902 37.3122 22.0609 38.5165 22.4148C39.1013 22.561 39.7024 22.621 40.2823 22.6789C41.0034 22.751 41.685 22.8181 42.3468 23.0547C42.8356 23.1528 43.234 23.2503 43.626 23.3485C42.0438 24.3387 40.1905 25.0592 38.2735 25.7655C37.628 25.9795 36.952 26.25 36.298 26.5114Z" fill="white"/>
</svg>
