<svg width="22" height="22" viewBox="0 0 22 22" fill="none" xmlns="http://www.w3.org/2000/svg">
<path d="M11 0.9C5.41144 0.9 0.9 5.41144 0.9 11C0.9 16.5886 5.41144 21.1 11 21.1C16.5886 21.1 21.1 16.5886 21.1 11C21.1 5.41144 16.5886 0.9 11 0.9ZM11 20.2333C5.9219 20.2333 1.76667 16.0781 1.76667 11C1.76667 5.9219 5.9219 1.76667 11 1.76667C16.0781 1.76667 20.2333 5.9219 20.2333 11C20.2333 16.0781 16.0781 20.2333 11 20.2333Z" fill="#F19000" stroke="#F19000" stroke-width="0.2"/>
<path d="M10.9997 4.2335C7.27778 4.2335 4.23301 7.27827 4.23301 11.0002C4.23301 14.7221 7.27778 17.7668 10.9997 17.7668C14.7216 17.7668 17.7663 14.7221 17.7663 11.0002C17.7663 7.27827 14.7216 4.2335 10.9997 4.2335ZM10.9997 16.9002C7.72157 16.9002 5.09967 14.2783 5.09967 11.0002C5.09967 7.72206 7.72157 5.10016 10.9997 5.10016C14.2778 5.10016 16.8997 7.72206 16.8997 11.0002C16.8997 14.2783 14.2778 16.9002 10.9997 16.9002Z" fill="#F19000" stroke="#F19000" stroke-width="0.2"/>
<path d="M11.0003 7.5665C9.07843 7.5665 7.56699 9.07794 7.56699 10.9998C7.56699 12.9217 9.07843 14.4332 11.0003 14.4332C12.9222 14.4332 14.4337 12.9217 14.4337 10.9998C14.4337 9.07794 12.9222 7.5665 11.0003 7.5665ZM11.0003 13.5665C9.58889 13.5665 8.43366 12.4113 8.43366 10.9998C8.43366 9.5884 9.58889 8.43317 11.0003 8.43317C12.4118 8.43317 13.567 9.5884 13.567 10.9998C13.567 12.4113 12.4118 13.5665 11.0003 13.5665Z" fill="#F19000" stroke="#F19000" stroke-width="0.2"/>
<path d="M11.0007 11.7666C11.4241 11.7666 11.7673 11.4233 11.7673 10.9999C11.7673 10.5765 11.4241 10.2333 11.0007 10.2333C10.5772 10.2333 10.234 10.5765 10.234 10.9999C10.234 11.4233 10.5772 11.7666 11.0007 11.7666Z" fill="#F19000" stroke="#F19000" stroke-width="0.2"/>
</svg>
