<svg width="56" height="56" viewBox="0 0 56 56" fill="none" xmlns="http://www.w3.org/2000/svg">
<path fill-rule="evenodd" clip-rule="evenodd" d="M30.5516 40.0143C30.3304 40.1474 30.0656 40.0599 29.8444 40.193C29.5345 40.4148 29.2689 40.5923 28.9153 40.6817L28.8269 40.682C28.65 40.7708 28.473 40.8597 28.2961 40.9486C28.2961 40.9486 28.252 40.9045 28.2077 40.9488C28.1191 41.0374 28.0751 40.9934 28.0308 41.0377C27.9865 41.082 27.8979 41.1706 27.8095 41.1709L27.6771 41.1271C27.5888 41.1274 27.5002 41.216 27.4118 41.2162C27.2794 41.1724 27.1471 41.1287 27.0587 41.1289C26.4403 41.1308 25.7333 41.2212 25.1591 41.1787C25.0268 41.135 24.8941 41.1795 24.8058 41.1798C24.7174 41.18 24.6731 41.2243 24.6291 41.1803L24.541 41.0922L24.4967 41.1365C24.4083 41.1368 24.4086 41.0484 24.3203 41.0487L24.1876 41.0933C24.0993 41.0935 24.0552 41.0495 24.0112 41.0054C23.9671 40.9614 23.9669 41.0498 23.9228 41.0057L23.7464 40.9179L23.6137 40.9625C23.4814 40.9187 23.4373 40.8746 23.3049 40.8309C23.2166 40.8311 23.1282 40.8314 23.0399 40.8316C22.9515 40.8319 22.9072 40.8762 22.8632 40.8322L22.7751 40.7441C22.6868 40.7443 22.6425 40.7886 22.5984 40.7446L22.5103 40.6565L22.466 40.7008C22.422 40.6568 22.2456 40.569 22.1575 40.4809C21.937 40.349 21.5844 40.085 21.3199 39.9091C20.7028 39.4692 20.2618 39.2055 19.6896 38.5446C19.6896 38.5446 19.7339 38.5003 19.6898 38.4563C19.6458 38.4122 19.5577 38.3241 19.5137 38.2801C19.4256 38.192 19.3813 38.2363 19.2932 38.1482C19.2051 38.0601 19.2054 37.9718 19.1173 37.8837C19.0292 37.7956 18.9849 37.8399 18.8968 37.7518C18.7206 37.5757 18.5885 37.4436 18.4123 37.2674C18.1481 37.0031 17.9284 36.6062 17.6642 36.342C17.3561 35.9453 17.0035 35.6814 16.8276 35.4168C16.8276 35.4168 16.8719 35.3725 16.8279 35.3285C16.7838 35.2845 16.7398 35.2404 16.6958 35.1964C16.6517 35.1523 16.652 35.064 16.6079 35.0199C16.5639 34.9759 16.5204 34.7552 16.4766 34.6228C16.4328 34.4904 16.3447 34.4023 16.301 34.2699C16.2569 34.2259 16.3015 34.0932 16.3015 34.0932L16.2134 34.0051C16.2137 33.9168 16.2137 33.9168 16.1696 33.8728C16.1256 33.8287 16.1258 33.7404 16.0818 33.6963C16.0377 33.6523 16.038 33.5639 15.9942 33.4315L15.9061 33.3435C15.9067 33.1668 15.7748 32.9463 15.6429 32.7258C15.6429 32.7258 15.6872 32.6815 15.6432 32.6375C15.5992 32.5934 15.6437 32.4608 15.5997 32.4167C15.5556 32.3727 15.6 32.3284 15.5559 32.2844C15.5562 32.196 15.5564 32.1077 15.5567 32.0193C15.557 31.931 15.4686 31.9312 15.4689 31.8429C15.4248 31.7989 15.5134 31.7102 15.5134 31.7102C15.5137 31.6219 15.4256 31.5338 15.4259 31.4455C15.4261 31.3571 15.4261 31.3571 15.4264 31.2688C15.3831 30.9597 15.385 30.3413 15.4303 29.9436C15.4306 29.8552 15.4309 29.7669 15.4311 29.6785C15.4314 29.5902 15.52 29.5016 15.5203 29.4132C15.5205 29.3249 15.5208 29.2366 15.521 29.1482C15.6115 28.4412 15.7011 27.9992 16.0123 27.3357C16.1012 27.1587 16.19 26.9818 16.3232 26.7605C16.3235 26.6722 16.3681 26.5395 16.4124 26.4952C16.5012 26.3183 16.6344 26.097 16.7233 25.92C16.7676 25.8757 16.8119 25.8314 16.8562 25.7871C16.9005 25.7428 16.8564 25.6988 16.9007 25.6545C17.1225 25.3446 17.5207 25.1226 17.8309 24.8124C18.2736 24.4578 18.5838 24.1476 18.9822 23.8372L19.0709 23.7486C19.1592 23.7484 19.2478 23.6598 19.4248 23.5709C19.5574 23.5263 19.6901 23.4818 19.7344 23.4375C19.867 23.3929 19.9116 23.2602 20.0442 23.2157C20.0442 23.2157 20.0883 23.2597 20.1326 23.2154C20.3095 23.1265 20.3981 23.0379 20.5308 22.9934L20.6194 22.9048C20.7961 22.9042 21.106 22.6825 21.2829 22.5936C21.3272 22.5493 21.4153 22.6374 21.4596 22.5931C21.5923 22.5485 21.6806 22.5482 21.8132 22.5037C21.9459 22.4591 22.0342 22.4588 22.1669 22.4143C22.2995 22.3697 22.3879 22.3694 22.5205 22.3249C22.5648 22.2806 22.5646 22.3689 22.6089 22.3246C22.7418 22.1917 23.139 22.323 23.404 22.3223C23.4923 22.322 23.5366 22.2777 23.5809 22.2334C23.6253 22.1891 23.7133 22.2772 23.7576 22.2329C23.9343 22.2323 24.067 22.1878 24.1994 22.2316C24.2434 22.2756 24.2877 22.2313 24.2877 22.2313C24.3761 22.231 24.5084 22.2748 24.5525 22.3189L24.6849 22.3626C24.7289 22.4067 24.8173 22.4064 24.8613 22.4505C24.9497 22.4502 25.0383 22.3616 25.0823 22.4056C25.1706 22.4054 25.1704 22.4937 25.2587 22.4934C25.3028 22.5375 25.303 22.4491 25.3471 22.4932L25.4795 22.537C25.5678 22.5367 25.6121 22.4924 25.6562 22.5364C25.7445 22.5362 25.7883 22.6686 25.8766 22.6683C25.9207 22.7123 26.0093 22.6237 26.0533 22.6678C26.1417 22.6675 26.1857 22.7116 26.2741 22.7113C26.3181 22.7553 26.4507 22.7108 26.4507 22.7108C26.5391 22.7105 26.5829 22.8429 26.6712 22.8426C26.7153 22.8867 26.8479 22.8421 26.8479 22.8421C26.892 22.8862 26.936 22.9302 26.936 22.9302C26.98 22.9742 27.0684 22.974 27.1124 23.018C27.1565 23.0621 27.2008 23.0178 27.2008 23.0178C27.5093 23.2377 27.8176 23.546 28.1702 23.81C28.6109 24.1621 29.0521 24.3374 29.3599 24.8224C29.3599 24.8224 29.3156 24.8667 29.3596 24.9108L29.4037 24.9548L29.4034 25.0432C29.5793 25.3077 29.7992 25.6162 29.9751 25.8807C30.0192 25.9248 30.0627 26.1455 30.1068 26.1896C30.1508 26.2336 30.1948 26.2776 30.1948 26.2776C30.2389 26.3217 30.1943 26.4543 30.1943 26.4543C30.194 26.5427 30.2824 26.5424 30.2821 26.6308C30.3262 26.6748 30.2376 26.7634 30.2816 26.8075C30.2813 26.8958 30.3697 26.8955 30.3694 26.9839C30.3692 27.0722 30.3686 27.2489 30.3684 27.3373C30.3681 27.4256 30.4122 27.4697 30.4562 27.5137C30.5002 27.5577 30.4119 27.558 30.4559 27.602L30.5 27.6461C30.4997 27.7344 30.4992 27.9111 30.4989 27.9995C30.4987 28.0878 30.4544 28.1321 30.4984 28.1762C30.4982 28.2645 30.5865 28.2643 30.5862 28.3526C30.586 28.4409 30.5854 28.6176 30.5852 28.706C30.5844 28.971 30.6284 29.0151 30.5393 29.2804C30.495 29.3247 30.5834 29.3244 30.5391 29.3687C30.4504 29.4573 30.5385 29.5454 30.4499 29.634C30.3613 29.7226 30.4051 29.855 30.4048 29.9433C30.3597 30.2527 30.1372 30.8276 30.0037 31.1372C29.7374 31.5797 29.3827 32.0225 28.9842 32.3329C28.7187 32.5104 28.365 32.5997 27.9671 32.7334C27.8344 32.778 27.7018 32.8226 27.5691 32.8671C27.4808 32.8674 27.4365 32.9117 27.3481 32.912C27.2598 32.9122 27.2155 32.9565 27.1271 32.9568L26.9502 33.0457C26.7735 33.0462 26.5525 33.091 26.2872 33.1802L26.1548 33.1364L26.0662 33.225C25.8895 33.2255 25.7571 33.1817 25.5804 33.1823C25.4921 33.1825 25.3594 33.2271 25.227 33.1833L25.0506 33.0955L25.0063 33.1398L24.9182 33.0517C24.9182 33.0517 24.6532 33.0525 24.5651 32.9644C24.521 32.9204 24.3446 32.8325 24.2122 32.7888C23.8153 32.5691 23.5068 32.3491 23.2868 32.0406C23.1547 31.9084 23.0669 31.732 22.9791 31.5556C22.935 31.5115 23.0234 31.5113 22.9793 31.4672C22.8912 31.3792 22.9801 31.2022 22.9804 31.1139C22.9806 31.0255 22.8925 30.9374 22.9369 30.8931C22.9371 30.8048 23.0257 30.7162 23.07 30.6719C23.07 30.6719 23.026 30.6278 23.0703 30.5835C23.0703 30.5835 23.4245 30.3174 23.3804 30.2734C23.3812 30.0084 23.9115 29.9184 24.1325 29.8736C24.3976 29.8728 24.6623 29.9604 24.9717 29.9153C25.2367 29.9145 25.502 29.8254 25.7673 29.7362C25.8116 29.6919 25.8114 29.7803 25.8557 29.736L25.9883 29.6914C26.0767 29.6911 26.165 29.6909 26.2536 29.6023C26.5635 29.3805 26.9177 29.1144 27.0073 28.6724L27.0962 28.4955L27.0521 28.4514L27.1407 28.3628L27.0967 28.3188L27.1853 28.2302C27.1858 28.0535 27.2304 27.9208 27.1869 27.7001C27.1428 27.656 27.1871 27.6117 27.1431 27.5677C27.0993 27.4353 27.1444 27.126 26.9682 26.9498C26.8364 26.7293 26.6159 26.5975 26.3954 26.4656C26.3514 26.4216 26.3514 26.4216 26.3074 26.3775C25.8664 26.1138 25.3814 25.806 24.8073 25.7636C24.719 25.7638 24.5863 25.8084 24.498 25.8086C24.4096 25.8089 24.3213 25.8092 24.2329 25.8094C24.0119 25.8543 23.7909 25.8991 23.614 25.988C23.5256 25.9882 23.3933 25.9444 23.3489 25.9887L23.2603 26.0774L23.2163 26.0333L23.1277 26.1219C22.907 26.0784 22.4642 26.4331 22.066 26.6551C21.7121 26.8329 21.3582 27.0106 21.0926 27.1881C20.827 27.3656 20.6055 27.5871 20.384 27.8086C20.1625 28.0301 19.8969 28.2076 19.7637 28.4289C19.6306 28.6501 19.4966 29.1364 19.4512 29.5341C19.451 29.6225 19.495 29.6665 19.4507 29.7108L19.3621 29.7994L19.4059 29.9318C19.0976 29.6235 19.0533 29.6678 19.009 29.7121L19.0528 29.8445C19.0525 29.9328 18.9639 30.0215 18.9636 30.1098C18.9629 30.3748 19.0061 30.6839 18.961 30.9933C18.9165 31.1259 18.9602 31.2583 18.96 31.3466C19.0035 31.5674 19.1789 32.0086 19.3105 32.3174C19.3983 32.4938 19.4861 32.6703 19.5739 32.8467C19.5739 32.8467 19.5296 32.891 19.5737 32.935C19.6618 33.0231 19.7058 33.0672 19.7496 33.1995C19.925 33.6407 20.6294 34.4338 21.1579 34.9623C21.8626 35.6669 22.5667 36.5483 23.2729 36.7229C23.317 36.7669 23.3172 36.6786 23.3613 36.7226C23.4494 36.8107 23.6261 36.8102 23.7144 36.8099C24.1118 36.8529 24.686 36.8954 25.172 36.8498C25.393 36.805 25.6575 36.9809 25.9225 36.9801C26.0109 36.9798 26.0554 36.8472 26.1438 36.8469C26.1881 36.8026 26.3205 36.8464 26.3205 36.8464C26.4088 36.8461 26.4091 36.7578 26.4974 36.7575C26.5417 36.7132 26.6741 36.757 26.6741 36.757C26.7625 36.7567 26.7627 36.6684 26.8511 36.6681C26.8954 36.6238 27.0278 36.6676 27.0278 36.6676C27.1161 36.6673 27.1164 36.579 27.2047 36.5787C27.249 36.5344 27.3814 36.5782 27.3814 36.5782C27.4257 36.5339 27.6029 36.3567 27.647 36.4007L27.691 36.4448C27.868 36.3559 28.0892 36.2227 28.3105 36.0895L28.3991 36.0009L28.4431 36.045L28.5317 35.9564C28.6201 35.9561 28.6201 35.9561 28.6644 35.9118L28.8414 35.8229L28.8854 35.867C29.018 35.8224 29.1067 35.7338 29.151 35.6895C29.1953 35.6452 29.3276 35.689 29.3276 35.689C29.372 35.6447 29.4163 35.6004 29.4606 35.5561C29.4606 35.5561 29.5046 35.6001 29.5489 35.5558L29.6818 35.4229C29.7259 35.4669 29.8145 35.3783 29.9914 35.2895C30.257 35.112 30.6557 34.7132 31.0099 34.4472C31.0985 34.3585 31.2752 34.358 31.3638 34.2694C31.6294 34.0919 31.8066 33.9147 32.0727 33.5605C32.2056 33.4276 32.2501 33.295 32.3387 33.2064C32.3387 33.2064 32.2947 33.1623 32.339 33.118C32.5162 32.9408 32.6497 32.6312 32.7828 32.41C32.9606 32.056 33.0943 31.6581 33.1396 31.2604C33.1399 31.1721 33.0958 31.128 33.1401 31.0837L33.2287 30.9951L33.1847 30.9511C33.2293 30.8184 33.3622 30.6855 33.3624 30.5972C33.4068 30.5529 33.363 30.4205 33.363 30.4205C33.3632 30.3321 33.4075 30.2878 33.4518 30.2435C33.541 29.9782 33.6741 29.757 33.719 29.536C33.8084 29.1823 33.8537 28.7846 33.855 28.3429C33.8553 28.2546 33.8115 28.1222 33.8118 28.0338C33.812 27.9455 33.9006 27.8569 33.9009 27.7685L33.9895 27.6799L33.9455 27.6359L34.0341 27.5473C33.99 27.5032 34.0789 27.3263 34.0792 27.2379L33.9911 27.1498L34.0357 27.0172L33.9476 26.9291L33.9921 26.7965L33.9041 26.7084L33.9486 26.5757C33.9489 26.4874 33.8605 26.4876 33.8608 26.3993L33.9054 26.2666C33.8613 26.2226 33.8173 26.1786 33.8173 26.1786C33.7732 26.1345 33.8178 26.0019 33.8178 26.0019C33.7738 25.9578 33.8181 25.9135 33.774 25.8695C33.7743 25.7811 33.7302 25.7371 33.6862 25.693C33.6422 25.649 33.6865 25.6047 33.6865 25.6047C33.5113 25.0752 33.0271 24.5023 32.808 23.9288C32.7202 23.7523 32.6766 23.5316 32.5445 23.3995C32.4127 23.179 32.1481 23.0031 31.9722 22.7386C31.9282 22.6945 31.9285 22.6062 31.8844 22.5621C31.3124 21.8129 30.2111 20.8002 29.3297 20.0961C29.0212 19.8761 28.801 19.6559 28.4924 19.436C28.4484 19.3919 28.4043 19.3479 28.3603 19.3038C28.2279 19.26 27.9193 19.0401 27.6991 18.8199C27.523 18.6437 27.3468 18.4676 27.1704 18.3797C26.8175 18.2041 26.4644 18.1168 26.0669 18.0738C25.7138 17.9865 25.3164 17.9435 25.0084 17.5469C24.6552 17.4596 24.876 17.5031 24.7436 17.4593C24.6552 17.4596 24.5669 17.4598 24.4786 17.4601L24.3905 17.372C24.2138 17.3725 23.8604 17.3736 23.5954 17.3744L23.5068 17.463C23.3744 17.4192 23.2417 17.4638 23.065 17.4643C22.8883 17.4648 22.6673 17.5096 22.5347 17.5542C22.4463 17.5545 22.358 17.5547 22.2696 17.555C22.1813 17.5552 22.0927 17.6439 22.0043 17.6441C21.916 17.6444 21.8277 17.6446 21.7393 17.6449C21.651 17.6452 21.5624 17.7338 21.474 17.734C21.3857 17.7343 21.2533 17.6905 21.209 17.7348L21.1204 17.8234L21.0763 17.7794L20.9877 17.868L20.9437 17.824C20.811 17.8685 20.59 17.9134 20.4574 17.9579C20.4131 18.0022 20.4133 17.9139 20.369 17.9582C20.2804 18.0468 20.148 18.003 20.0597 18.0033L19.9711 18.0919L19.927 18.0478L19.8384 18.1364C19.6617 18.137 19.5734 18.1372 19.3964 18.2261C18.9985 18.3598 18.6448 18.4492 18.2469 18.5829C18.0699 18.6718 17.8487 18.8049 17.6717 18.8938C17.6717 18.8938 17.6277 18.8498 17.5834 18.8941C17.5391 18.9384 17.3621 19.0272 17.2738 19.0275L17.1852 19.1161C16.9201 19.1169 16.4328 19.6042 16.0789 19.782C16.0789 19.782 16.0348 19.7379 15.9905 19.7822C15.9019 19.8708 15.7693 19.9154 15.6366 19.96L15.4597 20.0488C15.3713 20.0491 15.3713 20.0491 15.327 20.0934C15.1944 20.138 14.9291 20.2271 14.7078 20.3603C14.4423 20.5378 14.2207 20.7593 13.9552 20.9368C13.6896 21.1142 13.3352 21.4687 13.1134 21.7785C13.0245 21.9555 12.8921 21.9117 12.6706 22.1332C12.6263 22.1775 12.6261 22.2659 12.4932 22.3988C12.2716 22.6203 11.9615 22.9304 11.784 23.196C11.6952 23.373 11.5617 23.6826 11.4285 23.9038C11.384 24.0365 11.2954 24.1251 11.2951 24.2134C11.2505 24.3461 11.1619 24.4347 11.1617 24.523C11.1174 24.5673 11.1611 24.6997 11.1611 24.6997C11.1609 24.7881 11.1166 24.8324 11.0723 24.8767C10.9831 25.142 10.7611 25.5402 10.6277 25.8498C10.5834 25.8941 10.5388 26.0267 10.5388 26.0267L10.5826 26.1591L10.494 26.2477L10.538 26.2918L10.4494 26.3804L10.4934 26.4244C10.4491 26.4687 10.4048 26.513 10.4046 26.6014L10.4484 26.7338L10.3597 26.8224L10.4038 26.8664L10.3152 26.955C10.359 27.0874 10.2696 27.4411 10.1807 27.618C10.1804 27.7064 10.0921 27.7066 10.0918 27.795C10.0475 27.8393 10.1356 27.9274 10.1356 27.9274C10.0908 28.1483 10.0462 28.281 10.0457 28.4577C10.0454 28.546 10.0452 28.6344 10.0449 28.7227C10.0444 28.8994 10.0436 29.1645 10.0433 29.2528C10.0869 29.4735 10.1744 29.7383 10.262 30.0031C10.306 30.0471 10.2174 30.1357 10.2614 30.1798C10.305 30.4005 10.4363 30.7977 10.5239 31.0625C10.5236 31.1508 10.4793 31.1951 10.5233 31.2391L10.6114 31.3272C10.6112 31.4156 10.5226 31.5042 10.5666 31.5482C10.5663 31.6366 10.6547 31.6363 10.6544 31.7247C10.6985 31.7687 10.6539 31.9013 10.6539 31.9013L10.742 31.9894C10.6974 32.1221 10.9174 32.4306 11.0492 32.6511C11.093 32.7835 11.2694 32.8713 11.2692 32.9597C11.2692 32.9597 11.2249 33.004 11.2689 33.048C11.401 33.1801 11.4005 33.3568 11.5324 33.5773C11.6642 33.7978 11.7518 34.0625 11.8837 34.283L11.9717 34.3711L11.9274 34.4154C12.1031 34.7683 12.3668 35.2092 12.6308 35.5618C12.7627 35.7823 12.9388 35.9584 13.0707 36.1789C13.0707 36.1789 13.0264 36.2232 13.0704 36.2673C13.1585 36.3553 13.2463 36.5318 13.3782 36.7522C13.5101 36.9727 13.6862 37.1489 13.8181 37.3694C14.0821 37.722 14.3901 38.1186 14.7862 38.6033C14.7862 38.6033 14.7419 38.6476 14.786 38.6917C14.83 38.7357 14.9181 38.8238 14.9621 38.8678C15.2702 39.2645 15.666 39.8375 16.0621 40.3223C16.6342 41.0715 17.2067 41.644 17.9124 41.9953L18.0005 42.0834C18.0889 42.0832 18.1772 42.0829 18.2212 42.1269L18.3093 42.215L18.3536 42.1707C18.5301 42.2585 18.6181 42.3466 18.8386 42.4785C18.8386 42.4785 18.8829 42.4342 18.927 42.4782C19.015 42.5663 19.1474 42.6101 19.2798 42.6539C19.4563 42.7417 19.6767 42.8735 19.8972 43.0054C20.5589 43.3127 21.1762 43.6642 21.8382 43.8831C21.9706 43.9269 22.1473 43.9264 22.2353 44.0144C22.3234 44.1025 22.412 44.0139 22.5001 44.102L22.6325 44.1458C22.7209 44.1455 22.7652 44.1012 22.8092 44.1453L22.8973 44.2333C22.9856 44.2331 23.074 44.2328 23.2064 44.2766C23.2504 44.3206 23.2507 44.2323 23.2947 44.2763L23.4271 44.3201C23.4711 44.3642 23.5597 44.2756 23.6038 44.3196C23.7362 44.3634 23.8686 44.4072 23.9569 44.4069C24.0893 44.4507 24.2219 44.4061 24.3543 44.4499C24.4427 44.4496 24.6194 44.4491 24.7077 44.4488C24.9728 44.4481 25.2816 44.5797 25.5023 44.6232C25.5907 44.6229 25.7233 44.5783 25.8117 44.5781C25.9883 44.5776 26.2091 44.6211 26.4301 44.5762C26.6951 44.5755 27.0045 44.5304 27.3578 44.5293C27.4462 44.5291 27.5788 44.4845 27.6672 44.4842C27.7555 44.484 27.8439 44.4837 27.9322 44.4834C28.0206 44.4832 28.0208 44.3948 28.1092 44.3946C28.1535 44.3503 28.2416 44.4384 28.2416 44.4384C28.3299 44.4381 28.3302 44.3498 28.4185 44.3495L28.5509 44.3933C28.6392 44.393 28.6395 44.3047 28.7279 44.3044C28.8162 44.3041 28.9926 44.392 29.1253 44.3474C29.2136 44.3471 29.2139 44.2588 29.3022 44.2585L29.4346 44.3023C29.523 44.302 29.6116 44.2134 29.6999 44.2132C29.7883 44.2129 29.8763 44.301 29.965 44.2124C30.0093 44.1681 30.0973 44.2562 30.1416 44.2119L30.2303 44.1233L30.2743 44.1673C30.3626 44.167 30.4072 44.0344 30.4956 44.0341C30.5399 43.9898 30.6722 44.0336 30.6722 44.0336C30.8049 43.989 30.9378 43.8561 31.0262 43.8559C31.0262 43.8559 31.0702 43.8999 31.1145 43.8556C31.1588 43.8113 31.3358 43.7224 31.4241 43.7222C31.5568 43.6776 31.6454 43.589 31.778 43.5444C32.0433 43.4553 32.2646 43.3221 32.5742 43.1887C32.7068 43.1441 32.8397 43.0112 32.9281 43.0109C32.9724 42.9666 33.1048 43.0104 33.1048 43.0104C33.3701 42.9213 33.7245 42.5669 34.0344 42.3451C34.0344 42.3451 34.0784 42.3891 34.1227 42.3448C34.2556 42.2119 34.344 42.2116 34.5655 41.9901C34.6541 41.9015 34.7427 41.8129 34.787 41.7686C34.787 41.7686 34.8311 41.8126 34.8754 41.7683C35.2741 41.3696 35.8055 40.9263 36.2483 40.5716C36.3812 40.4387 36.6024 40.3055 36.7796 40.1283C36.9126 39.9954 37.0457 39.7741 37.1786 39.6412C37.3115 39.5083 37.4442 39.4637 37.6655 39.3306C38.2409 38.9313 38.7728 38.3113 39.3933 37.6027C39.4819 37.5141 39.6148 37.3812 39.7034 37.2926C39.792 37.204 39.748 37.1599 39.7923 37.1156C39.7923 37.1156 39.8364 37.1597 39.8807 37.1154L39.925 37.0711C40.0136 36.9825 40.1903 36.9819 40.2346 36.9376C40.633 36.6272 40.6338 36.3622 40.8559 35.964C40.989 35.7427 41.1665 35.4772 41.2997 35.2559C41.2997 35.2559 41.2556 35.2119 41.3 35.1676C41.3445 35.0349 41.3891 34.9023 41.4777 34.8137C41.5223 34.681 41.5225 34.5927 41.6111 34.5041C41.7443 34.2828 42.0104 33.9286 42.1436 33.7074C42.1436 33.7074 42.0995 33.6633 42.1438 33.619C42.1881 33.5747 42.2324 33.5304 42.2327 33.4421C42.3221 33.0884 42.5444 32.6019 42.6781 32.2039C42.6781 32.2039 42.634 32.1599 42.6784 32.1156C42.7672 31.9386 42.8561 31.7617 42.9893 31.5404C43.0338 31.4078 43.0787 31.1868 43.123 31.1425C43.1673 31.0982 43.1235 30.9658 43.1678 30.9215C43.2121 30.8772 43.1683 30.7448 43.2126 30.7005C43.2569 30.6562 43.2574 30.4795 43.2577 30.3911L43.2139 30.2587C43.2142 30.1704 43.3028 30.0818 43.3031 29.9934C43.3033 29.9051 43.2152 29.817 43.2595 29.7727C43.2598 29.6844 43.3482 29.6841 43.3484 29.5958C43.3489 29.4191 43.3054 29.1983 43.3502 28.9773C43.3505 28.889 43.351 28.7123 43.3956 28.5796C43.4402 28.447 43.441 28.182 43.4415 28.0053C43.442 27.8286 43.3987 27.5195 43.3552 27.2988C43.3555 27.2104 43.3998 27.1661 43.3558 27.1221L43.2677 27.034L43.3122 26.9013C43.3125 26.813 43.2241 26.8132 43.2244 26.7249L43.269 26.5923C43.2692 26.5039 43.1812 26.4158 43.1814 26.3275C43.1376 26.1951 43.2265 26.0181 43.2268 25.9298L43.1387 25.8417C43.1838 25.5324 43.1853 25.0023 43.098 24.6492C43.0545 24.4284 42.9224 24.2963 42.7905 24.0758C42.7027 23.8994 42.6592 23.6787 42.5714 23.5022C42.5273 23.4582 42.6157 23.4579 42.5716 23.4139C42.5276 23.3699 42.6162 23.2812 42.5722 23.2372C42.5724 23.1489 42.44 23.1051 42.3963 22.9727C42.3084 22.7963 42.2206 22.6198 42.0888 22.3994C41.9131 22.0465 41.8261 21.605 41.7388 21.2519C41.5201 20.5016 41.1245 19.8402 40.7735 19.0461C40.5101 18.5169 40.3352 17.899 39.9834 17.3699C39.8515 17.1495 39.631 17.0176 39.4992 16.7971C39.4114 16.6207 39.2795 16.4002 39.1033 16.2241C39.0153 16.136 38.8829 16.0922 38.8391 15.9598C38.8391 15.9598 38.8834 15.9155 38.8393 15.8715C38.7953 15.8274 38.8399 15.6948 38.7958 15.6507L38.752 15.5183C38.708 15.4743 38.7083 15.386 38.6642 15.3419C38.6202 15.2979 38.6648 15.1652 38.6648 15.1652C38.665 15.0769 38.5767 15.0771 38.5769 14.9888C38.5337 14.6797 38.6671 14.3701 38.8443 14.1929C38.9772 14.06 39.0661 13.883 39.2874 13.7499C39.2874 13.7499 39.3314 13.7939 39.3757 13.7496L39.5527 13.6607L39.6851 13.7045C39.7294 13.6602 39.7737 13.6159 39.7737 13.6159C39.818 13.5716 39.9504 13.6154 40.0387 13.6151C40.2154 13.6146 40.4364 13.5698 40.6571 13.6133L40.7455 13.613C40.9219 13.7008 41.0538 13.9213 41.2742 14.0532C41.9375 13.8303 42.2023 13.9179 42.2903 14.006C42.6427 14.3583 42.9502 14.9316 43.3463 15.4164C43.4782 15.6368 43.566 15.8133 43.7422 15.9894C43.8743 16.1216 43.9621 16.298 44.0499 16.4744C44.0494 16.6511 44.1375 16.7392 44.1813 16.8716C44.181 16.9599 44.225 17.004 44.2691 17.048C44.3131 17.0921 44.2688 17.1364 44.2688 17.1364C44.3126 17.2688 44.445 17.3125 44.4888 17.4449C44.4888 17.4449 44.4445 17.4892 44.4885 17.5333C44.5323 17.6657 44.532 17.754 44.6201 17.8421C44.6639 17.9745 44.6636 18.0628 44.7517 18.1509C44.7955 18.2833 44.8838 18.283 44.9276 18.4154C44.9717 18.4595 44.9271 18.5921 44.9271 18.5921C44.9711 18.6361 45.0152 18.6802 45.0592 18.7242C45.1033 18.7683 45.0587 18.9009 45.0587 18.9009C45.1465 19.0774 45.1908 19.033 45.2786 19.2095C45.2786 19.2095 45.2343 19.2538 45.2784 19.2978L45.3224 19.3419C45.3665 19.3859 45.3219 19.5186 45.3219 19.5186C45.4535 19.8274 45.4975 19.8714 45.5416 19.9155C45.6294 20.0919 45.717 20.3567 45.8929 20.6212C45.8929 20.6212 45.8486 20.6655 45.8926 20.7095C45.9807 20.7976 46.0247 20.8416 46.0245 20.93C46.0685 20.974 46.0239 21.1067 46.0239 21.1067C46.0677 21.2391 46.1996 21.4595 46.2874 21.636C46.2872 21.7243 46.2428 21.7686 46.2869 21.8127L46.375 21.9008C46.3747 21.9891 46.4185 22.1215 46.4623 22.2539C46.506 22.3863 46.5941 22.4743 46.6379 22.6067C46.682 22.6508 46.6374 22.7834 46.6374 22.7834L46.7255 22.8715L46.6812 22.9158C46.725 23.0482 46.813 23.1363 46.8128 23.2246C46.8568 23.2687 46.8122 23.4013 46.8122 23.4013C46.8563 23.4454 46.9003 23.4894 46.9444 23.5334C46.9884 23.5775 46.9438 23.7101 46.9438 23.7101C46.9876 23.8425 47.0757 23.9306 47.1195 24.063C47.1195 24.063 47.0752 24.1073 47.1192 24.1513C47.2073 24.2394 47.1627 24.3721 47.2065 24.5045C47.2063 24.5928 47.25 24.7252 47.2941 24.7692C47.3381 24.8133 47.2936 24.9459 47.2933 25.0343L47.3814 25.1224L47.3368 25.255L47.4249 25.3431C47.4246 25.4314 47.3801 25.5641 47.4239 25.6965C47.4676 25.8289 47.4228 26.0499 47.4225 26.1382L47.5106 26.2263C47.4661 26.3589 47.4653 26.624 47.4648 26.8007L47.5528 26.8888L47.5083 27.0214L47.5964 27.1095C47.5961 27.1978 47.5515 27.3305 47.5953 27.4629C47.6388 27.6836 47.594 27.9046 47.6816 28.1694C47.681 28.3461 47.7686 28.6108 47.7678 28.8759C47.7673 29.0526 47.7665 29.3176 47.7219 29.4503C47.6776 29.4946 47.6771 29.6713 47.6768 29.7596C47.6763 29.9363 47.6758 30.113 47.6755 30.2013C47.675 30.378 47.6304 30.5107 47.5859 30.6433C47.5853 30.82 47.6291 30.9524 47.5846 31.0851C47.584 31.2617 47.5395 31.3944 47.4949 31.527C47.4503 31.6597 47.4498 31.8364 47.4496 31.9247C47.3604 32.19 47.1827 32.5439 47.0933 32.8976C47.093 32.9859 47.0487 33.0302 47.0044 33.0745C46.9601 33.1188 47.0042 33.1629 47.0042 33.1629C46.9596 33.2955 46.8712 33.2958 46.871 33.3841C46.8267 33.4284 46.8705 33.5608 46.8705 33.5608C46.8259 33.6935 46.7816 33.7378 46.7373 33.7821C46.6927 33.9147 46.6484 33.959 46.6038 34.0917C46.5595 34.136 46.5593 34.2243 46.5147 34.357C46.4258 34.5339 46.3372 34.6226 46.2927 34.7552C46.2484 34.7995 46.2922 34.9319 46.2922 34.9319C46.2478 34.9762 46.2035 35.0205 46.2035 35.0205C46.0704 35.2418 45.8924 35.684 45.7149 35.9496C45.626 36.1265 45.4491 36.2154 45.3602 36.3924C45.3602 36.3924 45.4042 36.4364 45.3599 36.4807L45.3156 36.525C45.2713 36.5693 45.2711 36.6577 45.2268 36.702C45.0936 36.9232 44.9156 37.3655 44.7381 37.631C44.6049 37.8523 44.4718 38.0735 44.2943 38.3391C44.2054 38.5161 43.8067 38.9148 43.4965 39.2249C43.275 39.4464 43.0532 39.7563 42.8317 39.9778C42.2558 40.5538 41.636 40.9973 41.0598 41.6616C41.0598 41.6616 41.0147 41.971 40.8824 41.9272C40.6616 41.8837 40.4393 42.3702 40.2621 42.5475C40.1735 42.6361 39.9525 42.6809 39.8639 42.7695C39.8196 42.8138 39.731 42.9024 39.6867 42.9467C39.4654 43.0799 39.0226 43.4346 38.7128 43.6564C38.27 44.0111 37.9599 44.3212 37.5171 44.6759C37.4285 44.7645 37.2072 44.8977 37.1629 44.942C37.1629 44.942 37.1189 44.8979 37.0746 44.9422L36.9417 45.0751C36.8533 45.0754 36.7647 45.164 36.6321 45.2086C36.4551 45.2974 36.2781 45.3863 36.1012 45.4752C35.9242 45.5641 35.703 45.6972 35.526 45.7861C35.526 45.7861 35.482 45.7421 35.4377 45.7864C35.3491 45.875 35.261 45.7869 35.1724 45.8755C35.1281 45.9198 34.7744 46.0092 34.5975 46.0981L34.5089 46.1867C34.4205 46.1869 34.1993 46.3201 34.0666 46.3647C33.7573 46.4098 33.2702 46.8088 32.9606 46.9422C32.9163 46.9865 32.9166 46.8982 32.8722 46.9425C32.8279 46.9868 32.7399 46.8987 32.6956 46.943L32.6069 47.0316L32.5629 46.9876L32.4743 47.0762L32.4303 47.0321L32.3416 47.1207L32.2976 47.0767L32.209 47.1653L32.165 47.1212C32.0323 47.1658 31.8997 47.2104 31.767 47.2549C31.7227 47.2993 31.723 47.2109 31.6787 47.2552L31.6344 47.2995C31.546 47.2998 31.4577 47.3 31.3693 47.3003C31.281 47.3006 31.1924 47.3892 31.104 47.3894C31.0157 47.3897 30.9273 47.39 30.839 47.3902C30.7506 47.3905 30.662 47.4791 30.5737 47.4793C30.4853 47.4796 30.397 47.4799 30.3086 47.4801C30.2203 47.4804 30.1317 47.569 30.0433 47.5693C29.955 47.5695 29.8667 47.5698 29.7783 47.5701L29.6897 47.6587C29.469 47.6151 29.2039 47.6159 28.8946 47.661C28.7179 47.6615 28.5852 47.7061 28.4086 47.7066C28.3202 47.7069 28.2319 47.7072 28.1435 47.7074C27.9668 47.7079 27.7899 47.7968 27.6132 47.7973C27.2155 47.8427 26.8621 47.8437 26.5087 47.8448C26.4204 47.845 26.332 47.8453 26.2437 47.8456C26.1553 47.8458 26.0673 47.7577 25.9789 47.758C25.8465 47.7142 25.5812 47.8034 25.4488 47.7596C25.2721 47.7601 25.0514 47.7166 24.919 47.6728C24.7866 47.629 24.654 47.6736 24.5216 47.6298C24.4333 47.6301 24.2568 47.5423 24.1685 47.5425C24.0801 47.5428 23.9475 47.5873 23.9034 47.5433L23.8154 47.4552L23.771 47.4995L23.683 47.4114L23.6387 47.4557C23.5063 47.412 23.3739 47.3682 23.2415 47.3244C23.1975 47.2804 23.1972 47.3687 23.1532 47.3247L23.1091 47.2806C23.0208 47.2809 22.9324 47.2811 22.8441 47.2814L22.756 47.1933C22.6676 47.1936 22.6676 47.1936 22.5793 47.1939C22.491 47.1941 22.4026 47.1944 22.3143 47.1946C22.2259 47.1949 22.1378 47.1068 22.0495 47.1071C22.0054 47.063 22.0052 47.1514 21.9611 47.1073C21.8731 47.0193 21.7404 47.0638 21.6521 47.0641L21.564 46.976L21.5197 47.0203L21.4316 46.9322L21.3873 46.9765L21.2992 46.8884L21.2549 46.9327L21.1668 46.8447L21.1225 46.889L21.0344 46.8009L20.9901 46.8452L20.902 46.7571L20.8577 46.8014L20.7696 46.7133C20.593 46.7138 20.1518 46.5385 19.9313 46.4066L19.8432 46.3185L19.7989 46.3628L19.7108 46.2747C19.6225 46.275 19.3136 46.1434 19.0932 46.0115C18.9167 45.9237 18.6963 45.7918 18.5198 45.704C18.3875 45.6602 18.2553 45.5281 18.1229 45.4843C17.9465 45.3965 17.5056 45.1328 17.197 44.9128C17.1089 44.8248 17.0206 44.825 16.9325 44.7369C16.9325 44.7369 16.8882 44.7812 16.8442 44.7372L16.712 44.6051C16.6237 44.6053 16.5799 44.4729 16.4035 44.3851C16.4035 44.3851 16.3592 44.4294 16.3151 44.3854C16.2711 44.3413 16.183 44.2533 16.139 44.2092C16.139 44.2092 16.0947 44.2535 16.0506 44.2095C16.0066 44.1654 15.9625 44.1214 15.9185 44.0774C15.654 43.9014 15.0812 43.4172 14.7731 43.0206C14.7731 43.0206 14.8174 42.9763 14.7734 42.9323C14.6413 42.8001 14.377 42.5359 14.2452 42.3154C14.2011 42.2714 14.1571 42.2273 14.113 42.1833C14.0252 42.0069 13.6288 41.6105 13.497 41.39C13.4532 41.2576 13.4089 41.3019 13.4091 41.2136C13.4097 41.0369 12.7045 40.5089 12.4843 40.2887C12.3521 40.1566 12.2646 39.8918 12.0884 39.7156C12.0006 39.5392 11.7801 39.4073 11.6483 39.1869C11.6483 39.1869 11.6926 39.1426 11.6485 39.0985C11.6045 39.0545 11.5164 38.9664 11.4723 38.9224C11.4723 38.9224 11.5167 38.878 11.4726 38.834L11.3405 38.7019L11.3848 38.6576C11.2967 38.5695 11.2529 38.4371 11.2089 38.3931C11.033 38.1285 10.7692 37.6876 10.5053 37.335C10.4174 37.1586 10.2853 37.0265 10.0651 36.8062C9.97702 36.7182 9.97728 36.6298 9.93324 36.5858C9.75733 36.3213 9.53712 36.101 9.40526 35.8806C9.40526 35.8806 9.44956 35.8363 9.40552 35.7922C9.27339 35.6601 9.14179 35.3513 9.05397 35.1749C9.01019 35.0425 8.8778 34.9987 8.87807 34.9103C8.87807 34.9103 8.92237 34.866 8.87833 34.822C8.7462 34.6899 8.74672 34.5132 8.70295 34.3808L8.61486 34.2927L8.65917 34.2484L8.57108 34.1603L8.61538 34.116C8.5716 33.9836 8.39544 33.8075 8.3957 33.7191L8.44027 33.5865L8.35218 33.4984L8.39648 33.4541L8.3084 33.366L8.35271 33.3217L8.26462 33.2336L8.30893 33.1893L8.22084 33.1012L8.26515 33.0569L8.17706 32.9688L8.22137 32.9245L8.13328 32.8364C8.17785 32.7038 8.04572 32.5717 7.9579 32.3952L7.86982 32.3072C7.87008 32.2188 7.782 32.1307 7.73822 31.9983C7.73822 31.9983 7.78252 31.954 7.73848 31.91C7.65039 31.8219 7.739 31.7333 7.65092 31.6452C7.56284 31.5571 7.65144 31.4685 7.56336 31.3804C7.51932 31.3364 7.60792 31.2478 7.56388 31.2037L7.4758 31.1157L7.5201 31.0714L7.43202 30.9833C7.43228 30.8949 7.52089 30.8063 7.4328 30.7182L7.38876 30.6742C7.38902 30.5859 7.38929 30.4975 7.38955 30.4092C7.34577 30.2768 7.30199 30.1444 7.25821 30.012C7.21417 29.968 7.30251 29.9677 7.25847 29.9236C7.21443 29.8796 7.30304 29.791 7.25899 29.747C7.21521 29.6146 7.17117 29.5705 7.1717 29.3938C7.17196 29.3055 7.17222 29.2171 7.17248 29.1288C7.17301 28.9521 7.21784 28.7311 7.17406 28.5987L7.08597 28.5106C7.13054 28.378 7.08676 28.2456 7.08728 28.0689C7.08807 27.8039 7.04455 27.5831 7.08964 27.2738C7.0899 27.1855 7.04612 27.0531 7.09069 26.9204C7.09095 26.8321 7.1793 26.8318 7.17956 26.7435C7.22412 26.6108 7.18034 26.4784 7.18061 26.3901C7.18087 26.3017 7.13683 26.2577 7.18113 26.2134C7.18139 26.125 7.27026 25.9481 7.31483 25.8154C7.35939 25.6828 7.35965 25.5944 7.40422 25.4618C7.40448 25.3734 7.40475 25.2851 7.40475 25.2851C7.49388 25.0198 7.5387 24.7988 7.62784 24.5335C7.67214 24.4892 7.58379 24.4895 7.6281 24.4452L7.67266 24.3125C7.71697 24.2682 7.62889 24.1801 7.67319 24.1358C7.67345 24.0475 7.7618 24.0472 7.76206 23.9589C7.80636 23.9146 7.76258 23.7822 7.76258 23.7822C7.85171 23.5169 7.98489 23.2956 8.07402 23.0303C8.11833 22.986 8.16263 22.9417 8.16289 22.8534C8.20719 22.8091 8.16341 22.6767 8.16341 22.6767C8.16368 22.5883 8.25202 22.5881 8.25228 22.4997C8.29659 22.4554 8.25281 22.323 8.25281 22.323C8.29711 22.2787 8.34142 22.2344 8.34142 22.2344C8.38572 22.1901 8.38598 22.1018 8.43055 21.9691C8.47485 21.9248 8.47511 21.8365 8.51942 21.7922C8.56372 21.7479 8.51994 21.6155 8.51994 21.6155C8.56451 21.4828 8.69742 21.3499 8.74173 21.3056C8.74173 21.3056 8.69768 21.2616 8.74199 21.2173C8.87516 20.996 9.0086 20.6864 9.23038 20.3765C9.36381 20.0669 9.54129 19.8014 9.80738 19.4472C10.0292 19.1373 10.4725 18.6059 10.9595 18.2069C11.0038 18.1626 11.0482 18.1183 11.0925 18.074C11.4023 17.8523 12.0223 17.3203 12.4208 17.01C12.5094 16.9213 12.598 16.8327 12.6863 16.8325C12.7307 16.7882 12.7304 16.8765 12.7747 16.8322C12.8633 16.7436 13.1726 16.6985 13.3939 16.5653C13.5709 16.4765 13.7478 16.3876 13.8807 16.2547C14.0577 16.1658 14.1022 16.0332 14.3235 15.9C14.3678 15.8557 14.4118 15.8997 14.4561 15.8554C14.5448 15.7668 14.6777 15.6339 14.766 15.6337C14.766 15.6337 14.8101 15.6777 14.8544 15.6334C14.9873 15.5005 15.385 15.4551 15.6062 15.322C15.7389 15.2774 15.7391 15.189 15.8275 15.1888C15.8718 15.1445 16.0042 15.1883 16.0042 15.1883C16.1811 15.0994 16.4024 14.9662 16.6236 14.833C16.6236 14.833 16.6677 14.8771 16.712 14.8328C16.8446 14.7882 16.8889 14.7439 17.0216 14.6993C17.0659 14.655 17.1542 14.6548 17.1985 14.6105C17.4638 14.5213 17.7291 14.4322 17.9944 14.3431C18.2597 14.2539 18.5693 14.1205 18.8346 14.0314C18.8789 13.9871 18.8787 14.0754 18.923 14.0311L19.0556 13.9865C19.0999 13.9422 19.188 14.0303 19.2323 13.986C19.365 13.9415 19.4976 13.8969 19.586 13.8966C19.8953 13.8515 20.1606 13.7624 20.4259 13.6733C20.5586 13.6287 20.6912 13.5841 20.8239 13.5396C20.8682 13.4953 20.9563 13.5834 21.0006 13.5391C21.0449 13.4947 21.0892 13.4504 21.1775 13.4502C21.2659 13.4499 21.3539 13.538 21.3982 13.4937C21.4866 13.4934 21.4869 13.4051 21.5752 13.4048L21.7076 13.4486C21.7959 13.4483 21.8845 13.3597 21.9729 13.3595C22.0612 13.3592 22.1493 13.4473 22.1936 13.403C22.282 13.4027 22.2822 13.3144 22.3706 13.3141C22.4589 13.3139 22.547 13.4019 22.5913 13.3576C22.6797 13.3574 22.6799 13.269 22.7683 13.2688C23.0333 13.268 23.2983 13.2672 23.6517 13.2662C23.8284 13.2656 23.9611 13.2211 24.0494 13.2208C24.1377 13.2205 24.1375 13.3089 24.2258 13.3086C24.3142 13.3084 24.3585 13.2641 24.4025 13.3081C24.8 13.3511 25.1976 13.3057 25.6834 13.3485C25.8601 13.3479 26.0368 13.3474 26.1692 13.3912C26.2132 13.4352 26.2575 13.3909 26.2575 13.3909C26.3016 13.435 26.3456 13.479 26.434 13.4788L26.5666 13.4342C26.655 13.4339 26.699 13.478 26.8314 13.5218C26.9197 13.5215 26.9638 13.5655 27.0521 13.5653C27.1845 13.6091 27.2729 13.6088 27.4052 13.6526C27.5376 13.6964 27.626 13.6961 27.8464 13.828C27.9788 13.8717 28.0226 14.0041 28.111 14.0039C28.111 14.0039 28.1553 13.9596 28.1993 14.0036C28.3314 14.1357 28.5081 14.1352 28.6405 14.179C29.7434 14.6616 30.9338 15.409 32.0354 16.3334C32.2116 16.5095 32.432 16.6414 32.6082 16.8176C32.7403 16.9497 32.7398 17.1264 32.9603 17.2582C33.0043 17.3023 33.0486 17.258 33.0927 17.302C33.1808 17.3901 33.7528 18.1393 33.8854 18.0948C33.9738 18.0945 33.9735 18.1829 34.1056 18.315C34.766 19.064 35.3823 19.7689 35.91 20.5624C35.9979 20.7389 36.174 20.915 36.3059 21.1355C36.3937 21.3119 36.5699 21.4881 36.7018 21.7086C36.7018 21.7086 36.6574 21.7529 36.7015 21.7969C36.7896 21.885 36.7453 21.9293 36.7893 21.9734C36.8331 22.1057 36.9212 22.1938 36.9652 22.2379C37.009 22.3703 37.0971 22.4583 37.1411 22.5024C37.1411 22.5024 37.0968 22.5467 37.1409 22.5907L37.273 22.7229L37.2287 22.7672C37.3605 22.9876 37.4927 23.1198 37.6245 23.3402C37.6245 23.3402 37.5802 23.3845 37.6243 23.4286C37.7124 23.5167 37.7559 23.7374 37.7997 23.8698C37.8872 24.1346 37.975 24.311 38.0626 24.5758C38.1066 24.6198 38.0183 24.6201 38.0623 24.6641C38.1504 24.7522 38.0618 24.8408 38.1499 24.9289C38.1939 24.9729 38.1053 25.0615 38.1494 25.1056L38.2375 25.1937L38.1932 25.238L38.2812 25.326L38.2369 25.3703L38.325 25.4584L38.2807 25.5027L38.3688 25.5908L38.3245 25.6351L38.4126 25.7232L38.3683 25.7675L38.4564 25.8556C38.4561 25.9439 38.4561 25.9439 38.4558 26.0323C38.4556 26.1206 38.5437 26.2087 38.5434 26.2971C38.5431 26.3854 38.5429 26.4738 38.5426 26.5621C38.5423 26.6504 38.6304 26.7385 38.6302 26.8269C38.6299 26.9152 38.6296 27.0036 38.6294 27.0919L38.7175 27.18C38.6729 27.3126 38.7169 27.3567 38.7607 27.4891C38.8048 27.5331 38.7164 27.5334 38.7605 27.5774L38.8045 27.6215C38.8042 27.7098 38.804 27.7982 38.8037 27.8865C38.8035 27.9748 38.8032 28.0632 38.8472 28.1072C38.8913 28.1513 38.89 28.593 38.8897 28.6814C38.8892 28.858 38.977 29.0345 38.9324 29.1671C38.9322 29.2555 38.9319 29.3438 38.9319 29.3438L38.8433 29.4324C38.843 29.5208 38.9311 29.6089 38.8425 29.6975C38.7539 29.7861 38.886 29.9182 38.7974 30.0068C38.7531 30.0511 38.7526 30.2278 38.7523 30.3161C38.7521 30.4045 38.6637 30.4048 38.6635 30.4931C38.6192 30.5374 38.7072 30.6255 38.7072 30.6255L38.6186 30.7141C38.6616 31.1115 38.3067 31.6426 38.1727 32.1289C38.1725 32.2173 38.2165 32.2613 38.1722 32.3056L38.0836 32.3942L38.1276 32.4383L38.039 32.5269L38.0831 32.5709L37.9945 32.6595C37.9937 32.9246 37.9486 33.2339 37.8149 33.6319L37.7263 33.7205L37.7703 33.7645L37.6817 33.8531C37.6814 33.9415 37.504 34.207 37.4151 34.384L37.3265 34.4726C37.326 34.6493 36.8827 35.1807 36.6611 35.4022C36.5282 35.5351 36.4394 35.7121 36.2621 35.8893C35.9074 36.332 35.4204 36.731 34.9333 37.13C34.4019 37.5733 33.9589 38.0164 33.428 38.283L33.3394 38.3716C33.207 38.3278 32.8085 38.6382 32.5873 38.7714C32.366 38.9046 32.1007 38.9937 31.8795 39.1269C31.8795 39.1269 31.8354 39.0828 31.7911 39.1271C31.7025 39.2157 31.6585 39.1717 31.5699 39.2603C30.7726 39.9694 30.684 40.058 30.5516 40.0143Z" fill="#3B2B15"/>
</svg>
